<?xml version="1.0" encoding="UTF-8" standalone="no"?>
<!DOCTYPE svg  PUBLIC '-//W3C//DTD SVG 1.1//EN'  'http://www.w3.org/Graphics/SVG/1.1/DTD/svg11.dtd'>
<svg xmlns="http://www.w3.org/2000/svg">
<defs>
<font id="LPMillerDailyOne-Italic" horiz-adv-x="600">
<font-face slope="-15" underline-position="-54" font-weight="400" descent="-200" panose-1="2 0 6 3 8 0 0 9 0 4" units-per-em="1000" unicode-range="U+000D-EBA4" bbox="-260 -179 1145 901" x-height="484" underline-thickness="33" font-family="LPMillerDailyOne" ascent="800" font-style="italic" cap-height="669"/>
<missing-glyph horiz-adv-x="1000"/>
<glyph glyph-name=".notdef" horiz-adv-x="1000"/>
<glyph glyph-name=".null" horiz-adv-x="0"/>
<glyph glyph-name=".null" horiz-adv-x="0"/>
<glyph glyph-name="nonmarkingreturn" horiz-adv-x="0" unicode=""/>
<glyph glyph-name="space" horiz-adv-x="263" unicode=" "/>
<glyph glyph-name="exclam" horiz-adv-x="328" unicode="!" d="M120 -8q-25 0 -41.5 15.5t-16.5 38.5t16.5 40.5t41.5 17.5q23 0 39 -17.5t16 -40.5t-16 -38.5t-39 -15.5zM144 202q13 69 24 136t19 124t14 98t9 58q5 23 23 43t43 20q20 0 32 -13.5t12 -38.5q0 -14 -12 -51t-33 -92.5t-49.5 -129t-60.5 -160.5z"/>
<glyph glyph-name="quotedbl" horiz-adv-x="450" unicode='&quot;' d="M124 410q4 43 7 83t6 73t5.5 56.5t5.5 34.5q6 20 20 31.5t35 11.5q26 0 40.5 -15.5t14.5 -38.5q0 -11 -4.5 -26t-21.5 -48q-15 -30 -34.5 -75t-42.5 -95zM314 410q6 43 9.5 83t6.5 73t5 56.5t4 34.5q4 20 19 31.5t36 11.5q28 0 43 -15.5t15 -38.5q0 -11 -6 -26t-20 -48 q-15 -34 -36 -77t-43 -93z"/>
<glyph glyph-name="numbersign" horiz-adv-x="599" unicode="#" d="M365 250l46 155l-152 -38l-45 -152zM160 144l-109 -25l16 60l109 29l45 152l-109 -27l18 63l108 25l53 188h37l-54 -179l152 35l41 144h35l-39 -135l109 24l-15 -59l-109 -27l-46 -152l109 25l-16 -60l-109 -29l-55 -203h-37l55 197l-152 -37l-45 -160h-35z"/>
<glyph glyph-name="dollar" horiz-adv-x="578" unicode="$" d="M259 20h4q81 0 128 38t47 107q0 19 -4.5 36.5t-17 32.5t-34.5 27t-58 20zM379 612h-17q-37 0 -66 -10.5t-49.5 -28t-31.5 -41.5t-11 -51q0 -48 24 -76t84 -44zM217 -7q-41 3 -76 14t-60.5 28t-40 38.5t-14.5 47.5q0 35 19.5 60t54.5 25q18 0 29.5 -11.5t11.5 -28.5 q0 -15 -3 -25t-8 -18t-12 -15l-16 -16q5 -10 12.5 -21t21.5 -21t36 -17.5t55 -10.5l68 265q-89 21 -129.5 58t-40.5 94q0 45 18 82.5t50.5 64t78 41t99.5 14.5h15l14 59h31l-16 -61q77 -8 117.5 -41.5t40.5 -75.5q0 -32 -15.5 -52.5t-41.5 -20.5q-19 0 -31 11t-12 26 q0 24 9 37t26 32q-5 7 -11 16t-17.5 17t-28.5 14t-43 8l-66 -254q81 -20 128 -54.5t47 -102.5q0 -54 -23 -93.5t-60.5 -65t-83.5 -37t-92 -11.5h-8h-1l-39 -149h-29z"/>
<glyph glyph-name="percent" horiz-adv-x="817" unicode="%" d="M607 14q30 0 51 21t35 53t20.5 69.5t6.5 70.5q0 80 -60 80q-29 0 -50 -20.5t-34.5 -52t-20.5 -68.5t-7 -71q0 -42 13.5 -62t45.5 -20zM220 320q30 0 51 21t35 53.5t20.5 70.5t6.5 71q0 38 -15.5 59t-44.5 21t-50 -20.5t-34.5 -52t-20.5 -69.5t-7 -72q0 -40 13.5 -61 t45.5 -21zM597 -11q-55 0 -88 33t-33 90q0 42 15 81t40.5 70t60 49.5t73.5 18.5q56 0 89 -31t33 -91q0 -46 -15.5 -86t-41.5 -70t-60.5 -47t-72.5 -17zM146 -9l551 654l37 -18l-560 -652zM210 298q-55 0 -88 32.5t-33 89.5q0 42 15 81.5t40.5 70t60 49.5t73.5 19 q56 0 89 -31t33 -94q0 -45 -15.5 -84.5t-41.5 -69t-60.5 -46.5t-72.5 -17z"/>
<glyph glyph-name="ampersand" horiz-adv-x="661" unicode="&amp;" d="M218 47q24 0 42 6.5t33.5 17.5t29.5 25l28 28q-21 63 -49 118.5t-64 119.5q-54 -28 -91 -75.5t-37 -116.5q0 -25 5.5 -47t18 -39t33.5 -27t51 -10zM300 413q19 14 36.5 28t31 32t21 40.5t7.5 54.5q0 17 -3.5 33.5t-11 29t-20 20t-30.5 7.5q-23 0 -39 -10.5t-27 -26 t-16 -34.5t-5 -36q0 -41 16.5 -74.5t39.5 -63.5zM173 -13q-36 0 -63.5 12.5t-46 33.5t-27.5 49t-9 59q0 38 16 72t43.5 64t65 55t80.5 44q-12 19 -22 35t-17 31.5t-10.5 32.5t-3.5 38q0 32 12.5 63t35 55t54 39t68.5 15q23 0 44.5 -7t38 -21t26 -34.5t9.5 -46.5 q0 -37 -13.5 -64t-35.5 -48t-50.5 -37.5t-58.5 -32.5q13 -21 26 -46.5t25 -51.5t22.5 -51.5t19.5 -47.5q20 31 40.5 66.5t43 65t46.5 49t51 19.5q32 0 45.5 -19.5t13.5 -41.5q0 -15 -12 -33t-35 -18q-25 0 -36 12.5t-19 29.5q-8 1 -20.5 -10t-29 -31t-36 -48.5t-40.5 -62.5 q8 -23 14 -40t18 -40t31.5 -35.5t55.5 -12.5q14 0 28.5 7t28.5 18t27 24t24 26l12 -12q-14 -21 -34 -42.5t-44 -39.5t-49.5 -29t-50.5 -11q-26 0 -44 11.5t-31.5 29t-23 38t-18.5 37.5q-16 -23 -34 -44t-40 -37t-49.5 -26t-61.5 -10z"/>
<glyph glyph-name="quotesingle" horiz-adv-x="257" unicode="&apos;" d="M123 410q4 43 7 83t6 73t5.5 56.5t5.5 34.5q6 20 20 31.5t35 11.5q26 0 40.5 -15.5t14.5 -38.5q0 -11 -4.5 -26t-21.5 -48q-15 -30 -34.5 -75t-42.5 -95z"/>
<glyph glyph-name="parenleft" horiz-adv-x="337" unicode="(" d="M160 -168q-18 18 -40.5 48.5t-42 69.5t-33 85t-13.5 96q0 90 19.5 163.5t51.5 133.5t72 106.5t80 82t76.5 60t62.5 40.5l31 -8q-25 -17 -60 -43t-72.5 -62t-74.5 -82t-66.5 -102.5t-47.5 -124t-18 -145.5q0 -45 8.5 -91t23.5 -87.5t34.5 -76t41.5 -56.5z"/>
<glyph glyph-name="parenright" horiz-adv-x="337" unicode=")" d="M183 727q18 -18 40.5 -48.5t42 -69.5t33 -85.5t13.5 -95.5q0 -90 -19.5 -163.5t-51.5 -133.5t-72 -106.5t-80 -82t-77 -60t-62 -40.5l-31 8q25 17 60 43t72.5 62t74.5 82t66.5 102.5t47.5 123.5t18 146q0 45 -8.5 91t-23.5 87.5t-34.5 76t-41.5 56.5z"/>
<glyph glyph-name="asterisk" horiz-adv-x="448" unicode="*" d="M336 346q-17 0 -24.5 12t-12 34t-9 53t-14.5 68q-23 -25 -38.5 -48t-28 -40.5t-23.5 -28t-23 -10.5q-14 0 -27 12q-5 4 -7.5 10.5t-2.5 11.5q0 16 11.5 25t31.5 18t46.5 21t57.5 36q-50 21 -88.5 32.5t-52.5 19.5q-15 9 -15 22q0 14 7 26.5t23 12.5q13 0 24.5 -9.5 t25.5 -24.5t33 -34.5t47 -38.5q2 20 2 38.5v41.5v39q0 8 1 17t3 14q3 11 9.5 17.5t20.5 6.5q16 0 24 -8.5t8 -20.5q0 -11 -7.5 -28.5t-17.5 -38t-20 -41.5t-15 -37q25 4 47 10.5t40.5 13.5t33 12t25.5 5t20.5 -9t9.5 -22q0 -14 -7 -24t-21 -10q-19 0 -35 2t-32.5 4.5t-36 5 t-45.5 3.5q15 -30 30 -50.5t28 -36t21 -28t8 -25.5q0 -11 -13 -21q-4 -3 -9 -6.5t-13 -3.5z"/>
<glyph glyph-name="plus" d="M286 232h-207v50h207v210h52v-210h209v-50h-209v-208h-52v208z" unicode="+"/>
<glyph glyph-name="comma" horiz-adv-x="234" unicode="," d="M-19 -135q21 12 42 25.5t39 29.5t32.5 36t21.5 46h-30q-29 0 -39.5 13.5t-10.5 30.5q0 26 19.5 45.5t48.5 19.5q32 0 44.5 -16.5t12.5 -45.5q0 -46 -18.5 -81.5t-45 -61t-55 -42.5t-47.5 -27z"/>
<glyph glyph-name="hyphen" horiz-adv-x="306" unicode="-" d="M43 285h240l-20 -71h-239z"/>
<glyph glyph-name="period" horiz-adv-x="234" unicode="." d="M95 -8q-23 0 -41.5 17.5t-18.5 43.5q0 24 18.5 41.5t41.5 17.5q24 0 41 -17.5t17 -41.5q0 -26 -17 -43.5t-41 -17.5z"/>
<glyph glyph-name="slash" horiz-adv-x="386" unicode="/" d="M-82 -139l485 836l43 -24l-485 -836z"/>
<glyph glyph-name="zero" horiz-adv-x="556" unicode="0" d="M236 14q47 0 87.5 41t70.5 105t47 141.5t17 150.5q0 72 -25.5 115t-75.5 43q-31 0 -60 -19t-54 -52t-45 -76.5t-34 -92.5t-22 -101t-8 -101q0 -72 25 -113t77 -41zM225 -15q-46 0 -80 15.5t-56 43.5t-32.5 66t-10.5 83q0 83 25 163.5t68 143.5t101 101.5t124 38.5 q48 0 82 -16.5t56.5 -45t33 -67.5t10.5 -84q0 -85 -25.5 -165t-69.5 -141.5t-102.5 -98.5t-123.5 -37z"/>
<glyph glyph-name="one" horiz-adv-x="400" unicode="1" d="M26 22q6 0 15.5 1t19.5 2.5t19.5 3.5t14.5 4q16 5 27 15.5t16 30.5l129 473q-8 -3 -14 -4.5t-16 -1.5q-26 0 -47 19t-41 42l13 12q19 -10 38.5 -16.5t51.5 -6.5q21 0 37.5 3.5t30 9.5t26 13.5t25.5 16.5h15q-7 -16 -14.5 -35.5t-14.5 -39.5t-13.5 -40t-11.5 -37 l-109 -395q-2 -8 -4 -15.5t-2 -18.5q0 -14 18 -22q8 -3 25.5 -7.5t29.5 -6.5l-6 -22h-264z"/>
<glyph glyph-name="two" horiz-adv-x="516" unicode="2" d="M-3 29q49 34 83.5 58.5t62.5 46t53.5 45t57.5 55.5q39 40 64 79t39 73t19.5 61.5t5.5 44.5q0 62 -27.5 89.5t-67.5 27.5q-23 0 -43 -7.5t-35.5 -19.5t-25 -26.5t-10.5 -29.5q1 -7 5 -12t8 -11t7 -15t3 -22q0 -8 -2.5 -18.5t-8.5 -19.5t-16.5 -15.5t-27.5 -6.5 q-26 0 -38 21t-12 45q0 22 13.5 51.5t40.5 55.5t67 44t93 18q36 0 66.5 -11t52.5 -31.5t34.5 -49.5t12.5 -65q0 -48 -15.5 -92t-53.5 -89t-102.5 -93t-162.5 -105l-35 -38h217q17 0 33 11t30 26.5t25.5 34t20.5 33.5l16 -4l-87 -168h-365z"/>
<glyph glyph-name="three" horiz-adv-x="515" unicode="3" d="M166 -24q-31 0 -59 7.5t-49.5 24t-34.5 41.5t-13 60q0 19 7 34.5t17.5 26.5t23.5 17t25 6q20 0 32 -11t12 -33q0 -19 -8.5 -29t-19 -17t-19 -13.5t-8.5 -18.5t3.5 -24t14 -21.5t30 -15t50.5 -5.5q40 0 76 19t63 51.5t42.5 74.5t15.5 87q0 38 -15 59.5t-47 21.5 q-23 0 -45 -12t-39 -29l-18 28q41 24 76.5 47.5t62 50t42 57t15.5 68.5q0 39 -17.5 61.5t-65.5 22.5q-21 0 -39 -7.5t-31.5 -17t-21.5 -19t-9 -13.5q0 -6 2.5 -11l6 -12t6.5 -16.5t3 -23.5q0 -7 -2 -17t-7 -19t-15.5 -15t-26.5 -6q-13 0 -22.5 6t-16 14.5t-9.5 18.5t-3 19 q0 24 15.5 50t44 47.5t68.5 36t88 14.5q43 0 70.5 -12t43 -30.5t21.5 -40t6 -39.5q0 -23 -8 -47t-27 -45.5t-50.5 -39.5t-77.5 -29l-36 -20h7q6 0 14.5 1t17 1.5t13.5 0.5q18 0 37.5 -5.5t36 -18.5t27.5 -33.5t11 -51.5q0 -56 -23 -103t-62.5 -81t-91.5 -53t-110 -19z"/>
<glyph glyph-name="four" horiz-adv-x="535" unicode="4" d="M275 245l56 205q8 26 18.5 48.5t17.5 36.5h-11l-298 -290h217zM121 22q14 1 31.5 2t36.5 5q20 4 28.5 18.5t13.5 30.5l39 137h-258l13 38l405 393h29l-106 -401q34 0 59.5 1.5t41.5 12.5q14 11 27.5 37.5t19.5 46.5h22l-62 -232h-17q2 10 3.5 24t1.5 25q0 14 -1 25t-9 18 q-11 9 -33.5 10.5t-60.5 1.5l-32 -123q-2 -7 -3.5 -14t-1.5 -12q0 -11 5 -18.5t13 -11.5q11 -5 29.5 -9t32.5 -5l-6 -22h-266z"/>
<glyph glyph-name="five" horiz-adv-x="486" unicode="5" d="M152 -14q-69 0 -105 32t-36 83q0 31 18.5 48.5t43.5 17.5q18 0 28.5 -10.5t10.5 -29.5q0 -12 -4 -21.5t-8.5 -17.5t-8 -15t-3.5 -14q0 -17 14.5 -31t55.5 -14q30 0 55.5 14t46 37t36 52.5t26 59.5t15.5 58.5t5 49.5q0 39 -18 57.5t-66 18.5q-13 0 -31 -5t-37 -15 t-36.5 -25.5t-29.5 -35.5l-29 6l146 351h20q8 -15 34 -26.5t83 -11.5q25 0 44 2.5t35 8.5t31 15.5t32 22.5l8 -13q-34 -48 -76 -71.5t-80.5 -32.5t-66.5 -9h-34q-34 0 -49 6l-71 -179q27 17 62.5 29t70.5 12q60 0 98.5 -33.5t38.5 -100.5q0 -62 -24 -112t-62.5 -85 t-86.5 -54t-96 -19z"/>
<glyph glyph-name="six" horiz-adv-x="525" unicode="6" d="M209 5q42 0 74.5 26.5t54.5 67t33 88.5t11 92q0 51 -21 75.5t-69 24.5q-22 0 -50 -15t-53 -46t-42 -79t-17 -114q0 -60 23 -90t56 -30zM202 -24q-65 0 -103.5 47t-38.5 137q0 59 15.5 118.5t43 115t64.5 103.5t80.5 84t90.5 56.5t94 20.5q33 0 53 -9.5t31.5 -23.5 t15.5 -30t4 -29q0 -27 -11.5 -43t-36.5 -16q-17 0 -24 9t-11 22.5t-7 29.5t-11 30q-5 10 -13.5 16.5t-35.5 6.5q-32 0 -62.5 -20.5t-59 -57t-54.5 -86.5t-48 -109l5 -4q13 14 29.5 27.5t37 24t45.5 17t57 6.5q50 0 83.5 -40t33.5 -109q0 -45 -16.5 -96.5t-49.5 -95.5 t-83.5 -73t-117.5 -29z"/>
<glyph glyph-name="seven" horiz-adv-x="442" unicode="7" d="M142 -41q-18 0 -28.5 10t-10.5 35q0 20 12 53.5t33 75.5t49.5 89t61.5 94q46 68 85 125t85 114h-217q-26 0 -47.5 -14t-38 -33.5t-29 -40t-19.5 -34.5l-19 3l108 252h18l-3 -57h334l-2 -11q-26 -32 -48 -60.5t-42.5 -58t-40.5 -62t-43 -72.5q-41 -71 -73 -148t-53 -177 q-9 -39 -25.5 -61t-46.5 -22z"/>
<glyph glyph-name="eight" horiz-adv-x="540" unicode="8" d="M231 7q34 0 65 11t55 30.5t38 47t14 61.5q0 37 -11 59.5t-32.5 37t-55 24t-78.5 20.5q-21 -10 -42 -29t-37.5 -44t-26.5 -53.5t-10 -56.5q0 -50 28.5 -79t92.5 -29zM355 339q25 10 45 28.5t34.5 41.5t22 49.5t7.5 53.5q0 42 -29 68t-80 26q-32 0 -59.5 -10.5t-47 -28.5 t-30.5 -43.5t-11 -55.5q0 -32 7.5 -52t24.5 -33.5t45.5 -23.5t70.5 -20zM218 -24q-39 0 -71.5 10.5t-55.5 28.5t-36 42.5t-13 52.5q0 37 16.5 70t40.5 58.5t51.5 43t48.5 24.5v7q-38 22 -54 49t-16 65q0 45 19.5 83.5t52 67t73.5 44.5t85 16q76 0 120 -34.5t44 -94.5 q0 -21 -9.5 -46t-27.5 -49t-44 -45.5t-58 -34.5v-9q17 -7 34.5 -17.5t31 -26t22 -36t8.5 -47.5q0 -53 -24 -94t-61.5 -69.5t-84.5 -43.5t-92 -15z"/>
<glyph glyph-name="nine" horiz-adv-x="525" unicode="9" d="M266 235q29 0 57.5 19.5t51 53t36 78.5t13.5 97q0 128 -79 128q-44 0 -75.5 -29.5t-52 -71.5t-30.5 -88t-10 -78q0 -27 3.5 -47.5t13.5 -34t27.5 -20.5t44.5 -7zM106 -51q-53 0 -78.5 27.5t-25.5 69.5q0 20 11 35t34 15q17 0 25 -8t12.5 -20.5t7 -27t7.5 -27.5 q6 -15 15.5 -21.5t37.5 -6.5q34 0 66 22.5t60.5 60.5t54 89.5t46.5 109.5l-5 5q-38 -40 -76.5 -58t-87.5 -18q-53 0 -87 39.5t-34 110.5q0 40 15.5 91t48.5 96.5t83.5 76.5t120.5 31q65 0 103.5 -43.5t38.5 -135.5q0 -59 -15 -119.5t-41.5 -117.5t-63 -107.5t-80.5 -88 t-93 -59t-100 -21.5z"/>
<glyph glyph-name="colon" horiz-adv-x="293" unicode=":" d="M93 -7q-23 0 -40.5 17t-17.5 43q0 24 17.5 41.5t40.5 17.5t41.5 -17.5t18.5 -41.5q0 -26 -18.5 -43t-41.5 -17zM178 337q-23 0 -41 17t-18 42q0 26 18 42.5t41 16.5t41.5 -16.5t18.5 -42.5q0 -25 -18.5 -42t-41.5 -17z"/>
<glyph glyph-name="semicolon" horiz-adv-x="293" unicode=";" d="M-18 -135q21 12 42 25.5t39 29.5t32 36t20 46h-27q-29 0 -39.5 13.5t-10.5 30.5q0 26 19.5 45.5t48.5 19.5q30 0 43.5 -16.5t13.5 -45.5q0 -46 -19 -81.5t-46 -61t-56 -42.5t-49 -27zM178 337q-23 0 -41 17t-18 42q0 26 18 42.5t41 16.5t41.5 -16.5t18.5 -42.5 q0 -25 -18.5 -42t-41.5 -17z"/>
<glyph glyph-name="less" d="M96 235v47l426 201v-54l-368 -171l368 -168v-55z" unicode="&lt;"/>
<glyph glyph-name="equal" d="M113 197h424v-54h-424v54zM113 370h424v-48h-424v48z" unicode="="/>
<glyph glyph-name="greater" d="M103 90l368 168l-368 171v54l426 -201v-47l-426 -200v55z" unicode="&gt;"/>
<glyph glyph-name="question" horiz-adv-x="400" unicode="?" d="M142 -8q-23 0 -39.5 15.5t-16.5 38.5t16.5 40.5t39.5 17.5t40 -17.5t17 -40.5t-17 -38.5t-40 -15.5zM208 159q-38 0 -64.5 26t-26.5 78q0 26 8.5 46t26 37t44 32.5t62.5 32.5q39 18 62 35t36 34t17 36t4 40q0 19 -7 36.5t-22 31.5t-37 22.5t-52 8.5q-50 0 -71 -28.5 t-21 -67.5v-8t2 -10h4q8 17 20 26.5t29 9.5t28 -10t11 -26q0 -26 -16.5 -41t-42.5 -15t-46.5 21t-20.5 59q0 23 10.5 44.5t29 38t45 26t58.5 9.5q37 0 68 -12t53.5 -32t34.5 -47t12 -58q0 -49 -27 -92t-96 -72q-30 -13 -58.5 -26.5t-51.5 -30t-37 -36.5t-14 -45 q0 -29 15.5 -39t33.5 -10q14 0 25.5 6.5t20 16t15.5 22t12 24.5l23 -12q-16 -34 -42.5 -57.5t-56.5 -23.5z"/>
<glyph glyph-name="at" horiz-adv-x="949" unicode="@" d="M410 85q19 0 36.5 8t32.5 21t27.5 29.5t23.5 32.5l67 168q-3 41 -19 59t-47 18q-32 0 -61 -25.5t-51 -63.5t-35 -83.5t-13 -84.5q0 -47 12 -63t27 -16zM462 -161q-69 0 -133 21.5t-113.5 64t-79 106t-29.5 148.5t33.5 166.5t93.5 145.5t143.5 103t184.5 39 q71 0 123.5 -22t87 -59.5t51.5 -86.5t17 -103q0 -63 -17 -120t-47.5 -101t-72.5 -70t-93 -26q-45 0 -66 19.5t-25 70.5q-11 -19 -26 -35.5t-31.5 -29t-34 -20t-33.5 -7.5q-21 0 -39.5 6.5t-33 21.5t-23 38.5t-8.5 57.5t17 82.5t49.5 93.5t78.5 76.5t105 31.5q28 0 47.5 -19 t21.5 -48l26 61h73l-110 -266q-5 -12 -10 -30t-5 -28q0 -26 10 -37t29 -11q31 0 63.5 23t59.5 62.5t44 92.5t17 113q0 50 -16.5 93.5t-48.5 76t-79 51t-108 18.5q-72 0 -139.5 -31.5t-120 -87.5t-84 -133.5t-31.5 -168.5q0 -73 23 -128.5t62 -93.5t90.5 -57.5t108.5 -19.5 q116 0 203 44.5t141 131.5l19 -13q-58 -101 -152.5 -154t-212.5 -53z"/>
<glyph glyph-name="A" horiz-adv-x="641" unicode="A" d="M425 273v278l-205 -278h205zM-88 22q13 1 31 6t31 12q20 11 34.5 22.5t32.5 34.5l441 582h30v-598q0 -17 6 -28t23 -19q10 -5 24 -8t27 -4l-6 -22h-272l6 22q12 1 28.5 3t31.5 5t26 7.5t14 9.5q3 6 4 12.5t1 11.5v172h-229l-71 -100q-19 -27 -35 -51t-16 -37 q0 -10 12 -16t28.5 -9.5t34.5 -5t29 -2.5l-6 -22h-266z"/>
<glyph glyph-name="B" horiz-adv-x="612" unicode="B" d="M275 27q48 0 82.5 20t56.5 50t32.5 64.5t10.5 64.5q0 50 -32 82t-96 32h-19t-25 -0.5t-24 -1t-16 -0.5l-66 -248q-2 -10 -2 -23q0 -18 26.5 -29t71.5 -11zM332 367q45 0 77.5 15.5t53 41.5t30 60t9.5 70q0 26 -7.5 43t-20.5 27.5t-29.5 14.5t-35.5 4q-14 0 -35.5 -1 t-38.5 -4l-81 -271h78zM-25 22q6 0 16.5 1t21 2.5t20.5 3.5t15 4q17 5 26.5 18.5t14.5 29.5l135 490q2 6 3 14.5t1 14.5q0 10 -3.5 18t-15.5 13q-14 6 -31 10t-30 5l8 23h303q24 0 49 -6.5t46 -20t34.5 -35t13.5 -51.5q0 -42 -14.5 -73.5t-41.5 -55.5t-64 -40.5t-82 -27.5 v-5q19 -3 46 -12t52 -26t42 -43t17 -63q0 -56 -28 -95.5t-68 -65t-84.5 -37.5t-77.5 -12h-330z"/>
<glyph glyph-name="C" horiz-adv-x="592" unicode="C" d="M289 -13q-55 0 -99 17.5t-74.5 50.5t-46.5 79.5t-16 104.5q0 85 28 165t79 141.5t122 98.5t157 37q20 0 40.5 -5t38.5 -13t32 -18t21 -21l40 55h31l-46 -243h-28q-4 39 -14 77.5t-29 69t-48.5 49.5t-72.5 19q-57 0 -103.5 -36t-79.5 -92.5t-51 -125t-18 -133.5 q0 -50 12 -91.5t35 -71.5t55 -46.5t73 -16.5q42 0 74 11t57.5 30t46 45t38.5 56l21 -16q-20 -32 -45 -63.5t-58 -56.5t-75.5 -41t-96.5 -16z"/>
<glyph glyph-name="D" horiz-adv-x="705" unicode="D" d="M289 28q76 0 133 32.5t94.5 86.5t56 125t18.5 148q0 50 -12.5 91t-37 70t-60.5 45t-84 16q-17 0 -35 -0.5t-33 -1.5l-146 -533q-3 -14 -3 -27q0 -21 27 -36.5t82 -15.5zM-24 22q7 0 17.5 0.5t21 1.5t19.5 2t14 3q18 6 26.5 19t13.5 30l137 496q2 5 3 12.5t1 12.5 q0 11 -3.5 18.5t-15.5 13.5q-15 8 -32.5 11t-29.5 4l9 23h266q39 0 86 -12t87.5 -40.5t68 -77t27.5 -120.5q0 -104 -38.5 -182.5t-100 -131t-138.5 -79t-154 -26.5h-291z"/>
<glyph glyph-name="E" horiz-adv-x="609" unicode="E" d="M-29 22q6 0 17 1t22.5 2.5t22 3.5t15.5 4q19 6 27.5 18t13.5 29l136 494q2 7 3.5 14t1.5 12q0 10 -4 15.5t-17 13.5q-12 6 -34.5 11t-34.5 6l8 23h493l-40 -150h-30v10q0 15 -4 33t-12 34t-19.5 28t-26.5 14q-17 2 -38 3.5t-44 1.5h-98l-77 -283h73q21 0 35 3t23.5 7.5 t16 9.5t11.5 9q7 6 15 16t15 22.5t13 25t9 22.5h33l-75 -260h-30q2 9 2.5 21t0.5 26t-0.5 25t-4.5 17q-4 7 -8.5 12.5t-12 9.5t-19.5 6t-32 2h-73l-58 -220q-8 -29 -8 -49q0 -23 20.5 -29.5t71.5 -6.5q20 -1 42 -1h11q17 0 33 2q22 2 40 6t29 13q13 11 30 29.5t33.5 38 t30 38t20.5 29.5h27l-62 -184h-539z"/>
<glyph glyph-name="F" horiz-adv-x="557" unicode="F" d="M-30 22q7 0 17.5 0.5t21.5 1.5t21 2.5t16 3.5q19 8 28 19t14 28l137 497q2 5 2.5 13t0.5 14q0 8 -4 14.5t-16 13.5q-6 3 -15 5.5t-19 5t-19.5 4.5t-15.5 2l8 23h501l-44 -158h-31v9q0 17 -3.5 36.5t-10.5 36.5t-18 29.5t-26 14.5q-17 2 -39 3.5t-46 1.5h-101l-79 -290h73 q38 0 58 10t34 21q10 9 25.5 33t25.5 50h30l-72 -262h-29q2 9 3.5 22t1.5 25q0 14 -1.5 25.5t-6.5 18.5q-8 11 -23.5 20.5t-52.5 9.5h-72l-67 -234q-2 -6 -3.5 -15t-1.5 -14q0 -9 4 -14.5t18 -11.5q9 -4 30.5 -8.5t33.5 -5.5l-6 -22h-288z"/>
<glyph glyph-name="G" horiz-adv-x="674" unicode="G" d="M483 40q-43 -20 -95.5 -36.5t-120.5 -16.5q-42 0 -81 17t-68.5 50t-47.5 80.5t-18 109.5q0 83 31 162t85.5 140t129 98t160.5 37q21 0 42 -4.5t40 -11.5t34.5 -17t23.5 -20l40 51h28l-44 -238h-28q-5 39 -16 76.5t-32 67.5t-52.5 48t-76.5 18q-61 0 -110 -38t-83.5 -97 t-53 -130.5t-18.5 -138.5q0 -50 11 -92t31 -72t49.5 -47t67.5 -17q75 0 117.5 34.5t56.5 85.5l14 52q4 16 4 27q0 33 -24 43q-6 2 -17.5 4t-25 3t-25.5 1.5t-19 0.5l7 25h293l-5 -22q-6 0 -16 -1.5t-19.5 -3t-18 -4t-11.5 -3.5q-24 -11 -31.5 -22.5t-11.5 -33.5l-49 -222 l-18 -3z"/>
<glyph glyph-name="H" horiz-adv-x="764" unicode="H" d="M-21 22q6 0 16 0.5t20 1.5t18.5 2t13.5 3q18 7 27 19.5t14 29.5l137 495q2 8 3 15.5t1 13.5q0 9 -4.5 15t-15.5 13q-9 5 -28.5 10t-32.5 6l8 23h276l-6 -23q-12 -1 -32.5 -2t-37.5 -7q-18 -6 -27.5 -19.5t-14.5 -29.5l-61 -223h311l58 208q2 8 3 16.5t1 12.5q0 10 -4 16 t-16 12q-11 5 -30.5 10t-32.5 6l6 23h278l-6 -23q-6 0 -15.5 -1t-19.5 -2t-18.5 -2.5t-14.5 -3.5q-20 -8 -28.5 -20.5t-13.5 -28.5l-137 -497q-2 -6 -3.5 -15t-1.5 -14q0 -8 4.5 -14.5t16.5 -12.5q9 -5 29 -8.5t33 -4.5l-8 -22h-276l6 22q6 0 16 0.5t20.5 1.5t19.5 2t14 3 q18 7 27 19.5t14 29.5l70 256h-311l-67 -243q-1 -4 -2.5 -13t-1.5 -14q0 -8 4 -16t16 -13q3 -2 11.5 -4t18 -4t19 -3.5t15.5 -1.5l-6 -22h-278z"/>
<glyph glyph-name="I" horiz-adv-x="371" unicode="I" d="M-21 22q6 0 15.5 0.5t20 1t19.5 1.5t15 4q18 8 27 19t14 26l138 499q2 7 3.5 14.5t1.5 14.5q0 17 -21 28q-11 6 -31.5 11t-32.5 5l8 23h280l-6 -23q-13 0 -35 -2.5t-37 -7.5q-19 -7 -26.5 -19.5t-12.5 -28.5l-139 -496q-2 -5 -2.5 -13.5t-0.5 -13.5q0 -11 3.5 -18 t15.5 -12q4 -2 12 -4t17 -4t18 -3.5t15 -1.5l-6 -22h-279z"/>
<glyph glyph-name="J" horiz-adv-x="455" unicode="J" d="M72 -17q-35 0 -56 10t-33 24.5t-16 32t-4 32.5q0 26 18 46.5t47 20.5q26 0 39.5 -17.5t13.5 -41.5q0 -19 -11 -37.5t-33 -29.5v-6q4 -2 9 -5.5t19 -3.5q43 0 70.5 15.5t44.5 42t27.5 62.5t21.5 77l97 368q2 8 3 16.5t1 12.5q0 9 -4.5 16t-16.5 12q-15 7 -37 11t-36 5 l6 23h293l-6 -23q-6 0 -16 -1t-20.5 -2t-20 -2.5t-15.5 -3.5q-20 -7 -27.5 -19.5t-11.5 -29.5l-109 -411q-7 -27 -24 -60.5t-46 -63.5t-70.5 -50t-96.5 -20z"/>
<glyph glyph-name="K" horiz-adv-x="673" unicode="K" d="M-21 22q6 0 15.5 1t19.5 1.5t19 1.5t13 3q20 8 28.5 20t13.5 29l137 496q2 7 3.5 16.5t1.5 14.5q0 9 -4.5 14.5t-17.5 10.5q-4 1 -11.5 3.5t-16.5 5t-17.5 4.5t-14.5 3l8 23h276l-6 -23q-13 -1 -35 -2.5t-36 -7.5q-19 -7 -27.5 -19t-13.5 -29l-68 -248h8q34 23 71 50 t72 55t65 55t51 49q20 20 37.5 41t17.5 35q0 5 -7.5 9t-18.5 6t-25 3.5t-27 2.5l5 23h264l-4 -23q-12 0 -28.5 -2t-35 -6.5t-36 -12t-30.5 -19.5q-39 -35 -70 -63.5t-62 -56t-65 -55.5t-78 -61q27 -38 49 -72t41.5 -66t38.5 -65t40 -70q12 -22 26 -34.5t37 -24.5 q12 -6 30 -10.5t31 -5.5l-4 -22h-317l4 22q15 1 34 3t35.5 5.5t28 10t11.5 15.5q0 11 -12.5 39.5t-28.5 55.5q-13 23 -29.5 49t-33 51t-31.5 46l-25 35h-31l-67 -241q-2 -4 -3 -12.5t-1 -13.5q0 -8 4 -16t16 -13q9 -4 29.5 -8.5t33.5 -5.5l-8 -22h-275z"/>
<glyph glyph-name="L" horiz-adv-x="575" unicode="L" d="M-22 22q12 1 34.5 3.5t34.5 6.5q19 6 28 19t14 30l135 489q2 5 3.5 14.5t1.5 15.5q0 8 -5 16t-16 13q-12 5 -30.5 10.5t-32.5 6.5l6 23h281l-6 -23q-13 -1 -35.5 -4t-36.5 -8q-20 -5 -28 -19.5t-13 -30.5l-127 -470q-5 -15 -7.5 -29t-2.5 -22q0 -11 4.5 -18t15 -11.5 t28.5 -6t46 -1.5q18 0 38.5 1t39 4t34 7.5t23.5 11.5q12 10 28.5 28.5t34 38.5t32.5 39.5t23 32.5h30l-67 -189h-515z"/>
<glyph glyph-name="M" horiz-adv-x="878" unicode="M" d="M-46 22q6 1 17.5 2.5t25 4t27 6.5t24.5 10q19 11 35 41.5t31 90.5l97 367q2 11 4.5 21.5t2.5 18.5q0 16 -4 24t-11 15q-11 11 -33.5 16t-42.5 7l6 23h219l52 -515l279 432q7 12 14 24.5t12.5 24.5t10 21l6.5 13h219l-8 -23q-14 -1 -34.5 -2.5t-37.5 -6.5 q-18 -6 -27.5 -18.5t-14.5 -29.5l-133 -497q-2 -7 -3 -16t-1 -13q0 -11 4 -17t16 -11q9 -4 30 -7.5t34 -5.5l-6 -22h-297l8 22q6 0 17.5 1t24.5 2.5t25 3.5t17 4q20 7 30 19t15 30l144 539l-403 -610h-13q-2 28 -4 65.5t-5 69.5l-49 490l-122 -454q-8 -28 -10.5 -52 t-2.5 -38q0 -15 3 -26.5t11 -18.5q5 -5 16 -9t23 -7.5t23.5 -6t17.5 -2.5l-6 -22h-281z"/>
<glyph glyph-name="N" horiz-adv-x="738" unicode="N" d="M255 565l-102 -383q-15 -56 -15 -90q0 -14 4 -24t10 -16t17.5 -11t25 -9t26 -7t19.5 -3l-6 -22h-288l8 22q7 0 21 3t29 6.5t27.5 7.5t17.5 7q11 7 19 17.5t15 26t14 37t15 51.5l97 356q2 10 5 21.5t3 19.5q0 16 -4.5 22.5t-14.5 16.5q-18 17 -42 24t-44 8l8 23h185 l227 -526l90 347q8 30 13.5 55.5t5.5 37.5q0 13 -3.5 22.5t-8.5 12.5q-9 7 -21 12t-24.5 8.5t-24 5.5t-18.5 2l6 23h281l-6 -23q-6 0 -18 -3t-25.5 -6.5t-26 -7.5t-19.5 -6q-23 -11 -38.5 -41t-30.5 -87l-132 -501h-28z"/>
<glyph glyph-name="O" horiz-adv-x="690" unicode="O" d="M303 16q63 0 113.5 37t86 98t54 138.5t18.5 157.5q0 42 -7.5 79.5t-25 66t-46.5 45t-72 16.5q-59 0 -109.5 -34.5t-87.5 -93t-57.5 -136.5t-20.5 -165q0 -46 8.5 -84.5t27 -66t48 -43t70.5 -15.5zM292 -14q-54 0 -98 19.5t-75.5 54t-49 82.5t-17.5 105q0 91 31 170.5 t83.5 138.5t121 93t144.5 34q48 0 92 -17t77.5 -50.5t53 -83t19.5 -114.5q0 -81 -28 -158.5t-79 -138.5t-121 -98t-154 -37z"/>
<glyph glyph-name="P" horiz-adv-x="574" unicode="P" d="M299 331q53 0 90 16.5t60.5 44.5t34 63.5t10.5 73.5q0 22 -5.5 42t-18.5 36t-34.5 25.5t-53.5 9.5h-53l-85 -311h55zM-23 22q6 0 16 1t20.5 2.5t19.5 2.5t14 3q20 6 28 18.5t13 29.5l138 497q2 8 4 17t2 17q0 9 -4.5 15.5t-17.5 10.5q-14 5 -33.5 7t-31.5 3l6 23h285 q33 0 62 -9.5t51 -27t35 -42.5t13 -56q0 -58 -27.5 -101.5t-69.5 -72t-92.5 -42.5t-95.5 -14h-76l-60 -214q-2 -5 -3.5 -14.5t-1.5 -13.5q0 -21 21 -31q4 -2 12.5 -3.5t19 -2.5l21 -2t19.5 -1l-8 -22h-285z"/>
<glyph glyph-name="Q" horiz-adv-x="713" unicode="Q" d="M303 15q21 0 41 3t38 11q5 23 5 40q0 59 -24 82t-65 23q-9 0 -23 -4t-29.5 -15t-31.5 -30.5t-28 -50.5q18 -26 47 -42.5t70 -16.5zM456 82q31 30 54 71t38.5 88.5t23 99.5t7.5 106q0 42 -8 79.5t-26.5 66t-48 45t-72.5 16.5q-59 0 -110 -34.5t-88 -93t-58 -136.5 t-21 -165q0 -77 26 -131q18 35 38.5 58t42.5 37t44.5 20t43.5 6q26 0 47 -10.5t35.5 -29t22.5 -42.5t9 -51zM513 -142q-22 0 -44 5.5t-40 21.5t-30 43.5t-13 71.5q-22 -6 -46 -10t-48 -4q-54 0 -98 19.5t-75.5 54.5t-49 82.5t-17.5 104.5q0 91 31 170.5t83.5 138.5t121 93 t144.5 34q48 0 92 -17t77.5 -50.5t53 -83t19.5 -114.5q0 -58 -15.5 -115t-43.5 -108t-67.5 -94t-88.5 -71q1 -39 13.5 -62t30.5 -35t39 -15.5t39 -3.5q17 0 34 8.5t31.5 21.5t26 27.5t18.5 25.5l20 -19q-10 -15 -28.5 -35.5t-44 -39.5t-57.5 -32t-68 -13z"/>
<glyph glyph-name="R" horiz-adv-x="652" unicode="R" d="M316 351q41 0 75.5 14.5t59.5 40t39 61.5t14 78q0 50 -29 73.5t-77 23.5h-69l-78 -291h65zM-23 22q13 1 32 3.5t38 5.5t27.5 17t13.5 31l138 498q2 8 3.5 18.5t1.5 18.5t-4.5 13.5t-16.5 8.5q-19 5 -35 7t-29 3l6 23h295q29 0 57.5 -7.5t51 -23t36 -39t13.5 -54.5 q0 -44 -15 -77t-43 -57t-67.5 -40.5t-88.5 -29.5v-5q40 -7 72.5 -41.5t41.5 -91.5q2 -15 5 -32.5t5 -34t4 -29.5t2 -19q2 -19 7.5 -30.5t12.5 -17.5t15 -8.5t15 -3.5q14 -2 28 -3.5t19 -2.5l-6 -22h-177v30q0 42 -4.5 81.5t-9.5 78.5q-7 59 -40 96.5t-87 37.5h-52l-66 -235 q-2 -7 -3.5 -16t-1.5 -12q0 -11 4.5 -18t17.5 -12q4 -2 12.5 -3.5t18.5 -2.5t19.5 -2t15.5 -1l-6 -22h-282z"/>
<glyph glyph-name="S" horiz-adv-x="525" unicode="S" d="M222 -12q-60 0 -98 18t-57 36l-39 -51h-28l43 232h28q7 -38 20 -74.5t33.5 -65t49 -46t67.5 -17.5q72 0 111 40t39 108q0 39 -20.5 68t-55.5 46q-27 14 -60.5 30.5t-59.5 28.5q-85 38 -85 139q0 42 17.5 78.5t48.5 63.5t72.5 42.5t88.5 15.5q19 0 38.5 -5t37 -13 t32.5 -17.5t24 -19.5l41 53h29l-43 -222h-27q-8 42 -18.5 77t-27.5 60.5t-43.5 40t-66.5 14.5q-23 0 -45 -8.5t-40 -25t-29 -40.5t-11 -54q0 -38 13 -62.5t52 -45.5q29 -16 55.5 -29t58.5 -29q47 -23 76.5 -56t29.5 -89q0 -52 -21 -93t-56 -69.5t-80 -43.5t-94 -15z"/>
<glyph glyph-name="T" horiz-adv-x="583" unicode="T" d="M78 22q6 0 17.5 1.5t24 3t23 3t15.5 3.5q19 6 27.5 19t13.5 30l154 563h-31q-14 0 -34 -1.5t-39 -3.5q-15 -2 -36 -18t-42 -37.5t-38.5 -44.5t-26.5 -39h-26l46 168h557l-48 -168h-27v6q0 20 -3.5 42.5t-11 42t-18.5 33t-26 15.5q-16 2 -39.5 3.5t-40.5 1.5h-31 l-150 -549q-1 -4 -2.5 -12.5t-1.5 -15.5q0 -10 4 -17.5t16 -13.5q3 -2 12 -4t20 -4.5t21.5 -4.5t16.5 -2l-6 -22h-296z"/>
<glyph glyph-name="U" horiz-adv-x="724" unicode="U" d="M303 -14q-51 0 -90 12.5t-65 33t-39 46.5t-13 54q0 14 4 32.5t10 41.5l101 368q2 10 4 18.5t2 13.5q0 8 -3.5 13.5t-13.5 11.5q-13 7 -31.5 10.5t-32.5 4.5l6 23h282l-6 -23q-14 -1 -35.5 -3t-38.5 -7q-20 -6 -28 -19t-13 -30l-110 -388q-3 -10 -6.5 -24.5t-3.5 -33.5 q0 -20 7 -39.5t24 -34.5t45 -24.5t69 -9.5q58 0 96 18t62 43.5t36 54.5t18 50l82 293q6 23 9.5 48.5t3.5 41.5q0 14 -2 21.5t-10 15.5q-8 7 -19.5 12.5t-23.5 8.5t-24 4.5t-21 1.5l8 23h285l-8 -23q-6 0 -17 -2t-24 -5t-27 -7t-25 -8q-21 -8 -36 -42t-29 -85l-85 -304 q-17 -61 -48.5 -101t-69.5 -63.5t-79 -33t-77 -9.5z"/>
<glyph glyph-name="V" horiz-adv-x="641" unicode="V" d="M167 583q0 18 -5.5 29t-19.5 20q-11 7 -27.5 10t-29.5 4l8 23h276l-8 -23q-13 0 -29.5 -1.5t-31.5 -4.5t-27 -8t-15 -12q-5 -10 -5 -33v-468l300 406q20 27 34.5 52.5t14.5 34.5t-9.5 15.5t-24 10.5t-31.5 6t-32 2l8 23h257l-5 -23q-14 -2 -28 -6t-31 -11 q-23 -10 -37 -23.5t-30 -33.5l-442 -582h-30v593z"/>
<glyph glyph-name="W" horiz-adv-x="916" unicode="W" d="M167 583q0 16 -4.5 28t-18.5 20q-12 8 -26.5 11t-28.5 4l6 23h265l-6 -23q-12 0 -28 -1.5t-30 -4.5t-25 -7.5t-14 -10.5q-2 -3 -3 -8t-1 -16v-450l250 400q10 17 10 34q0 19 -6 30.5t-17 18.5q-10 8 -31 11t-35 4l6 23h273l-6 -23q-12 0 -27.5 -1t-30 -4t-25 -7.5 t-13.5 -11.5q-4 -8 -4 -21v-455l236 380q7 11 14.5 24t13 25t9 21.5t3.5 12.5q0 10 -9 17t-23 11.5t-30.5 6.5t-31.5 2l8 23h250l-6 -23q-14 -1 -31 -6t-31 -12q-20 -11 -32 -21t-26 -32l-370 -583h-29v513l-320 -513h-25v591z"/>
<glyph glyph-name="X" horiz-adv-x="652" unicode="X" d="M-66 22q13 1 28.5 4t29.5 8q16 6 27.5 12.5t21 14t18.5 16t20 19.5q54 51 109.5 110.5t115.5 128.5q-12 31 -23 59.5t-22 57.5t-23.5 59.5t-27.5 65.5q-9 22 -19 34.5t-29 24.5q-11 7 -28 8t-29 2l5 23h306l-6 -23q-14 0 -33 -1t-36 -4.5t-29 -9.5t-12 -16q0 -8 1 -19.5 t11 -36.5q6 -15 13.5 -35t15.5 -42t16.5 -45t17.5 -44q19 19 40 40.5t40.5 43t37 42t31.5 36.5q20 23 35 42t15 26t-7.5 11t-20 6t-27.5 3.5t-30 2.5l5 23h251l-5 -23q-13 -1 -29.5 -3t-30.5 -7q-31 -11 -49 -27.5t-37 -35.5q-27 -26 -55 -55t-54 -57.5t-50.5 -55 t-44.5 -48.5q12 -31 25.5 -67t28 -71.5t27.5 -68.5t24 -58q4 -11 7.5 -19.5t8.5 -15.5t12.5 -12.5t19.5 -10.5q9 -4 27 -7.5t30 -4.5l-5 -22h-306l6 22q14 1 33 2t36.5 4.5t29.5 9.5t12 17q0 8 -2 19.5t-11 35.5q-6 15 -14.5 38.5t-18 50.5t-19.5 53.5t-19 46.5 q-21 -22 -45 -47.5t-47.5 -51t-44.5 -49t-35 -40.5q-21 -24 -33.5 -40.5t-12.5 -23.5q0 -8 8 -13t21 -7t27.5 -3t28.5 -2l-8 -22h-250z"/>
<glyph glyph-name="Y" horiz-adv-x="575" unicode="Y" d="M69 22q7 1 18 2t22.5 2.5t22 3t16.5 3.5q20 6 29 19.5t13 28.5l40 157q2 9 2.5 16t0.5 15q0 11 -2.5 24t-5.5 27q-15 66 -28 131.5t-30 119.5q-8 25 -17 38.5t-23 22.5q-11 7 -25.5 10t-28.5 4l6 23h280l-6 -23q-13 0 -30.5 -1t-33.5 -4t-27.5 -7.5t-11.5 -11.5 q0 -9 2.5 -22.5t7.5 -39.5q8 -42 25 -107.5t35 -137.5q54 63 102 122t77 100q15 21 25 35.5t16 24t8.5 15t2.5 9.5q0 6 -8 10.5t-20.5 7.5t-29 5t-33.5 2l6 23h246l-6 -23q-11 -1 -26 -6t-29 -11q-9 -4 -16 -7.5t-14 -8.5t-14.5 -12.5l-17.5 -17.5q-51 -53 -103.5 -119 t-114.5 -143q-23 -28 -38.5 -53t-23.5 -54l-30 -119q-1 -5 -2.5 -14.5t-1.5 -13.5q0 -10 5 -18.5t15 -10.5q20 -5 39 -9.5t33 -6.5l-6 -22h-298z"/>
<glyph glyph-name="Z" horiz-adv-x="562" unicode="Z" d="M-44 7l548 634h-143q-23 0 -42.5 -1t-33.5 -4q-20 -4 -43 -20.5t-44 -38t-39 -44.5t-28 -41h-29l51 177h471v-8l-545 -633h162q43 0 82.5 5.5t57.5 19.5t37 33t37 38.5t33 39t24 35.5h26l-65 -199h-517v7z"/>
<glyph glyph-name="bracketleft" horiz-adv-x="373" unicode="[" d="M182 669h262l-9 -33h-186l-202 -742h186l-9 -31h-260z"/>
<glyph glyph-name="backslash" horiz-adv-x="386" unicode="\" d="M118 682l44 15l151 -845l-43 -15z"/>
<glyph glyph-name="bracketright" horiz-adv-x="373" unicode="]" d="M-58 -106h185l201 742h-186l11 33h260l-220 -806h-259z"/>
<glyph glyph-name="asciicircum" horiz-adv-x="599" unicode="^" d="M300 656h50l198 -384h-55l-168 331l-171 -331h-54z"/>
<glyph glyph-name="underscore" horiz-adv-x="540" unicode="_" d="M-79 -70h551l-9 -33h-549z"/>
<glyph glyph-name="grave" horiz-adv-x="225" unicode="`" d="M47 605q-14 7 -25.5 16.5t-11.5 23.5t12.5 29t36.5 15q14 0 24 -7.5t23 -21.5q11 -12 22 -23.5t23.5 -25.5t28 -31t35.5 -41l-13 -16z"/>
<glyph glyph-name="a" horiz-adv-x="547" unicode="a" d="M176 28q22 0 42 9t37.5 24t32 34t25.5 39l72 225q-7 51 -26.5 75t-57.5 24q-40 0 -74 -33.5t-58.5 -83.5t-38.5 -108t-14 -106q0 -37 5.5 -57t14.5 -29.5t19.5 -11t20.5 -1.5zM159 -13q-24 0 -46.5 7t-40.5 25t-29 48t-11 76q0 27 8 63t24.5 73.5t40 74.5t54 65.5 t68.5 46.5t82 18q29 0 55.5 -19t32.5 -58h5l25 72h79l-113 -334q-3 -10 -6.5 -21.5t-5.5 -23.5t-3.5 -22.5t-1.5 -17.5q0 -22 10 -32.5t26 -10.5q18 0 33 13.5t27.5 33.5t23 44t19.5 44l21 -7q-11 -32 -24 -60t-30 -49t-39 -33.5t-49 -12.5q-15 0 -30 3.5t-27 14t-20 29.5 t-8 50l-4 2q-30 -45 -65 -73.5t-81 -28.5z"/>
<glyph glyph-name="b" horiz-adv-x="517" unicode="b" d="M209 10q40 0 75.5 34.5t62.5 84.5t42.5 106.5t15.5 101.5q0 36 -7 57t-17.5 31.5t-23 13.5t-22.5 3q-23 0 -43.5 -8.5t-38.5 -22t-33.5 -31t-27.5 -36.5l-70 -219q0 -36 8.5 -58t21.5 -35t28 -17.5t29 -4.5zM202 -13q-27 0 -53.5 6t-47.5 20.5t-34.5 37.5t-13.5 58 q0 31 6 51.5t12 40.5l108 345q7 22 11.5 40t4.5 29q0 20 -14 29t-32 10q-14 1 -26.5 1.5t-25.5 0.5v24l207 9l-98 -295l6 -1q12 14 27 30t33 29.5t38.5 22.5t43.5 9q24 0 48 -7.5t42.5 -25.5t30.5 -49t12 -77q0 -29 -9 -65t-25.5 -73.5t-41.5 -73.5t-56.5 -64t-70 -45 t-82.5 -17z"/>
<glyph glyph-name="c" horiz-adv-x="413" unicode="c" d="M177 -13q-26 0 -51.5 6.5t-46.5 24.5t-34 49.5t-13 81.5q0 27 8 62.5t24 73t39 73t52.5 64t65 45.5t76.5 17q47 0 72.5 -26.5t25.5 -61.5t-12.5 -56.5t-36.5 -21.5q-7 0 -16 2t-16.5 7t-12.5 13t-5 19q0 17 16 34t39 28q-6 38 -64 38q-32 0 -62.5 -31.5t-54.5 -80.5 t-39 -107t-15 -112q0 -53 20.5 -77t59.5 -24q27 0 49 11t40.5 29t33.5 41.5t28 47.5l22 -11q-43 -87 -92.5 -122.5t-99.5 -35.5z"/>
<glyph glyph-name="d" horiz-adv-x="552" unicode="d" d="M179 28q21 0 41.5 9t39.5 24t34.5 33.5t26.5 36.5l73 238q-11 46 -32 67.5t-58 21.5q-26 0 -50.5 -16t-45 -42t-37.5 -60.5t-29.5 -71t-19 -73t-6.5 -67.5q0 -35 6.5 -54.5t16 -30t20.5 -13t20 -2.5zM160 -13q-23 0 -46 7.5t-41 25.5t-29.5 49t-11.5 79q0 28 8.5 63.5 t25 73t40.5 73t54.5 64t68 45.5t81.5 17q30 0 54.5 -17.5t36.5 -49.5h7l39 129q2 9 5 19.5t5.5 20t4.5 18t2 12.5q0 21 -11.5 28.5t-34.5 9.5q-13 1 -22 1.5t-16 1t-13 0.5h-13v24l216 8l-173 -547q-5 -20 -10 -43t-5 -38q0 -23 11 -32.5t27 -9.5q18 0 32.5 13.5t27 34 t23 43.5t20.5 42l22 -7q-12 -30 -26 -58t-30.5 -49.5t-38 -34.5t-48.5 -13q-15 0 -30 3t-27.5 12.5t-20.5 28t-8 49.5l-6 1q-28 -44 -68 -70.5t-82 -26.5z"/>
<glyph glyph-name="e" horiz-adv-x="418" unicode="e" d="M127 230q59 10 99 29t64.5 42t35 49t10.5 49q0 30 -11 45t-40 15q-22 0 -45.5 -20t-45 -52.5t-39.5 -73.5t-28 -83zM177 -13q-25 0 -51 7t-47 24.5t-34 48t-13 77.5q0 28 8.5 64.5t24.5 74t40 74t56 64.5t71 45.5t86 17.5q32 0 57 -18t25 -57q0 -52 -29 -87.5 t-71.5 -58.5t-90.5 -36t-85 -19q-4 -15 -5.5 -41t-1.5 -43q0 -56 22 -76.5t59 -20.5q28 0 51 11t41.5 29t34 41.5t28.5 47.5l23 -11q-45 -86 -95 -122t-104 -36z"/>
<glyph glyph-name="f" horiz-adv-x="307" unicode="f" d="M-86 -169q-39 0 -56 16.5t-17 39.5q0 17 12.5 32.5t35.5 15.5q21 0 35 -10t14 -36q0 -9 -4.5 -21t-9.5 -19q23 1 42.5 9.5t37 32t34.5 65t35 109.5q17 63 28.5 111t20.5 88.5t18 78t21 80.5h-103l9 36h102q13 52 35.5 95.5t53 74.5t68 48t80.5 17q38 0 55 -18.5t17 -40.5 q0 -17 -12.5 -33t-35.5 -16t-37 12t-14 36q0 9 5 23t8 20q-46 -1 -80.5 -45t-57.5 -142l-8 -31h123l-10 -36h-122q-13 -50 -22.5 -91t-18.5 -82t-20 -86.5t-28 -102.5q-32 -107 -90.5 -168.5t-143.5 -61.5z"/>
<glyph glyph-name="g" horiz-adv-x="490" unicode="g" d="M164 -144q85 0 134 35t49 89q0 23 -9.5 40t-28.5 20q-41 7 -80 10t-77 5q-53 -11 -80 -42t-27 -73q0 -11 6 -25.5t19.5 -27.5t36.5 -22t57 -9zM220 229q28 0 48 16.5t33 40.5t19.5 51.5t6.5 50.5q0 29 -17.5 51.5t-50.5 22.5q-29 0 -49 -16.5t-32 -40t-17.5 -48.5 t-5.5 -42q0 -16 5 -31.5t13.5 -27.5t20.5 -19.5t26 -7.5zM137 -170q-42 0 -74 8.5t-53 22.5t-31.5 32.5t-10.5 38.5q0 22 9 43t28.5 38.5t49 30t71.5 17.5v5q-14 4 -28 9t-25 12t-17.5 17.5t-6.5 24.5q0 19 10 33t24.5 24t31.5 16.5t32 10.5v5q-37 12 -53 38t-16 58 q0 34 15.5 65.5t42 54.5t61 37t72.5 14q48 0 74.5 -12t37.5 -23q25 11 50.5 22.5t54.5 11.5q15 0 26 -13t11 -29q0 -20 -12 -34t-29 -14q-22 0 -27.5 13.5t-5.5 34.5v13q-19 -2 -34 -6.5t-34 -16.5v-4q11 -14 14.5 -30t3.5 -32q0 -35 -15.5 -64t-41 -50.5t-58 -33.5 t-65.5 -12h-62q-20 -8 -33.5 -17t-13.5 -24q0 -23 25.5 -33t83.5 -14q11 -1 26.5 -2.5t31 -3.5t29 -4t21.5 -3q35 -5 61.5 -31.5t26.5 -74.5q0 -33 -18 -63.5t-53.5 -54t-87.5 -37.5t-119 -14z"/>
<glyph glyph-name="h" horiz-adv-x="551" unicode="h" d="M395 -10q-13 0 -29.5 3t-31.5 12t-25.5 24t-10.5 39q0 17 7 35t17 46l62 167q7 18 14 39.5t7 35.5q0 33 -17 44t-37 11q-41 0 -85 -34t-81 -108l-94 -304h-75l172 546q13 45 13 68q0 21 -12 31t-32 11q-14 0 -21 -0.5t-11.5 -0.5h-8.5t-10 1v24l207 9l-99 -293l7 -1 q31 38 68 63.5t79 25.5q24 0 44 -9.5t34.5 -25t22.5 -35.5t8 -41q0 -14 -5.5 -37t-13.5 -42l-58 -154q-11 -27 -16.5 -47t-5.5 -32q0 -26 11.5 -33.5t24.5 -7.5q32 0 55.5 38t46.5 96l23 -7q-12 -33 -25.5 -61.5t-30.5 -50t-38.5 -33.5t-49.5 -12z"/>
<glyph glyph-name="i" horiz-adv-x="331" unicode="i" d="M171 -10q-13 0 -29 3t-30.5 11t-24.5 22.5t-10 38.5q0 19 5.5 40.5t14.5 44.5l71 178q10 24 16 50t6 35q0 23 -7.5 31.5t-23.5 8.5q-18 0 -32.5 -12t-26.5 -31.5t-22.5 -43t-20.5 -45.5l-22 4q12 33 25.5 62t30.5 50.5t38 34t48 12.5q15 0 30.5 -3.5t28.5 -13t21.5 -25.5 t8.5 -41q0 -9 -3 -22.5t-7.5 -28.5t-10 -30.5t-10.5 -27.5l-61 -154q-8 -20 -16 -43.5t-8 -33.5q0 -29 13 -35.5t27 -6.5q17 0 31 10t25.5 27.5t22.5 42t22 53.5l23 -7q-13 -33 -26 -61.5t-29.5 -49t-38 -32.5t-49.5 -12zM269 576q-22 0 -37.5 15t-15.5 35q0 14 6 25.5 t15.5 20t21 13t23.5 4.5q24 0 38 -14.5t14 -33.5q0 -26 -20 -45.5t-45 -19.5z"/>
<glyph glyph-name="j" horiz-adv-x="301" unicode="j" d="M-50 -169q-40 0 -56.5 16.5t-16.5 39.5q0 17 12.5 32.5t35.5 15.5t34.5 -10t11.5 -36q0 -9 -4.5 -21t-9.5 -19q23 1 43 11t38 35t35.5 68t35.5 110q13 48 23.5 87.5t19 73t15.5 62.5t14 56q3 14 6.5 33.5t3.5 30.5q0 21 -6.5 29t-21.5 8q-18 0 -33.5 -13t-29 -32.5 t-24.5 -43t-20 -45.5l-23 3q13 33 27.5 62.5t32 51.5t39 35t47.5 13q15 0 30 -3.5t27.5 -13.5t20.5 -28t8 -48q0 -12 -5 -33t-10 -43q-6 -21 -13.5 -50t-16.5 -61.5t-19 -68t-20 -70.5q-32 -108 -89.5 -171t-141.5 -63zM262 576q-22 0 -36.5 15t-14.5 35q0 28 19 45.5 t45 17.5q25 0 38 -14.5t13 -33.5q0 -26 -19.5 -45.5t-44.5 -19.5z"/>
<glyph glyph-name="k" horiz-adv-x="549" unicode="k" d="M356 -10q-13 0 -29 2.5t-30.5 10.5t-24.5 22.5t-10 38.5q0 18 3.5 38t7.5 39t7.5 36t3.5 28q0 30 -21.5 43t-56.5 13q-9 0 -15 -0.5t-17 -0.5l-83 -260h-72l172 545q8 24 10.5 42t2.5 29q0 21 -13 29t-30 9l-52 2v24l205 9l-130 -401q13 -1 22 -1.5t23 -0.5 q23 0 39.5 8.5t29.5 22.5t23 33t20 39q9 18 20 35t26 30.5t34.5 21.5t46.5 8q41 0 57.5 -23.5t16.5 -51.5q0 -26 -16 -46t-39 -20q-14 0 -27 8t-13 22q0 20 5.5 30t13 15.5t14.5 9.5t10 12q-6 14 -13.5 20t-22.5 6q-14 0 -24.5 -8t-19.5 -21.5t-17.5 -31.5t-17.5 -38 q-14 -28 -38 -54t-66 -38q14 -4 29 -10.5t27 -17t20 -26t8 -38.5q0 -43 -8 -72t-8 -52q0 -24 12.5 -31.5t23.5 -7.5q18 0 32 10t26 27.5t23.5 41.5t24.5 53l21 -5q-13 -33 -27 -61.5t-31.5 -50t-39 -33.5t-48.5 -12z"/>
<glyph glyph-name="l" horiz-adv-x="292" unicode="l" d="M135 -10q-13 0 -29 3.5t-30 11.5t-23.5 22.5t-9.5 37.5q0 20 7 43.5t13 43.5l123 394q8 23 10.5 42t2.5 30q0 20 -11 27t-31 9q-15 2 -27 2h-26v24l207 9l-177 -551q-2 -8 -5 -19l-6 -22t-5 -21t-2 -16q0 -28 12 -34t26 -6q18 0 32 11t25 29t21 42t21 50l27 -5 q-14 -33 -27.5 -61.5t-30.5 -50t-38 -33.5t-49 -12z"/>
<glyph glyph-name="m" horiz-adv-x="853" unicode="m" d="M699 -10q-14 0 -30.5 3.5t-31 11.5t-24.5 22.5t-10 36.5q0 18 6.5 38.5t16.5 48.5l59 167q3 7 6 17.5t6 21.5t5 21t2 17q0 32 -15 41.5t-36 9.5q-20 0 -40 -9t-38 -23.5t-33 -33.5t-25 -39l-110 -341h-83l109 332q4 12 7 29.5t3 31.5q0 17 -5 27.5t-13 16t-18 7.5t-19 2 q-20 0 -41.5 -14t-41.5 -35t-37 -45t-28 -43l-100 -309h-81l111 332q7 21 13 46t6 35q0 23 -7.5 31.5t-23.5 8.5q-18 0 -32.5 -12t-27.5 -31.5t-23.5 -43t-20.5 -45.5l-24 4q13 33 27.5 62t32 50.5t38 34t47.5 12.5q15 0 30 -3.5t28 -14t21 -29.5t8 -49h3q29 41 66 68.5 t79 27.5q23 0 43 -8t34 -21.5t22.5 -31t9.5 -35.5h4q13 18 29.5 35.5t35.5 31t40 21.5t43 8q23 0 43 -9t34.5 -24.5t23 -35.5t8.5 -42q0 -14 -6.5 -37.5t-13.5 -41.5l-57 -149q-9 -23 -16 -48t-7 -37q0 -14 4 -22t9.5 -12t12 -5t12.5 -1q18 0 31.5 10t25 28t23 42.5 t24.5 53.5l22 -7q-14 -33 -27.5 -61.5t-30.5 -50t-38 -33.5t-49 -12z"/>
<glyph glyph-name="n" horiz-adv-x="593" unicode="n" d="M437 -10q-13 0 -29.5 3.5t-31 11.5t-24.5 22.5t-10 37.5q0 20 5.5 37.5t16.5 46.5l61 169q8 23 14 42.5t6 33.5q0 32 -14.5 42t-36.5 10q-20 0 -42 -11.5t-43 -31t-39.5 -46t-32.5 -56.5l-98 -301h-80l111 330q8 24 14.5 48.5t6.5 34.5q0 23 -8 31.5t-24 8.5 q-19 0 -33.5 -12t-26.5 -31.5t-22.5 -43t-19.5 -45.5l-24 4q13 33 27 62t30.5 50.5t37.5 34t48 12.5q15 0 30 -4t27 -14.5t20 -29.5t8 -49h3q13 18 30 35.5t36 31t40 22t42 8.5q24 0 43.5 -9.5t34 -25t22.5 -35.5t8 -41q0 -6 -2 -15.5t-4.5 -20t-6 -21.5t-6.5 -19l-59 -157 q-11 -28 -16 -46.5t-5 -32.5q0 -27 12 -34t23 -7q17 0 31 10t26.5 28t24 42.5t23.5 53.5l23 -7q-14 -33 -28 -61.5t-31.5 -50t-38.5 -33.5t-49 -12z"/>
<glyph glyph-name="o" horiz-adv-x="486" unicode="o" d="M191 10q43 0 75.5 32t55 79.5t34 102.5t11.5 102q0 38 -6 63.5t-16.5 41t-24 22t-28.5 6.5q-42 0 -74.5 -31.5t-55 -78t-34.5 -101t-12 -100.5q0 -76 21.5 -107t53.5 -31zM172 -13q-25 0 -49 10t-43 32t-31 55.5t-12 81.5q0 42 17.5 97.5t52 104.5t85.5 83t119 34 q25 0 49.5 -10.5t44 -32t32 -55.5t12.5 -80q0 -28 -7.5 -63t-23 -70.5t-39 -69t-54 -59.5t-69 -42t-84.5 -16z"/>
<glyph glyph-name="p" horiz-adv-x="569" unicode="p" d="M268 27q26 0 50 15t45 40t38 57t29 66.5t18.5 68.5t6.5 63q0 36 -7 57t-17 31.5t-22 13.5t-22 3q-21 0 -41 -9t-37.5 -23t-33 -32.5t-27.5 -37.5l-71 -234q9 -45 31 -62t60 -17zM-59 -148q32 0 48 6t24 16q15 19 23.5 43.5t15.5 47.5l117 365q3 8 6.5 20.5t6 25.5 t4.5 23.5t2 15.5q0 38 -30 38q-18 0 -33 -12t-27.5 -30.5t-23 -41.5t-20.5 -45l-24 1q12 33 26 62t31.5 50.5t39.5 34t49 12.5q14 0 28.5 -3.5t26.5 -13.5t19.5 -27.5t7.5 -45.5h5q29 37 65.5 63.5t78.5 26.5q23 0 46.5 -8.5t42.5 -27.5t31 -49.5t12 -74.5q0 -30 -8.5 -65.5 t-25 -72t-40.5 -70.5t-54.5 -60t-68 -42t-80.5 -16q-31 0 -58.5 18t-37.5 47h-3l-34 -98q-8 -24 -11.5 -43.5t-3.5 -30.5q0 -19 13.5 -25t33.5 -8q11 -2 23.5 -2t25.5 -1l-5 -24h-270z"/>
<glyph glyph-name="q" horiz-adv-x="514" unicode="q" d="M181 37q18 0 39 7.5t40.5 21t37.5 31.5t30 38l73 236q-12 46 -35.5 65.5t-60.5 19.5q-39 0 -73.5 -34t-60 -83.5t-40.5 -104t-15 -96.5q0 -35 6.5 -55t16 -30.5t21 -13t21.5 -2.5zM150 -148q32 0 56 6t33 16q11 11 20 38t17 55l27 91h-10q-7 -9 -20 -19.5t-30.5 -19.5 t-37.5 -15t-41 -6q-24 0 -47.5 7t-42.5 24.5t-30.5 47.5t-11.5 76q0 27 8.5 62t25 71.5t40 72t54.5 63.5t69 45t82 17q29 0 58.5 -17.5t39.5 -49.5h6l38 65h62l-163 -517q-4 -12 -7 -24.5t-5.5 -23.5t-3.5 -19t-1 -11q0 -15 13 -21t29 -8q13 -2 22 -2t22 -1l-6 -24h-271z "/>
<glyph glyph-name="r" horiz-adv-x="438" unicode="r" d="M168 328q3 11 6.5 24t6.5 26t4.5 23t1.5 15q0 21 -8.5 29t-24.5 8q-17 0 -31 -12t-27 -30.5t-24 -41.5t-20 -45l-24 1q13 33 27.5 62t32 50.5t38.5 34t47 12.5q15 0 29 -4.5t25 -16.5t17.5 -32.5t6.5 -53.5h7q13 18 27.5 37t32 34.5t36.5 25.5t41 10q29 0 43 -18t14 -40 q0 -12 -3 -25t-9 -24t-15.5 -18t-22.5 -7q-22 0 -33 10t-11 27q0 19 10.5 30.5t10.5 16.5q0 8 -5.5 10.5t-11.5 2.5q-13 0 -30 -15t-34.5 -37t-34 -48t-27.5 -47l-91 -302h-79z"/>
<glyph glyph-name="s" horiz-adv-x="410" unicode="s" d="M165 -13q-42 0 -71 11t-46 27.5t-24.5 36.5t-7.5 37q0 32 16.5 52.5t39.5 20.5q28 0 35.5 -13t7.5 -28q0 -12 -7.5 -26.5t-28.5 -14.5q-11 0 -17 -3.5t-6 -8.5q0 -13 8.5 -25t23 -21.5t32.5 -15t37 -5.5q52 0 84.5 24.5t32.5 75.5q0 18 -5.5 31t-15 23.5t-23.5 19 t-32 18.5t-36.5 21.5t-33 26.5t-23.5 36t-9 51q0 31 13.5 58t36 46.5t50.5 31t58 11.5q40 0 65 -10.5t39 -25.5t19 -32t5 -30q0 -28 -11 -46.5t-31 -18.5q-17 0 -31 8t-14 29q0 16 6.5 25t14 15t14.5 10t9 9q0 3 -3.5 10t-12.5 14t-25.5 12t-41.5 5q-13 0 -29.5 -4.5 t-30.5 -15t-24 -29t-10 -45.5q0 -18 4 -31.5t12.5 -24t21.5 -20t31 -20.5t37.5 -22.5t35 -26.5t25.5 -35.5t10 -49.5t-13 -55.5t-36 -47t-55 -33t-70 -12.5z"/>
<glyph glyph-name="t" horiz-adv-x="328" unicode="t" d="M148 -10q-13 0 -30 3t-32 11.5t-25.5 22.5t-10.5 37q0 11 3.5 28t8.5 34l91 303h-95l12 35h95l39 133h74l-40 -133h125l-11 -35h-125l-83 -290q-7 -23 -12 -45.5t-5 -33.5q0 -13 4 -20.5t9.5 -12t12.5 -6t13 -1.5q18 0 33 11t28.5 29.5t25.5 44t25 54.5l23 -9 q-14 -35 -29 -64.5t-33.5 -50.5t-41 -33t-49.5 -12z"/>
<glyph glyph-name="u" horiz-adv-x="589" unicode="u" d="M195 -12q-29 0 -49.5 10t-33.5 24.5t-19.5 30t-6.5 26.5q0 25 6 47t14 43l63 158q11 27 17.5 52.5t6.5 34.5q0 24 -10.5 30.5t-26.5 6.5q-17 0 -32.5 -12t-28.5 -30.5t-24 -42t-20 -45.5l-24 4q13 34 27.5 63.5t32 50.5t39 33t48.5 12q16 0 33 -4.5t30.5 -14.5t22 -24.5 t8.5 -34.5q0 -19 -7 -38t-18 -48l-64 -165q-9 -24 -15 -43t-6 -33q0 -30 17.5 -40.5t37.5 -10.5q23 0 45 10.5t41.5 28t36 38.5t27.5 42l99 317h79l-106 -327q-7 -21 -10 -40.5t-3 -35.5q0 -23 11 -32.5t28 -9.5q18 0 33 13t27 33t22 43t19 44l21 -7q-11 -31 -24 -59 t-29.5 -49.5t-37.5 -34t-49 -12.5q-15 0 -31 3.5t-28.5 14.5t-21 30t-8.5 51h-5q-14 -20 -31.5 -38.5t-38 -32.5t-42 -22t-42.5 -8z"/>
<glyph glyph-name="v" horiz-adv-x="536" unicode="v" d="M211 -12q-24 0 -45.5 8t-38 24t-26.5 40t-10 57q0 40 13 77.5t36.5 74.5t56.5 74t72 75l-10 14q-26 -19 -59.5 -36t-60.5 -17q-23 0 -35 2t-24 5l-25 -88l-25 8l55 176h13q18 -26 44.5 -36.5t49.5 -10.5q29 0 52 10.5t48 36.5l24 -32q-23 -26 -48 -61.5t-45.5 -77.5 t-34 -89t-13.5 -96q0 -26 6.5 -43.5t17.5 -28.5t24.5 -16t27.5 -5q27 0 62 20t67 54.5t54 82t22 102.5q0 29 -7 44t-15.5 27.5t-15.5 27.5t-7 44q0 22 14.5 35.5t31.5 13.5q16 0 26.5 -7.5t16.5 -20t8 -28.5t2 -33q0 -75 -24 -147.5t-65.5 -130.5t-95.5 -93.5t-114 -35.5z "/>
<glyph glyph-name="w" horiz-adv-x="736" unicode="w" d="M381 142q24 28 46 62t39 67.5t27 63t10 48.5q0 17 -9.5 27t-25.5 10q-14 0 -27 -6t-16 -12q-11 -14 -19 -37t-13.5 -51.5t-8.5 -60t-3 -61.5v-50zM432 -12q-32 0 -59 21t-42 64q-35 -39 -72.5 -61.5t-62.5 -22.5q-47 0 -76 33t-29 104q0 69 48 143t128 149l-8 12 q-32 -20 -62.5 -35.5t-57.5 -15.5q-19 0 -32.5 2.5t-24.5 4.5l-27 -88l-25 8l55 176h13q19 -26 45 -36.5t49 -10.5q29 0 52 10.5t47 36.5l22 -32q-23 -26 -47.5 -61.5t-45 -77.5t-34 -89.5t-13.5 -96.5q0 -55 14 -75.5t39 -20.5q20 0 48 15.5t49 47.5q-1 17 -3 33.5t-2 40.5 q0 25 8.5 58.5t22 69t31.5 69.5t37.5 61t38 43.5t34.5 16.5q23 0 31 -22t8 -54q0 -33 -12 -70.5t-32 -75.5t-45.5 -75.5t-51.5 -71.5q4 -29 15.5 -44.5t24.5 -23t26 -9t22 -1.5q23 0 54 20.5t59 55.5t47.5 81t19.5 98q0 29 -7 44t-15.5 27.5t-15.5 27.5t-7 44 q0 22 14.5 35.5t31.5 13.5q16 0 26.5 -7.5t16.5 -20t8 -28.5t2 -33q0 -75 -24 -147.5t-63 -130.5t-89 -93.5t-102 -35.5z"/>
<glyph glyph-name="x" horiz-adv-x="535" unicode="x" d="M66 -11q-44 0 -59 18t-15 48q0 23 7.5 45t19 40.5t24 32.5t23.5 23l19 -9q-14 -30 -22.5 -56t-8.5 -61q0 -50 24 -50q31 0 57.5 24.5t47.5 59.5t36.5 73t24.5 65q13 37 19 74t7.5 54.5t1.5 23.5q0 17 -4.5 29.5t-13 19.5t-17.5 8t-16 1q-19 0 -36.5 -11.5t-32.5 -30 t-27 -41.5t-20 -45l-24 5q25 67 63 111t90 44q16 0 34.5 -4t33.5 -17.5t23.5 -37.5t8.5 -59v-15h4q10 25 25 49t34 42.5t41 30t46 11.5q29 0 47.5 -21t18.5 -61q0 -21 -6 -39t-15.5 -33t-21 -27.5t-23.5 -21.5l-18 7q3 6 8.5 22t11.5 35.5t10.5 39t4.5 33.5q0 17 -3.5 29 t-17.5 12q-23 0 -44 -15t-38.5 -39t-31.5 -52t-25 -55t-18 -48t-9 -30q-9 -31 -15.5 -62.5t-6.5 -51.5q0 -32 7 -49t17 -24.5t20.5 -8.5t17.5 -1q32 0 60.5 36t48.5 95l25 -7q-13 -33 -28 -61.5t-33.5 -50t-42.5 -33.5t-56 -12q-12 0 -30.5 3t-35.5 17t-27 40t-10 66v15h-6 q-10 -25 -24.5 -50t-33.5 -45.5t-43 -33.5t-52 -13z"/>
<glyph glyph-name="y" horiz-adv-x="540" unicode="y" d="M131 -169q-32 0 -55 6.5t-38 17t-22 23.5t-7 25q0 19 14.5 35t36.5 16q23 0 34 -12.5t11 -29.5q0 -8 -4 -19.5t-12 -22.5q11 -8 26.5 -13t29.5 -5q68 0 117 60t91 188h-7q-26 -38 -64.5 -65.5t-84.5 -27.5q-23 0 -42.5 9t-34 24.5t-23 36t-8.5 44.5q0 10 7 32t17 46 l54 133q11 29 15.5 51.5t4.5 32.5q0 20 -8 27.5t-24 7.5q-17 0 -32.5 -12t-29 -30.5t-25 -42t-20.5 -45.5l-24 4q13 33 28 62t32.5 50.5t39 34t48.5 12.5q16 0 32 -5t29 -14.5t20.5 -24.5t7.5 -35q0 -17 -4 -41t-14 -47l-63 -144q-9 -20 -14.5 -40t-5.5 -34 q0 -34 17.5 -43.5t38.5 -9.5q19 0 40 8.5t40.5 22.5t36 32t28.5 37l98 318h74l-98 -333q-45 -156 -124.5 -228t-179.5 -72z"/>
<glyph glyph-name="z" horiz-adv-x="357" unicode="z" d="M-69 -13q-7 0 -16 8t-9 22q0 39 49 82q23 21 58 50.5t77 64.5t89 73t95 74v7q-27 1 -51 6t-45.5 11t-42 10.5t-40.5 4.5q-27 0 -43 -10.5t-16 -30.5q0 -26 17.5 -38.5t35.5 -18.5l-8 -20q-11 4 -26.5 10.5t-29 18.5t-23 30.5t-9.5 46.5q0 18 8 34.5t21 30t29.5 21.5 t34.5 8q31 0 55.5 -14t46 -31t43 -31t45.5 -14q15 0 23 3.5t11 9.5t3 15v21q0 20 7.5 31.5t22.5 11.5t23.5 -6t8.5 -23q0 -9 -1.5 -18t-7 -19t-15.5 -22.5t-27 -28.5l-309 -253v-8q22 -3 42.5 -9.5t40 -13t40 -11t43.5 -4.5q14 0 28.5 2t26.5 7t19.5 14t7.5 23q0 18 -11 30 t-30 16l10 23q38 -14 51 -39.5t13 -61.5q0 -18 -7.5 -35t-20.5 -29.5t-31 -20.5t-39 -8q-24 0 -51 14t-54.5 31t-54 31t-49.5 14q-13 -5 -16 -12t-3 -18q0 -5 0.5 -10t0.5 -13q0 -18 -11.5 -28.5t-28.5 -10.5z"/>
<glyph glyph-name="braceleft" horiz-adv-x="401" unicode="{" d="M246 -156q-84 0 -120.5 25t-36.5 82q0 29 7.5 57t16 54.5t16 49.5t7.5 43q0 48 -31 69.5t-88 26.5l15 57q34 3 63 8.5t51 18t37 33.5t22 54q4 21 5 53t6 61q9 47 31.5 78t56 49.5t76.5 26t92 7.5l-8 -31q-23 -1 -48.5 -4.5t-49 -15t-41.5 -33t-25 -59.5 q-5 -23 -9.5 -51.5t-8.5 -47.5q-10 -49 -28.5 -77.5t-44 -45t-57 -24.5t-68.5 -15l-5 -25q26 -6 49 -13.5t39.5 -21t26 -34t9.5 -51.5q0 -32 -6 -58t-13.5 -50t-13.5 -49t-6 -55q0 -23 7 -35t19 -18t27.5 -7.5t33.5 -2.5z"/>
<glyph glyph-name="bar" horiz-adv-x="314" unicode="|" d="M151 696h49v-858h-49v858z"/>
<glyph glyph-name="braceright" horiz-adv-x="401" unicode="}" d="M-61 -125q22 0 48.5 4t50 15t41.5 30.5t24 51.5q1 10 3.5 25t5 30.5t5 30t4.5 23.5q10 50 28 79t42.5 45.5t55.5 24t68 14.5l5 25q-26 6 -48 13.5t-38 21t-25 33.5t-9 51q0 32 6.5 58t15 50.5t15 49.5t6.5 55q0 22 -7.5 34.5t-20 18.5t-29 7.5t-34.5 2.5l8 29 q81 0 117.5 -25t36.5 -83q0 -29 -7 -56.5t-15 -54t-15 -50t-7 -42.5q0 -48 30.5 -70t86.5 -26l-15 -57q-35 -3 -63.5 -8.5t-51 -18t-37.5 -33.5t-22 -54q-5 -21 -5 -53.5t-6 -61.5q-9 -47 -32 -77.5t-56.5 -49t-76 -26t-91.5 -7.5z"/>
<glyph glyph-name="asciitilde" d="M92 214q7 21 20.5 44t32.5 41.5t41.5 30.5t46.5 12q30 0 55.5 -10.5t46.5 -21.5q20 -11 39 -18.5t39 -7.5t34.5 4.5t25 13.5t19.5 22t18 30l23 -10q-7 -22 -20.5 -44.5t-32 -41t-41 -30.5t-47.5 -12q-29 0 -53 8t-42 18q-23 12 -43 22t-42 10q-40 0 -59.5 -18.5 t-37.5 -51.5z" unicode="~"/>
<glyph glyph-name="uni00A0" horiz-adv-x="263" unicode=" "/>
<glyph glyph-name="exclamdown" horiz-adv-x="328" unicode="¡" d="M89 -12q-21 0 -33.5 13.5t-12.5 36.5q0 16 12.5 53t34 93t50 129t59.5 160l24 -3q-14 -69 -25 -137t-20 -125t-15 -98.5t-9 -57.5q-5 -24 -22.5 -44t-42.5 -20zM246 571q-25 0 -41.5 16.5t-16.5 39.5t16.5 38.5t41.5 15.5q23 0 39 -15.5t16 -38.5t-16 -39.5t-39 -16.5z "/>
<glyph glyph-name="cent" horiz-adv-x="525" unicode="¢" d="M331 495q-31 -5 -63 -25t-58.5 -54.5t-43 -83t-16.5 -110.5q0 -51 20.5 -86t58.5 -45zM218 47q-28 2 -55 12t-48 30.5t-34 52.5t-13 77q0 79 31 135.5t74 93t89 54.5t76 20l31 125h31l-32 -126q57 -3 94.5 -25.5t37.5 -70.5q0 -31 -15.5 -50.5t-38.5 -19.5q-16 0 -27.5 9 t-11.5 30q0 16 3.5 25.5t8 16t8 12t3.5 13.5q0 13 -17.5 23t-50.5 12l-103 -407q25 0 46 3t41 12.5t41 27t45 47.5l21 -17q-15 -19 -35 -38.5t-44.5 -35.5t-55.5 -27t-69 -14l-35 -139h-31z"/>
<glyph glyph-name="sterling" horiz-adv-x="667" unicode="£" d="M182 51q-30 21 -60 36.5t-63 15.5q-16 0 -28 -6t-20.5 -14.5t-12.5 -19t-4 -19.5q0 -17 17 -31t56 -14q29 0 61 10.5t54 41.5zM104 261l16 33h118q1 19 1 37l-1 20q0 25 9 59q12 46 35 90.5t57 79.5t77.5 56t95.5 21q69 0 102 -31t33 -79q0 -15 -5 -33t-14.5 -33.5 t-23 -26t-30.5 -10.5q-27 0 -34.5 13.5t-7.5 30.5q0 19 10.5 30.5t23 19.5t23 15t10.5 18q0 19 -25 36.5t-70 17.5q-17 0 -40 -8.5t-46 -28t-42.5 -50.5t-30.5 -76q-5 -22 -7.5 -42.5t-4.5 -41t-4 -41.5t-6 -43h158l-16 -33h-149q-11 -42 -31 -84.5t-58 -86.5q23 -9 44 -17 t42 -14t44 -10t52 -4q34 0 62 15t49.5 37.5t36.5 50t23 53.5l26 -8q-11 -34 -29.5 -73t-48.5 -72t-72.5 -55t-100.5 -22q-44 0 -82.5 21t-73.5 47q-14 -21 -32.5 -35t-37 -23t-36.5 -12.5t-32 -3.5q-48 0 -73 20t-25 57q0 18 9 35t25.5 29.5t40 20.5t51.5 8q40 0 68.5 -12 t50.5 -23q17 51 22 89t7 72h-133z"/>
<glyph glyph-name="currency" horiz-adv-x="480" unicode="¤" d="M239 438q-54 0 -89 -39.5t-35 -104.5q0 -66 35.5 -105.5t88.5 -39.5t88 39.5t35 105.5q0 32 -9.5 58.5t-26 45.5t-39 29.5t-48.5 10.5zM407 63l-64 76q-23 -20 -51.5 -29.5t-53.5 -9.5q-26 0 -55 9t-52 29l-63 -75l-40 41l69 66q-22 26 -32.5 58t-10.5 66t11 65.5 t32 56.5l-69 68l40 40l64 -75q24 20 52.5 29t54.5 9q24 0 52.5 -9t52.5 -29l63 75l41 -40l-69 -67q20 -24 31.5 -56.5t11.5 -66.5t-11.5 -66t-32.5 -57l70 -67z"/>
<glyph glyph-name="yen" horiz-adv-x="555" unicode="¥" d="M58 22q6 0 18 1t24 2.5t23 3.5t16 4q14 5 25.5 17t16.5 31l41 161h-155l6 38h158l-62 249q-5 23 -14.5 38.5t-20.5 23.5t-25 10.5t-22 3.5l5 22h255l-5 -22q-11 -1 -26.5 -2.5t-30 -4.5t-24.5 -7.5t-10 -11.5q0 -5 1.5 -19t5.5 -30q6 -30 12 -53.5t12 -46t12.5 -47 t14.5 -55.5q51 60 90.5 108.5t64.5 79.5q22 27 32.5 41.5t10.5 24.5q0 7 -7.5 10.5t-19.5 6t-26 3.5t-27 3l6 22h218l-7 -22q-9 -2 -24 -6t-26 -10q-8 -5 -14.5 -9t-12.5 -9t-13.5 -12t-17.5 -17q-25 -25 -52 -56t-55.5 -65.5t-57.5 -70.5t-57 -70h153l-6 -38h-158l-35 -141 q-2 -5 -3.5 -17t-1.5 -17q0 -11 2.5 -18.5t11.5 -12.5q11 -5 31 -9t32 -5l-7 -22h-280z"/>
<glyph glyph-name="brokenbar" horiz-adv-x="314" unicode="¦" d="M154 239h46v-401h-46v401zM154 696h46v-410h-46v410z"/>
<glyph glyph-name="section" horiz-adv-x="564" unicode="§" d="M304 96q48 18 82 44.5t34 62.5q0 15 -6.5 31.5t-19.5 30.5q-28 30 -58 60l-58 58q-48 -18 -82 -44.5t-34 -62.5q0 -15 6.5 -31.5t19.5 -30.5q28 -30 58 -60zM259 404q-21 26 -28 48.5t-7 43.5q0 31 14 58t38.5 46.5t57 31t69.5 11.5q30 0 52 -7.5t37 -20t22 -28.5t7 -32 q0 -23 -14.5 -38.5t-40.5 -15.5q-20 0 -33.5 10.5t-13.5 27.5q0 9 3.5 15.5t7.5 12.5t7.5 11t3.5 10q0 14 -13.5 22t-38.5 8q-42 0 -68 -25t-26 -64q0 -21 8.5 -39.5t35.5 -46.5l107 -109q48 -50 48 -109q0 -34 -15 -58.5t-39.5 -42.5t-55 -29.5t-61.5 -19.5 q20 -26 26.5 -48.5t6.5 -43.5q0 -31 -13.5 -58t-37.5 -46.5t-56.5 -31t-69.5 -11.5q-30 0 -52 7.5t-36 20t-21 28.5t-7 32q0 23 14.5 38.5t40.5 15.5q20 0 33.5 -10.5t13.5 -27.5q0 -9 -3.5 -15.5t-7.5 -12.5t-7.5 -11t-3.5 -10q0 -14 12.5 -22t37.5 -8q42 0 67 25t25 64 q0 21 -7.5 39.5t-34.5 46.5l-107 109q-48 49 -48 109q0 34 15 58.5t39.5 42.5t55 29.5t61.5 19.5z"/>
<glyph glyph-name="dieresis" horiz-adv-x="317" unicode="¨" d="M51 539q-19 0 -30 14t-11 32q0 23 17 42.5t42 19.5q21 0 32.5 -13t11.5 -31q0 -24 -18 -44t-44 -20zM242 539q-20 0 -31.5 14t-11.5 32q0 12 5 23t13.5 19.5t19.5 14t23 5.5q22 0 34.5 -13t12.5 -31q0 -24 -19.5 -44t-45.5 -20z"/>
<glyph glyph-name="copyright" horiz-adv-x="902" unicode="©" d="M463 49q-48 0 -88 14.5t-68.5 41.5t-44 65t-15.5 86q0 45 17 84t48 67.5t72.5 45t91.5 16.5q25 0 54 -7.5t43 -20.5l20 32h25v-159h-21q-10 24 -20 47t-25 40t-37.5 27.5t-55.5 10.5q-23 0 -44.5 -10.5t-38 -32t-26.5 -55.5t-10 -81q0 -39 10.5 -70.5t29.5 -54t45 -34.5 t56 -12q28 0 48.5 8t35.5 21t26.5 30.5t20.5 36.5l20 -12q-9 -23 -23.5 -45t-34.5 -39.5t-47.5 -28.5t-63.5 -11zM458 -105q75 0 140.5 28.5t113.5 77.5t76 115t28 142q0 74 -28 140t-76 115t-113.5 77.5t-140.5 28.5t-141 -28.5t-114.5 -77.5t-76.5 -115t-28 -140 q0 -76 28 -142t76.5 -115t114.5 -77.5t141 -28.5zM458 -136q-81 0 -152.5 31.5t-125 85t-84.5 125t-31 152.5q0 80 31 151t84.5 124t125 84t152.5 31t152.5 -31t125 -84t84.5 -124t31 -151q0 -81 -31 -152.5t-84.5 -125t-125 -85t-152.5 -31.5z"/>
<glyph glyph-name="ordfeminine" horiz-adv-x="427" unicode="ª" d="M195 328q25 0 50 17t41 45l53 160q-5 33 -18 49t-39 16q-27 0 -50.5 -24t-41 -59.5t-27.5 -76t-10 -72.5t14.5 -43.5t27.5 -11.5zM52 206h294l-10 -36h-294zM183 290q-17 0 -34 5t-30 18t-21 35t-8 55q0 24 13.5 64.5t39.5 79t64.5 67t88.5 28.5q16 0 32.5 -13t20.5 -41 h2l17 48h62l-83 -243q-9 -27 -9 -47q0 -14 7 -19t16 -5t17 8.5t15.5 21t14.5 28t13 30.5l26 -9q-9 -22 -18.5 -41.5t-21 -34.5t-26 -24t-32.5 -9q-12 0 -23.5 2t-20.5 9t-15 20t-6 35h-1q-18 -28 -45 -48t-55 -20z"/>
<glyph glyph-name="guillemotleft" horiz-adv-x="578" unicode="«" d="M67 216q-9 11 -11.5 14t-2.5 15q0 14 6.5 26t23.5 24l225 154l17 -22l-183 -172l101 -182l-27 -20zM292 216q-9 11 -11.5 14t-2.5 15q0 14 6.5 26t23.5 24l225 154l17 -22l-183 -172l101 -182l-27 -20z"/>
<glyph glyph-name="logicalnot" d="M477 256h-385v50h430v-266h-45v216z" unicode="¬"/>
<glyph glyph-name="uni00AD" horiz-adv-x="306" unicode="­" d="M43 285h240l-20 -71h-239z"/>
<glyph glyph-name="registered" horiz-adv-x="634" unicode="®" d="M356 436q26 0 46 16.5t20 44.5t-16 41.5t-41 13.5h-35v-116h26zM244 298q5 0 16.5 -0.5t13.5 2.5q13 6 13 19v208q0 11 -13 20q-6 3 -15.5 4.5t-14.5 3.5v13h143q16 0 31.5 -4t28 -12t20 -20.5t7.5 -28.5q0 -19 -7.5 -31.5t-20 -20.5t-29.5 -13t-35 -9q27 -3 48 -15.5 t34 -38.5q5 -11 9.5 -29.5t5.5 -22.5q5 -16 12.5 -20.5t12.5 -3.5q9 0 15 -0.5t11 -0.5v-17h-88q-5 23 -10.5 43.5t-14.5 42.5q-13 23 -28 37.5t-35 14.5h-24v-100q0 -5 2.5 -10.5t10.5 -8.5q2 -2 14.5 -2h18.5v-17h-132v17zM370 176q49 0 92 19t75 51.5t50.5 76.5t18.5 94 q0 49 -18.5 92t-50.5 75.5t-75 51t-92 18.5q-50 0 -93 -18.5t-74.5 -51t-49.5 -75.5t-18 -92q0 -50 18 -94t49.5 -76.5t74.5 -51.5t93 -19zM370 157q-54 0 -101.5 20.5t-83.5 55.5t-57 82.5t-21 101.5q0 53 21 100t57 82t83.5 55.5t101.5 20.5q53 0 100 -20.5t82.5 -55.5 t56 -82t20.5 -100q0 -54 -20.5 -101.5t-56 -82.5t-82.5 -55.5t-100 -20.5z"/>
<glyph glyph-name="macron" horiz-adv-x="331" unicode="¯" d="M23 643h298l-13 -53h-298z"/>
<glyph glyph-name="degree" horiz-adv-x="463" unicode="°" d="M259 412q22 0 41.5 10.5t34 30t23 46t8.5 58.5q0 52 -22.5 80.5t-62.5 28.5q-28 0 -48.5 -13t-34 -34t-20 -47t-6.5 -51q0 -51 21.5 -80t65.5 -29zM251 376q-30 0 -56.5 9t-46.5 27t-31.5 44t-11.5 60t14 67t38 59t57 42t72 16q29 0 56 -9t47.5 -27t32.5 -45.5t12 -63.5 q0 -38 -15.5 -70.5t-41 -56.5t-58.5 -38t-68 -14z"/>
<glyph glyph-name="plusminus" d="M276 258h-210v47h210v185h47v-185h211v-47h-211v-176h-47v176zM66 47h468v-47h-468v47z" unicode="±"/>
<glyph glyph-name="uni00B2" horiz-adv-x="378" unicode="²" d="M14 457q40 23 68 38.5t50 28.5t40 25.5t38 30.5q25 24 41 46t24 41.5t11 37t3 31.5q0 31 -18 45.5t-47 14.5q-12 0 -25 -3.5t-24.5 -9.5t-19.5 -14t-10 -17q0 -8 8 -14t8 -25q0 -13 -11 -27t-37 -14q-20 0 -27.5 12.5t-7.5 26.5q0 13 10 32.5t30.5 37.5t51.5 30.5 t74 12.5q56 0 89.5 -27.5t33.5 -69.5q0 -33 -12 -61t-40 -55t-74.5 -55.5t-116.5 -62.5l-21 -16h163q12 0 24 8t22.5 19t20 24t16.5 23l19 -4l-68 -128h-290z"/>
<glyph glyph-name="uni00B3" horiz-adv-x="375" unicode="³" d="M129 411q-24 0 -45.5 6t-38 17.5t-26 28t-9.5 37.5q0 28 17 43.5t40 15.5q17 0 26 -9t9 -23q0 -9 -5 -15t-11 -10.5t-12 -8t-9 -9.5q-2 -19 13.5 -34t55.5 -15q27 0 51 12.5t42.5 32.5t29.5 45t11 50q0 23 -9.5 34t-32.5 11q-16 0 -31 -7t-28 -18l-14 26q31 15 56 29 t43 29.5t28 33.5t10 41t-15 38.5t-46 15.5q-17 0 -28.5 -4.5t-19.5 -11t-12.5 -13t-5.5 -9.5q-2 -7 3.5 -14.5t5.5 -21.5q0 -12 -10 -26t-36 -14q-22 0 -29 14t-7 26q0 15 11.5 31.5t32 31t49.5 24t65 9.5q51 0 84 -20.5t33 -56.5q0 -33 -27.5 -61t-100.5 -43v-10 q6 2 9.5 2.5t8.5 0.5q13 0 29 -3.5t29.5 -12t22.5 -23t9 -36.5q0 -33 -17 -61.5t-46.5 -49.5t-68.5 -33t-84 -12z"/>
<glyph glyph-name="acute" horiz-adv-x="239" unicode="´" d="M10 538q20 21 36.5 36.5t31 30t29 28.5t31.5 31q11 11 24 18t25 7q21 0 31.5 -9.5t10.5 -24.5q0 -17 -9.5 -28t-32.5 -22q-14 -6 -29.5 -13.5t-35.5 -17.5l-45 -22.5t-59 -28.5z"/>
<glyph glyph-name="uni00B5" horiz-adv-x="554" unicode="µ" d="M393 -17q-9 0 -23 4.5t-27 16.5t-22 32.5t-9 52.5h-4q-12 -18 -28 -36t-34 -32t-36 -23t-34 -10h-9q-41 0 -61 17.5t-31 47.5h-4l-12 -29q-5 -11 -7.5 -20.5t-4 -20.5t-2 -25.5t-0.5 -35.5q0 -31 -3.5 -50.5t-11 -30.5t-18.5 -15t-26 -4q-16 0 -27 12.5t-11 31.5 q0 14 11 36.5t26.5 52t33 64.5t30.5 74l126 371h82l-113 -336q-5 -13 -7 -25.5t-2 -19.5q0 -9 2.5 -20.5t12.5 -21.5t31 -10q25 0 46.5 10t39 26.5t31.5 37.5t25 42l110 317h82l-120 -345q-4 -12 -7 -27.5t-0.5 -29t11.5 -22.5t28 -9q13 0 23.5 7.5t18.5 20t14.5 29 t13.5 33.5l25 -8q-20 -74 -53.5 -102t-75.5 -28z"/>
<glyph glyph-name="paragraph" horiz-adv-x="575" unicode="¶" d="M301 348h-11q-55 0 -91 11.5t-57.5 30t-30 41t-8.5 44.5q0 28 11.5 62t37 63.5t66.5 49t100 19.5h352l-7 -26h-121l-210 -772h-31l208 772h-94l-208 -772h-35z"/>
<glyph glyph-name="periodcentered" horiz-adv-x="293" unicode="·" d="M152 207q-25 0 -43 19t-18 45t18 43.5t43 17.5q26 0 43 -17.5t17 -43.5t-17 -45t-43 -19z"/>
<glyph glyph-name="cedilla" horiz-adv-x="208" unicode="¸" d="M135 0l-20 -51q13 1 28 0t27 -5t20 -12.5t8 -22.5q0 -29 -16 -46t-42 -26t-60 -12t-70 -3l6 26q23 0 44.5 1t38.5 5.5t27.5 13t10.5 24.5q0 14 -15.5 17t-45.5 3l36 88h23z"/>
<glyph glyph-name="uni00B9" horiz-adv-x="300" unicode="¹" d="M16 437q10 1 28 3.5t35 7.5q25 7 30 28l76 285q-6 -2 -14 -3.5t-19 -1.5q-16 0 -35.5 11.5t-36.5 26.5l13 15q15 -7 31.5 -12.5t39.5 -5.5q33 0 60.5 11t46.5 20h19q-12 -23 -23.5 -51.5t-17.5 -51.5l-60 -224q-2 -5 -3.5 -15.5t-1.5 -15.5q0 -11 16 -16q4 -1 11.5 -3 t15.5 -3.5l16 -3t13 -1.5l-5 -18h-241z"/>
<glyph glyph-name="ordmasculine" horiz-adv-x="377" unicode="º" d="M204 316q29 0 51.5 21.5t37.5 53.5t22.5 69t7.5 69q0 49 -15 68t-35 19q-29 0 -51 -21t-37.5 -53t-23.5 -69t-8 -68q0 -26 4 -43.5t11 -27.5t16 -14t20 -4zM52 206h254l-10 -36h-254zM190 290q-18 0 -35.5 7t-32 22t-23.5 39.5t-9 59.5q0 30 12.5 69t37.5 73.5t61.5 58 t84.5 23.5q18 0 36.5 -7t32.5 -22.5t23 -39.5t9 -57q0 -31 -12.5 -70t-37 -73.5t-61.5 -58.5t-86 -24z"/>
<glyph glyph-name="guillemotright" horiz-adv-x="578" unicode="»" d="M2 78l182 175l-101 180l26 16l153 -160q9 -8 10 -13t1 -13q0 -21 -10 -32t-24 -22l-223 -154zM227 78l182 175l-101 180l26 16l153 -160q9 -8 10 -13t1 -13q0 -21 -10 -32t-24 -22l-223 -154z"/>
<glyph glyph-name="onequarter" horiz-adv-x="783" unicode="¼" d="M16 247q10 1 28 3.5t35 7.5q25 7 30 28l76 285q-6 -2 -14 -3.5t-19 -1.5q-16 0 -35.5 11.5t-36.5 26.5l13 15q15 -7 31.5 -12.5t39.5 -5.5q33 0 60.5 11t46.5 20h19q-12 -23 -23.5 -51.5t-17.5 -51.5l-60 -224q-2 -5 -3.5 -15.5t-1.5 -15.5q0 -11 16 -16q4 -1 11.5 -3 t15.5 -3.5l16 -3t13 -1.5l-5 -18h-241zM40 -44l688 683l25 -23l-687 -683zM600 161l48 176l-211 -176h163zM495 18q9 1 24 1.5t22 2.5q14 4 20.5 10t9.5 18l21 78h-199l13 44l294 240h37l-68 -251h104l-11 -33h-101l-15 -59q-2 -8 -3 -14t-1 -11q0 -6 2.5 -13t10.5 -9 t21.5 -3t18.5 -1l-4 -18h-200z"/>
<glyph glyph-name="onehalf" horiz-adv-x="831" unicode="½" d="M16 247q10 1 28 3.5t35 7.5q25 7 30 28l76 285q-6 -2 -14 -3.5t-19 -1.5q-16 0 -35.5 11.5t-36.5 26.5l13 15q15 -7 31.5 -12.5t39.5 -5.5q33 0 60.5 11t46.5 20h19q-12 -23 -23.5 -51.5t-17.5 -51.5l-60 -224q-2 -5 -3.5 -15.5t-1.5 -15.5q0 -11 16 -16q4 -1 11.5 -3 t15.5 -3.5l16 -3t13 -1.5l-5 -18h-241zM40 -44l688 683l25 -23l-687 -683zM467 38q40 23 68 38.5t50 28.5t40 25.5t38 30.5q25 24 41 46t24 41.5t11 37t3 31.5q0 31 -18 45.5t-47 14.5q-12 0 -25 -3.5t-24.5 -9.5t-19.5 -14t-10 -17q0 -8 8 -14t8 -25q0 -13 -11 -27t-37 -14 q-20 0 -27.5 12.5t-7.5 26.5q0 13 10 32.5t30.5 37.5t51.5 30.5t74 12.5q56 0 89.5 -27.5t33.5 -69.5q0 -33 -12 -61t-40 -55t-74.5 -55.5t-116.5 -62.5l-21 -16h163q12 0 24 8t22.5 19t20 24t16.5 23l19 -4l-68 -128h-290z"/>
<glyph glyph-name="threequarters" horiz-adv-x="788" unicode="¾" d="M129 221q-24 0 -45.5 6t-38 17.5t-26 28t-9.5 37.5q0 28 17 43.5t40 15.5q17 0 26 -9t9 -23q0 -9 -5 -15t-11 -10.5t-12 -8t-9 -9.5q-2 -19 13.5 -34t55.5 -15q27 0 51 12.5t42.5 32.5t29.5 45t11 50q0 23 -9.5 34t-32.5 11q-16 0 -31 -7t-28 -18l-14 26q31 15 56 29 t43 29.5t28 33.5t10 41t-15 38.5t-46 15.5q-17 0 -28.5 -4.5t-19.5 -11t-12.5 -13t-5.5 -9.5q-2 -7 3.5 -14.5t5.5 -21.5q0 -12 -10 -26t-36 -14q-22 0 -29 14t-7 26q0 15 11.5 31.5t32 31t49.5 24t65 9.5q51 0 84 -20.5t33 -56.5q0 -33 -27.5 -61t-100.5 -43v-10 q6 2 9.5 2.5t8.5 0.5q13 0 29 -3.5t29.5 -12t22.5 -23t9 -36.5q0 -33 -17 -61.5t-46.5 -49.5t-68.5 -33t-84 -12zM45 -44l688 683l25 -23l-687 -683zM605 161l48 176l-211 -176h163zM500 18q9 1 24 1.5t22 2.5q14 4 20.5 10t9.5 18l21 78h-199l13 44l294 240h37l-68 -251 h104l-11 -33h-101l-15 -59q-2 -8 -3 -14t-1 -11q0 -6 2.5 -13t10.5 -9t21.5 -3t18.5 -1l-4 -18h-200z"/>
<glyph glyph-name="questiondown" horiz-adv-x="400" unicode="¿" d="M230 516q38 0 64.5 -26t26.5 -78q0 -26 -8.5 -46t-26 -37t-44 -32.5t-62.5 -32.5q-39 -18 -62 -35t-36 -34t-17 -36t-4 -40q0 -19 7 -36.5t22 -31.5t37 -22.5t52 -8.5q50 0 71 28.5t21 67.5v8t-2 10h-4q-8 -17 -20 -26.5t-29 -9.5t-28 10t-11 26q0 26 16.5 41t42.5 15 t46.5 -21t20.5 -59q0 -23 -10.5 -44.5t-29 -38t-45 -26t-58.5 -9.5q-38 0 -68.5 11.5t-53 32t-34.5 47.5t-12 58q0 49 27 92t96 72q30 13 58.5 26.5t51.5 30t37 36t14 45.5q0 29 -15.5 39t-33.5 10q-14 0 -25.5 -6.5t-20 -16t-15.5 -22t-12 -24.5l-23 12q16 34 42.5 57.5 t56.5 23.5zM296 683q23 0 39.5 -15.5t16.5 -38.5t-16.5 -40.5t-39.5 -17.5t-40 17.5t-17 40.5t17 38.5t40 15.5z"/>
<glyph glyph-name="Agrave" horiz-adv-x="641" unicode="À" d="M425 273v278l-205 -278h205zM-88 22q13 1 31 6t31 12q20 11 34.5 22.5t32.5 34.5l441 582h30v-598q0 -17 6 -28t23 -19q10 -5 24 -8t27 -4l-6 -22h-272l6 22q12 1 28.5 3t31.5 5t26 7.5t14 9.5q3 6 4 12.5t1 11.5v172h-229l-71 -100q-19 -27 -35 -51t-16 -37 q0 -10 12 -16t28.5 -9.5t34.5 -5t29 -2.5l-6 -22h-266zM375 810q-14 7 -25.5 16.5t-11.5 23.5t12.5 29t36.5 15q14 0 24 -7.5t23 -21.5q11 -12 22 -23.5t23.5 -25.5t28 -31t35.5 -41l-13 -16z"/>
<glyph glyph-name="Aacute" horiz-adv-x="641" unicode="Á" d="M425 273v278l-205 -278h205zM-88 22q13 1 31 6t31 12q20 11 34.5 22.5t32.5 34.5l441 582h30v-598q0 -17 6 -28t23 -19q10 -5 24 -8t27 -4l-6 -22h-272l6 22q12 1 28.5 3t31.5 5t26 7.5t14 9.5q3 6 4 12.5t1 11.5v172h-229l-71 -100q-19 -27 -35 -51t-16 -37 q0 -10 12 -16t28.5 -9.5t34.5 -5t29 -2.5l-6 -22h-266zM421 743q20 21 36.5 36.5t31 30t29 28.5t31.5 31q11 11 24 18t25 7q21 0 31.5 -9.5t10.5 -24.5q0 -17 -9.5 -28t-32.5 -22q-14 -6 -29.5 -13.5t-35.5 -17.5l-45 -22.5t-59 -28.5z"/>
<glyph glyph-name="Acircumflex" horiz-adv-x="641" unicode="Â" d="M425 273v278l-205 -278h205zM-88 22q13 1 31 6t31 12q20 11 34.5 22.5t32.5 34.5l441 582h30v-598q0 -17 6 -28t23 -19q10 -5 24 -8t27 -4l-6 -22h-272l6 22q12 1 28.5 3t31.5 5t26 7.5t14 9.5q3 6 4 12.5t1 11.5v172h-229l-71 -100q-19 -27 -35 -51t-16 -37 q0 -10 12 -16t28.5 -9.5t34.5 -5t29 -2.5l-6 -22h-266zM336 731q25 29 44 49.5t34 36t27 28t25 26.5q15 18 45 18q14 0 21 -3t12 -12l12 -26t12.5 -29t15 -36.5t20.5 -49.5l-18 -9l-90 101l-146 -101z"/>
<glyph glyph-name="Atilde" horiz-adv-x="641" unicode="Ã" d="M425 273v278l-205 -278h205zM-88 22q13 1 31 6t31 12q20 11 34.5 22.5t32.5 34.5l441 582h30v-598q0 -17 6 -28t23 -19q10 -5 24 -8t27 -4l-6 -22h-272l6 22q12 1 28.5 3t31.5 5t26 7.5t14 9.5q3 6 4 12.5t1 11.5v172h-229l-71 -100q-19 -27 -35 -51t-16 -37 q0 -10 12 -16t28.5 -9.5t34.5 -5t29 -2.5l-6 -22h-266zM321 751q9 16 21 34.5t28 34t34 26t39 10.5q26 0 40 -5t28 -13q11 -7 23 -13t29 -6q28 0 42 11t34 41l20 -7q-8 -16 -21 -35t-29 -35t-35.5 -26.5t-40.5 -10.5q-22 0 -34.5 4.5t-23.5 11.5q-14 8 -28 16.5t-37 8.5 q-20 0 -35 -14t-33 -42z"/>
<glyph glyph-name="Adieresis" horiz-adv-x="641" unicode="Ä" d="M425 273v278l-205 -278h205zM-88 22q13 1 31 6t31 12q20 11 34.5 22.5t32.5 34.5l441 582h30v-598q0 -17 6 -28t23 -19q10 -5 24 -8t27 -4l-6 -22h-272l6 22q12 1 28.5 3t31.5 5t26 7.5t14 9.5q3 6 4 12.5t1 11.5v172h-229l-71 -100q-19 -27 -35 -51t-16 -37 q0 -10 12 -16t28.5 -9.5t34.5 -5t29 -2.5l-6 -22h-266zM383 744q-19 0 -30 14t-11 32q0 23 17 42.5t42 19.5q21 0 32.5 -13t11.5 -31q0 -24 -18 -44t-44 -20zM574 744q-20 0 -31.5 14t-11.5 32q0 12 5 23t13.5 19.5t19.5 14t23 5.5q22 0 34.5 -13t12.5 -31q0 -24 -19.5 -44 t-45.5 -20z"/>
<glyph glyph-name="Aring" horiz-adv-x="641" unicode="Å" d="M425 273v278l-205 -278h205zM505 684q30 0 46.5 23t16.5 52q0 28 -13.5 44t-40.5 16q-28 0 -45 -20.5t-17 -52.5q0 -29 13.5 -45.5t39.5 -16.5zM512 81q0 -17 6 -28t23 -19q10 -5 24 -8t27 -4l-6 -22h-272l6 22q12 1 28.5 3t31.5 5t26 7.5t14 9.5q3 6 4 12.5t1 11.5v172 h-229l-71 -100q-19 -27 -35 -51t-16 -37q0 -10 12 -16t28.5 -9.5t34.5 -5t29 -2.5l-6 -22h-266l6 22q13 1 31 6t31 12q20 11 34.5 22.5t32.5 34.5l434 572q-32 8 -50.5 29t-18.5 54q0 38 30 62.5t75 24.5q48 0 75 -24.5t27 -63.5q0 -38 -29.5 -62t-71.5 -24v-584z"/>
<glyph glyph-name="AE" horiz-adv-x="913" unicode="Æ" d="M457 305l89 321h-16l-273 -321h200zM-108 22q15 1 38 4.5t38 11.5q22 11 43.5 30.5t42.5 44.5q52 60 108 125t113.5 131.5t115.5 134.5t114 134q-6 2 -20 4.5t-30.5 5.5t-31.5 5t-23 2l4 14h541l-40 -150h-30v10q0 15 -4 33t-12 34t-19.5 28t-26.5 14q-17 2 -38 3.5 t-44 1.5h-95l-80 -283h73q21 0 35 3t23.5 7.5t16 9.5t11.5 9q7 6 15 16t15.5 22.5t13.5 25t11 22.5h30l-75 -260h-30q5 20 5 47q0 14 -1.5 25t-5.5 17q-4 7 -8.5 12.5t-12 9.5t-19.5 6t-32 2h-71l-63 -220q-5 -14 -6.5 -26.5t-1.5 -22.5q0 -22 22 -29t73 -7q19 0 33 -0.5 t20 -0.5q17 0 35.5 1.5t37 6t29.5 13.5q13 11 30 29.5t33.5 38t30 38t20.5 29.5h27l-59 -184h-542l6 22q6 0 17 1.5t23 3.5t22 3.5t15 2.5q19 6 27.5 18t13.5 29l54 193h-218q-14 -16 -31 -37t-34.5 -42.5t-33 -40t-24.5 -30.5q-11 -14 -22 -31.5t-11 -27.5t8 -17 t20.5 -12.5t28 -8.5t31.5 -4l-5 -22h-270z"/>
<glyph glyph-name="Ccedilla" horiz-adv-x="592" unicode="Ç" d="M237 -8q-88 15 -136 80t-48 167q0 85 28 165t79 141.5t122 98.5t157 37q20 0 40.5 -5t38.5 -13t32 -18t21 -21l40 55h31l-46 -243h-28q-4 39 -14 77.5t-29 69t-48.5 49.5t-72.5 19q-57 0 -103.5 -36t-79.5 -92.5t-51 -125t-18 -133.5q0 -50 12 -91.5t35 -71.5t55 -46.5 t73 -16.5q42 0 74 11t57.5 30t46 45t38.5 56l21 -16q-20 -32 -45 -63.5t-58 -56.5t-75.5 -41t-96.5 -16h-15.5t-14.5 2l-16 -40q13 1 28 0t27 -5t20 -12.5t8 -22.5q0 -29 -16 -46t-42 -26t-60 -12t-70 -3l6 26q23 0 44.5 1t38.5 5.5t27.5 13t10.5 24.5q0 14 -15.5 17 t-45.5 3z"/>
<glyph glyph-name="Egrave" horiz-adv-x="609" unicode="È" d="M-29 22q6 0 17 1t22.5 2.5t22 3.5t15.5 4q19 6 27.5 18t13.5 29l136 494q2 7 3.5 14t1.5 12q0 10 -4 15.5t-17 13.5q-12 6 -34.5 11t-34.5 6l8 23h493l-40 -150h-30v10q0 15 -4 33t-12 34t-19.5 28t-26.5 14q-17 2 -38 3.5t-44 1.5h-98l-77 -283h73q21 0 35 3t23.5 7.5 t16 9.5t11.5 9q7 6 15 16t15 22.5t13 25t9 22.5h33l-75 -260h-30q2 9 2.5 21t0.5 26t-0.5 25t-4.5 17q-4 7 -8.5 12.5t-12 9.5t-19.5 6t-32 2h-73l-58 -220q-8 -29 -8 -49q0 -23 20.5 -29.5t71.5 -6.5q20 -1 42 -1h11q17 0 33 2q22 2 40 6t29 13q13 11 30 29.5t33.5 38 t30 38t20.5 29.5h27l-62 -184h-539zM319 810q-14 7 -25.5 16.5t-11.5 23.5t12.5 29t36.5 15q14 0 24 -7.5t23 -21.5q11 -12 22 -23.5t23.5 -25.5t28 -31t35.5 -41l-13 -16z"/>
<glyph glyph-name="Eacute" horiz-adv-x="609" unicode="É" d="M-29 22q6 0 17 1t22.5 2.5t22 3.5t15.5 4q19 6 27.5 18t13.5 29l136 494q2 7 3.5 14t1.5 12q0 10 -4 15.5t-17 13.5q-12 6 -34.5 11t-34.5 6l8 23h493l-40 -150h-30v10q0 15 -4 33t-12 34t-19.5 28t-26.5 14q-17 2 -38 3.5t-44 1.5h-98l-77 -283h73q21 0 35 3t23.5 7.5 t16 9.5t11.5 9q7 6 15 16t15 22.5t13 25t9 22.5h33l-75 -260h-30q2 9 2.5 21t0.5 26t-0.5 25t-4.5 17q-4 7 -8.5 12.5t-12 9.5t-19.5 6t-32 2h-73l-58 -220q-8 -29 -8 -49q0 -23 20.5 -29.5t71.5 -6.5q20 -1 42 -1h11q17 0 33 2q22 2 40 6t29 13q13 11 30 29.5t33.5 38 t30 38t20.5 29.5h27l-62 -184h-539zM345 743q20 21 36.5 36.5t31 30t29 28.5t31.5 31q11 11 24 18t25 7q21 0 31.5 -9.5t10.5 -24.5q0 -17 -9.5 -28t-32.5 -22q-14 -6 -29.5 -13.5t-35.5 -17.5l-45 -22.5t-59 -28.5z"/>
<glyph glyph-name="Ecircumflex" horiz-adv-x="609" unicode="Ê" d="M-29 22q6 0 17 1t22.5 2.5t22 3.5t15.5 4q19 6 27.5 18t13.5 29l136 494q2 7 3.5 14t1.5 12q0 10 -4 15.5t-17 13.5q-12 6 -34.5 11t-34.5 6l8 23h493l-40 -150h-30v10q0 15 -4 33t-12 34t-19.5 28t-26.5 14q-17 2 -38 3.5t-44 1.5h-98l-77 -283h73q21 0 35 3t23.5 7.5 t16 9.5t11.5 9q7 6 15 16t15 22.5t13 25t9 22.5h33l-75 -260h-30q2 9 2.5 21t0.5 26t-0.5 25t-4.5 17q-4 7 -8.5 12.5t-12 9.5t-19.5 6t-32 2h-73l-58 -220q-8 -29 -8 -49q0 -23 20.5 -29.5t71.5 -6.5q20 -1 42 -1h11q17 0 33 2q22 2 40 6t29 13q13 11 30 29.5t33.5 38 t30 38t20.5 29.5h27l-62 -184h-539zM290 731q25 29 44 49.5t34 36t27 28t25 26.5q15 18 45 18q14 0 21 -3t12 -12l12 -26t12.5 -29t15 -36.5t20.5 -49.5l-18 -9l-90 101l-146 -101z"/>
<glyph glyph-name="Edieresis" horiz-adv-x="609" unicode="Ë" d="M-29 22q6 0 17 1t22.5 2.5t22 3.5t15.5 4q19 6 27.5 18t13.5 29l136 494q2 7 3.5 14t1.5 12q0 10 -4 15.5t-17 13.5q-12 6 -34.5 11t-34.5 6l8 23h493l-40 -150h-30v10q0 15 -4 33t-12 34t-19.5 28t-26.5 14q-17 2 -38 3.5t-44 1.5h-98l-77 -283h73q21 0 35 3t23.5 7.5 t16 9.5t11.5 9q7 6 15 16t15 22.5t13 25t9 22.5h33l-75 -260h-30q2 9 2.5 21t0.5 26t-0.5 25t-4.5 17q-4 7 -8.5 12.5t-12 9.5t-19.5 6t-32 2h-73l-58 -220q-8 -29 -8 -49q0 -23 20.5 -29.5t71.5 -6.5q20 -1 42 -1h11q17 0 33 2q22 2 40 6t29 13q13 11 30 29.5t33.5 38 t30 38t20.5 29.5h27l-62 -184h-539zM317 744q-19 0 -30 14t-11 32q0 23 17 42.5t42 19.5q21 0 32.5 -13t11.5 -31q0 -24 -18 -44t-44 -20zM508 744q-20 0 -31.5 14t-11.5 32q0 12 5 23t13.5 19.5t19.5 14t23 5.5q22 0 34.5 -13t12.5 -31q0 -24 -19.5 -44t-45.5 -20z"/>
<glyph glyph-name="Igrave" horiz-adv-x="371" unicode="Ì" d="M-21 22q6 0 15.5 0.5t20 1t19.5 1.5t15 4q18 8 27 19t14 26l138 499q2 7 3.5 14.5t1.5 14.5q0 17 -21 28q-11 6 -31.5 11t-32.5 5l8 23h280l-6 -23q-13 0 -35 -2.5t-37 -7.5q-19 -7 -26.5 -19.5t-12.5 -28.5l-139 -496q-2 -5 -2.5 -13.5t-0.5 -13.5q0 -11 3.5 -18 t15.5 -12q4 -2 12 -4t17 -4t18 -3.5t15 -1.5l-6 -22h-279zM240 810q-14 7 -25.5 16.5t-11.5 23.5t12.5 29t36.5 15q14 0 24 -7.5t23 -21.5q11 -12 22 -23.5t23.5 -25.5t28 -31t35.5 -41l-13 -16z"/>
<glyph glyph-name="Iacute" horiz-adv-x="371" unicode="Í" d="M-21 22q6 0 15.5 0.5t20 1t19.5 1.5t15 4q18 8 27 19t14 26l138 499q2 7 3.5 14.5t1.5 14.5q0 17 -21 28q-11 6 -31.5 11t-32.5 5l8 23h280l-6 -23q-13 0 -35 -2.5t-37 -7.5q-19 -7 -26.5 -19.5t-12.5 -28.5l-139 -496q-2 -5 -2.5 -13.5t-0.5 -13.5q0 -11 3.5 -18 t15.5 -12q4 -2 12 -4t17 -4t18 -3.5t15 -1.5l-6 -22h-279zM186 743q20 21 36.5 36.5t31 30t29 28.5t31.5 31q11 11 24 18t25 7q21 0 31.5 -9.5t10.5 -24.5q0 -17 -9.5 -28t-32.5 -22q-14 -6 -29.5 -13.5t-35.5 -17.5l-45 -22.5t-59 -28.5z"/>
<glyph glyph-name="Icircumflex" horiz-adv-x="371" unicode="Î" d="M-21 22q6 0 15.5 0.5t20 1t19.5 1.5t15 4q18 8 27 19t14 26l138 499q2 7 3.5 14.5t1.5 14.5q0 17 -21 28q-11 6 -31.5 11t-32.5 5l8 23h280l-6 -23q-13 0 -35 -2.5t-37 -7.5q-19 -7 -26.5 -19.5t-12.5 -28.5l-139 -496q-2 -5 -2.5 -13.5t-0.5 -13.5q0 -11 3.5 -18 t15.5 -12q4 -2 12 -4t17 -4t18 -3.5t15 -1.5l-6 -22h-279zM169 731q25 29 44 49.5t34 36t27 28t25 26.5q15 18 45 18q14 0 21 -3t12 -12l12 -26t12.5 -29t15 -36.5t20.5 -49.5l-18 -9l-90 101l-146 -101z"/>
<glyph glyph-name="Idieresis" horiz-adv-x="371" unicode="Ï" d="M-21 22q6 0 15.5 0.5t20 1t19.5 1.5t15 4q18 8 27 19t14 26l138 499q2 7 3.5 14.5t1.5 14.5q0 17 -21 28q-11 6 -31.5 11t-32.5 5l8 23h280l-6 -23q-13 0 -35 -2.5t-37 -7.5q-19 -7 -26.5 -19.5t-12.5 -28.5l-139 -496q-2 -5 -2.5 -13.5t-0.5 -13.5q0 -11 3.5 -18 t15.5 -12q4 -2 12 -4t17 -4t18 -3.5t15 -1.5l-6 -22h-279zM203 744q-19 0 -30 14t-11 32q0 23 17 42.5t42 19.5q21 0 32.5 -13t11.5 -31q0 -24 -18 -44t-44 -20zM394 744q-20 0 -31.5 14t-11.5 32q0 12 5 23t13.5 19.5t19.5 14t23 5.5q22 0 34.5 -13t12.5 -31 q0 -24 -19.5 -44t-45.5 -20z"/>
<glyph glyph-name="Eth" horiz-adv-x="705" unicode="Ð" d="M417 369l-8 -30h-162l-64 -232q-3 -14 -3 -27q0 -21 27 -36.5t82 -15.5q76 0 133 32.5t94.5 86.5t56 125t18.5 148q0 50 -12.5 91t-37 70t-60.5 45t-84 16q-17 0 -35 -0.5t-33 -1.5l-74 -271h162zM39 339l8 30h121l57 205q2 5 3 12.5t1 12.5q0 11 -3.5 18.5t-15.5 13.5 q-15 8 -32.5 11t-29.5 4l9 23h266q39 0 86 -12t87.5 -40.5t68 -77t27.5 -120.5q0 -104 -38.5 -182.5t-100 -131t-138.5 -79t-154 -26.5h-291l6 22q7 0 17.5 0.5t21 1.5t19.5 2t14 3q18 6 26.5 19t13.5 30l72 261h-121z"/>
<glyph glyph-name="Ntilde" horiz-adv-x="738" unicode="Ñ" d="M255 565l-102 -383q-15 -56 -15 -90q0 -14 4 -24t10 -16t17.5 -11t25 -9t26 -7t19.5 -3l-6 -22h-288l8 22q7 0 21 3t29 6.5t27.5 7.5t17.5 7q11 7 19 17.5t15 26t14 37t15 51.5l97 356q2 10 5 21.5t3 19.5q0 16 -4.5 22.5t-14.5 16.5q-18 17 -42 24t-44 8l8 23h185 l227 -526l90 347q8 30 13.5 55.5t5.5 37.5q0 13 -3.5 22.5t-8.5 12.5q-9 7 -21 12t-24.5 8.5t-24 5.5t-18.5 2l6 23h281l-6 -23q-6 0 -18 -3t-25.5 -6.5t-26 -7.5t-19.5 -6q-23 -11 -38.5 -41t-30.5 -87l-132 -501h-28zM330 751q9 16 21 34.5t28 34t34 26t39 10.5 q26 0 40 -5t28 -13q11 -7 23 -13t29 -6q28 0 42 11t34 41l20 -7q-8 -16 -21 -35t-29 -35t-35.5 -26.5t-40.5 -10.5q-22 0 -34.5 4.5t-23.5 11.5q-14 8 -28 16.5t-37 8.5q-20 0 -35 -14t-33 -42z"/>
<glyph glyph-name="Ograve" horiz-adv-x="690" unicode="Ò" d="M303 16q63 0 113.5 37t86 98t54 138.5t18.5 157.5q0 42 -7.5 79.5t-25 66t-46.5 45t-72 16.5q-59 0 -109.5 -34.5t-87.5 -93t-57.5 -136.5t-20.5 -165q0 -46 8.5 -84.5t27 -66t48 -43t70.5 -15.5zM292 -14q-54 0 -98 19.5t-75.5 54t-49 82.5t-17.5 105q0 91 31 170.5 t83.5 138.5t121 93t144.5 34q48 0 92 -17t77.5 -50.5t53 -83t19.5 -114.5q0 -81 -28 -158.5t-79 -138.5t-121 -98t-154 -37zM339 810q-14 7 -25.5 16.5t-11.5 23.5t12.5 29t36.5 15q14 0 24 -7.5t23 -21.5q11 -12 22 -23.5t23.5 -25.5t28 -31t35.5 -41l-13 -16z"/>
<glyph glyph-name="Oacute" horiz-adv-x="690" unicode="Ó" d="M303 16q63 0 113.5 37t86 98t54 138.5t18.5 157.5q0 42 -7.5 79.5t-25 66t-46.5 45t-72 16.5q-59 0 -109.5 -34.5t-87.5 -93t-57.5 -136.5t-20.5 -165q0 -46 8.5 -84.5t27 -66t48 -43t70.5 -15.5zM292 -14q-54 0 -98 19.5t-75.5 54t-49 82.5t-17.5 105q0 91 31 170.5 t83.5 138.5t121 93t144.5 34q48 0 92 -17t77.5 -50.5t53 -83t19.5 -114.5q0 -81 -28 -158.5t-79 -138.5t-121 -98t-154 -37zM335 743q20 21 36.5 36.5t31 30t29 28.5t31.5 31q11 11 24 18t25 7q21 0 31.5 -9.5t10.5 -24.5q0 -17 -9.5 -28t-32.5 -22q-14 -6 -29.5 -13.5 t-35.5 -17.5l-45 -22.5t-59 -28.5z"/>
<glyph glyph-name="Ocircumflex" horiz-adv-x="690" unicode="Ô" d="M303 16q63 0 113.5 37t86 98t54 138.5t18.5 157.5q0 42 -7.5 79.5t-25 66t-46.5 45t-72 16.5q-59 0 -109.5 -34.5t-87.5 -93t-57.5 -136.5t-20.5 -165q0 -46 8.5 -84.5t27 -66t48 -43t70.5 -15.5zM292 -14q-54 0 -98 19.5t-75.5 54t-49 82.5t-17.5 105q0 91 31 170.5 t83.5 138.5t121 93t144.5 34q48 0 92 -17t77.5 -50.5t53 -83t19.5 -114.5q0 -81 -28 -158.5t-79 -138.5t-121 -98t-154 -37zM311 731q25 29 44 49.5t34 36t27 28t25 26.5q15 18 45 18q14 0 21 -3t12 -12l12 -26t12.5 -29t15 -36.5t20.5 -49.5l-18 -9l-90 101l-146 -101z"/>
<glyph glyph-name="Otilde" horiz-adv-x="690" unicode="Õ" d="M303 16q63 0 113.5 37t86 98t54 138.5t18.5 157.5q0 42 -7.5 79.5t-25 66t-46.5 45t-72 16.5q-59 0 -109.5 -34.5t-87.5 -93t-57.5 -136.5t-20.5 -165q0 -46 8.5 -84.5t27 -66t48 -43t70.5 -15.5zM292 -14q-54 0 -98 19.5t-75.5 54t-49 82.5t-17.5 105q0 91 31 170.5 t83.5 138.5t121 93t144.5 34q48 0 92 -17t77.5 -50.5t53 -83t19.5 -114.5q0 -81 -28 -158.5t-79 -138.5t-121 -98t-154 -37zM276 751q9 16 21 34.5t28 34t34 26t39 10.5q26 0 40 -5t28 -13q11 -7 23 -13t29 -6q28 0 42 11t34 41l20 -7q-8 -16 -21 -35t-29 -35t-35.5 -26.5 t-40.5 -10.5q-22 0 -34.5 4.5t-23.5 11.5q-14 8 -28 16.5t-37 8.5q-20 0 -35 -14t-33 -42z"/>
<glyph glyph-name="Odieresis" horiz-adv-x="690" unicode="Ö" d="M303 16q63 0 113.5 37t86 98t54 138.5t18.5 157.5q0 42 -7.5 79.5t-25 66t-46.5 45t-72 16.5q-59 0 -109.5 -34.5t-87.5 -93t-57.5 -136.5t-20.5 -165q0 -46 8.5 -84.5t27 -66t48 -43t70.5 -15.5zM292 -14q-54 0 -98 19.5t-75.5 54t-49 82.5t-17.5 105q0 91 31 170.5 t83.5 138.5t121 93t144.5 34q48 0 92 -17t77.5 -50.5t53 -83t19.5 -114.5q0 -81 -28 -158.5t-79 -138.5t-121 -98t-154 -37zM337 744q-19 0 -30 14t-11 32q0 23 17 42.5t42 19.5q21 0 32.5 -13t11.5 -31q0 -24 -18 -44t-44 -20zM528 744q-20 0 -31.5 14t-11.5 32q0 12 5 23 t13.5 19.5t19.5 14t23 5.5q22 0 34.5 -13t12.5 -31q0 -24 -19.5 -44t-45.5 -20z"/>
<glyph glyph-name="multiply" d="M120 97l157 155l-157 156l27 27l157 -156l155 156l25 -27l-155 -156l155 -155l-25 -27l-155 158l-157 -158z" unicode="×"/>
<glyph glyph-name="Oslash" horiz-adv-x="690" unicode="Ø" d="M159 125q16 -51 51 -80t93 -29q63 0 114 37t87 98t55 138.5t19 157.5q0 34 -6 66zM151 158l18 16q18 16 47 44t66.5 63t76 71.5t75.5 71.5t66 62q30 28 48 44l17 16q-16 48 -49.5 78t-91.5 30q-59 0 -110 -34.5t-88.5 -93t-58.5 -136.5t-21 -165q0 -18 1.5 -34.5 t3.5 -32.5zM635 572q39 -62 39 -154q0 -81 -28 -158.5t-79 -138.5t-121 -98t-154 -37q-60 0 -107 23t-79 65q-8 -8 -17 -16q-8 -8 -18 -16.5t-20 -18.5q-25 -23 -55 -52l-20 22q19 17 38 35q17 16 36.5 34.5t38.5 36.5q-37 63 -37 148q0 91 31 170.5t83.5 138.5t121 93 t144.5 34q55 0 103.5 -21.5t82.5 -64.5q17 16 35 33.5t33 31.5q18 17 35 32l20 -22z"/>
<glyph glyph-name="Ugrave" horiz-adv-x="724" unicode="Ù" d="M303 -14q-51 0 -90 12.5t-65 33t-39 46.5t-13 54q0 14 4 32.5t10 41.5l101 368q2 10 4 18.5t2 13.5q0 8 -3.5 13.5t-13.5 11.5q-13 7 -31.5 10.5t-32.5 4.5l6 23h282l-6 -23q-14 -1 -35.5 -3t-38.5 -7q-20 -6 -28 -19t-13 -30l-110 -388q-3 -10 -6.5 -24.5t-3.5 -33.5 q0 -20 7 -39.5t24 -34.5t45 -24.5t69 -9.5q58 0 96 18t62 43.5t36 54.5t18 50l82 293q6 23 9.5 48.5t3.5 41.5q0 14 -2 21.5t-10 15.5q-8 7 -19.5 12.5t-23.5 8.5t-24 4.5t-21 1.5l8 23h285l-8 -23q-6 0 -17 -2t-24 -5t-27 -7t-25 -8q-21 -8 -36 -42t-29 -85l-85 -304 q-17 -61 -48.5 -101t-69.5 -63.5t-79 -33t-77 -9.5zM396 810q-14 7 -25.5 16.5t-11.5 23.5t12.5 29t36.5 15q14 0 24 -7.5t23 -21.5q11 -12 22 -23.5t23.5 -25.5t28 -31t35.5 -41l-13 -16z"/>
<glyph glyph-name="Uacute" horiz-adv-x="724" unicode="Ú" d="M303 -14q-51 0 -90 12.5t-65 33t-39 46.5t-13 54q0 14 4 32.5t10 41.5l101 368q2 10 4 18.5t2 13.5q0 8 -3.5 13.5t-13.5 11.5q-13 7 -31.5 10.5t-32.5 4.5l6 23h282l-6 -23q-14 -1 -35.5 -3t-38.5 -7q-20 -6 -28 -19t-13 -30l-110 -388q-3 -10 -6.5 -24.5t-3.5 -33.5 q0 -20 7 -39.5t24 -34.5t45 -24.5t69 -9.5q58 0 96 18t62 43.5t36 54.5t18 50l82 293q6 23 9.5 48.5t3.5 41.5q0 14 -2 21.5t-10 15.5q-8 7 -19.5 12.5t-23.5 8.5t-24 4.5t-21 1.5l8 23h285l-8 -23q-6 0 -17 -2t-24 -5t-27 -7t-25 -8q-21 -8 -36 -42t-29 -85l-85 -304 q-17 -61 -48.5 -101t-69.5 -63.5t-79 -33t-77 -9.5zM402 743q20 21 36.5 36.5t31 30t29 28.5t31.5 31q11 11 24 18t25 7q21 0 31.5 -9.5t10.5 -24.5q0 -17 -9.5 -28t-32.5 -22q-14 -6 -29.5 -13.5t-35.5 -17.5l-45 -22.5t-59 -28.5z"/>
<glyph glyph-name="Ucircumflex" horiz-adv-x="724" unicode="Û" d="M303 -14q-51 0 -90 12.5t-65 33t-39 46.5t-13 54q0 14 4 32.5t10 41.5l101 368q2 10 4 18.5t2 13.5q0 8 -3.5 13.5t-13.5 11.5q-13 7 -31.5 10.5t-32.5 4.5l6 23h282l-6 -23q-14 -1 -35.5 -3t-38.5 -7q-20 -6 -28 -19t-13 -30l-110 -388q-3 -10 -6.5 -24.5t-3.5 -33.5 q0 -20 7 -39.5t24 -34.5t45 -24.5t69 -9.5q58 0 96 18t62 43.5t36 54.5t18 50l82 293q6 23 9.5 48.5t3.5 41.5q0 14 -2 21.5t-10 15.5q-8 7 -19.5 12.5t-23.5 8.5t-24 4.5t-21 1.5l8 23h285l-8 -23q-6 0 -17 -2t-24 -5t-27 -7t-25 -8q-21 -8 -36 -42t-29 -85l-85 -304 q-17 -61 -48.5 -101t-69.5 -63.5t-79 -33t-77 -9.5zM348 731q25 29 44 49.5t34 36t27 28t25 26.5q15 18 45 18q14 0 21 -3t12 -12l12 -26t12.5 -29t15 -36.5t20.5 -49.5l-18 -9l-90 101l-146 -101z"/>
<glyph glyph-name="Udieresis" horiz-adv-x="724" unicode="Ü" d="M303 -14q-51 0 -90 12.5t-65 33t-39 46.5t-13 54q0 14 4 32.5t10 41.5l101 368q2 10 4 18.5t2 13.5q0 8 -3.5 13.5t-13.5 11.5q-13 7 -31.5 10.5t-32.5 4.5l6 23h282l-6 -23q-14 -1 -35.5 -3t-38.5 -7q-20 -6 -28 -19t-13 -30l-110 -388q-3 -10 -6.5 -24.5t-3.5 -33.5 q0 -20 7 -39.5t24 -34.5t45 -24.5t69 -9.5q58 0 96 18t62 43.5t36 54.5t18 50l82 293q6 23 9.5 48.5t3.5 41.5q0 14 -2 21.5t-10 15.5q-8 7 -19.5 12.5t-23.5 8.5t-24 4.5t-21 1.5l8 23h285l-8 -23q-6 0 -17 -2t-24 -5t-27 -7t-25 -8q-21 -8 -36 -42t-29 -85l-85 -304 q-17 -61 -48.5 -101t-69.5 -63.5t-79 -33t-77 -9.5zM404 744q-19 0 -30 14t-11 32q0 23 17 42.5t42 19.5q21 0 32.5 -13t11.5 -31q0 -24 -18 -44t-44 -20zM595 744q-20 0 -31.5 14t-11.5 32q0 12 5 23t13.5 19.5t19.5 14t23 5.5q22 0 34.5 -13t12.5 -31q0 -24 -19.5 -44 t-45.5 -20z"/>
<glyph glyph-name="Yacute" horiz-adv-x="575" unicode="Ý" d="M69 22q7 1 18 2t22.5 2.5t22 3t16.5 3.5q20 6 29 19.5t13 28.5l40 157q2 9 2.5 16t0.5 15q0 11 -2.5 24t-5.5 27q-15 66 -28 131.5t-30 119.5q-8 25 -17 38.5t-23 22.5q-11 7 -25.5 10t-28.5 4l6 23h280l-6 -23q-13 0 -30.5 -1t-33.5 -4t-27.5 -7.5t-11.5 -11.5 q0 -9 2.5 -22.5t7.5 -39.5q8 -42 25 -107.5t35 -137.5q54 63 102 122t77 100q15 21 25 35.5t16 24t8.5 15t2.5 9.5q0 6 -8 10.5t-20.5 7.5t-29 5t-33.5 2l6 23h246l-6 -23q-11 -1 -26 -6t-29 -11q-9 -4 -16 -7.5t-14 -8.5t-14.5 -12.5l-17.5 -17.5q-51 -53 -103.5 -119 t-114.5 -143q-23 -28 -38.5 -53t-23.5 -54l-30 -119q-1 -5 -2.5 -14.5t-1.5 -13.5q0 -10 5 -18.5t15 -10.5q20 -5 39 -9.5t33 -6.5l-6 -22h-298zM348 743q20 21 36.5 36.5t31 30t29 28.5t31.5 31q11 11 24 18t25 7q21 0 31.5 -9.5t10.5 -24.5q0 -17 -9.5 -28t-32.5 -22 q-14 -6 -29.5 -13.5t-35.5 -17.5l-45 -22.5t-59 -28.5z"/>
<glyph glyph-name="Thorn" horiz-adv-x="574" unicode="Þ" d="M254 220q52 0 89 16t60.5 43t34 62t10.5 73q0 22 -6 41t-19.5 33.5t-35.5 23t-55 8.5h-39l-82 -300h43zM-27 22q6 0 16 1t20.5 2t19.5 2.5t14 3.5q19 7 27.5 19t13.5 29l139 497l4 16t2 16q0 9 -4.5 16.5t-17.5 11.5q-14 5 -33.5 7t-31.5 3l6 23h284l-6 -23 q-13 -1 -32.5 -5t-41.5 -9q-20 -5 -28 -17t-13 -29l-10 -38h87q33 0 62.5 -8.5t52 -25t36 -40.5t13.5 -55q0 -58 -27.5 -100.5t-70 -70.5t-93 -41.5t-96.5 -13.5h-64l-28 -103q-2 -5 -3.5 -14.5t-1.5 -13.5q0 -21 21 -31q4 -2 12.5 -3.5t19 -2.5l21 -2t19.5 -1l-8 -22h-285z "/>
<glyph glyph-name="germandbls" horiz-adv-x="531" unicode="ß" d="M-96 -169q-36 0 -54.5 16.5t-18.5 39.5q0 17 12.5 32.5t34.5 15.5q23 0 35.5 -13t12.5 -33q0 -9 -2.5 -21t-7.5 -19q22 1 41.5 9t36.5 31.5t33.5 65.5t34.5 110q16 62 26.5 106t19.5 85.5t20 87.5t29 111q18 66 45 111.5t61 74t72 41t78 12.5q30 0 55.5 -8.5t43.5 -22.5 t28 -33t10 -41q0 -37 -8 -67.5t-25 -50.5q-65 -21 -94.5 -44t-29.5 -53q0 -32 12.5 -58t38.5 -64q17 -24 32 -50t15 -56q0 -43 -17 -73t-42 -49t-53.5 -28t-51.5 -9q-24 0 -44.5 6t-35.5 17.5t-24 27t-9 34.5q0 22 13.5 39.5t37.5 17.5q40 0 40 -34q0 -10 -3 -16t-7.5 -9.5 t-9.5 -6l-9 -4.5q-14 -6 -14 -15q0 -12 18 -23t52 -11q19 0 35 7.5t27.5 19.5t18 27.5t6.5 32.5q0 39 -15 66t-32 50q-23 33 -38 59t-15 58q0 45 32.5 78t78.5 53q25 16 41 46t16 68q0 43 -23 68t-71 25q-47 0 -86.5 -41.5t-66.5 -139.5q-17 -64 -29 -117t-23 -102.5 t-23 -99.5t-29 -107q-31 -107 -89 -168.5t-143 -61.5z"/>
<glyph glyph-name="agrave" horiz-adv-x="547" unicode="à" d="M176 28q22 0 42 9t37.5 24t32 34t25.5 39l72 225q-7 51 -26.5 75t-57.5 24q-40 0 -74 -33.5t-58.5 -83.5t-38.5 -108t-14 -106q0 -37 5.5 -57t14.5 -29.5t19.5 -11t20.5 -1.5zM159 -13q-24 0 -46.5 7t-40.5 25t-29 48t-11 76q0 27 8 63t24.5 73.5t40 74.5t54 65.5 t68.5 46.5t82 18q29 0 55.5 -19t32.5 -58h5l25 72h79l-113 -334q-3 -10 -6.5 -21.5t-5.5 -23.5t-3.5 -22.5t-1.5 -17.5q0 -22 10 -32.5t26 -10.5q18 0 33 13.5t27.5 33.5t23 44t19.5 44l21 -7q-11 -32 -24 -60t-30 -49t-39 -33.5t-49 -12.5q-15 0 -30 3.5t-27 14t-20 29.5 t-8 50l-4 2q-30 -45 -65 -73.5t-81 -28.5zM208 605q-14 7 -25.5 16.5t-11.5 23.5t12.5 29t36.5 15q14 0 24 -7.5t23 -21.5q11 -12 22 -23.5t23.5 -25.5t28 -31t35.5 -41l-13 -16z"/>
<glyph glyph-name="aacute" horiz-adv-x="547" unicode="á" d="M176 28q22 0 42 9t37.5 24t32 34t25.5 39l72 225q-7 51 -26.5 75t-57.5 24q-40 0 -74 -33.5t-58.5 -83.5t-38.5 -108t-14 -106q0 -37 5.5 -57t14.5 -29.5t19.5 -11t20.5 -1.5zM159 -13q-24 0 -46.5 7t-40.5 25t-29 48t-11 76q0 27 8 63t24.5 73.5t40 74.5t54 65.5 t68.5 46.5t82 18q29 0 55.5 -19t32.5 -58h5l25 72h79l-113 -334q-3 -10 -6.5 -21.5t-5.5 -23.5t-3.5 -22.5t-1.5 -17.5q0 -22 10 -32.5t26 -10.5q18 0 33 13.5t27.5 33.5t23 44t19.5 44l21 -7q-11 -32 -24 -60t-30 -49t-39 -33.5t-49 -12.5q-15 0 -30 3.5t-27 14t-20 29.5 t-8 50l-4 2q-30 -45 -65 -73.5t-81 -28.5zM244 538q20 21 36.5 36.5t31 30t29 28.5t31.5 31q11 11 24 18t25 7q21 0 31.5 -9.5t10.5 -24.5q0 -17 -9.5 -28t-32.5 -22q-14 -6 -29.5 -13.5t-35.5 -17.5l-45 -22.5t-59 -28.5z"/>
<glyph glyph-name="acircumflex" horiz-adv-x="547" unicode="â" d="M176 28q22 0 42 9t37.5 24t32 34t25.5 39l72 225q-7 51 -26.5 75t-57.5 24q-40 0 -74 -33.5t-58.5 -83.5t-38.5 -108t-14 -106q0 -37 5.5 -57t14.5 -29.5t19.5 -11t20.5 -1.5zM159 -13q-24 0 -46.5 7t-40.5 25t-29 48t-11 76q0 27 8 63t24.5 73.5t40 74.5t54 65.5 t68.5 46.5t82 18q29 0 55.5 -19t32.5 -58h5l25 72h79l-113 -334q-3 -10 -6.5 -21.5t-5.5 -23.5t-3.5 -22.5t-1.5 -17.5q0 -22 10 -32.5t26 -10.5q18 0 33 13.5t27.5 33.5t23 44t19.5 44l21 -7q-11 -32 -24 -60t-30 -49t-39 -33.5t-49 -12.5q-15 0 -30 3.5t-27 14t-20 29.5 t-8 50l-4 2q-30 -45 -65 -73.5t-81 -28.5zM194 526q25 29 44 49.5t34 36t27 28t25 26.5q15 18 45 18q14 0 21 -3t12 -12l12 -26t12.5 -29t15 -36.5t20.5 -49.5l-18 -9l-90 101l-146 -101z"/>
<glyph glyph-name="atilde" horiz-adv-x="547" unicode="ã" d="M176 28q22 0 42 9t37.5 24t32 34t25.5 39l72 225q-7 51 -26.5 75t-57.5 24q-40 0 -74 -33.5t-58.5 -83.5t-38.5 -108t-14 -106q0 -37 5.5 -57t14.5 -29.5t19.5 -11t20.5 -1.5zM159 -13q-24 0 -46.5 7t-40.5 25t-29 48t-11 76q0 27 8 63t24.5 73.5t40 74.5t54 65.5 t68.5 46.5t82 18q29 0 55.5 -19t32.5 -58h5l25 72h79l-113 -334q-3 -10 -6.5 -21.5t-5.5 -23.5t-3.5 -22.5t-1.5 -17.5q0 -22 10 -32.5t26 -10.5q18 0 33 13.5t27.5 33.5t23 44t19.5 44l21 -7q-11 -32 -24 -60t-30 -49t-39 -33.5t-49 -12.5q-15 0 -30 3.5t-27 14t-20 29.5 t-8 50l-4 2q-30 -45 -65 -73.5t-81 -28.5zM174 546q9 16 21 34.5t28 34t34 26t39 10.5q26 0 40 -5t28 -13q11 -7 23 -13t29 -6q28 0 42 11t34 41l20 -7q-8 -16 -21 -35t-29 -35t-35.5 -26.5t-40.5 -10.5q-22 0 -34.5 4.5t-23.5 11.5q-14 8 -28 16.5t-37 8.5q-20 0 -35 -14 t-33 -42z"/>
<glyph glyph-name="adieresis" horiz-adv-x="547" unicode="ä" d="M176 28q22 0 42 9t37.5 24t32 34t25.5 39l72 225q-7 51 -26.5 75t-57.5 24q-40 0 -74 -33.5t-58.5 -83.5t-38.5 -108t-14 -106q0 -37 5.5 -57t14.5 -29.5t19.5 -11t20.5 -1.5zM159 -13q-24 0 -46.5 7t-40.5 25t-29 48t-11 76q0 27 8 63t24.5 73.5t40 74.5t54 65.5 t68.5 46.5t82 18q29 0 55.5 -19t32.5 -58h5l25 72h79l-113 -334q-3 -10 -6.5 -21.5t-5.5 -23.5t-3.5 -22.5t-1.5 -17.5q0 -22 10 -32.5t26 -10.5q18 0 33 13.5t27.5 33.5t23 44t19.5 44l21 -7q-11 -32 -24 -60t-30 -49t-39 -33.5t-49 -12.5q-15 0 -30 3.5t-27 14t-20 29.5 t-8 50l-4 2q-30 -45 -65 -73.5t-81 -28.5zM246 539q-19 0 -30 14t-11 32q0 23 17 42.5t42 19.5q21 0 32.5 -13t11.5 -31q0 -24 -18 -44t-44 -20zM437 539q-20 0 -31.5 14t-11.5 32q0 12 5 23t13.5 19.5t19.5 14t23 5.5q22 0 34.5 -13t12.5 -31q0 -24 -19.5 -44t-45.5 -20z "/>
<glyph glyph-name="aring" horiz-adv-x="547" unicode="å" d="M176 28q22 0 42 9t37.5 24t32 34t25.5 39l72 225q-7 51 -26.5 75t-57.5 24q-40 0 -74 -33.5t-58.5 -83.5t-38.5 -108t-14 -106q0 -37 5.5 -57t14.5 -29.5t19.5 -11t20.5 -1.5zM159 -13q-24 0 -46.5 7t-40.5 25t-29 48t-11 76q0 27 8 63t24.5 73.5t40 74.5t54 65.5 t68.5 46.5t82 18q29 0 55.5 -19t32.5 -58h5l25 72h79l-113 -334q-3 -10 -6.5 -21.5t-5.5 -23.5t-3.5 -22.5t-1.5 -17.5q0 -22 10 -32.5t26 -10.5q18 0 33 13.5t27.5 33.5t23 44t19.5 44l21 -7q-11 -32 -24 -60t-30 -49t-39 -33.5t-49 -12.5q-15 0 -30 3.5t-27 14t-20 29.5 t-8 50l-4 2q-30 -45 -65 -73.5t-81 -28.5zM309 528q30 0 46.5 23t16.5 52q0 28 -13.5 44t-40.5 16q-28 0 -45 -20.5t-17 -52.5q0 -29 13.5 -45.5t39.5 -16.5zM315 509q-48 0 -76.5 22.5t-28.5 64.5q0 38 30 62.5t75 24.5q48 0 75 -24.5t27 -63.5q0 -38 -30 -62t-72 -24z"/>
<glyph glyph-name="ae" horiz-adv-x="712" unicode="æ" d="M174 28q24 0 45 9t38.5 24t30.5 34t22 39l73 225q-7 51 -26 75t-56 24q-41 0 -75 -33.5t-58.5 -83.5t-38 -108t-13.5 -106q0 -32 5.5 -51.5t13.5 -30t18.5 -14t20.5 -3.5zM421 230q58 10 98 29t64.5 42t35.5 49t11 49q0 30 -11 45t-37 15q-20 0 -44 -20t-46.5 -52.5 t-41.5 -73.5t-29 -83zM167 -13q-27 0 -51 7t-43 25t-30 48t-11 76q0 27 8 63t24 73.5t39.5 74.5t54 65.5t67.5 46.5t81 18q15 0 30 -5t28 -14.5t22.5 -23t12.5 -31.5h4l24 69h51l-31 -83q43 41 79.5 64.5t85.5 23.5q32 0 57 -18t25 -57q0 -52 -29.5 -87.5t-72.5 -58.5 t-91.5 -36t-85.5 -19q-3 -15 -5 -41t-2 -43q0 -56 23.5 -76.5t60.5 -20.5q28 0 51 11t41.5 29t34 41.5t28.5 47.5l23 -11q-45 -86 -94 -122t-102 -36q-23 0 -47 6t-45 20t-36.5 38.5t-21.5 61.5q-6 -21 -23 -43.5t-39 -40.5t-47 -30t-48 -12z"/>
<glyph glyph-name="ccedilla" horiz-adv-x="413" unicode="ç" d="M129 -8q-19 5 -36.5 16t-31 29.5t-21.5 45.5t-8 66q0 27 8 62.5t24 73t39 73t52.5 64t65 45.5t76.5 17q47 0 72.5 -26.5t25.5 -61.5t-12.5 -56.5t-36.5 -21.5q-7 0 -16 2t-16.5 7t-12.5 13t-5 19q0 17 16 34t39 28q-6 38 -64 38q-32 0 -62.5 -31.5t-54.5 -80.5t-39 -107 t-15 -112q0 -53 20.5 -77t59.5 -24q27 0 49 11t40.5 29t33.5 41.5t28 47.5l22 -11q-43 -87 -92.5 -122.5t-99.5 -35.5h-12.5t-13.5 2l-6 -16l-6 -16q13 1 28 0t27 -5t20 -12.5t8 -22.5q0 -29 -16 -46t-42 -26t-60 -12t-70 -3l6 26q23 0 44.5 1t38.5 5.5t27.5 13t10.5 24.5 q0 14 -15.5 17t-45.5 3q9 20 15 36z"/>
<glyph glyph-name="egrave" horiz-adv-x="418" unicode="è" d="M127 230q59 10 99 29t64.5 42t35 49t10.5 49q0 30 -11 45t-40 15q-22 0 -45.5 -20t-45 -52.5t-39.5 -73.5t-28 -83zM177 -13q-25 0 -51 7t-47 24.5t-34 48t-13 77.5q0 28 8.5 64.5t24.5 74t40 74t56 64.5t71 45.5t86 17.5q32 0 57 -18t25 -57q0 -52 -29 -87.5 t-71.5 -58.5t-90.5 -36t-85 -19q-4 -15 -5.5 -41t-1.5 -43q0 -56 22 -76.5t59 -20.5q28 0 51 11t41.5 29t34 41.5t28.5 47.5l23 -11q-45 -86 -95 -122t-104 -36zM183 605q-14 7 -25.5 16.5t-11.5 23.5t12.5 29t36.5 15q14 0 24 -7.5t23 -21.5q11 -12 22 -23.5t23.5 -25.5 t28 -31t35.5 -41l-13 -16z"/>
<glyph glyph-name="eacute" horiz-adv-x="418" unicode="é" d="M127 230q59 10 99 29t64.5 42t35 49t10.5 49q0 30 -11 45t-40 15q-22 0 -45.5 -20t-45 -52.5t-39.5 -73.5t-28 -83zM177 -13q-25 0 -51 7t-47 24.5t-34 48t-13 77.5q0 28 8.5 64.5t24.5 74t40 74t56 64.5t71 45.5t86 17.5q32 0 57 -18t25 -57q0 -52 -29 -87.5 t-71.5 -58.5t-90.5 -36t-85 -19q-4 -15 -5.5 -41t-1.5 -43q0 -56 22 -76.5t59 -20.5q28 0 51 11t41.5 29t34 41.5t28.5 47.5l23 -11q-45 -86 -95 -122t-104 -36zM200 538q20 21 36.5 36.5t31 30t29 28.5t31.5 31q11 11 24 18t25 7q21 0 31.5 -9.5t10.5 -24.5q0 -17 -9.5 -28 t-32.5 -22q-14 -6 -29.5 -13.5t-35.5 -17.5l-45 -22.5t-59 -28.5z"/>
<glyph glyph-name="ecircumflex" horiz-adv-x="418" unicode="ê" d="M127 230q59 10 99 29t64.5 42t35 49t10.5 49q0 30 -11 45t-40 15q-22 0 -45.5 -20t-45 -52.5t-39.5 -73.5t-28 -83zM177 -13q-25 0 -51 7t-47 24.5t-34 48t-13 77.5q0 28 8.5 64.5t24.5 74t40 74t56 64.5t71 45.5t86 17.5q32 0 57 -18t25 -57q0 -52 -29 -87.5 t-71.5 -58.5t-90.5 -36t-85 -19q-4 -15 -5.5 -41t-1.5 -43q0 -56 22 -76.5t59 -20.5q28 0 51 11t41.5 29t34 41.5t28.5 47.5l23 -11q-45 -86 -95 -122t-104 -36zM155 526q25 29 44 49.5t34 36t27 28t25 26.5q15 18 45 18q14 0 21 -3t12 -12l12 -26t12.5 -29t15 -36.5 t20.5 -49.5l-18 -9l-90 101l-146 -101z"/>
<glyph glyph-name="edieresis" horiz-adv-x="418" unicode="ë" d="M127 230q59 10 99 29t64.5 42t35 49t10.5 49q0 30 -11 45t-40 15q-22 0 -45.5 -20t-45 -52.5t-39.5 -73.5t-28 -83zM177 -13q-25 0 -51 7t-47 24.5t-34 48t-13 77.5q0 28 8.5 64.5t24.5 74t40 74t56 64.5t71 45.5t86 17.5q32 0 57 -18t25 -57q0 -52 -29 -87.5 t-71.5 -58.5t-90.5 -36t-85 -19q-4 -15 -5.5 -41t-1.5 -43q0 -56 22 -76.5t59 -20.5q28 0 51 11t41.5 29t34 41.5t28.5 47.5l23 -11q-45 -86 -95 -122t-104 -36zM192 539q-19 0 -30 14t-11 32q0 23 17 42.5t42 19.5q21 0 32.5 -13t11.5 -31q0 -24 -18 -44t-44 -20zM383 539 q-20 0 -31.5 14t-11.5 32q0 12 5 23t13.5 19.5t19.5 14t23 5.5q22 0 34.5 -13t12.5 -31q0 -24 -19.5 -44t-45.5 -20z"/>
<glyph glyph-name="igrave" horiz-adv-x="331" unicode="ì" d="M171 -10q-13 0 -29 3t-30.5 11t-24.5 22.5t-10 38.5q0 19 5.5 40.5t14.5 44.5l71 178q10 24 16 50t6 35q0 23 -7.5 31.5t-23.5 8.5q-18 0 -32.5 -12t-26.5 -31.5t-22.5 -43t-20.5 -45.5l-22 4q12 33 25.5 62t30.5 50.5t38 34t48 12.5q15 0 30.5 -3.5t28.5 -13t21.5 -25.5 t8.5 -41q0 -9 -3 -22.5t-7.5 -28.5t-10 -30.5t-10.5 -27.5l-61 -154q-8 -20 -16 -43.5t-8 -33.5q0 -29 13 -35.5t27 -6.5q17 0 31 10t25.5 27.5t22.5 42t22 53.5l23 -7q-13 -33 -26 -61.5t-29.5 -49t-38 -32.5t-49.5 -12zM70 605q-14 7 -25.5 16.5t-11.5 23.5t12.5 29 t36.5 15q14 0 24 -7.5t23 -21.5q11 -12 22 -23.5t23.5 -25.5t28 -31t35.5 -41l-13 -16z"/>
<glyph glyph-name="iacute" horiz-adv-x="331" unicode="í" d="M171 -10q-13 0 -29 3t-30.5 11t-24.5 22.5t-10 38.5q0 19 5.5 40.5t14.5 44.5l71 178q10 24 16 50t6 35q0 23 -7.5 31.5t-23.5 8.5q-18 0 -32.5 -12t-26.5 -31.5t-22.5 -43t-20.5 -45.5l-22 4q12 33 25.5 62t30.5 50.5t38 34t48 12.5q15 0 30.5 -3.5t28.5 -13t21.5 -25.5 t8.5 -41q0 -9 -3 -22.5t-7.5 -28.5t-10 -30.5t-10.5 -27.5l-61 -154q-8 -20 -16 -43.5t-8 -33.5q0 -29 13 -35.5t27 -6.5q17 0 31 10t25.5 27.5t22.5 42t22 53.5l23 -7q-13 -33 -26 -61.5t-29.5 -49t-38 -32.5t-49.5 -12zM106 538q20 21 36.5 36.5t31 30t29 28.5t31.5 31 q11 11 24 18t25 7q21 0 31.5 -9.5t10.5 -24.5q0 -17 -9.5 -28t-32.5 -22q-14 -6 -29.5 -13.5t-35.5 -17.5l-45 -22.5t-59 -28.5z"/>
<glyph glyph-name="icircumflex" horiz-adv-x="331" unicode="î" d="M171 -10q-13 0 -29 3t-30.5 11t-24.5 22.5t-10 38.5q0 19 5.5 40.5t14.5 44.5l71 178q10 24 16 50t6 35q0 23 -7.5 31.5t-23.5 8.5q-18 0 -32.5 -12t-26.5 -31.5t-22.5 -43t-20.5 -45.5l-22 4q12 33 25.5 62t30.5 50.5t38 34t48 12.5q15 0 30.5 -3.5t28.5 -13t21.5 -25.5 t8.5 -41q0 -9 -3 -22.5t-7.5 -28.5t-10 -30.5t-10.5 -27.5l-61 -154q-8 -20 -16 -43.5t-8 -33.5q0 -29 13 -35.5t27 -6.5q17 0 31 10t25.5 27.5t22.5 42t22 53.5l23 -7q-13 -33 -26 -61.5t-29.5 -49t-38 -32.5t-49.5 -12zM52 526q25 29 44 49.5t34 36t27 28t25 26.5 q15 18 45 18q14 0 21 -3t12 -12l12 -26t12.5 -29t15 -36.5t20.5 -49.5l-18 -9l-90 101l-146 -101z"/>
<glyph glyph-name="idieresis" horiz-adv-x="331" unicode="ï" d="M171 -10q-13 0 -29 3t-30.5 11t-24.5 22.5t-10 38.5q0 19 5.5 40.5t14.5 44.5l71 178q10 24 16 50t6 35q0 23 -7.5 31.5t-23.5 8.5q-18 0 -32.5 -12t-26.5 -31.5t-22.5 -43t-20.5 -45.5l-22 4q12 33 25.5 62t30.5 50.5t38 34t48 12.5q15 0 30.5 -3.5t28.5 -13t21.5 -25.5 t8.5 -41q0 -9 -3 -22.5t-7.5 -28.5t-10 -30.5t-10.5 -27.5l-61 -154q-8 -20 -16 -43.5t-8 -33.5q0 -29 13 -35.5t27 -6.5q17 0 31 10t25.5 27.5t22.5 42t22 53.5l23 -7q-13 -33 -26 -61.5t-29.5 -49t-38 -32.5t-49.5 -12zM98 539q-19 0 -30 14t-11 32q0 23 17 42.5t42 19.5 q21 0 32.5 -13t11.5 -31q0 -24 -18 -44t-44 -20zM289 539q-20 0 -31.5 14t-11.5 32q0 12 5 23t13.5 19.5t19.5 14t23 5.5q22 0 34.5 -13t12.5 -31q0 -24 -19.5 -44t-45.5 -20z"/>
<glyph glyph-name="eth" horiz-adv-x="486" unicode="ð" d="M203 10q42 0 76 26.5t59 70t38.5 98.5t13.5 113q0 43 -8.5 70t-22 42t-29 20.5t-28.5 5.5q-38 0 -72 -25.5t-59.5 -68t-40 -98t-14.5 -114.5q0 -41 8.5 -68t21 -43t28 -22.5t29.5 -6.5zM244 531l-14 24l124 62q-32 43 -70 70l15 15q23 -14 46 -30t45 -38q7 5 16 9l17 8.5 l19 9.5q23 11 53 26l14 -24l-100 -50q32 -38 53.5 -90.5t21.5 -126.5t-19.5 -147t-57.5 -131t-93 -94.5t-126 -36.5q-27 0 -54 10.5t-48.5 32.5t-35 56.5t-13.5 82.5q0 45 18.5 98.5t54 100t86 78t113.5 31.5q14 0 30 -3.5t30.5 -11t27 -19.5t19.5 -29v22q0 42 -12.5 82 t-34.5 75z"/>
<glyph glyph-name="ntilde" horiz-adv-x="593" unicode="ñ" d="M437 -10q-13 0 -29.5 3.5t-31 11.5t-24.5 22.5t-10 37.5q0 20 5.5 37.5t16.5 46.5l61 169q8 23 14 42.5t6 33.5q0 32 -14.5 42t-36.5 10q-20 0 -42 -11.5t-43 -31t-39.5 -46t-32.5 -56.5l-98 -301h-80l111 330q8 24 14.5 48.5t6.5 34.5q0 23 -8 31.5t-24 8.5 q-19 0 -33.5 -12t-26.5 -31.5t-22.5 -43t-19.5 -45.5l-24 4q13 33 27 62t30.5 50.5t37.5 34t48 12.5q15 0 30 -4t27 -14.5t20 -29.5t8 -49h3q13 18 30 35.5t36 31t40 22t42 8.5q24 0 43.5 -9.5t34 -25t22.5 -35.5t8 -41q0 -6 -2 -15.5t-4.5 -20t-6 -21.5t-6.5 -19l-59 -157 q-11 -28 -16 -46.5t-5 -32.5q0 -27 12 -34t23 -7q17 0 31 10t26.5 28t24 42.5t23.5 53.5l23 -7q-14 -33 -28 -61.5t-31.5 -50t-38.5 -33.5t-49 -12zM197 546q9 16 21 34.5t28 34t34 26t39 10.5q26 0 40 -5t28 -13q11 -7 23 -13t29 -6q28 0 42 11t34 41l20 -7q-8 -16 -21 -35 t-29 -35t-35.5 -26.5t-40.5 -10.5q-22 0 -34.5 4.5t-23.5 11.5q-14 8 -28 16.5t-37 8.5q-20 0 -35 -14t-33 -42z"/>
<glyph glyph-name="ograve" horiz-adv-x="486" unicode="ò" d="M191 10q43 0 75.5 32t55 79.5t34 102.5t11.5 102q0 38 -6 63.5t-16.5 41t-24 22t-28.5 6.5q-42 0 -74.5 -31.5t-55 -78t-34.5 -101t-12 -100.5q0 -76 21.5 -107t53.5 -31zM172 -13q-25 0 -49 10t-43 32t-31 55.5t-12 81.5q0 42 17.5 97.5t52 104.5t85.5 83t119 34 q25 0 49.5 -10.5t44 -32t32 -55.5t12.5 -80q0 -28 -7.5 -63t-23 -70.5t-39 -69t-54 -59.5t-69 -42t-84.5 -16zM197 605q-14 7 -25.5 16.5t-11.5 23.5t12.5 29t36.5 15q14 0 24 -7.5t23 -21.5q11 -12 22 -23.5t23.5 -25.5t28 -31t35.5 -41l-13 -16z"/>
<glyph glyph-name="oacute" horiz-adv-x="486" unicode="ó" d="M191 10q43 0 75.5 32t55 79.5t34 102.5t11.5 102q0 38 -6 63.5t-16.5 41t-24 22t-28.5 6.5q-42 0 -74.5 -31.5t-55 -78t-34.5 -101t-12 -100.5q0 -76 21.5 -107t53.5 -31zM172 -13q-25 0 -49 10t-43 32t-31 55.5t-12 81.5q0 42 17.5 97.5t52 104.5t85.5 83t119 34 q25 0 49.5 -10.5t44 -32t32 -55.5t12.5 -80q0 -28 -7.5 -63t-23 -70.5t-39 -69t-54 -59.5t-69 -42t-84.5 -16zM203 538q20 21 36.5 36.5t31 30t29 28.5t31.5 31q11 11 24 18t25 7q21 0 31.5 -9.5t10.5 -24.5q0 -17 -9.5 -28t-32.5 -22q-14 -6 -29.5 -13.5t-35.5 -17.5 l-45 -22.5t-59 -28.5z"/>
<glyph glyph-name="ocircumflex" horiz-adv-x="486" unicode="ô" d="M191 10q43 0 75.5 32t55 79.5t34 102.5t11.5 102q0 38 -6 63.5t-16.5 41t-24 22t-28.5 6.5q-42 0 -74.5 -31.5t-55 -78t-34.5 -101t-12 -100.5q0 -76 21.5 -107t53.5 -31zM172 -13q-25 0 -49 10t-43 32t-31 55.5t-12 81.5q0 42 17.5 97.5t52 104.5t85.5 83t119 34 q25 0 49.5 -10.5t44 -32t32 -55.5t12.5 -80q0 -28 -7.5 -63t-23 -70.5t-39 -69t-54 -59.5t-69 -42t-84.5 -16zM159 526q25 29 44 49.5t34 36t27 28t25 26.5q15 18 45 18q14 0 21 -3t12 -12l12 -26t12.5 -29t15 -36.5t20.5 -49.5l-18 -9l-90 101l-146 -101z"/>
<glyph glyph-name="otilde" horiz-adv-x="486" unicode="õ" d="M191 10q43 0 75.5 32t55 79.5t34 102.5t11.5 102q0 38 -6 63.5t-16.5 41t-24 22t-28.5 6.5q-42 0 -74.5 -31.5t-55 -78t-34.5 -101t-12 -100.5q0 -76 21.5 -107t53.5 -31zM172 -13q-25 0 -49 10t-43 32t-31 55.5t-12 81.5q0 42 17.5 97.5t52 104.5t85.5 83t119 34 q25 0 49.5 -10.5t44 -32t32 -55.5t12.5 -80q0 -28 -7.5 -63t-23 -70.5t-39 -69t-54 -59.5t-69 -42t-84.5 -16zM134 546q9 16 21 34.5t28 34t34 26t39 10.5q26 0 40 -5t28 -13q11 -7 23 -13t29 -6q28 0 42 11t34 41l20 -7q-8 -16 -21 -35t-29 -35t-35.5 -26.5t-40.5 -10.5 q-22 0 -34.5 4.5t-23.5 11.5q-14 8 -28 16.5t-37 8.5q-20 0 -35 -14t-33 -42z"/>
<glyph glyph-name="odieresis" horiz-adv-x="486" unicode="ö" d="M191 10q43 0 75.5 32t55 79.5t34 102.5t11.5 102q0 38 -6 63.5t-16.5 41t-24 22t-28.5 6.5q-42 0 -74.5 -31.5t-55 -78t-34.5 -101t-12 -100.5q0 -76 21.5 -107t53.5 -31zM172 -13q-25 0 -49 10t-43 32t-31 55.5t-12 81.5q0 42 17.5 97.5t52 104.5t85.5 83t119 34 q25 0 49.5 -10.5t44 -32t32 -55.5t12.5 -80q0 -28 -7.5 -63t-23 -70.5t-39 -69t-54 -59.5t-69 -42t-84.5 -16zM205 539q-19 0 -30 14t-11 32q0 23 17 42.5t42 19.5q21 0 32.5 -13t11.5 -31q0 -24 -18 -44t-44 -20zM396 539q-20 0 -31.5 14t-11.5 32q0 12 5 23t13.5 19.5 t19.5 14t23 5.5q22 0 34.5 -13t12.5 -31q0 -24 -19.5 -44t-45.5 -20z"/>
<glyph glyph-name="divide" d="M313 -5q-31 0 -51 21t-20 48q0 29 20 50.5t51 21.5q30 0 52 -21.5t22 -50.5q0 -27 -22 -48t-52 -21zM81 282h464v-50h-464v50zM313 376q-31 0 -51 22.5t-20 51.5t20 49t51 20q30 0 52 -20t22 -49q0 -14 -6 -27.5t-16 -24t-23.5 -16.5t-28.5 -6z" unicode="÷"/>
<glyph glyph-name="oslash" horiz-adv-x="486" unicode="ø" d="M118 92q8 -45 28 -63.5t45 -18.5q43 0 76 32t55.5 79.5t34.5 102.5t12 102v13.5t-1 12.5zM363 385q-8 41 -28.5 57.5t-42.5 16.5q-42 0 -75 -31.5t-56 -78t-35 -101t-12 -100.5v-22zM426 412q11 -20 17 -46.5t6 -58.5q0 -28 -7.5 -63t-23 -70.5t-39 -69t-54 -59.5 t-69 -42t-84.5 -16q-28 0 -55 13t-47 41q-6 -5 -12 -11q-5 -5 -11.5 -12t-13.5 -14l-36 -38l-18 19l38 40q7 8 14.5 14.5t12.5 12.5q6 6 12 13q-9 20 -14 45t-5 56q0 42 17.5 97.5t52 104.5t85.5 83t119 34q27 0 53.5 -12t46.5 -38l73 76l18 -19l-38 -40z"/>
<glyph glyph-name="ugrave" horiz-adv-x="589" unicode="ù" d="M195 -12q-29 0 -49.5 10t-33.5 24.5t-19.5 30t-6.5 26.5q0 25 6 47t14 43l63 158q11 27 17.5 52.5t6.5 34.5q0 24 -10.5 30.5t-26.5 6.5q-17 0 -32.5 -12t-28.5 -30.5t-24 -42t-20 -45.5l-24 4q13 34 27.5 63.5t32 50.5t39 33t48.5 12q16 0 33 -4.5t30.5 -14.5t22 -24.5 t8.5 -34.5q0 -19 -7 -38t-18 -48l-64 -165q-9 -24 -15 -43t-6 -33q0 -30 17.5 -40.5t37.5 -10.5q23 0 45 10.5t41.5 28t36 38.5t27.5 42l99 317h79l-106 -327q-7 -21 -10 -40.5t-3 -35.5q0 -23 11 -32.5t28 -9.5q18 0 33 13t27 33t22 43t19 44l21 -7q-11 -31 -24 -59 t-29.5 -49.5t-37.5 -34t-49 -12.5q-15 0 -31 3.5t-28.5 14.5t-21 30t-8.5 51h-5q-14 -20 -31.5 -38.5t-38 -32.5t-42 -22t-42.5 -8zM239 605q-14 7 -25.5 16.5t-11.5 23.5t12.5 29t36.5 15q14 0 24 -7.5t23 -21.5q11 -12 22 -23.5t23.5 -25.5t28 -31t35.5 -41l-13 -16z"/>
<glyph glyph-name="uacute" horiz-adv-x="589" unicode="ú" d="M195 -12q-29 0 -49.5 10t-33.5 24.5t-19.5 30t-6.5 26.5q0 25 6 47t14 43l63 158q11 27 17.5 52.5t6.5 34.5q0 24 -10.5 30.5t-26.5 6.5q-17 0 -32.5 -12t-28.5 -30.5t-24 -42t-20 -45.5l-24 4q13 34 27.5 63.5t32 50.5t39 33t48.5 12q16 0 33 -4.5t30.5 -14.5t22 -24.5 t8.5 -34.5q0 -19 -7 -38t-18 -48l-64 -165q-9 -24 -15 -43t-6 -33q0 -30 17.5 -40.5t37.5 -10.5q23 0 45 10.5t41.5 28t36 38.5t27.5 42l99 317h79l-106 -327q-7 -21 -10 -40.5t-3 -35.5q0 -23 11 -32.5t28 -9.5q18 0 33 13t27 33t22 43t19 44l21 -7q-11 -31 -24 -59 t-29.5 -49.5t-37.5 -34t-49 -12.5q-15 0 -31 3.5t-28.5 14.5t-21 30t-8.5 51h-5q-14 -20 -31.5 -38.5t-38 -32.5t-42 -22t-42.5 -8zM285 538q20 21 36.5 36.5t31 30t29 28.5t31.5 31q11 11 24 18t25 7q21 0 31.5 -9.5t10.5 -24.5q0 -17 -9.5 -28t-32.5 -22 q-14 -6 -29.5 -13.5t-35.5 -17.5l-45 -22.5t-59 -28.5z"/>
<glyph glyph-name="ucircumflex" horiz-adv-x="589" unicode="û" d="M195 -12q-29 0 -49.5 10t-33.5 24.5t-19.5 30t-6.5 26.5q0 25 6 47t14 43l63 158q11 27 17.5 52.5t6.5 34.5q0 24 -10.5 30.5t-26.5 6.5q-17 0 -32.5 -12t-28.5 -30.5t-24 -42t-20 -45.5l-24 4q13 34 27.5 63.5t32 50.5t39 33t48.5 12q16 0 33 -4.5t30.5 -14.5t22 -24.5 t8.5 -34.5q0 -19 -7 -38t-18 -48l-64 -165q-9 -24 -15 -43t-6 -33q0 -30 17.5 -40.5t37.5 -10.5q23 0 45 10.5t41.5 28t36 38.5t27.5 42l99 317h79l-106 -327q-7 -21 -10 -40.5t-3 -35.5q0 -23 11 -32.5t28 -9.5q18 0 33 13t27 33t22 43t19 44l21 -7q-11 -31 -24 -59 t-29.5 -49.5t-37.5 -34t-49 -12.5q-15 0 -31 3.5t-28.5 14.5t-21 30t-8.5 51h-5q-14 -20 -31.5 -38.5t-38 -32.5t-42 -22t-42.5 -8zM220 526q25 29 44 49.5t34 36t27 28t25 26.5q15 18 45 18q14 0 21 -3t12 -12l12 -26t12.5 -29t15 -36.5t20.5 -49.5l-18 -9l-90 101 l-146 -101z"/>
<glyph glyph-name="udieresis" horiz-adv-x="589" unicode="ü" d="M195 -12q-29 0 -49.5 10t-33.5 24.5t-19.5 30t-6.5 26.5q0 25 6 47t14 43l63 158q11 27 17.5 52.5t6.5 34.5q0 24 -10.5 30.5t-26.5 6.5q-17 0 -32.5 -12t-28.5 -30.5t-24 -42t-20 -45.5l-24 4q13 34 27.5 63.5t32 50.5t39 33t48.5 12q16 0 33 -4.5t30.5 -14.5t22 -24.5 t8.5 -34.5q0 -19 -7 -38t-18 -48l-64 -165q-9 -24 -15 -43t-6 -33q0 -30 17.5 -40.5t37.5 -10.5q23 0 45 10.5t41.5 28t36 38.5t27.5 42l99 317h79l-106 -327q-7 -21 -10 -40.5t-3 -35.5q0 -23 11 -32.5t28 -9.5q18 0 33 13t27 33t22 43t19 44l21 -7q-11 -31 -24 -59 t-29.5 -49.5t-37.5 -34t-49 -12.5q-15 0 -31 3.5t-28.5 14.5t-21 30t-8.5 51h-5q-14 -20 -31.5 -38.5t-38 -32.5t-42 -22t-42.5 -8zM267 539q-19 0 -30 14t-11 32q0 23 17 42.5t42 19.5q21 0 32.5 -13t11.5 -31q0 -24 -18 -44t-44 -20zM458 539q-20 0 -31.5 14t-11.5 32 q0 12 5 23t13.5 19.5t19.5 14t23 5.5q22 0 34.5 -13t12.5 -31q0 -24 -19.5 -44t-45.5 -20z"/>
<glyph glyph-name="yacute" horiz-adv-x="540" unicode="ý" d="M131 -169q-32 0 -55 6.5t-38 17t-22 23.5t-7 25q0 19 14.5 35t36.5 16q23 0 34 -12.5t11 -29.5q0 -8 -4 -19.5t-12 -22.5q11 -8 26.5 -13t29.5 -5q68 0 117 60t91 188h-7q-26 -38 -64.5 -65.5t-84.5 -27.5q-23 0 -42.5 9t-34 24.5t-23 36t-8.5 44.5q0 10 7 32t17 46 l54 133q11 29 15.5 51.5t4.5 32.5q0 20 -8 27.5t-24 7.5q-17 0 -32.5 -12t-29 -30.5t-25 -42t-20.5 -45.5l-24 4q13 33 28 62t32.5 50.5t39 34t48.5 12.5q16 0 32 -5t29 -14.5t20.5 -24.5t7.5 -35q0 -17 -4 -41t-14 -47l-63 -144q-9 -20 -14.5 -40t-5.5 -34 q0 -34 17.5 -43.5t38.5 -9.5q19 0 40 8.5t40.5 22.5t36 32t28.5 37l98 318h74l-98 -333q-45 -156 -124.5 -228t-179.5 -72zM290 538q20 21 36.5 36.5t31 30t29 28.5t31.5 31q11 11 24 18t25 7q21 0 31.5 -9.5t10.5 -24.5q0 -17 -9.5 -28t-32.5 -22q-14 -6 -29.5 -13.5 t-35.5 -17.5l-45 -22.5t-59 -28.5z"/>
<glyph glyph-name="thorn" horiz-adv-x="517" unicode="þ" d="M210 27q26 0 50 15t45 40t38 57t29 66.5t18.5 68.5t6.5 63q0 36 -7 57t-17 31.5t-22 13.5t-22 3q-21 0 -41 -9t-37.5 -23t-33 -32.5t-27.5 -37.5l-71 -234q9 -45 31 -62t60 -17zM211 394q29 37 62.5 63.5t75.5 26.5q23 0 46.5 -8.5t42.5 -27.5t31 -49.5t12 -74.5 q0 -30 -8.5 -65.5t-25 -72t-40.5 -70.5t-54.5 -60t-68 -42t-80.5 -16q-31 0 -58.5 18t-37.5 47h-3l-34 -98q-8 -24 -11.5 -43.5t-3.5 -30.5q0 -19 13.5 -25t33.5 -8q11 -2 23.5 -2t25.5 -1l-5 -24h-268l6 21q32 0 48 6t24 16q15 19 23 43.5t16 47.5l183 581q7 22 11.5 40 t4.5 29q0 20 -14 29t-32 10q-14 1 -26.5 1.5t-25.5 0.5v24l207 9l-98 -295h5z"/>
<glyph glyph-name="dotlessi" horiz-adv-x="331" unicode="ı" d="M171 -10q-13 0 -29 3t-30.5 11t-24.5 22.5t-10 38.5q0 19 5.5 40.5t14.5 44.5l71 178q10 24 16 50t6 35q0 23 -7.5 31.5t-23.5 8.5q-18 0 -32.5 -12t-26.5 -31.5t-22.5 -43t-20.5 -45.5l-22 4q12 33 25.5 62t30.5 50.5t38 34t48 12.5q15 0 30.5 -3.5t28.5 -13t21.5 -25.5 t8.5 -41q0 -9 -3 -22.5t-7.5 -28.5t-10 -30.5t-10.5 -27.5l-61 -154q-8 -20 -16 -43.5t-8 -33.5q0 -29 13 -35.5t27 -6.5q17 0 31 10t25.5 27.5t22.5 42t22 53.5l23 -7q-13 -33 -26 -61.5t-29.5 -49t-38 -32.5t-49.5 -12z"/>
<glyph glyph-name="OE" horiz-adv-x="948" unicode="Œ" d="M344 17q12 0 31 2.5t35 5.5l152 550q2 10 2 16q0 32 -24 46t-78 14q-75 0 -132 -32.5t-95.5 -86.5t-58 -123.5t-19.5 -143.5q0 -49 11.5 -93.5t35 -79t58.5 -55t82 -20.5zM322 -4q-42 0 -89 14.5t-86.5 47t-66 83.5t-26.5 124q0 100 36 176.5t95 127.5t134.5 77t155.5 26 q45 0 82.5 -1.5t79.5 -1.5h343l-42 -150h-30v10q0 15 -4 33t-11.5 34t-19 28t-27.5 14q-15 2 -35 3.5t-43 1.5h-100l-77 -283h70q21 0 35 2.5t24 6.5t17 9.5t13 10.5q7 6 14.5 16t14 22.5t12.5 25t11 22.5h30l-74 -260h-30q5 20 5 47q0 14 -2.5 25t-4.5 17q-3 7 -7 12.5 t-11.5 9.5t-20 6t-33.5 2h-71l-61 -220q-3 -12 -5.5 -25.5t-2.5 -23.5q0 -20 20.5 -28t72.5 -8q19 0 33 -0.5t19 -0.5q16 0 35 1.5t37.5 6t30.5 13.5q13 11 30 29.5t33 38t29.5 38t20.5 29.5h30l-62 -184h-337q-49 0 -92.5 -2t-91.5 -2z"/>
<glyph glyph-name="oe" horiz-adv-x="724" unicode="œ" d="M189 10q42 0 74.5 32t54.5 79.5t33 102.5t11 102q0 38 -6 63.5t-16.5 41t-23.5 22t-27 6.5q-42 0 -74 -31.5t-54 -78t-33.5 -101t-11.5 -100.5q0 -76 20.5 -107t52.5 -31zM428 230q59 10 99.5 29t66 42t37 49t11.5 49q0 30 -11 45t-40 15q-22 0 -46.5 -20t-47 -52.5 t-41 -73.5t-28.5 -83zM170 -13q-25 0 -49 10t-42.5 32t-30 55.5t-11.5 81.5q0 42 16.5 97.5t50.5 104.5t84.5 83t119.5 34q32 0 68 -25t59 -72q37 40 86 68t103 28q32 0 57 -18t25 -57q0 -52 -30 -87.5t-73.5 -58.5t-92 -36t-85.5 -19q-3 -15 -5 -41t-2 -43 q0 -56 24.5 -76.5t61.5 -20.5q28 0 51 11t41.5 29t34 41.5t28.5 47.5l23 -11q-45 -86 -95 -122t-104 -36q-18 0 -38 4.5t-39.5 14.5t-36.5 24.5t-29 35.5q-36 -32 -77 -55.5t-93 -23.5z"/>
<glyph glyph-name="Scaron" horiz-adv-x="525" unicode="Š" d="M222 -12q-60 0 -98 18t-57 36l-39 -51h-28l43 232h28q7 -38 20 -74.5t33.5 -65t49 -46t67.5 -17.5q72 0 111 40t39 108q0 39 -20.5 68t-55.5 46q-27 14 -60.5 30.5t-59.5 28.5q-85 38 -85 139q0 42 17.5 78.5t48.5 63.5t72.5 42.5t88.5 15.5q19 0 38.5 -5t37 -13 t32.5 -17.5t24 -19.5l41 53h29l-43 -222h-27q-8 42 -18.5 77t-27.5 60.5t-43.5 40t-66.5 14.5q-23 0 -45 -8.5t-40 -25t-29 -40.5t-11 -54q0 -38 13 -62.5t52 -45.5q29 -16 55.5 -29t58.5 -29q47 -23 76.5 -56t29.5 -89q0 -52 -21 -93t-56 -69.5t-80 -43.5t-94 -15zM517 894 q-26 -29 -44.5 -49.5t-33.5 -36t-27 -28.5t-25 -26q-10 -11 -17.5 -14.5t-27.5 -3.5q-15 0 -22 3.5t-11 11.5l-12 26t-12.5 29t-15 36.5t-20.5 49.5l18 9l90 -101l146 101z"/>
<glyph glyph-name="scaron" horiz-adv-x="410" unicode="š" d="M165 -13q-42 0 -71 11t-46 27.5t-24.5 36.5t-7.5 37q0 32 16.5 52.5t39.5 20.5q28 0 35.5 -13t7.5 -28q0 -12 -7.5 -26.5t-28.5 -14.5q-11 0 -17 -3.5t-6 -8.5q0 -13 8.5 -25t23 -21.5t32.5 -15t37 -5.5q52 0 84.5 24.5t32.5 75.5q0 18 -5.5 31t-15 23.5t-23.5 19 t-32 18.5t-36.5 21.5t-33 26.5t-23.5 36t-9 51q0 31 13.5 58t36 46.5t50.5 31t58 11.5q40 0 65 -10.5t39 -25.5t19 -32t5 -30q0 -28 -11 -46.5t-31 -18.5q-17 0 -31 8t-14 29q0 16 6.5 25t14 15t14.5 10t9 9q0 3 -3.5 10t-12.5 14t-25.5 12t-41.5 5q-13 0 -29.5 -4.5 t-30.5 -15t-24 -29t-10 -45.5q0 -18 4 -31.5t12.5 -24t21.5 -20t31 -20.5t37.5 -22.5t35 -26.5t25.5 -35.5t10 -49.5t-13 -55.5t-36 -47t-55 -33t-70 -12.5zM439 689q-26 -29 -44.5 -49.5t-33.5 -36t-27 -28.5t-25 -26q-10 -11 -17.5 -14.5t-27.5 -3.5q-15 0 -22 3.5 t-11 11.5l-12 26t-12.5 29t-15 36.5t-20.5 49.5l18 9l90 -101l146 101z"/>
<glyph glyph-name="Ydieresis" horiz-adv-x="575" unicode="Ÿ" d="M69 22q7 1 18 2t22.5 2.5t22 3t16.5 3.5q20 6 29 19.5t13 28.5l40 157q2 9 2.5 16t0.5 15q0 11 -2.5 24t-5.5 27q-15 66 -28 131.5t-30 119.5q-8 25 -17 38.5t-23 22.5q-11 7 -25.5 10t-28.5 4l6 23h280l-6 -23q-13 0 -30.5 -1t-33.5 -4t-27.5 -7.5t-11.5 -11.5 q0 -9 2.5 -22.5t7.5 -39.5q8 -42 25 -107.5t35 -137.5q54 63 102 122t77 100q15 21 25 35.5t16 24t8.5 15t2.5 9.5q0 6 -8 10.5t-20.5 7.5t-29 5t-33.5 2l6 23h246l-6 -23q-11 -1 -26 -6t-29 -11q-9 -4 -16 -7.5t-14 -8.5t-14.5 -12.5l-17.5 -17.5q-51 -53 -103.5 -119 t-114.5 -143q-23 -28 -38.5 -53t-23.5 -54l-30 -119q-1 -5 -2.5 -14.5t-1.5 -13.5q0 -10 5 -18.5t15 -10.5q20 -5 39 -9.5t33 -6.5l-6 -22h-298zM310 744q-19 0 -30 14t-11 32q0 23 17 42.5t42 19.5q21 0 32.5 -13t11.5 -31q0 -24 -18 -44t-44 -20zM501 744q-20 0 -31.5 14 t-11.5 32q0 12 5 23t13.5 19.5t19.5 14t23 5.5q22 0 34.5 -13t12.5 -31q0 -24 -19.5 -44t-45.5 -20z"/>
<glyph glyph-name="circumflex" horiz-adv-x="288" unicode="ˆ" d="M10 526q25 29 44 49.5t34 36t27 28t25 26.5q15 18 45 18q14 0 21 -3t12 -12l12 -26t12.5 -29t15 -36.5t20.5 -49.5l-18 -9l-90 101l-146 -101z"/>
<glyph glyph-name="caron" horiz-adv-x="288" unicode="ˇ" d="M278 689q-26 -29 -44.5 -49.5t-33.5 -36t-27 -28.5t-25 -26q-10 -11 -17.5 -14.5t-27.5 -3.5q-15 0 -22 3.5t-11 11.5l-12 26t-12.5 29t-15 36.5t-20.5 49.5l18 9l90 -101l146 101z"/>
<glyph glyph-name="ring" horiz-adv-x="227" unicode="˚" d="M109 528q30 0 46.5 23t16.5 52q0 28 -13.5 44t-40.5 16q-28 0 -45 -20.5t-17 -52.5q0 -29 13.5 -45.5t39.5 -16.5zM115 509q-48 0 -76.5 22.5t-28.5 64.5q0 38 30 62.5t75 24.5q48 0 75 -24.5t27 -63.5q0 -38 -30 -62t-72 -24z"/>
<glyph glyph-name="tilde" horiz-adv-x="358" unicode="˜" d="M10 546q9 16 21 34.5t28 34t34 26t39 10.5q26 0 40 -5t28 -13q11 -7 23 -13t29 -6q28 0 42 11t34 41l20 -7q-8 -16 -21 -35t-29 -35t-35.5 -26.5t-40.5 -10.5q-22 0 -34.5 4.5t-23.5 11.5q-14 8 -28 16.5t-37 8.5q-20 0 -35 -14t-33 -42z"/>
<glyph glyph-name="Alpha" horiz-adv-x="641" unicode="Α" d="M425 273v278l-205 -278h205zM-88 22q13 1 31 6t31 12q20 11 34.5 22.5t32.5 34.5l441 582h30v-598q0 -17 6 -28t23 -19q10 -5 24 -8t27 -4l-6 -22h-272l6 22q12 1 28.5 3t31.5 5t26 7.5t14 9.5q3 6 4 12.5t1 11.5v172h-229l-71 -100q-19 -27 -35 -51t-16 -37 q0 -10 12 -16t28.5 -9.5t34.5 -5t29 -2.5l-6 -22h-266z"/>
<glyph glyph-name="Beta" horiz-adv-x="612" unicode="Β" d="M275 27q48 0 82.5 20t56.5 50t32.5 64.5t10.5 64.5q0 50 -32 82t-96 32h-19t-25 -0.5t-24 -1t-16 -0.5l-66 -248q-2 -10 -2 -23q0 -18 26.5 -29t71.5 -11zM332 367q45 0 77.5 15.5t53 41.5t30 60t9.5 70q0 26 -7.5 43t-20.5 27.5t-29.5 14.5t-35.5 4q-14 0 -35.5 -1 t-38.5 -4l-81 -271h78zM-25 22q6 0 16.5 1t21 2.5t20.5 3.5t15 4q17 5 26.5 18.5t14.5 29.5l135 490q2 6 3 14.5t1 14.5q0 10 -3.5 18t-15.5 13q-14 6 -31 10t-30 5l8 23h303q24 0 49 -6.5t46 -20t34.5 -35t13.5 -51.5q0 -42 -14.5 -73.5t-41.5 -55.5t-64 -40.5t-82 -27.5 v-5q19 -3 46 -12t52 -26t42 -43t17 -63q0 -56 -28 -95.5t-68 -65t-84.5 -37.5t-77.5 -12h-330z"/>
<glyph glyph-name="Gamma" horiz-adv-x="536" unicode="Γ" d="M193 82q-4 -14 -2 -27t16 -18q4 -2 12.5 -4t19 -4l21 -4t17.5 -2l-6 -23h-298l6 23q7 0 17.5 1t22 1.5t21.5 2t16 3.5q20 6 29 18t14 29l138 505q5 14 2.5 26t-19.5 19q-14 6 -36.5 11.5t-35.5 5.5l7 24h470l-43 -158h-29v6q0 14 -4 33t-13 38t-21.5 32.5t-27.5 15.5 q-14 2 -33 3.5t-42 1.5h-46q-20 0 -25 -17z"/>
<glyph glyph-name="Delta" horiz-adv-x="636" unicode="Δ" d="M386 546l-351 -495h405zM-40 0l4 25l470 658h27l80 -658l-5 -25h-576z"/>
<glyph glyph-name="Epsilon" horiz-adv-x="609" unicode="Ε" d="M-29 22q6 0 17 1t22.5 2.5t22 3.5t15.5 4q19 6 27.5 18t13.5 29l136 494q2 7 3.5 14t1.5 12q0 10 -4 15.5t-17 13.5q-12 6 -34.5 11t-34.5 6l8 23h493l-40 -150h-30v10q0 15 -4 33t-12 34t-19.5 28t-26.5 14q-17 2 -38 3.5t-44 1.5h-98l-77 -283h73q21 0 35 3t23.5 7.5 t16 9.5t11.5 9q7 6 15 16t15 22.5t13 25t9 22.5h33l-75 -260h-30q2 9 2.5 21t0.5 26t-0.5 25t-4.5 17q-4 7 -8.5 12.5t-12 9.5t-19.5 6t-32 2h-73l-58 -220q-8 -29 -8 -49q0 -23 20.5 -29.5t71.5 -6.5q19 0 33 -0.5t20 -0.5q17 0 35.5 1.5t37 6t29.5 13.5q13 11 30 29.5 t33.5 38t30 38t20.5 29.5h27l-62 -184h-539z"/>
<glyph glyph-name="Zeta" horiz-adv-x="562" unicode="Ζ" d="M-44 7l548 634h-143q-23 0 -42.5 -1t-33.5 -4q-20 -4 -43 -20.5t-44 -38t-39 -44.5t-28 -41h-29l51 177h471v-8l-545 -633h162q43 0 82.5 5.5t57.5 19.5t37 33t37 38.5t33 39t24 35.5h26l-65 -199h-517v7z"/>
<glyph glyph-name="Eta" horiz-adv-x="764" unicode="Η" d="M-21 22q6 0 16 0.5t20 1.5t18.5 2t13.5 3q18 7 27 19.5t14 29.5l137 495q2 8 3 15.5t1 13.5q0 9 -4.5 15t-15.5 13q-9 5 -28.5 10t-32.5 6l8 23h276l-6 -23q-12 -1 -32.5 -2t-37.5 -7q-18 -6 -27.5 -19.5t-14.5 -29.5l-61 -223h311l58 208q2 8 3 16.5t1 12.5q0 10 -4 16 t-16 12q-11 5 -30.5 10t-32.5 6l6 23h278l-6 -23q-6 0 -15.5 -1t-19.5 -2t-18.5 -2.5t-14.5 -3.5q-20 -8 -28.5 -20.5t-13.5 -28.5l-137 -497q-2 -6 -3.5 -15t-1.5 -14q0 -8 4.5 -14.5t16.5 -12.5q9 -5 29 -8.5t33 -4.5l-8 -22h-276l6 22q6 0 16 0.5t20.5 1.5t19.5 2t14 3 q18 7 27 19.5t14 29.5l70 256h-311l-67 -243q-1 -4 -2.5 -13t-1.5 -14q0 -8 4 -16t16 -13q3 -2 11.5 -4t18 -4t19 -3.5t15.5 -1.5l-6 -22h-278z"/>
<glyph glyph-name="Theta" horiz-adv-x="690" unicode="Θ" d="M249 365h240l-20 -71h-239zM303 16q63 0 113.5 37t86 98t54 138.5t18.5 157.5q0 42 -7.5 79.5t-25 66t-46.5 45t-72 16.5q-59 0 -109.5 -34.5t-87.5 -93t-57.5 -136.5t-20.5 -165q0 -46 8.5 -84.5t27 -66t48 -43t70.5 -15.5zM292 -14q-54 0 -98 19.5t-75.5 54t-49 82.5 t-17.5 105q0 91 31 170.5t83.5 138.5t121 93t144.5 34q48 0 92 -17t77.5 -50.5t53 -83t19.5 -114.5q0 -81 -28 -158.5t-79 -138.5t-121 -98t-154 -37z"/>
<glyph glyph-name="Iota" horiz-adv-x="371" unicode="Ι" d="M-21 22q6 0 15.5 0.5t20 1t19.5 1.5t15 4q18 8 27 19t14 26l138 499q2 7 3.5 14.5t1.5 14.5q0 17 -21 28q-11 6 -31.5 11t-32.5 5l8 23h280l-6 -23q-13 0 -35 -2.5t-37 -7.5q-19 -7 -26.5 -19.5t-12.5 -28.5l-139 -496q-2 -5 -2.5 -13.5t-0.5 -13.5q0 -11 3.5 -18 t15.5 -12q4 -2 12 -4t17 -4t18 -3.5t15 -1.5l-6 -22h-279z"/>
<glyph glyph-name="Kappa" horiz-adv-x="673" unicode="Κ" d="M-21 22q6 0 15.5 1t19.5 1.5t19 1.5t13 3q20 8 28.5 20t13.5 29l137 496q2 7 3.5 16.5t1.5 14.5q0 9 -4.5 14.5t-17.5 10.5q-4 1 -11.5 3.5t-16.5 5t-17.5 4.5t-14.5 3l8 23h276l-6 -23q-13 -1 -35 -2.5t-36 -7.5q-19 -7 -27.5 -19t-13.5 -29l-68 -248h8q34 23 71 50 t72 55t65 55t51 49q20 20 37.5 41t17.5 35q0 5 -7.5 9t-18.5 6t-25 3.5t-27 2.5l5 23h264l-4 -23q-12 0 -28.5 -2t-35 -6.5t-36 -12t-30.5 -19.5q-39 -35 -70 -63.5t-62 -56t-65 -55.5t-78 -61q27 -38 49 -72t41.5 -66t38.5 -65t40 -70q12 -22 26 -34.5t37 -24.5 q12 -6 30 -10.5t31 -5.5l-4 -22h-317l4 22q15 1 34 3t35.5 5.5t28 10t11.5 15.5q0 11 -12.5 39.5t-28.5 55.5q-13 23 -29.5 49t-33 51t-31.5 46l-25 35h-31l-67 -241q-2 -4 -3 -12.5t-1 -13.5q0 -8 4 -16t16 -13q9 -4 29.5 -8.5t33.5 -5.5l-8 -22h-275z"/>
<glyph glyph-name="Lambda" horiz-adv-x="641" unicode="Λ" d="M427 550l-2 1l-300 -408q-19 -27 -35 -51t-16 -37q0 -10 12 -16t28.5 -9.5t34.5 -5t29 -2.5l-6 -22h-266l6 22q13 1 31 6t31 12q20 11 34.5 22.5t32.5 34.5l441 582h30v-598q0 -17 6 -28t23 -19q10 -5 24 -8t27 -4l-6 -22h-272l6 22q12 1 28.5 3t31.5 5t26 7.5t14 9.5 q3 6 4 12.5t1 11.5z"/>
<glyph glyph-name="Mu" horiz-adv-x="878" unicode="Μ" d="M-46 22q6 1 17.5 2.5t25 4t27 6.5t24.5 10q19 11 35 41.5t31 90.5l97 367q2 11 4.5 21.5t2.5 18.5q0 16 -4 24t-11 15q-11 11 -33.5 16t-42.5 7l6 23h219l52 -515l279 432q7 12 14 24.5t12.5 24.5t10 21l6.5 13h219l-8 -23q-14 -1 -34.5 -2.5t-37.5 -6.5 q-18 -6 -27.5 -18.5t-14.5 -29.5l-133 -497q-2 -7 -3 -16t-1 -13q0 -11 4 -17t16 -11q9 -4 30 -7.5t34 -5.5l-6 -22h-297l8 22q6 0 17.5 1t24.5 2.5t25 3.5t17 4q20 7 30 19t15 30l144 539l-403 -610h-13q-2 28 -4 65.5t-5 69.5l-49 490l-122 -454q-8 -28 -10.5 -52 t-2.5 -38q0 -15 3 -26.5t11 -18.5q5 -5 16 -9t23 -7.5t23.5 -6t17.5 -2.5l-6 -22h-281z"/>
<glyph glyph-name="Nu" horiz-adv-x="738" unicode="Ν" d="M255 565l-102 -383q-15 -56 -15 -90q0 -14 4 -24t10 -16t17.5 -11t25 -9t26 -7t19.5 -3l-6 -22h-288l8 22q7 0 21 3t29 6.5t27.5 7.5t17.5 7q11 7 19 17.5t15 26t14 37t15 51.5l97 356q2 10 5 21.5t3 19.5q0 16 -4.5 22.5t-14.5 16.5q-18 17 -42 24t-44 8l8 23h185 l227 -526l90 347q8 30 13.5 55.5t5.5 37.5q0 13 -3.5 22.5t-8.5 12.5q-9 7 -21 12t-24.5 8.5t-24 5.5t-18.5 2l6 23h281l-6 -23q-6 0 -18 -3t-25.5 -6.5t-26 -7.5t-19.5 -6q-23 -11 -38.5 -41t-30.5 -87l-132 -501h-28z"/>
<glyph glyph-name="Xi" horiz-adv-x="609" unicode="Ξ" d="M224 309q-36 0 -54 -27q-8 -11 -14 -20.5t-11 -22.5h-20l60 219h20q-2 -14 -3 -22.5t-1 -21.5q1 -26 38 -26h154h42q36 0 52 26q8 13 11.5 21.5t8.5 22.5h20l-60 -219h-20q2 13 1.5 22.5t-2.5 20.5q-3 27 -38 27h-35h-149zM303 35q17 0 37 1t37 3q16 2 37 17t41.5 35 t37 41.5t24.5 37.5h23l-46 -170h-525l45 170h23q0 -16 4.5 -37.5t13.5 -42t21 -35t26 -16.5q16 -2 25 -3t17 -1h159zM360 637h-24.5t-43.5 -4q-16 -2 -36.5 -17.5t-41 -36t-37 -42.5t-24.5 -38h-23l46 170h476l-46 -170h-23q0 16 -4.5 38t-13 42.5t-21 36t-27.5 17.5 q-22 3 -38.5 3.5t-33.5 0.5h-85z"/>
<glyph glyph-name="Omicron" horiz-adv-x="690" unicode="Ο" d="M303 16q63 0 113.5 37t86 98t54 138.5t18.5 157.5q0 42 -7.5 79.5t-25 66t-46.5 45t-72 16.5q-59 0 -109.5 -34.5t-87.5 -93t-57.5 -136.5t-20.5 -165q0 -46 8.5 -84.5t27 -66t48 -43t70.5 -15.5zM292 -14q-54 0 -98 19.5t-75.5 54t-49 82.5t-17.5 105q0 91 31 170.5 t83.5 138.5t121 93t144.5 34q48 0 92 -17t77.5 -50.5t53 -83t19.5 -114.5q0 -81 -28 -158.5t-79 -138.5t-121 -98t-154 -37z"/>
<glyph glyph-name="Pi" horiz-adv-x="764" unicode="Π" d="M617 572q7 23 7 36q0 9 -5 17.5t-44 8.5h-187q-17 0 -28 -1t-18.5 -5.5t-12.5 -14t-10 -26.5l-137 -496q-1 -4 -2.5 -13t-1.5 -14q0 -8 4 -16t16 -13q3 -2 10.5 -4t16.5 -4t17.5 -3.5t14.5 -1.5l-6 -22h-278l6 22q6 0 16 0.5t20 1.5t18.5 2t13.5 3q18 7 27 19.5t14 29.5 l137 495q2 8 3 15.5t1 13.5q0 9 -4.5 15t-15.5 13q-9 5 -28.5 10t-32.5 6l8 23h671l-6 -23q-6 0 -15.5 -1t-19.5 -2t-18.5 -2.5t-14.5 -3.5q-20 -8 -28.5 -20.5t-13.5 -28.5l-137 -497q-2 -6 -3.5 -15t-1.5 -14q0 -8 4.5 -14.5t16.5 -12.5q9 -5 29 -8.5t33 -4.5l-8 -22h-276 l6 22q6 0 15.5 0.5t19 1.5t17.5 2t13 3q18 7 27 19.5t14 29.5z"/>
<glyph glyph-name="Rho" horiz-adv-x="574" unicode="Ρ" d="M299 331q53 0 90 16.5t60.5 44.5t34 63.5t10.5 73.5q0 22 -5.5 42t-18.5 36t-34.5 25.5t-53.5 9.5h-53l-85 -311h55zM-23 22q6 0 16 1t20.5 2.5t19.5 2.5t14 3q20 6 28 18.5t13 29.5l138 497q2 8 4 17t2 17q0 9 -4.5 15.5t-17.5 10.5q-14 5 -33.5 7t-31.5 3l6 23h285 q33 0 62 -9.5t51 -27t35 -42.5t13 -56q0 -58 -27.5 -101.5t-69.5 -72t-92.5 -42.5t-95.5 -14h-76l-60 -214q-2 -5 -3.5 -14.5t-1.5 -13.5q0 -21 21 -31q4 -2 12.5 -3.5t19 -2.5l21 -2t19.5 -1l-8 -22h-285z"/>
<glyph glyph-name="Sigma" horiz-adv-x="555" unicode="Σ" d="M397 0h-477l7 26l340 322l-136 295l7 26h449q-2 -6 -5 -23t-7.5 -38.5t-9 -45.5t-8.5 -45l-30 -3q0 35 -3.5 56t-11.5 35q-4 7 -11.5 13t-20 9.5t-32 5.5t-48.5 2h-151l120 -251l-322 -300h263q25 0 43.5 2.5t34 12t31.5 28.5t37 53l28 -8z"/>
<glyph glyph-name="Tau" horiz-adv-x="583" unicode="Τ" d="M78 22q6 0 17.5 1.5t24 3t23 3t15.5 3.5q19 6 27.5 19t13.5 30l154 563h-31q-14 0 -34 -1.5t-39 -3.5q-15 -2 -36 -18t-42 -37.5t-38.5 -44.5t-26.5 -39h-26l46 168h557l-48 -168h-27v6q0 20 -3.5 42.5t-11 42t-18.5 33t-26 15.5q-16 2 -39.5 3.5t-40.5 1.5h-31 l-150 -549q-1 -4 -2.5 -12.5t-1.5 -15.5q0 -10 4 -17.5t16 -13.5q3 -2 12 -4t20 -4.5t21.5 -4.5t16.5 -2l-6 -22h-296z"/>
<glyph glyph-name="Upsilon" horiz-adv-x="575" unicode="Υ" d="M69 22q7 1 18 2t22.5 2.5t22 3t16.5 3.5q20 6 29 19.5t13 28.5l40 157q2 9 2.5 16t0.5 15q0 11 -2.5 24t-5.5 27q-15 66 -28 131.5t-30 119.5q-8 25 -17 38.5t-23 22.5q-11 7 -25.5 10t-28.5 4l6 23h280l-6 -23q-13 0 -30.5 -1t-33.5 -4t-27.5 -7.5t-11.5 -11.5 q0 -9 2.5 -22.5t7.5 -39.5q8 -42 25 -107.5t35 -137.5q54 63 102 122t77 100q15 21 25 35.5t16 24t8.5 15t2.5 9.5q0 6 -8 10.5t-20.5 7.5t-29 5t-33.5 2l6 23h246l-6 -23q-11 -1 -26 -6t-29 -11q-9 -4 -16 -7.5t-14 -8.5t-14.5 -12.5l-17.5 -17.5q-51 -53 -103.5 -119 t-114.5 -143q-23 -28 -38.5 -53t-23.5 -54l-30 -119q-1 -5 -2.5 -14.5t-1.5 -13.5q0 -10 5 -18.5t15 -10.5q20 -5 39 -9.5t33 -6.5l-6 -22h-298z"/>
<glyph glyph-name="Phi" horiz-adv-x="778" unicode="Φ" d="M156 344q-12 -45 -12 -78q0 -38 13 -62.5t35 -39.5t50.5 -21t59.5 -7l115 417q-40 -2 -79.5 -12t-74.5 -34t-63 -63.5t-44 -99.5zM664 344q11 44 11 75q0 39 -14 64t-37 40.5t-53.5 22t-63.5 7.5l-115 -417q42 1 83.5 11t78 34t65 63.5t45.5 99.5zM169 13q48 2 76.5 11 t38.5 44l9 33q-44 1 -88.5 11t-80 32.5t-57.5 58t-22 86.5q0 34 10 70q19 70 60.5 114t94 69.5t110 35.5t107.5 11q4 14 4.5 20t0.5 10q0 11 -7 19.5t-19 14.5t-27 9t-31 3l6 24h290l-6 -24q-14 0 -36 -3t-38 -8q-19 -5 -28 -17.5t-14 -29.5l-5 -18q45 -2 90.5 -12.5 t82.5 -33.5t60 -59t23 -88q0 -15 -2 -32t-7 -35q-19 -69 -60.5 -113t-95 -69t-112.5 -35t-113 -11l-7 -28q-3 -9 -3 -16q0 -25 25 -33.5t61 -10.5l-6 -23h-290z"/>
<glyph glyph-name="Chi" horiz-adv-x="652" unicode="Χ" d="M-66 22q13 1 28.5 4t29.5 8q16 6 27.5 12.5t21 14t18.5 16t20 19.5q54 51 109.5 110.5t115.5 128.5q-12 31 -23 59.5t-22 57.5t-23.5 59.5t-27.5 65.5q-9 22 -19 34.5t-29 24.5q-11 7 -28 8t-29 2l5 23h306l-6 -23q-14 0 -33 -1t-36 -4.5t-29 -9.5t-12 -16q0 -8 1 -19.5 t11 -36.5q6 -15 13.5 -35t15.5 -42t16.5 -45t17.5 -44q19 19 40 40.5t40.5 43t37 42t31.5 36.5q20 23 35 42t15 26t-7.5 11t-20 6t-27.5 3.5t-30 2.5l5 23h251l-5 -23q-13 -1 -29.5 -3t-30.5 -7q-31 -11 -49 -27.5t-37 -35.5q-27 -26 -55 -55t-54 -57.5t-50.5 -55 t-44.5 -48.5q12 -31 25.5 -67t28 -71.5t27.5 -68.5t24 -58q4 -11 7.5 -19.5t8.5 -15.5t12.5 -12.5t19.5 -10.5q9 -4 27 -7.5t30 -4.5l-5 -22h-306l6 22q14 1 33 2t36.5 4.5t29.5 9.5t12 17q0 8 -2 19.5t-11 35.5q-6 15 -14.5 38.5t-18 50.5t-19.5 53.5t-19 46.5 q-21 -22 -45 -47.5t-47.5 -51t-44.5 -49t-35 -40.5q-21 -24 -33.5 -40.5t-12.5 -23.5q0 -8 8 -13t21 -7t27.5 -3t28.5 -2l-8 -22h-250z"/>
<glyph glyph-name="Psi" horiz-adv-x="718" unicode="Ψ" d="M333 83q-2 -8 -2 -16q0 -20 18 -31q4 -2 13 -4.5t18.5 -4t19.5 -3t17 -1.5l-7 -23h-290l7 23q7 0 17 1t20.5 1.5t20 2t15.5 3.5q35 15 43 47l54 198q-48 2 -88 15.5t-67 39.5q-24 24 -29.5 50t-5.5 50q0 21 3 45l8 75q3 23 4.5 39t-0.5 27.5t-9 20t-23 16.5l15 26 q66 -10 89 -39.5t23 -71.5q0 -10 -1 -21l-6 -62q-3 -32 -3 -57q0 -13 1.5 -34.5t12.5 -41.5t32 -29.5t54 -11.5l74 270q2 8 2 16q0 20 -18 31q-11 6 -32 11t-36 5l7 24h290l-7 -24q-14 0 -35.5 -3t-38.5 -8q-19 -5 -28.5 -17.5t-14.5 -29.5l-75 -275q34 2 60 11.5t47.5 29.5 t41.5 52.5t42 80.5l28 62q26 57 69.5 89.5t115.5 42.5l5 -23q-20 -8 -33.5 -20.5t-24 -29t-19 -36t-18.5 -42.5l-32 -75q-23 -53 -48.5 -84.5t-61.5 -55.5q-42 -26 -87.5 -31.5t-94.5 -6.5z"/>
<glyph glyph-name="alpha" horiz-adv-x="547" unicode="α" d="M303 449q-33 0 -66.5 -27.5t-60.5 -69.5t-44 -93t-17 -98q0 -51 20 -79.5t52 -28.5q24 0 51.5 15.5t52.5 41t45 58t29 66.5l8 30q10 36 10 73q0 47 -19.5 79.5t-60.5 32.5zM499 52q-28 -35 -58.5 -50t-54.5 -15q-20 0 -35 15.5t-15 59.5q0 25 6 61q-47 -68 -90 -101.5 t-95 -33.5q-30 0 -53 13t-39 35t-24.5 52t-8.5 64q0 54 20 112.5t56.5 107t88 79.5t115.5 31q15 0 32 -6t31.5 -19t25 -34t12.5 -50q12 26 24.5 52t28.5 52h72q-6 -10 -17 -33.5t-24.5 -54.5t-27.5 -68t-25 -74t-18.5 -72.5t-7.5 -63.5q0 -30 8 -43t20 -13q20 0 45 17z"/>
<glyph glyph-name="beta" horiz-adv-x="495" unicode="β" d="M241 382q21 1 44.5 5.5t37.5 12.5q13 9 29 23.5t29 35t22 47t9 58.5q0 37 -18 57.5t-52 20.5q-35 0 -60 -22t-44 -58.5t-34 -84t-29 -98.5q-19 -68 -40 -147t-38 -151q45 -52 87 -55q6 -1 13 -1q49 0 93 37t67 119q7 27 7 52q0 54 -30.5 83t-81.5 29h-11t-11 -1zM89 354 q14 51 27 90.5t28 71t32.5 56t40.5 45.5q44 39 83 52.5t77 13.5q55 0 86 -34t31 -84q0 -39 -15 -67t-37.5 -48.5t-49 -36t-49.5 -28.5l-1 -4q51 -12 83 -47.5t32 -89.5q0 -22 -6 -47q-13 -49 -42 -88.5t-66 -67t-76 -40.5t-73 -13h-10q-20 2 -49 11.5t-53 26.5l-41 -179h-89 z"/>
<glyph glyph-name="gamma" horiz-adv-x="482" unicode="γ" d="M386 358q10 23 10 39q0 13 -6 23.5t-6 19.5q0 17 17.5 30t37.5 13t29 -15t9 -34q0 -24 -21.5 -62t-55 -84t-74.5 -97t-80 -101q-15 -16 -23.5 -30.5t-13.5 -29.5t-8 -32.5t-8 -40.5q-4 -17 -7.5 -35t-7 -35t-7 -31.5t-6.5 -24.5h-103q6 19 19.5 50.5l31.5 73.5 q10 23 19.5 44.5t14.5 35.5q7 22 9.5 53.5t2.5 67.5q0 54 -6 112.5t-19 106.5q-4 14 -10.5 19.5t-20.5 5.5q-15 0 -31.5 -5t-26.5 -10l-10 24q31 28 69 51t70 23q20 0 32.5 -14.5t17.5 -46.5q7 -39 9 -75.5t2 -68.5q0 -52 -4.5 -95.5t-9.5 -78.5q21 28 45 59t46.5 64 t41.5 66t32 65z"/>
<glyph glyph-name="delta" horiz-adv-x="475" unicode="δ" d="M346 187q10 38 10 69q0 3 -0.5 21.5t-8.5 46t-21 49t-26 37.5q-66 -19 -107.5 -70t-62.5 -129q-12 -43 -13 -64t-1 -27q0 -29 7.5 -54t24.5 -40t43 -15q22 0 44.5 10t42.5 31t37.5 54.5t30.5 80.5zM507 548q-42 48 -81.5 70.5t-82.5 22.5q-28 0 -43 -11t-15 -25 q0 -18 19 -55.5t54 -79.5q42 -52 61 -103.5t19 -106.5q0 -34 -9 -70q-14 -52 -40 -90t-59 -62.5t-70.5 -36.5t-76.5 -12q-40 0 -68 13.5t-45 36t-25 52t-8 61.5q0 31 9 63q23 85 82 133.5t158 77.5q-35 49 -52 79t-17 53q0 21 12 43.5t33 40.5t49.5 29.5t60.5 11.5 q38 0 66.5 -11t47.5 -28t28.5 -37t10.5 -38z"/>
<glyph glyph-name="epsilon" horiz-adv-x="457" unicode="ε" d="M216 43q38 0 78.5 16.5t79.5 63.5l20 -19q-42 -52 -95.5 -86t-131.5 -34q-63 0 -99 33.5t-36 87.5q0 38 15 63t38 41t51.5 25t55.5 15q-41 8 -58.5 36.5t-17.5 62.5t15.5 60t42.5 42.5t63.5 25t77.5 8.5q68 0 100 -21.5t32 -58.5q0 -34 -19 -59t-51 -25q-18 0 -28.5 10 t-10.5 26q0 3 0.5 6t1.5 7q4 12 8.5 18t8.5 11t7 12t3 19q0 20 -16 25t-40 5q-21 0 -41.5 -9.5t-37 -25.5t-26.5 -37t-10 -45q0 -27 19.5 -45t56.5 -18q18 0 31.5 0.5t27.5 2.5l-14 -53q-23 3 -66 3q-36 0 -61 -11.5t-41 -28.5t-23 -37t-7 -36q0 -37 27.5 -56.5t69.5 -19.5z "/>
<glyph glyph-name="zeta" horiz-adv-x="384" unicode="ζ" d="M142 7q-55 16 -81 51t-26 88q0 64 24.5 123.5t65 114t92.5 103t106 90.5q-48 3 -79.5 20.5t-31.5 41.5q0 17 16 36.5t45 33.5l18 -10q-11 -15 -11 -33q0 -13 6.5 -24.5t17 -20t23.5 -14t26 -5.5q17 12 36 23t36.5 20t33.5 14.5t27 5.5q18 0 18 -9q0 -18 -14.5 -32.5 t-36 -25t-47 -16.5t-46.5 -7q-41 -36 -82.5 -83.5t-74.5 -100t-54 -108.5t-21 -110q0 -36 17.5 -58t53.5 -34q54 -18 83 -36.5t29 -53.5q0 -26 -13 -51.5t-32 -48t-39.5 -41t-36.5 -29.5l-17 18q26 28 39.5 57t13.5 46q0 23 -19.5 37.5t-64.5 27.5z"/>
<glyph glyph-name="eta" horiz-adv-x="533" unicode="η" d="M240 387q13 18 29.5 35.5t34.5 31t38.5 22t41.5 8.5q46 0 76.5 -30t30.5 -77q0 -6 -1 -15.5t-3 -20t-4 -21.5t-5 -19l-146 -470h-95l164 489q14 44 14 72q0 33 -13 43.5t-36 10.5q-20 0 -41 -11.5t-41 -31t-38 -46t-32 -56.5l-97 -301h-82l108 319q4 12 10 32t6 38 q0 14 -6.5 24t-23.5 10q-21 0 -49 -9l-3 27q29 17 63 30t61 13q22 0 36 -10t14 -33q0 -15 -6 -34l-7 -20h2z"/>
<glyph glyph-name="theta" horiz-adv-x="553" unicode="θ" d="M235 16q34 0 65 24t56.5 64.5t46 93.5t33.5 111h-292q-5 -33 -8 -65t-3 -64q0 -76 25 -120t77 -44zM355 651q-34 0 -65 -24.5t-57.5 -65t-46.5 -94.5t-33 -112h292q5 32 8 64t3 64q0 77 -25.5 122.5t-75.5 45.5zM224 -15q-46 0 -79.5 16.5t-55.5 46.5t-32.5 70.5 t-10.5 88.5q0 59 11.5 117t32 111t49 98.5t63.5 78.5t75.5 52t84.5 19q47 0 81.5 -17.5t56.5 -48t32.5 -72t10.5 -89.5q0 -91 -25.5 -176t-69 -150.5t-101.5 -105t-123 -39.5z"/>
<glyph glyph-name="iota" horiz-adv-x="290" unicode="ι" d="M122 317q4 10 10.5 27.5t8.5 35t-3.5 30t-25.5 12.5q-21 0 -49 -9l-3 27q29 17 62 30t60 13q14 0 27 -5.5t21 -16.5t9 -20.5t1 -11.5q0 -14 -7 -32l-97 -260q-6 -14 -11 -32.5t-6 -35t5 -27.5t22 -11q13 0 23.5 7.5t18.5 20t14.5 29t13.5 33.5l25 -8q-20 -74 -53.5 -102 t-75.5 -28q-35 0 -52.5 15.5t-21 33t-3.5 30.5q0 14 4 34.5t13 44.5z"/>
<glyph glyph-name="kappa" horiz-adv-x="565" unicode="κ" d="M361 171q0 -19 -3 -43t-3 -45.5t6.5 -36.5t26.5 -15q13 0 24 7.5t20 20.5t15 29t11 33l25 -8q-20 -74 -55.5 -102t-77.5 -28q-24 0 -38.5 7t-22.5 18.5t-10.5 27t-2.5 33.5q0 35 5.5 68t5.5 56q0 22 -9.5 33.5t-24.5 17t-32.5 5.5t-33.5 -1l-72 -248h-80l102 334 q3 10 7.5 25.5t5 29.5t-5.5 24t-24 10q-21 0 -49 -9l-3 27q29 17 63 30t61 13q14 0 24.5 -7.5t16 -21t5.5 -31.5t-7 -39l-33 -103q36 13 62.5 42.5t55.5 66.5q32 42 63.5 67.5t61.5 25.5h4q17 -1 32 -13t15 -31q0 -17 -7.5 -27.5t-22.5 -9.5q-8 1 -17 4.5t-17 4.5 q-16 1 -28 -3t-25 -14t-28.5 -26t-37.5 -38q-15 -15 -30.5 -29t-39.5 -28l1 -2q59 -2 90 -28.5t31 -72.5z"/>
<glyph glyph-name="lambda" horiz-adv-x="487" unicode="λ" d="M259 410q-5 67 -8 106.5t-7 60t-11 26t-22 5.5t-31 -5t-26 -10l-10 21q31 28 62.5 48.5t63.5 20.5q21 0 35 -12t21 -44q2 -9 4.5 -39.5t6.5 -90.5t9 -154t13 -231q1 -25 5 -39.5t9.5 -21.5t12.5 -8.5t14 -1.5q5 0 13 2t21 7l3 -23q-19 -17 -47.5 -27.5t-54.5 -10.5 q-20 0 -32 6t-19 20.5t-10 37.5t-4 57l-7 245q-24 -43 -55 -96t-61 -103t-56.5 -92t-42.5 -64h-78q31 39 67 86t73.5 100t75.5 109.5t73 114.5z"/>
<glyph glyph-name="mu" horiz-adv-x="554" unicode="μ" d="M393 -17q-9 0 -23 4.5t-27 16.5t-22 32.5t-9 52.5h-4q-12 -18 -28 -36t-34 -32t-36 -23t-34 -10h-9q-41 0 -61 17.5t-31 47.5h-4l-12 -29q-5 -11 -7.5 -20.5t-4 -20.5t-2 -25.5t-0.5 -35.5q0 -31 -3.5 -50.5t-11 -30.5t-18.5 -15t-26 -4q-16 0 -27 12.5t-11 31.5 q0 14 11 36.5t26.5 52t33 64.5t30.5 74l126 371h82l-113 -336q-5 -13 -7 -25.5t-2 -19.5q0 -9 2.5 -20.5t12.5 -21.5t31 -10q25 0 46.5 10t39 26.5t31.5 37.5t25 42l110 317h82l-120 -345q-4 -12 -7 -27.5t-0.5 -29t11.5 -22.5t28 -9q13 0 23.5 7.5t18.5 20t14.5 29 t13.5 33.5l25 -8q-20 -74 -53.5 -102t-75.5 -28z"/>
<glyph glyph-name="nu" horiz-adv-x="447" unicode="ν" d="M329 243q13 23 22 49t9 46q0 23 -8 38.5t-8 38.5q0 30 16 49.5t36 19.5q26 0 36 -16t10 -36q0 -24 -8 -51t-21 -54.5t-29 -54.5t-32 -49l-86 -120q-18 -26 -32 -52t-31 -57h-29l-53 388q-2 13 -11 18.5t-21 6t-24 -2.5t-19 -7l-11 24q31 28 54.5 43.5t54.5 15.5 q22 0 36.5 -14t17.5 -47l39 -312h3q8 12 19 28t23 34t24 37t23 37z"/>
<glyph glyph-name="xi" horiz-adv-x="404" unicode="ξ" d="M200 -160q19 20 36.5 48t17.5 59q0 17 -13 30.5t-45 21.5q-28 7 -56.5 16.5t-52 25.5t-38 39t-14.5 56q0 27 9 53t30.5 51.5t56.5 50.5t87 51l1 4q-29 8 -45.5 35.5t-16.5 58.5q0 45 35.5 81.5t105.5 76.5q-18 2 -35.5 7t-30.5 12.5t-21 16.5t-8 18t5 17.5t12.5 16t16 14 t15.5 11.5l20 -6q-1 -5 -1.5 -9t-0.5 -8q0 -28 18 -47t47 -21q18 9 37.5 17t39.5 14.5t38.5 10t34.5 3.5q19 0 19 -11t-11 -22.5t-31 -20.5t-48 -14.5t-62 -5.5q-5 0 -8.5 0.5t-7.5 0.5q-16 -8 -32.5 -21.5t-30 -31.5t-22.5 -39t-9 -44q0 -14 4.5 -27t14.5 -23.5t27 -17 t43 -6.5q20 0 43.5 2t38.5 4l-17 -59q-6 1 -17 2t-24 2t-26.5 1.5t-24.5 0.5q-35 0 -67 -14.5t-56.5 -39t-39.5 -57t-15 -68.5q0 -33 22 -56t76 -35q18 -4 37.5 -9.5t36 -14.5t27 -23.5t10.5 -35.5q0 -24 -13 -48t-32 -45.5t-39 -39t-34 -27.5z"/>
<glyph glyph-name="omicron" horiz-adv-x="480" unicode="ο" d="M188 10q43 0 75 32t53.5 79.5t32 102.5t10.5 102q0 38 -5.5 63.5t-14.5 41t-22 22t-28 6.5q-42 0 -73.5 -31.5t-53.5 -78t-33 -101t-11 -100.5q0 -76 19 -107t51 -31zM169 -13q-25 0 -48.5 10t-42 32t-30 55.5t-11.5 81.5q0 28 7 62.5t22 70t37 69t51.5 59.5t67 41.5 t82.5 15.5q25 0 49.5 -10t44.5 -32t32.5 -55.5t12.5 -79.5q0 -28 -7.5 -63t-22.5 -70.5t-38 -69t-53.5 -59.5t-68.5 -42t-84 -16z"/>
<glyph glyph-name="pi" horiz-adv-x="562" unicode="π" d="M173 415q-26 0 -58.5 -2.5t-58.5 -13.5l-10 24q44 35 83 50.5t89 15.5q27 0 57.5 -1.5t63 -3l65 -3t62.5 -1.5q22 0 33 5.5t26 25.5l27 -8q-11 -29 -20.5 -48t-22.5 -30.5t-30.5 -15t-40.5 -3.5h-12h-5l-88 -330q-2 -8 -2.5 -15.5t2 -14.5t9 -11t18.5 -4q13 0 24 7.5 t20 20.5t15 29t11 33l25 -8q-20 -74 -55.5 -102t-77.5 -28q-47 0 -62 21.5t-15 42.5q0 10 3 22l85 313q2 7 3 13.5t1 12.5q-36 2 -65 3.5t-58 1.5l-5 -20q-26 -93 -51.5 -163t-47.5 -118t-37.5 -74.5t-20.5 -31.5q-8 -12 -24 -18t-30.5 -6t-21 4.5t-6.5 9.5q0 4 4 10 q32 34 63 87.5t57.5 111t47 113.5t31.5 97z"/>
<glyph glyph-name="rho" horiz-adv-x="536" unicode="ρ" d="M211 45q48 0 85 20.5t62 56t38 83t13 101.5q0 26 -6 49t-18.5 40t-32 27t-45.5 10q-31 0 -54.5 -14t-41.5 -39.5t-31 -61t-24 -77.5l-38 -145q16 -19 40.5 -34.5t52.5 -15.5zM60 204q9 34 21.5 65t31.5 60t45.5 55.5t64.5 50.5q42 27 80 39t64 12q37 0 63 -13.5t43 -35.5 t25 -50.5t8 -58.5q0 -53 -17 -98.5t-44 -83.5t-62 -67.5t-71 -49.5t-70 -30.5t-59 -10.5q-23 0 -47 12t-36 29l-46 -198h-98z"/>
<glyph glyph-name="uni03C2" horiz-adv-x="409" unicode="ς" d="M372 429q-3 14 -13 19.5t-23 5.5q-28 0 -65 -17.5t-70.5 -50.5t-57 -82t-23.5 -112q0 -46 26.5 -73t80.5 -41q51 -14 80 -33t29 -55q0 -26 -13 -51.5t-31.5 -48t-39.5 -40.5t-37 -29l-17 18q27 28 41 57.5t14 46.5q0 23 -20 38t-66 25q-61 13 -96.5 56t-35.5 107 q0 62 29.5 120.5t78 104t110 73t125.5 27.5q17 0 34 -4t30.5 -13t21.5 -23.5t8 -34.5q0 -7 -2 -20t-9 -26t-19.5 -22.5t-33.5 -9.5q-17 0 -29 9.5t-12 26.5q0 13 4 25.5t1 26.5z"/>
<glyph glyph-name="sigma" horiz-adv-x="539" unicode="σ" d="M319 444q-33 0 -61 -15t-51 -39.5t-41 -56.5t-30 -66.5t-18 -68.5t-6 -63q0 -55 21.5 -88t66.5 -33q31 0 57 15.5t47 40t37 56.5t27 65.5t16.5 65t5.5 56.5q0 28 -5.5 52t-15.5 41.5t-22.5 27.5t-27.5 10zM329 481q20 0 36.5 -1.5t36.5 -3t46.5 -3t65.5 -1.5q14 0 29.5 7 t35.5 25l20 -15q-30 -51 -53 -67.5t-48 -16.5q-20 0 -37.5 5t-40.5 6l-2 -3q26 -27 37.5 -63t11.5 -74q0 -53 -19.5 -104.5t-55 -92.5t-86 -66.5t-111.5 -25.5q-44 0 -74 14.5t-49 39t-27 57.5t-8 71q0 58 21 114t59 100t92 71t120 27z"/>
<glyph glyph-name="tau" horiz-adv-x="419" unicode="τ" d="M-20 399l-10 24q44 35 83 51.5t89 16.5q37 0 56.5 -2t35 -4t34 -4t54.5 -2q22 0 33 6t27 26l27 -8q-12 -29 -21 -49t-21 -32.5t-28 -17t-39 -4.5h-9q-21 0 -40 4t-41 6l-88 -334q-2 -8 -2.5 -15.5t2 -14.5t9 -11t18.5 -4q13 0 24 7.5t20 20.5t15 29t11 33l25 -8 q-20 -74 -55.5 -102t-77.5 -28q-47 0 -62 21.5t-15 42.5q0 10 3 22l93 346q-22 3 -45 3q-16 0 -43.5 -2.5t-61.5 -16.5z"/>
<glyph glyph-name="upsilon" horiz-adv-x="506" unicode="υ" d="M109 391q2 7 3 12t1 10q0 20 -25 20q-9 0 -20.5 -1.5t-25.5 -6.5l-3 27q29 18 63 31t60 13q20 0 32 -9.5t12 -32.5q0 -15 -6 -36l-65 -239q-10 -37 -10 -65q0 -42 20.5 -59t50.5 -17q48 0 84 33t59 82t34.5 106t11.5 106q0 38 -7.5 65.5t-20.5 44.5q-4 6 -4 9 q0 4 5.5 7.5t13.5 6t17.5 3.5t17.5 1q9 0 20 -8.5t20.5 -25t15.5 -40.5t6 -55q0 -43 -13 -88.5t-36 -88.5t-53.5 -81.5t-65.5 -67t-73.5 -45t-75.5 -16.5q-52 0 -84.5 28t-32.5 88q0 14 2 29.5t7 32.5z"/>
<glyph glyph-name="phi" horiz-adv-x="647" unicode="φ" d="M469 447q-12 0 -23.5 -5t-22 -18.5t-20.5 -36.5t-20 -60l-79 -302q29 2 60 15.5t59.5 40t52.5 67t39 95.5q14 51 14.5 72t0.5 25q0 33 -7.5 57t-22 37t-31.5 13zM172 -169l42 160q-53 3 -91 24.5t-59.5 57t-24 64t-2.5 38.5q0 37 11 79q15 55 45 96t68.5 71t82 50.5 t85.5 35.5l5 -26q-26 -13 -54 -31t-53.5 -44t-47 -62t-34.5 -84q-13 -46 -13 -82q0 -4 1 -25t14 -49t34 -44.5t46 -22.5l68 250q14 54 37 91.5t50.5 61t56 34.5t53.5 11q30 0 56 -17.5t42 -49t18 -57.5t2 -35q0 -37 -12 -80q-16 -59 -47 -103.5t-71.5 -76t-88 -50.5 t-95.5 -26l-36 -159h-88z"/>
<glyph glyph-name="chi" horiz-adv-x="445" unicode="χ" d="M169 -69q-5 38 -8.5 74t-6.5 78q-23 -31 -49.5 -65t-53 -67.5t-49.5 -63.5t-39 -52h-68q28 35 62 74.5t69 79.5t67.5 77.5t58.5 69.5q-3 47 -7.5 96t-11.5 103q-6 49 -17 66.5t-29 17.5q-25 0 -52 -10v19q29 23 62.5 38t56.5 15q27 0 41 -24.5t20 -65.5q5 -38 8.5 -76 t6.5 -76l173 228h72q-15 -17 -39.5 -45t-56 -64.5t-68.5 -81t-77 -92.5q4 -55 8.5 -106.5t12.5 -105.5q8 -57 23.5 -74.5t37.5 -17.5q11 0 24 4l1 -23q-26 -18 -52.5 -27.5t-46.5 -9.5q-14 0 -26 4.5t-21 16.5t-15.5 33t-10.5 53z"/>
<glyph glyph-name="psi" horiz-adv-x="616" unicode="ψ" d="M516 421q19 17 49.5 33t77.5 28l3 -23q-16 -11 -28 -22t-22.5 -24t-20 -29t-18.5 -37l-70 -185q-12 -31 -29 -55.5t-35.5 -43t-37.5 -32t-37 -23.5q-9 -5 -20.5 -9.5t-24 -8t-24 -6t-20.5 -3.5l-37 -153h-64l43 156q-29 1 -53.5 7.5t-42 24t-27 47.5t-9.5 77 q0 22 3.5 54.5t8 66t8 62.5t3.5 44q0 34 -8 42t-17 8q-18 0 -31 -4l-1 22q25 19 49 33t47 14t34.5 -18t11.5 -60q0 -30 -5 -63.5t-10.5 -69t-10.5 -72.5t-5 -74q0 -31 4.5 -50.5t13 -31t20.5 -17t27 -7.5l118 459h67l-129 -461q31 4 51.5 16t35.5 30t26 41t22 49 q9 21 20 58.5t25 78.5t31 77t38 54z"/>
<glyph glyph-name="endash" horiz-adv-x="610" unicode="–" d="M45 282h532l-13 -48h-532z"/>
<glyph glyph-name="emdash" horiz-adv-x="810" unicode="—" d="M44 279h735l-13 -51h-735z"/>
<glyph glyph-name="quoteleft" horiz-adv-x="232" unicode="‘" d="M166 439q-31 0 -44.5 16.5t-13.5 46.5q0 40 16.5 73t40.5 57.5t50.5 41.5t45.5 26l13 -26q-20 -12 -38.5 -24t-34.5 -27t-29 -34t-21 -44h30q27 0 38.5 -12t11.5 -29q0 -26 -17 -45.5t-48 -19.5z"/>
<glyph glyph-name="quotesinglbase" horiz-adv-x="232" unicode="‚" d="M-18 -120q20 13 39 25.5t35.5 27.5t29 34t19.5 45h-27q-28 0 -39.5 11.5t-11.5 28.5q0 26 18 45.5t47 19.5q30 0 44 -16.5t14 -46.5q0 -42 -17 -75t-41.5 -57.5t-51 -41t-45.5 -26.5z"/>
<glyph glyph-name="quotedblleft" horiz-adv-x="418" unicode="“" d="M166 439q-31 0 -44.5 16.5t-13.5 46.5q0 40 16.5 73t40.5 57.5t50.5 41.5t45.5 26l13 -26q-20 -12 -38.5 -24t-34.5 -27t-29 -34t-21 -44h30q27 0 38.5 -12t11.5 -29q0 -26 -17 -45.5t-48 -19.5zM352 439q-32 0 -46 16.5t-14 46.5q0 40 17.5 73t42 57.5t51.5 41.5t47 26 l13 -26q-21 -12 -41 -24t-36.5 -27t-29 -34t-19.5 -44h30q27 0 37.5 -12t10.5 -29q0 -26 -17 -45.5t-46 -19.5z"/>
<glyph glyph-name="quotedblright" horiz-adv-x="418" unicode="”" d="M96 463q21 13 40.5 25.5t35.5 27.5t28 34t20 45h-28q-28 0 -38 12t-10 31q0 23 16.5 42.5t45.5 19.5q31 0 44.5 -16.5t13.5 -46.5q0 -42 -17 -75t-41 -57.5t-50.5 -41t-45.5 -26.5zM281 463q22 13 41.5 25.5t36 27.5t29 34t18.5 45h-28q-29 0 -38.5 12t-9.5 31 q0 23 16.5 42.5t45.5 19.5q33 0 45.5 -16.5t12.5 -46.5q0 -42 -17 -75t-41 -57.5t-50.5 -41t-45.5 -26.5z"/>
<glyph glyph-name="dagger" horiz-adv-x="461" unicode="†" d="M151 -13q11 49 22.5 106.5t23.5 117t23 118.5t22 110q1 7 1 13q0 11 -4.5 21.5t-19.5 10.5q-9 0 -20 -5.5t-23 -12t-24.5 -12t-24.5 -5.5q-19 0 -34 14.5t-15 37.5q0 17 10.5 28.5t24.5 11.5q16 0 25 -11.5t9 -29.5v-8q6 -1 15 1.5t19 5.5l20 6t19 3q14 0 28.5 -9.5 t19.5 -22.5q4 23 5.5 48.5t2 50t1.5 48t5 41.5q3 17 13.5 26.5t26.5 9.5q20 0 29.5 -12.5t9.5 -31.5q0 -12 -9 -33.5t-21 -47t-24.5 -53.5t-19.5 -53q8 9 17 11.5t20 2.5q13 0 24 -5.5t21 -13t18.5 -14.5t16.5 -10q5 16 16 24t24 8q14 0 24 -11.5t10 -25.5q0 -20 -16 -33 t-36 -13q-21 0 -34 11t-23.5 24.5t-20.5 25t-24 11.5q-11 0 -15.5 -7t-10.5 -28q-15 -49 -31.5 -105.5t-33 -115t-32 -115.5t-28.5 -107z"/>
<glyph glyph-name="daggerdbl" horiz-adv-x="455" unicode="‡" d="M115 17q3 11 11 29t18 38l21 42q11 20 19 35q-19 -5 -30 -7t-19 0q-17 4 -27 12t-25 16q-11 -18 -25 -25t-25 -4q-14 4 -21 17q-5 9 -5 18q0 4 1 8q5 18 19 27q9 6 21 6q7 0 14 -2q14 -3 23 -11t17 -16t18 -16q9 -8 23 -11t24 8t18 29q16 34 44 115q9 44 13 74t6 49 q1 9 1 17q1 10 -1 17q-2 14 -17 18q-14 4 -26 2t-23 -5t-23 -5t-25 2q-22 4 -29 20q-4 9 -4 19q0 7 2 14q5 14 17 22t25 3q26 -8 30 -47q16 -3 28 -1t30 -3q8 -2 17 -9t23 -22q1 18 1 41t2 46t3 43q2 20 5 30q4 16 18 27q9 8 21 8q6 0 12 -2q20 -5 26 -21q3 -9 3 -18 q0 -7 -2 -15q-3 -11 -11 -29t-18 -38q-11 -20 -21 -41q-10 -20 -18 -35q18 5 28 7t20 -1q18 -4 28 -12t27 -16q9 18 21 24t26 4q14 -3 21 -16q5 -9 5 -18q0 -4 -1 -8q-5 -18 -19 -27q-9 -6 -22 -6q-7 0 -15 2q-15 3 -23 11l-16 16t-18 16q-9 8 -23 11q-13 3 -23 -8t-18 -28 q-15 -33 -44 -117q-8 -44 -12 -74t-7 -48q-1 -10 -1 -18t1 -16q2 -14 16 -18t26 -2t23 5q10 3 22 5t26 -2q22 -5 30 -21q4 -10 4 -20q0 -7 -2 -13q-4 -13 -16 -21t-26 -4q-28 8 -28 50q-17 -1 -30 -2t-30 4q-8 2 -17 9t-21 22q0 -18 -2 -41l-4 -46t-2 -43q-2 -20 -5 -30 q-4 -18 -18 -28q-9 -7 -22 -7q-6 0 -12 2q-19 5 -25 21q-3 8 -3 17q0 8 2 16z"/>
<glyph glyph-name="ellipsis" horiz-adv-x="821" unicode="…" d="M113 -8q-23 0 -41.5 17.5t-18.5 43.5q0 24 18.5 41.5t41.5 17.5t40.5 -17.5t17.5 -41.5q0 -26 -17.5 -43.5t-40.5 -17.5zM390 -8q-23 0 -41.5 17.5t-18.5 43.5q0 24 18.5 41.5t41.5 17.5q24 0 41.5 -17.5t17.5 -41.5q0 -26 -17.5 -43.5t-41.5 -17.5zM670 -8 q-23 0 -41.5 17.5t-18.5 43.5q0 24 18.5 41.5t41.5 17.5q24 0 41.5 -17.5t17.5 -41.5q0 -26 -17.5 -43.5t-41.5 -17.5z"/>
<glyph glyph-name="perthousand" horiz-adv-x="1179" unicode="‰" d="M605 14q30 0 51.5 21t35 53t20 69.5t6.5 70.5q0 80 -60 80q-29 0 -50 -20.5t-34.5 -52t-20.5 -68.5t-7 -71q0 -42 13.5 -62t45.5 -20zM962 14q30 0 51 21t34.5 53t20 69.5t6.5 70.5q0 80 -59 80q-28 0 -48.5 -20.5t-34.5 -52t-21 -68.5t-7 -71q0 -42 13.5 -62t44.5 -20z M218 320q30 0 51.5 21t35 53.5t20 70.5t6.5 71q0 38 -15.5 59t-44.5 21t-50 -20.5t-34.5 -52t-20.5 -69.5t-7 -72q0 -40 13.5 -61t45.5 -21zM595 -11q-54 0 -87 33t-33 90q0 42 15 81t40.5 70t59.5 49.5t73 18.5q57 0 90 -31t33 -91q0 -46 -15.5 -86t-42 -70t-61 -47 t-72.5 -17zM952 -11q-54 0 -86.5 33t-32.5 90q0 42 14.5 81t40 70t60 49.5t73.5 18.5q54 0 89 -31t35 -91q0 -46 -15.5 -86t-42 -70t-61.5 -47t-74 -17zM144 -9l551 654l38 -18l-560 -652zM208 298q-54 0 -87 32.5t-33 89.5q0 42 15 81.5t40.5 70t59.5 49.5t73 19 q57 0 90 -31t33 -94q0 -45 -15.5 -84.5t-42 -69t-61 -46.5t-72.5 -17z"/>
<glyph glyph-name="minute" horiz-adv-x="175" unicode="′" d="M10 416q7 43 14 82.5t12.5 72t10 55.5t8.5 34q8 20 21.5 29t30.5 9h7q26 -2 38 -17.5t12 -34.5v-6q-1 -11 -7 -25.5t-25 -46.5q-18 -29 -41 -71.5t-51 -90.5z"/>
<glyph glyph-name="guilsinglleft" horiz-adv-x="356" unicode="‹" d="M70 216q-10 10 -12 13.5t-2 15.5q0 14 6.5 26t22.5 24l228 154l17 -22l-186 -172l104 -182l-27 -20z"/>
<glyph glyph-name="guilsinglright" horiz-adv-x="356" unicode="›" d="M2 78l185 175l-104 180l26 16l155 -160q10 -8 11 -13t1 -13q0 -21 -10 -32t-25 -22l-225 -154z"/>
<glyph glyph-name="fraction" horiz-adv-x="153" unicode="⁄" d="M-260 -44l688 683l25 -23l-687 -683z"/>
<glyph glyph-name="Euro" horiz-adv-x="616" unicode="€" d="M25 218l11 33h78q2 23 7 52.5t12 52.5h-83l10 33h84q19 52 48 98t67.5 80t86 54t104.5 20q40 0 70.5 -10t50 -26t29.5 -36.5t10 -40.5q0 -12 -3 -26t-10 -26.5t-19 -20.5t-30 -8q-26 0 -37 13.5t-11 36.5q0 24 12 39.5t20 26.5q0 3 -4.5 11t-14.5 15.5t-27.5 13.5 t-44.5 6q-38 0 -71 -17t-61 -46.5t-50 -69.5t-37 -87h237l-10 -33h-235q-6 -23 -10.5 -52t-6.5 -53h198l-11 -33h-190v-16q0 -79 37 -118.5t108 -39.5q36 0 63.5 9t49.5 25.5t40 38t36 47.5l21 -15q-21 -34 -46 -63.5t-55.5 -51t-66.5 -33.5t-80 -12q-54 0 -90.5 15.5 t-59 43.5t-32 65t-9.5 81v12t1 12h-86z"/>
<glyph glyph-name="trademark" horiz-adv-x="777" unicode="™" d="M194 396q21 0 32 6q13 7 13 18v232h-12q-6 0 -17.5 -1t-17.5 -3q-16 -6 -27.5 -26t-15.5 -36l-16 2v81h263v-81l-15 -2q-5 16 -14 35t-29 27q-6 2 -17 3t-19 1h-15v-231q0 -13 12 -18q10 -5 36 -7v-16h-141v16zM438 396q8 1 20 3.5t20 7.5q8 4 10.5 15t2.5 41v147 q0 10 -1 18.5t-9 13.5q-8 6 -19 8t-19 3v16h104l89 -214l78 179q5 10 6.5 20t3.5 15h101v-17q-7 -1 -18.5 -1.5t-17.5 -3.5q-9 -5 -9 -18v-208q0 -14 10 -20q5 -3 16.5 -4t18.5 -1v-16h-144v16q7 0 20 0.5t19 3.5q8 4 10.5 9t2.5 12v198l-105 -238h-13q-5 15 -12 31.5 t-13 29.5l-76 180v-157q0 -26 3.5 -38.5t11.5 -18.5q7 -6 18 -8.5t23 -3.5v-16h-132v16z"/>
<glyph glyph-name="partialdiff" horiz-adv-x="493" unicode="∂" d="M268 368q-38 -1 -70 -21.5t-56.5 -52t-42.5 -69t-27 -71.5q-6 -23 -7.5 -39t-1.5 -24q0 -14 3.5 -29.5t16 -27.5t36.5 -12q20 0 39.5 8t37.5 21.5t33.5 31t28.5 35.5q31 44 54 87t44 98q-5 9 -11.5 20t-17 21.5t-25 17t-34.5 6.5zM255 413q82 0 119 -67q8 20 16.5 42 t15.5 48q11 38 17 67t6 48q0 15 -4.5 36.5t-27.5 40t-73 18.5q-38 0 -68 -11.5t-59 -28.5q-14 -8 -25 -3.5t-16 15t-1.5 24t20.5 23.5q25 15 59 23.5t75 8.5q64 0 103.5 -26.5t57.5 -69t18 -95.5q0 -3 -0.5 -32.5t-16.5 -89.5q-7 -25 -18 -56t-26.5 -64.5t-34.5 -67 t-42 -63.5q-49 -65 -108 -105t-128 -40q-42 0 -70 15.5t-42.5 42t-15.5 47t-1 24.5q0 33 11 70q11 42 35.5 82.5t59 72.5t76.5 51.5t88 19.5z"/>
<glyph glyph-name="product" horiz-adv-x="737" unicode="∏" d="M533 -12q-7 -26 -9 -42.5t-0.5 -26.5t6.5 -16t11 -11q2 -2 9.5 -4.5t16.5 -4l18 -3t15 -1.5l-6 -23h-281l6 23q7 0 16.5 0.5t19 1.5t18.5 2.5t15 3.5q10 3 17 8.5t13.5 16.5t13 29t14.5 47l166 612q6 20 1 25.5t-26 5.5h-236q-23 0 -30.5 -6t-12.5 -27l-166 -610 q-7 -26 -10 -42.5t-2.5 -27t4.5 -16t11 -10.5q3 -2 11.5 -4.5t18.5 -4t19.5 -3t14.5 -1.5l-6 -23h-283l6 23q14 1 35.5 2t34.5 6q9 3 16.5 8.5t14 16.5t13 29t14.5 47l149 548q9 32 11.5 51t-4 30t-23.5 15.5t-48 7.5l4 29h664l-4 -29q-33 -3 -52.5 -7.5t-32 -15t-20 -30 t-16.5 -50.5z"/>
<glyph glyph-name="summation" horiz-adv-x="557" unicode="∑" d="M381 -144h-461l4 26l353 381l-135 380l3 26h457q-2 -6 -5.5 -23.5t-8 -39.5t-9.5 -46.5t-9 -45.5h-28q0 35 -3.5 56t-11.5 35q-4 7 -11.5 12.5t-20.5 8.5t-32.5 4.5t-48.5 1.5h-164l115 -333l-338 -369h258q25 0 45 4t37 15.5t34.5 32t38.5 54.5l31 -2z"/>
<glyph glyph-name="minus" d="M79 279h468v-47h-468v47z" unicode="−"/>
<glyph glyph-name="radical" d="M171 -6q-6 44 -10 77t-7.5 60.5t-6.5 51.5t-7 50t-8.5 56.5t-11.5 71.5q-3 22 -22 35.5t-38 16.5l7 23h128l46 -331h6l313 563q10 17 26 27.5t27 10.5q32 0 36 -16.5t4 -22.5q0 -22 -18 -48l-426 -625h-38z" unicode="√"/>
<glyph glyph-name="infinity" d="M462 381q-20 0 -39.5 -11t-37 -26.5t-32.5 -32l-25 -27.5q19 -23 35.5 -41t31.5 -30.5t31 -20t34 -10.5q38 0 61 28.5t25 68.5v7q0 45 -24 70t-59 25h-1zM142 182q19 0 37.5 9.5t35.5 24t32 31.5t27 31q-14 18 -29.5 36.5t-33 33t-37 24t-41.5 9.5q-18 0 -33 -8.5 t-25.5 -22.5t-15.5 -32.5t-5 -38.5q1 -42 25 -69.5t62 -27.5h1zM594 281q0 -33 -10.5 -60t-28.5 -46t-42.5 -29.5t-52.5 -10.5q-38 0 -75 26.5t-86 82.5q-17 -19 -34.5 -38.5t-38 -35t-44 -25.5t-50.5 -10t-50 11.5t-40 31t-26.5 46.5t-9.5 57q0 31 10 57.5t27.5 46.5 t41.5 31.5t53 11.5q25 0 46.5 -9.5t41.5 -24.5t38.5 -35t36.5 -41q18 21 36.5 41t39 35t43 24.5t49.5 9.5q28 0 51 -11.5t39.5 -31t25.5 -46.5t9 -58z" unicode="∞"/>
<glyph glyph-name="approxequal" d="M80 269q7 21 20.5 43.5t32 41t41 30.5t46.5 12q30 0 54.5 -9.5t47.5 -20.5q20 -11 39 -19t39 -8t34 4.5t25 13.5t19.5 22t17.5 30l23 -10q-7 -22 -21 -44.5t-32.5 -41t-40.5 -30.5t-46 -12q-30 0 -53 9t-42 18q-23 12 -43 21.5t-42 9.5q-40 0 -59.5 -18t-37.5 -51z M80 116q7 21 20.5 43.5t32 41t41 30.5t46.5 12q30 0 54.5 -9.5t47.5 -20.5q20 -11 39 -19t39 -8t34 4.5t25 13.5t19.5 22t17.5 30l23 -10q-7 -22 -21 -44.5t-32.5 -41t-40.5 -30.5t-46 -12q-30 0 -53 9t-42 18q-23 12 -43 21.5t-42 9.5q-40 0 -59.5 -18t-37.5 -51z" unicode="≈"/>
<glyph glyph-name="notequal" d="M393 476l-36 -109h157v-45h-172l-43 -127h215v-52h-232l-48 -143h-49l47 143h-146v52h163l42 127h-205v45h220l36 109h51z" unicode="≠"/>
<glyph glyph-name="lessequal" d="M512 26v-50l-425 198v48zM87 259v45l425 199v-50l-372 -173l372 -169v-50z" unicode="≤"/>
<glyph glyph-name="greaterequal" d="M512 222v-48l-425 -198v50zM87 61v50l372 169l-372 173v50l425 -199v-45z" unicode="≥"/>
<glyph glyph-name="lozenge" horiz-adv-x="556" unicode="◊" d="M370 668h-2l-253 -330l72 -332h2l252 331zM196 -53h-48l-91 390l304 391h48l89 -391z"/>
<glyph glyph-name="one.numr" horiz-adv-x="300" unicode="" d="M16 247q10 1 28 3.5t35 7.5q25 7 30 28l76 285q-6 -2 -14 -3.5t-19 -1.5q-16 0 -35.5 11.5t-36.5 26.5l13 15q15 -7 31.5 -12.5t39.5 -5.5q33 0 60.5 11t46.5 20h19q-12 -23 -23.5 -51.5t-17.5 -51.5l-60 -224q-2 -5 -3.5 -15.5t-1.5 -15.5q0 -11 16 -16q4 -1 11.5 -3 t15.5 -3.5l16 -3t13 -1.5l-5 -18h-241z"/>
<glyph glyph-name="three.numr" horiz-adv-x="375" unicode="" d="M129 221q-24 0 -45.5 6t-38 17.5t-26 28t-9.5 37.5q0 28 17 43.5t40 15.5q17 0 26 -9t9 -23q0 -9 -5 -15t-11 -10.5t-12 -8t-9 -9.5q-2 -19 13.5 -34t55.5 -15q27 0 51 12.5t42.5 32.5t29.5 45t11 50q0 23 -9.5 34t-32.5 11q-16 0 -31 -7t-28 -18l-14 26q31 15 56 29 t43 29.5t28 33.5t10 41t-15 38.5t-46 15.5q-17 0 -28.5 -4.5t-19.5 -11t-12.5 -13t-5.5 -9.5q-2 -7 3.5 -14.5t5.5 -21.5q0 -12 -10 -26t-36 -14q-22 0 -29 14t-7 26q0 15 11.5 31.5t32 31t49.5 24t65 9.5q51 0 84 -20.5t33 -56.5q0 -33 -27.5 -61t-100.5 -43v-10 q6 2 9.5 2.5t8.5 0.5q13 0 29 -3.5t29.5 -12t22.5 -23t9 -36.5q0 -33 -17 -61.5t-46.5 -49.5t-68.5 -33t-84 -12z"/>
<glyph glyph-name="two.dnom" horiz-adv-x="378" unicode="" d="M14 38q40 23 68 38.5t50 28.5t40 25.5t38 30.5q25 24 41 46t24 41.5t11 37t3 31.5q0 31 -18 45.5t-47 14.5q-12 0 -25 -3.5t-24.5 -9.5t-19.5 -14t-10 -17q0 -8 8 -14t8 -25q0 -13 -11 -27t-37 -14q-20 0 -27.5 12.5t-7.5 26.5q0 13 10 32.5t30.5 37.5t51.5 30.5t74 12.5 q56 0 89.5 -27.5t33.5 -69.5q0 -33 -12 -61t-40 -55t-74.5 -55.5t-116.5 -62.5l-21 -16h163q12 0 24 8t22.5 19t20 24t16.5 23l19 -4l-68 -128h-290z"/>
<glyph glyph-name="four.dnom" horiz-adv-x="400" unicode="" d="M217 161l48 176l-211 -176h163zM112 18q9 1 24 1.5t22 2.5q14 4 20.5 10t9.5 18l21 78h-199l13 44l294 240h37l-68 -251h104l-11 -33h-101l-15 -59q-2 -8 -3 -14t-1 -11q0 -6 2.5 -13t10.5 -9t21.5 -3t18.5 -1l-4 -18h-200z"/>
</font>
</defs>
</svg>
