<?xml version="1.0" encoding="UTF-8" standalone="no"?>
<!DOCTYPE svg  PUBLIC '-//W3C//DTD SVG 1.1//EN'  'http://www.w3.org/Graphics/SVG/1.1/DTD/svg11.dtd'>
<svg xmlns="http://www.w3.org/2000/svg">
<defs>
<font id="FreightSansProSemibold-Regular" horiz-adv-x="544">
<font-face underline-position="-113" font-weight="600" descent="-200" panose-1="2 0 6 3 4 0 0 2 0 4" units-per-em="1000" unicode-range="U+0020-2265" bbox="-61 -272 1160 867" x-height="461" underline-thickness="20" font-family="FreightSansProSemibold" ascent="800" cap-height="625"/>
<missing-glyph horiz-adv-x="1000"/>
<glyph glyph-name=".notdef" horiz-adv-x="1000"/>
<glyph glyph-name=".null" horiz-adv-x="0"/>
<glyph glyph-name="nonmarkingreturn" horiz-adv-x="333"/>
<glyph glyph-name="space" horiz-adv-x="228" unicode=" "/>
<glyph glyph-name="exclam" horiz-adv-x="290" unicode="!" d="M224 60q0 -33 -22 -54t-56 -21q-36 0 -58.5 21t-22.5 54t22.5 53t58.5 20q35 0 56.5 -20t21.5 -53zM105 205l-30 447h141l-29 -447h-82z"/>
<glyph glyph-name="quotedbl" horiz-adv-x="370" unicode='&quot;' d="M66 398h-67l115 247l105 -36zM246 398h-67l115 247l104 -36z"/>
<glyph glyph-name="numbersign" horiz-adv-x="591" unicode="#" d="M392 361h-152l-38 -140h151zM153 358h-116v85h139l53 199h87l-54 -199h151l54 199h87l-54 -199h77v-85h-100l-36 -134h116v-85h-138l-57 -213h-87l57 213h-151l-57 -213h-87l57 213h-77v85h99z"/>
<glyph glyph-name="dollar" horiz-adv-x="534" unicode="$" d="M277 257l-25 -171h3q55 0 87.5 23t32.5 61q0 33 -22.5 52t-75.5 35zM246 381l23 158h-2q-110 0 -110 -77q0 -30 21.5 -48t67.5 -33zM283 640l13 90h59l-14 -96q73 -13 138 -49l-30 -103q-57 33 -123 47l-24 -161q40 -11 70 -24t59.5 -34.5t45 -54t15.5 -75.5 q0 -87 -64.5 -141t-173.5 -54h-16l-16 -108h-58q16 108 16 114q-143 47 -151 52l29 105q70 -42 138 -54l25 176q-39 12 -66.5 24t-56.5 33t-44 53.5t-15 74.5q0 84 60.5 134.5t163.5 50.5h20z"/>
<glyph glyph-name="percent" horiz-adv-x="786" unicode="%" d="M691 146q0 45 -25 74t-67 29t-67 -29t-25 -74q0 -47 25 -76t68 -29q42 0 66.5 29t24.5 76zM279 478q0 47 -25 76t-67 29q-43 0 -68 -29t-25 -76q0 -45 25 -74t68 -29q42 0 67 29t25 74zM770 146q0 -75 -46.5 -123t-124.5 -48q-79 0 -124.5 48t-45.5 123q0 74 46 121.5 t125 47.5q78 0 124 -47.5t46 -121.5zM692 639l-508 -654h-89l508 654h89zM358 478q0 -74 -46.5 -121.5t-125.5 -47.5q-78 0 -124 47.5t-46 121.5q0 75 46.5 123t124.5 48q79 0 125 -48t46 -123z"/>
<glyph glyph-name="ampersand" horiz-adv-x="640" unicode="&amp;" d="M384 173q-84 94 -157 120q-92 -46 -92 -116q0 -43 28 -70.5t75 -27.5q78 0 146 94zM271 374q73 37 73 100q0 35 -23 57t-60 22t-59.5 -22t-22.5 -53q0 -36 23 -60t69 -44zM432 113q-96 -128 -215 -128q-88 0 -141.5 49t-53.5 125q0 61 42 105.5t104 61.5q-98 54 -98 145 q0 66 53.5 117t142.5 51q83 0 134 -43.5t51 -108.5q0 -49 -34 -86.5t-86 -56.5q46 -22 108 -88l78 128h129l-148 -191l151 -185l-123 -21z"/>
<glyph glyph-name="quotesingle" horiz-adv-x="190" unicode="&apos;" d="M66 398h-67l115 247l105 -36z"/>
<glyph glyph-name="parenleft" horiz-adv-x="394" unicode="(" d="M350 -261q-52 27 -101 71t-92 104.5t-69.5 142t-26.5 170.5t26.5 171t69.5 142.5t92 104.5t100 70l58 -78q-96 -56 -166.5 -164.5t-70.5 -245.5q0 -136 70.5 -245t166.5 -165z"/>
<glyph glyph-name="parenright" horiz-adv-x="394" unicode=")" d="M45 -261l-58 78q96 56 166.5 165t70.5 245q0 137 -70 245.5t-167 164.5l59 78q51 -26 99.5 -70t92 -104.5t69.5 -142.5t26 -171t-26.5 -170.5t-69.5 -142t-91.5 -104.5t-100.5 -71z"/>
<glyph glyph-name="asterisk" horiz-adv-x="369" unicode="*" d="M175 430l-100 -118l-65 86l145 59v7l-143 60l63 87l100 -121l6 2l15 155l101 -33l-85 -133l4 -5l149 36v-106l-149 37l-4 -5l82 -134l-101 -31l-12 156z"/>
<glyph glyph-name="plus" horiz-adv-x="505" unicode="+" d="M469 190h-167v-170h-96v170h-169l3 94h166v169h96v-169h164z"/>
<glyph glyph-name="comma" horiz-adv-x="249" unicode="," d="M32 71q4 33 28 54t60 21q42 0 72 -32t30 -78q0 -104 -158 -199l-52 47q101 71 101 116q0 20 -17.5 35.5t-63.5 35.5z"/>
<glyph glyph-name="hyphen" horiz-adv-x="341" unicode="-" d="M312 192h-282v101h282v-101z"/>
<glyph glyph-name="period" horiz-adv-x="249" unicode="." d="M204 63q0 -33 -22 -55.5t-56 -22.5q-35 0 -57.5 22.5t-22.5 55.5t22.5 55t57.5 22q34 0 56 -22t22 -55z"/>
<glyph glyph-name="slash" horiz-adv-x="252" unicode="/" d="M285 702l-243 -901h-93l243 901h93z"/>
<glyph glyph-name="zero" horiz-adv-x="575" unicode="0" d="M419 237q0 70 -36.5 113t-95.5 43t-95 -43t-36 -113t36 -112.5t95 -42.5t95.5 42.5t36.5 112.5zM535 238q0 -113 -68.5 -183t-180.5 -70q-111 0 -178 69.5t-67 182.5t68 183t178 70q111 0 179.5 -69.5t68.5 -182.5z"/>
<glyph glyph-name="one" horiz-adv-x="365" unicode="1" d="M157 0v360l-116 -32l-3 101l236 62v-491h-117z"/>
<glyph glyph-name="two" horiz-adv-x="478" unicode="2" d="M447 0h-403v89q18 13 47 32.5t45 30.5t39.5 27.5t36.5 26.5t29 24t25 24t17.5 22t12 22.5t3.5 21.5q0 31 -23 49.5t-63 18.5q-64 0 -143 -55l-32 92q87 65 198 65q86 0 137 -41.5t51 -109.5q0 -66 -50.5 -117t-163.5 -121h236z"/>
<glyph glyph-name="three" horiz-adv-x="459" unicode="3" d="M293 172q70 -11 108.5 -55.5t38.5 -102.5q0 -92 -69.5 -146.5t-173.5 -54.5q-105 0 -183 42l17 101q70 -45 160 -45h3q57 0 90.5 26t33.5 74q0 88 -125 91h-14q-36 0 -72 -6v91q86 18 135.5 45.5t49.5 76.5q0 38 -26.5 59t-75.5 21q-67 0 -143 -56l-32 91q89 66 198 66 q93 0 149.5 -44.5t56.5 -116.5q0 -53 -35.5 -94.5t-90.5 -62.5z"/>
<glyph glyph-name="four" horiz-adv-x="548" unicode="4" d="M331 105v249l-177 -249h177zM537 7h-98v-186h-112v186h-292l-13 71l297 408h120v-380h95z"/>
<glyph glyph-name="five" horiz-adv-x="460" unicode="5" d="M161 222q5 0 15 1.5t21 2t23 0.5q102 0 161 -53t59 -138q0 -98 -67 -160t-172 -62q-103 0 -181 40l15 105q86 -44 164 -44q56 0 90.5 30.5t34.5 82.5q0 46 -35 76.5t-100 30.5q-68 0 -124 -18l-22 22l42 338h339l3 -103h-246z"/>
<glyph glyph-name="six" horiz-adv-x="543" unicode="6" d="M164 221q0 -58 31.5 -99t84.5 -41q49 0 78.5 32t29.5 85q0 50 -29.5 80.5t-76.5 30.5q-65 0 -114 -43q-4 -17 -4 -45zM40 259q0 142 97.5 252.5t270.5 142.5l31 -102q-109 -23 -182 -76t-96 -133l3 -2q64 62 158 62q80 0 133 -53.5t53 -142.5q0 -96 -63 -159t-169 -63 q-110 0 -173 77.5t-63 196.5z"/>
<glyph glyph-name="seven" horiz-adv-x="478" unicode="7" d="M336 370h-318l3 106h437v-87l-275 -568h-117z"/>
<glyph glyph-name="eight" horiz-adv-x="521" unicode="8" d="M234 272q-39 -16 -61 -43.5t-22 -60.5q0 -41 31.5 -67t82.5 -26t78.5 22t27.5 62q0 39 -34.5 63.5t-102.5 49.5zM290 350q33 16 52.5 42.5t19.5 56.5q0 43 -28 68t-71 25q-47 0 -74.5 -24t-27.5 -61q0 -36 32.5 -59.5t96.5 -47.5zM364 318q119 -55 119 -150 q0 -80 -58.5 -131.5t-165.5 -51.5q-103 0 -162 47.5t-59 123.5q0 54 36 94.5t87 53.5q-114 53 -114 146q0 81 58 131.5t162 50.5q98 0 152 -47.5t54 -123.5q0 -50 -31 -88.5t-78 -54.5z"/>
<glyph glyph-name="nine" horiz-adv-x="543" unicode="9" d="M379 254q0 58 -31.5 99t-84.5 41q-49 0 -78.5 -32t-29.5 -85q0 -50 29.5 -80.5t76.5 -30.5q66 0 114 44q4 16 4 44zM503 216q0 -142 -97.5 -252t-270.5 -142l-31 101q109 23 181.5 76t93.5 133l-3 2q-61 -61 -153 -61q-81 0 -134.5 52.5t-53.5 140.5q0 97 63 160.5 t169 63.5q110 0 173 -77t63 -197z"/>
<glyph glyph-name="colon" horiz-adv-x="249" unicode=":" d="M204 63q0 -33 -22 -55.5t-56 -22.5q-35 0 -57.5 22.5t-22.5 55.5t22.5 55t57.5 22q34 0 56 -22t22 -55zM204 358q0 -33 -22 -55.5t-56 -22.5q-35 0 -57.5 22.5t-22.5 55.5t22.5 55t57.5 22q34 0 56 -22t22 -55z"/>
<glyph glyph-name="semicolon" horiz-adv-x="249" unicode=";" d="M32 71q4 33 28 54t60 21q42 0 72 -32t30 -78q0 -104 -158 -199l-52 47q101 71 101 116q0 20 -17.5 35.5t-63.5 35.5zM204 358q0 -33 -22 -55.5t-56 -22.5q-35 0 -57.5 22.5t-22.5 55.5t22.5 55t57.5 22q34 0 56 -22t22 -55z"/>
<glyph glyph-name="less" horiz-adv-x="488" unicode="&lt;" d="M441 111v-101l-402 186v79l401 186v-101l-271 -120v-10z"/>
<glyph glyph-name="equal" horiz-adv-x="485" unicode="=" d="M449 88h-411l5 93h401zM444 288h-401l-5 93h411z"/>
<glyph glyph-name="greater" horiz-adv-x="488" unicode="&gt;" d="M440 196l-401 -186v101l271 119v10l-271 120v101l401 -186v-79z"/>
<glyph glyph-name="question" horiz-adv-x="387" unicode="?" d="M244 60q0 -33 -22 -54t-57 -21t-57.5 21t-22.5 54t22.5 53t57.5 20t57 -20t22 -53zM351 464q0 -57 -29.5 -87.5t-81.5 -48.5q-27 -9 -38 -13.5t-23 -14.5t-13 -22q0 -5 2 -10t6 -10.5t7 -10t10 -11.5l10 -10l10.5 -10.5t9.5 -8.5q-64 -14 -68 -14q-35 17 -58 48t-23 65 q0 41 26 64.5t74 38.5q41 13 59.5 25t18.5 34q0 30 -30.5 49t-85.5 19q-39 0 -87 -13l3 103q43 13 93 13q91 0 149.5 -50.5t58.5 -124.5z"/>
<glyph glyph-name="at" horiz-adv-x="843" unicode="@" d="M470 165l37 181q-34 32 -75 32q-51 0 -83.5 -44.5t-32.5 -101.5q0 -44 23.5 -71t58.5 -27q36 0 72 31zM572 203q-4 -19 -4 -38q0 -64 63 -64q56 0 96 55.5t40 150.5q0 131 -98.5 214.5t-230.5 83.5q-146 0 -249 -107.5t-103 -254.5q0 -141 91 -237.5t231 -96.5 q58 0 125 20l12 -38q-72 -23 -139 -23q-158 0 -261.5 108t-103.5 266q0 166 115.5 284.5t281.5 118.5q155 0 264.5 -93.5t109.5 -244.5q0 -124 -61 -195.5t-146 -71.5q-95 0 -124 79q-51 -60 -120 -60q-61 0 -101.5 46t-40.5 118q0 97 61 163t151 66q41 0 89 -22l101 22z "/>
<glyph glyph-name="A" horiz-adv-x="609" unicode="A" d="M399 249l-94 271l-95 -271h189zM380 625l225 -625h-123l-52 148h-252l-51 -148h-123l228 625h148z"/>
<glyph glyph-name="B" horiz-adv-x="593" unicode="B" d="M435 184q0 84 -131 84h-112v-170h121q122 0 122 86zM416 444q0 40 -28 61.5t-81 21.5h-115v-170h105q58 0 88.5 23t30.5 64zM426 324q62 -14 97 -52t35 -93q0 -179 -243 -179h-243v625h239q227 0 227 -165q0 -99 -112 -136z"/>
<glyph glyph-name="C" horiz-adv-x="607" unicode="C" d="M570 591l-38 -106q-76 50 -164 50q-92 0 -147.5 -59.5t-55.5 -160.5q0 -104 55.5 -164.5t149.5 -60.5q90 0 171 56l23 -112q-82 -49 -199 -49q-146 0 -234.5 87t-88.5 239q0 149 89.5 239t236.5 90q114 0 202 -49z"/>
<glyph glyph-name="D" horiz-adv-x="662" unicode="D" d="M499 311q0 105 -57 158t-165 53h-83v-419h89q101 0 158.5 53t57.5 155zM621 317q0 -147 -90.5 -232t-254.5 -85h-204v625h212q158 0 247.5 -83.5t89.5 -224.5z"/>
<glyph glyph-name="E" d="M498 0h-426v625h426v-103h-306v-157h251v-103h-251v-159h306v-103z" unicode="E"/>
<glyph glyph-name="F" horiz-adv-x="518" unicode="F" d="M72 0v625h416v-106h-295v-165h240v-105h-240v-249h-121z"/>
<glyph glyph-name="G" horiz-adv-x="657" unicode="G" d="M601 44q-104 -59 -234 -59q-146 0 -235.5 88t-89.5 238t89.5 239.5t236.5 89.5q58 0 119 -14.5t102 -39.5l-39 -106q-89 55 -180 55q-93 0 -149 -59.5t-56 -160.5q0 -105 54.5 -166t150.5 -61q63 0 118 25v120h-164v103h277v-292z"/>
<glyph glyph-name="H" horiz-adv-x="685" unicode="H" d="M612 0h-121v262h-297v-262h-122v625h122v-257h297v257h121v-625z"/>
<glyph glyph-name="I" horiz-adv-x="269" unicode="I" d="M195 0h-121v625h121v-625z"/>
<glyph glyph-name="J" horiz-adv-x="445" unicode="J" d="M375 205q0 -105 -51 -162.5t-155 -57.5q-91 0 -157 41l22 105q66 -41 123 -41q51 0 74 29.5t23 93.5v412h121v-420z"/>
<glyph glyph-name="K" horiz-adv-x="587" unicode="K" d="M194 338h1l236 287h145l-268 -307l272 -318h-149l-236 286h-1v-286h-122v625h122v-287z"/>
<glyph glyph-name="L" horiz-adv-x="507" unicode="L" d="M476 0h-404v625h122v-518h282v-107z"/>
<glyph glyph-name="M" horiz-adv-x="811" unicode="M" d="M637 0l-5 501l-163 -492h-128l-164 492l-6 -501h-115l21 625h169l161 -492l161 492h167l20 -625h-118z"/>
<glyph glyph-name="N" horiz-adv-x="689" unicode="N" d="M501 170v455h116v-631h-130l-299 460v-454h-116v625h133z"/>
<glyph glyph-name="O" horiz-adv-x="726" unicode="O" d="M562 311q0 103 -55 165t-146 62q-89 0 -142.5 -61.5t-53.5 -161.5q0 -103 54.5 -165.5t145.5 -62.5q89 0 143 62t54 162zM684 315q0 -144 -91 -237t-230 -93q-142 0 -231.5 87.5t-89.5 238.5q0 144 91.5 236.5t230.5 92.5q141 0 230.5 -87t89.5 -238z"/>
<glyph glyph-name="P" horiz-adv-x="566" unicode="P" d="M410 412q0 111 -144 111h-74v-228l78 2q140 3 140 115zM532 416q0 -107 -70 -163.5t-197 -57.5l-71 -1v-194h-122v625h202q126 0 192 -57t66 -152z"/>
<glyph glyph-name="Q" horiz-adv-x="726" unicode="Q" d="M562 311q0 103 -55 165t-146 62q-89 0 -142.5 -61.5t-53.5 -161.5q0 -103 54.5 -166.5t145.5 -63.5q89 0 143 62t54 164zM521 29l185 -86l-50 -102l-273 145q-3 0 -10 -0.5t-10 -0.5q-142 0 -231.5 87.5t-89.5 238.5q0 144 91.5 236.5t230.5 92.5q141 0 230.5 -87 t89.5 -238q0 -95 -43.5 -170.5t-119.5 -115.5z"/>
<glyph glyph-name="R" horiz-adv-x="581" unicode="R" d="M193 319l91 2q58 3 91 29.5t33 76.5q0 96 -136 96h-79v-204zM194 223v-223h-122v625h219q116 0 179 -51t63 -139q0 -66 -35 -112t-100 -68l164 -255h-139l-139 229z"/>
<glyph glyph-name="S" horiz-adv-x="536" unicode="S" d="M260 88q51 0 83.5 23t32.5 60q0 36 -31.5 55.5t-107.5 40.5q-41 11 -69.5 23t-60 33.5t-48 54.5t-16.5 77q0 84 60.5 134.5t163.5 50.5q118 0 215 -55l-30 -103q-90 54 -184 54q-53 0 -79 -20t-26 -54q0 -35 34 -54.5t108 -39.5q41 -11 70.5 -24t59.5 -34.5t45.5 -54 t15.5 -75.5q0 -87 -64.5 -141t-173.5 -54q-130 0 -225 58l28 105q99 -60 199 -60z"/>
<glyph glyph-name="T" horiz-adv-x="581" unicode="T" d="M560 518h-209v-518h-121v518h-209v107h539v-107z"/>
<glyph glyph-name="U" horiz-adv-x="659" unicode="U" d="M590 248q0 -127 -68 -195t-193 -68q-122 0 -191 65.5t-69 186.5v388h122v-372q0 -161 142 -161q136 0 136 156v377h121v-377z"/>
<glyph glyph-name="V" horiz-adv-x="599" unicode="V" d="M596 625l-224 -625h-148l-222 625h126l171 -502l171 502h126z"/>
<glyph glyph-name="W" horiz-adv-x="927" unicode="W" d="M464 483l-141 -483h-124l-172 625h130l109 -476l130 476h140l132 -476l108 476h124l-172 -625h-126z"/>
<glyph glyph-name="X" horiz-adv-x="609" unicode="X" d="M302 235l-153 -235h-138l220 314l-213 311h142l144 -224l149 224h138l-215 -306l222 -319h-143z"/>
<glyph glyph-name="Y" horiz-adv-x="576" unicode="Y" d="M566 625l-217 -383v-242h-121v243l-218 382h132l148 -270l145 270h131z"/>
<glyph glyph-name="Z" horiz-adv-x="551" unicode="Z" d="M512 0h-485v84l333 435h-327v106h480v-86l-332 -433h331v-106z"/>
<glyph glyph-name="bracketleft" horiz-adv-x="390" unicode="[" d="M383 -214h-308v897h308v-89h-203v-718h203v-90z"/>
<glyph glyph-name="backslash" horiz-adv-x="255" unicode="\" d="M-30 702h93l243 -901h-93z"/>
<glyph glyph-name="bracketright" horiz-adv-x="391" unicode="]" d="M9 -214v90h203v718h-203v89h307v-897h-307z"/>
<glyph glyph-name="asciicircum" horiz-adv-x="396" unicode="^" d="M374 523h-83l-90 118h-2l-89 -118h-84l117 187h114z"/>
<glyph glyph-name="underscore" horiz-adv-x="502" unicode="_" d="M512 -88h-522v88h522v-88z"/>
<glyph glyph-name="grave" horiz-adv-x="395" unicode="`" d="M286 523h-79l-157 183h133z"/>
<glyph glyph-name="a" horiz-adv-x="481" unicode="a" d="M305 111v106q-86 -11 -121.5 -30t-35.5 -56q0 -27 19 -43.5t50 -16.5q51 0 88 40zM309 53h-4q-56 -68 -130 -68q-62 0 -102.5 37.5t-40.5 92.5q0 155 273 164v11q0 47 -21.5 67.5t-70.5 20.5q-67 0 -153 -49l-24 93q87 54 193 54q102 0 148 -44t46 -136v-10v-165 q0 -26 7 -33t34 -9l-9 -89q-24 -2 -34 -2q-88 0 -112 65z"/>
<glyph glyph-name="b" horiz-adv-x="545" unicode="b" d="M392 230q0 68 -31 107.5t-85 39.5q-52 0 -95 -38v-233q34 -26 87 -26q58 0 91 42t33 108zM512 235q0 -109 -67 -179t-166 -70q-55 0 -103 16l-113 -17v683l118 16v-267q61 59 129 59q91 0 146.5 -67t55.5 -174z"/>
<glyph glyph-name="c" horiz-adv-x="470" unicode="c" d="M435 23q-63 -38 -160 -38q-112 0 -175.5 65t-63.5 179q0 112 67 179.5t176 67.5q93 0 159 -39l-25 -95q-59 37 -125 37q-63 0 -97 -39.5t-34 -107.5q0 -70 36 -109.5t95 -39.5q72 0 128 36z"/>
<glyph glyph-name="d" horiz-adv-x="548" unicode="d" d="M367 355q-37 27 -87 27q-58 0 -91 -42t-33 -108q0 -67 31.5 -107t84.5 -40q54 0 95 38v232zM367 461v207l118 16v-684h-118v45q-62 -60 -130 -60q-91 0 -146 67t-55 175q0 109 67 179t166 70q50 0 98 -15z"/>
<glyph glyph-name="e" horiz-adv-x="499" unicode="e" d="M155 277l198 1v8q0 101 -88 101q-46 0 -75.5 -32t-34.5 -78zM152 208v-3q4 -57 40.5 -91.5t97.5 -34.5q76 0 144 42l15 -98q-70 -38 -167 -38q-111 0 -178.5 65.5t-67.5 175.5q0 112 67 181t171 69q90 0 140 -50.5t50 -136.5q0 -44 -10 -77z"/>
<glyph glyph-name="f" horiz-adv-x="343" unicode="f" d="M360 673l-25 -101q-42 19 -75 19q-32 0 -46.5 -19.5t-14.5 -62.5v-51h137l-3 -97h-131v-361h-118v360l-80 6l4 75l75 22l1 49q4 184 167 184q56 0 109 -23z"/>
<glyph glyph-name="g" horiz-adv-x="502" unicode="g" d="M168 -35q-58 -21 -58 -62q0 -32 36.5 -52.5t94.5 -20.5q62 0 102.5 21.5t40.5 56.5q0 31 -30 42t-98 11q-50 0 -88 4zM152 299q0 -42 24 -67t66 -25q39 0 61 26t22 70q0 43 -22.5 68t-65.5 25q-39 0 -62 -26.5t-23 -70.5zM107 -19q-31 11 -50.5 32t-19.5 48 q0 31 23.5 57.5t61.5 39.5q-39 20 -61.5 57.5t-22.5 84.5q0 74 55 125t148 51q64 0 130 -29l124 11l5 -103l-88 15q21 -23 21 -72q0 -71 -54.5 -119.5t-138.5 -48.5q-30 0 -63 8q-36 -14 -36 -40q0 -19 20.5 -27.5t74.5 -8.5h48q207 0 207 -127q0 -80 -78.5 -132t-190.5 -52 q-95 0 -157 34t-62 94q0 38 27 66t77 36z"/>
<glyph glyph-name="h" horiz-adv-x="541" unicode="h" d="M481 0h-118v281q0 49 -19 70t-58 21q-60 0 -105 -43v-329h-118v668l118 16v-281q67 73 156 73q67 0 105.5 -42.5t38.5 -116.5v-317z"/>
<glyph glyph-name="i" horiz-adv-x="244" unicode="i" d="M181 0h-118v458l118 17v-475zM195 616q0 -33 -19 -52t-54 -19q-34 0 -53 19t-19 52q0 32 19 51.5t53 19.5q35 0 54 -19.5t19 -51.5z"/>
<glyph glyph-name="j" horiz-adv-x="242" unicode="j" d="M54 -245l-72 80q44 21 62.5 56t18.5 107v460l118 17v-479q0 -101 -29 -156.5t-98 -84.5zM195 616q0 -33 -19 -52t-54 -19q-34 0 -53 19t-19 52q0 32 19 51.5t53 19.5q35 0 54 -19.5t19 -51.5z"/>
<glyph glyph-name="k" horiz-adv-x="494" unicode="k" d="M183 222h-2v-222h-118v668l118 16v-428h2l165 205h141l-191 -219l192 -242h-141z"/>
<glyph glyph-name="l" horiz-adv-x="244" unicode="l" d="M181 0h-118v668l118 16v-684z"/>
<glyph glyph-name="m" horiz-adv-x="819" unicode="m" d="M760 0h-118v280q0 49 -19 70.5t-57 21.5q-49 0 -96 -41v-28v-303h-118v280q0 50 -18.5 71t-56.5 21q-56 0 -96 -38v-334h-118v459l118 16v-65q66 66 147 66q91 0 126 -79q73 79 164 79q66 0 104 -42.5t38 -117.5v-316z"/>
<glyph glyph-name="n" horiz-adv-x="541" unicode="n" d="M481 0h-118v281q0 50 -19.5 70.5t-60.5 20.5q-57 0 -102 -43v-329h-118v459l118 16v-73q67 74 152 74q70 0 109 -42.5t39 -116.5v-317z"/>
<glyph glyph-name="o" d="M391 230q0 68 -32 110t-88 42q-57 0 -88 -41.5t-31 -109.5q0 -67 32 -108.5t89 -41.5q56 0 87 40.5t31 108.5zM508 231q0 -111 -68 -178.5t-171 -67.5t-168 66t-65 179q0 112 67.5 179.5t171.5 67.5q103 0 168 -66.5t65 -179.5z" unicode="o"/>
<glyph glyph-name="p" horiz-adv-x="548" unicode="p" d="M181 339v-233q34 -26 87 -26q58 0 91 42t33 108q0 68 -31 107.5t-85 39.5q-52 0 -95 -38zM181 417q61 59 129 59q91 0 146.5 -67t55.5 -174q0 -109 -67 -179t-166 -70q-56 0 -98 13v-219h-118v679l118 16v-58z"/>
<glyph glyph-name="q" horiz-adv-x="548" unicode="q" d="M367 355q-38 28 -87 28q-58 0 -91 -42.5t-33 -108.5q0 -68 31.5 -108.5t84.5 -40.5q52 0 95 40v232zM485 -220h-118v265q-62 -60 -130 -60q-91 0 -146 67t-55 175q0 109 67 179t166 70q60 0 114 -20l102 19v-695z"/>
<glyph glyph-name="r" horiz-adv-x="391" unicode="r" d="M181 285v-285h-118v458l118 17v-75q45 76 120 76q47 0 82 -21l-26 -106q-33 18 -66 18q-65 0 -110 -82z"/>
<glyph glyph-name="s" horiz-adv-x="431" unicode="s" d="M398 134q0 -66 -52.5 -108t-139.5 -42q-103 0 -179 43l26 92q76 -43 156 -43q35 0 55.5 13.5t20.5 37.5q0 25 -23 38t-70 24q-74 17 -115 49.5t-41 93.5q0 65 50.5 104.5t133.5 39.5q96 0 168 -37l-26 -92q-74 38 -145 38q-69 0 -69 -46q0 -24 22.5 -36t70.5 -24 q75 -18 116 -50.5t41 -94.5z"/>
<glyph glyph-name="t" horiz-adv-x="358" unicode="t" d="M333 3q-53 -18 -107 -18q-76 0 -114.5 34.5t-38.5 110.5v11l7 217l-72 8l3 75l72 23l2 102h114l-2 -108h130l-3 -97h-134l-6 -213q-1 -63 61 -63q30 0 72 14z"/>
<glyph glyph-name="u" horiz-adv-x="537" unicode="u" d="M59 461h118v-281q0 -49 19.5 -69.5t58.5 -20.5q59 0 101 40v331h118v-458l-118 -16v68q-65 -70 -152 -70q-68 0 -106.5 42.5t-38.5 116.5v317z"/>
<glyph glyph-name="v" horiz-adv-x="478" unicode="v" d="M479 461l-178 -462h-126l-176 462h126l116 -337l111 337h127z"/>
<glyph glyph-name="w" horiz-adv-x="728" unicode="w" d="M264 -2h-115l-137 463h123l80 -324l92 323h118l99 -321l69 322h125l-135 -463h-116l-103 324z"/>
<glyph glyph-name="x" horiz-adv-x="455" unicode="x" d="M457 0h-128l-101 164l-100 -164h-130l159 236l-153 225h128l95 -149l92 149h129l-149 -223z"/>
<glyph glyph-name="y" horiz-adv-x="474" unicode="y" d="M476 461l-176 -452l-27 -72q-34 -92 -75.5 -128t-107.5 -36q-58 0 -117 27l35 97q46 -22 73 -22q26 0 42.5 16t34.5 62l20 53l-180 455h127l115 -330l110 330h126z"/>
<glyph glyph-name="z" horiz-adv-x="434" unicode="z" d="M412 0h-392v81l241 280h-232v100h383v-79l-242 -281h242v-101z"/>
<glyph glyph-name="braceleft" horiz-adv-x="369" unicode="{" d="M353 -221q-129 5 -192 34t-63 101q0 43 19.5 106t19.5 89q0 38 -28.5 55.5t-93.5 22.5l-3 52l3 52q66 5 94 22t28 56q0 26 -19.5 89.5t-19.5 106.5q0 72 63.5 101t191.5 34v-75q-79 -6 -112 -22t-33 -48q0 -23 18.5 -82t18.5 -102q0 -54 -37.5 -88.5t-102.5 -38.5v-10 q65 -4 102.5 -38.5t37.5 -88.5q0 -43 -18.5 -100.5t-18.5 -80.5q0 -33 33 -50t112 -22v-75z"/>
<glyph glyph-name="bar" horiz-adv-x="247" unicode="|" d="M73 -199v901h101v-901h-101z"/>
<glyph glyph-name="braceright" horiz-adv-x="369" unicode="}" d="M357 239l-3 -52q-66 -5 -94.5 -22.5t-28.5 -55.5q0 -26 20.5 -89t20.5 -106q0 -72 -63 -101t-193 -34v75q79 5 112 22t33 50q0 23 -18 80.5t-18 100.5q0 54 37 88.5t103 38.5v10q-66 4 -103 38.5t-37 88.5q0 43 18 102t18 82q0 32 -33 48t-112 22v75q129 -5 192.5 -34 t63.5 -101q0 -43 -20.5 -107t-20.5 -89q0 -39 28.5 -56t94.5 -22z"/>
<glyph glyph-name="asciitilde" horiz-adv-x="396" unicode="~" d="M381 321q-8 -75 -32.5 -107t-70.5 -32q-35 0 -87 31.5t-66 31.5q-26 0 -34 -57h-74q8 76 33 108t71 32q35 0 87 -32t65 -32q27 0 34 57h74z"/>
<glyph glyph-name="nbspace" horiz-adv-x="156" unicode=" "/>
<glyph glyph-name="exclamdown" horiz-adv-x="290" unicode="¡" d="M183 419l30 -447h-137l29 447h78zM67 564q0 32 22 53.5t55 21.5t55.5 -21.5t22.5 -53.5t-22.5 -52.5t-55.5 -20.5t-55 20.5t-22 52.5z"/>
<glyph glyph-name="cent" horiz-adv-x="463" unicode="¢" d="M278 380q-60 -3 -92 -42.5t-32 -105.5q0 -110 80 -141zM350 469q50 -9 88 -32l-25 -95q-37 23 -78 32l-11 -73l-22 -146l-11 -73q71 2 125 37l19 -96q-63 -38 -159 -38l-17 -115h-59l18 120q-85 17 -133.5 79.5t-48.5 159.5q0 112 66.5 179.5t175.5 67.5h15l14 94h58z "/>
<glyph glyph-name="sterling" horiz-adv-x="539" unicode="£" d="M118 336q-4 62 -4 89q0 103 59 159t156 56q93 0 164 -46q-25 -94 -25 -96q-63 44 -133 44q-53 0 -79.5 -32t-26.5 -85q0 -21 4 -89h183l-4 -62h-174q2 -50 2 -74q0 -38 -7 -66q60 -49 124 -49q74 0 91 101l86 -16q-6 -90 -53 -137.5t-114 -47.5q-84 0 -168 78 q-46 -57 -152 -80q-24 89 -26 92q61 16 85 40t24 72q0 35 -5 87h-92l-4 62h89zM21 75z"/>
<glyph glyph-name="currency" horiz-adv-x="465" unicode="¤" d="M318 359q0 37 -23 62.5t-62 25.5t-62.5 -25.5t-23.5 -62.5t23.5 -62.5t62.5 -25.5q38 0 61.5 25.5t23.5 62.5zM436 501l-61 -61q20 -38 20 -81q0 -44 -20 -82l66 -66l-60 -60l-65 65q-36 -21 -83 -21q-53 0 -84 19l-59 -59l-59 59l59 59q-20 33 -20 86q0 51 20 84l-62 61 l60 60l62 -62q36 21 83 21t86 -21l58 58z"/>
<glyph glyph-name="yen" horiz-adv-x="578" unicode="¥" d="M231 253h-174l-4 62h155l-197 310h132l146 -255l146 255h129l-195 -310h154l-3 -62h-175v-72h175l3 -62h-176v-119h-118v119h-176l4 62h174v72z"/>
<glyph glyph-name="brokenbar" horiz-adv-x="247" unicode="¦" d="M73 -139v335h101v-335h-101zM73 307v335h101v-335h-101z"/>
<glyph glyph-name="section" horiz-adv-x="499" unicode="§" d="M383 272q0 21 -21.5 37t-48.5 24.5t-71 22.5t-70 25q-50 -34 -50 -70q0 -26 31 -43t93.5 -35t91.5 -31q45 28 45 70zM482 297q0 -42 -24.5 -73t-68.5 -48q51 -36 51 -91q0 -66 -52.5 -108.5t-139.5 -42.5q-105 0 -179 42l26 93q73 -43 155 -43q35 0 56 13.5t21 37.5 q0 13 -9 23.5t-30 19t-36.5 13t-48.5 13.5t-52 14.5t-47 17.5t-43 25t-26.5 34.5t-11.5 47.5q0 42 28 73.5t73 47.5q-51 35 -51 92q0 65 50.5 105t133.5 40q96 0 168 -37l-26 -92q-72 37 -145 37q-69 0 -69 -45q0 -6 2 -11t6.5 -9.5t9 -8.5t13 -7.5t15 -6.5t18 -6.5 t18.5 -5.5l21 -6l21 -6q37 -11 62 -20.5t53.5 -26t43 -40.5t14.5 -55z"/>
<glyph glyph-name="dieresis" horiz-adv-x="396" unicode="¨" d="M160 598q0 -32 -19.5 -51.5t-50.5 -19.5t-50.5 20t-19.5 51t19.5 50t50.5 19t50.5 -19t19.5 -50zM379 598q0 -32 -19.5 -51.5t-50.5 -19.5t-50.5 19.5t-19.5 51.5q0 31 19.5 50t50.5 19t50.5 -19t19.5 -50z"/>
<glyph glyph-name="copyright" horiz-adv-x="763" unicode="©" d="M523 476l-29 -77q-41 26 -92 26q-48 0 -76 -30t-28 -82q0 -53 28 -84t77 -31q51 0 96 30l20 -82q-47 -26 -120 -26q-88 0 -140.5 50t-52.5 140q0 89 53 141t143 52q69 0 121 -27zM698 311q0 132 -93 226t-224 94q-130 0 -223 -94.5t-93 -225.5t93 -225t223 -94 q131 0 224 94t93 225zM381 -37q-144 0 -246 102t-102 246q0 145 102 247.5t246 102.5q145 0 247 -102.5t102 -247.5q0 -144 -102 -246t-247 -102z"/>
<glyph glyph-name="ordfeminine" horiz-adv-x="374" unicode="ª" d="M231 345v86q-122 -7 -122 -65q0 -23 14.5 -35.5t37.5 -12.5q43 0 70 27zM366 267l-97 -21q-23 27 -33 57h-2q-48 -56 -108 -56q-47 0 -76.5 29t-29.5 74q0 58 50.5 94t160.5 40v18q0 59 -63 59q-59 0 -116 -44l-30 72q71 52 158 52q145 0 145 -136v-134q0 -52 41 -104z "/>
<glyph glyph-name="guillemotleft" horiz-adv-x="593" unicode="«" d="M285 105l-17 -76l-250 153v104l250 153l17 -76l-161 -128v-2zM569 97l-16 -79l-259 161v109l259 161l16 -79l-167 -135v-2z"/>
<glyph glyph-name="logicalnot" horiz-adv-x="505" unicode="¬" d="M466 341v-230h-93v136h-333l3 94h423z"/>
<glyph glyph-name="uni00AD" horiz-adv-x="341" unicode="­" d="M312 192h-282v101h282v-101z"/>
<glyph glyph-name="registered" horiz-adv-x="763" unicode="®" d="M328 316l50 1q71 1 71 58q0 54 -72 54h-49v-113zM329 254v-121h-91v365h154q71 0 110 -31t39 -86q0 -78 -70 -105l87 -143h-100l-71 124zM698 311q0 132 -93 226t-224 94q-130 0 -223 -94.5t-93 -225.5t93 -225t223 -94q131 0 224 94t93 225zM381 -37q-144 0 -246 102 t-102 246q0 145 102 247.5t246 102.5q145 0 247 -102.5t102 -247.5q0 -144 -102 -246t-247 -102z"/>
<glyph glyph-name="macron" horiz-adv-x="396" unicode="¯" d="M359 544h-319l8 69h303z"/>
<glyph glyph-name="degree" horiz-adv-x="378" unicode="°" d="M300 475q0 49 -30.5 81.5t-81.5 32.5q-50 0 -80 -32.5t-30 -81.5q0 -47 30 -79.5t80 -32.5q51 0 81.5 32.5t30.5 79.5zM353 475q0 -69 -45 -116.5t-120 -47.5q-73 0 -118.5 48t-45.5 116q0 69 45.5 117t118.5 48q75 0 120 -47.5t45 -117.5z"/>
<glyph glyph-name="plusminus" horiz-adv-x="505" unicode="±" d="M469 0h-432l3 94h426zM469 253h-167v-134h-96v134h-169l3 94h166v134h96v-134h164z"/>
<glyph glyph-name="twosuperior" horiz-adv-x="330" unicode="²" d="M296 273h-273l-2 64q120 102 138 121q38 40 38 73q0 23 -15.5 37t-42.5 14q-47 0 -88 -38q-1 0 -9 16t-15.5 32t-6.5 16q56 47 135 47q63 0 99 -33t36 -84q0 -20 -25.5 -44t-56.5 -43t-56.5 -48t-25.5 -58h43h125z"/>
<glyph glyph-name="threesuperior" horiz-adv-x="330" unicode="³" d="M185 469h5q53 0 82.5 -25.5t29.5 -63.5q0 -54 -44.5 -85t-115.5 -31q-65 0 -120 25l14 67q56 -23 102 -23q34 0 55.5 12t21.5 36q0 21 -19.5 34.5t-58.5 13.5q-21 -1 -61 -6v61q63 11 92 25t29 38q0 38 -54 38q-50 0 -92 -32l-28 65q55 37 129 37q62 0 98 -24.5t36 -69.5 q0 -68 -101 -92z"/>
<glyph glyph-name="acute" horiz-adv-x="395" unicode="´" d="M349 706l-157 -183h-78l102 183h133z"/>
<glyph glyph-name="mu" horiz-adv-x="541" unicode="µ" d="M181 461v-277q0 -51 25 -72.5t60 -21.5t64.5 22.5t29.5 76.5v272h118v-461h-118v48q-12 -27 -38 -43.5t-55 -16.5q-58 0 -86 48v-269h-118v694h118z"/>
<glyph glyph-name="mu" horiz-adv-x="541" unicode="μ" d="M181 461v-277q0 -51 25 -72.5t60 -21.5t64.5 22.5t29.5 76.5v272h118v-461h-118v48q-12 -27 -38 -43.5t-55 -16.5q-58 0 -86 48v-269h-118v694h118z"/>
<glyph glyph-name="paragraph" d="M360 230q-26 -4 -68 -4q-124 0 -187.5 53t-63.5 145q0 96 69 148.5t191 52.5h160v-692h-101v297z" unicode="¶"/>
<glyph glyph-name="periodcentered" horiz-adv-x="247" unicode="·" d="M204 242q0 -33 -22 -55.5t-56 -22.5q-35 0 -57.5 22.5t-22.5 55.5t22.5 55t57.5 22q34 0 56 -22t22 -55z"/>
<glyph glyph-name="cedilla" horiz-adv-x="396" unicode="¸" d="M194 -59q57 -2 91 -26t34 -65q0 -100 -181 -122l-7 61q111 7 111 54q0 41 -73 41q-19 0 -45 -3l-9 47l117 111h67q-93 -89 -105 -98z"/>
<glyph glyph-name="onesuperior" horiz-adv-x="330" unicode="¹" d="M143 273v288l-94 -19l-3 74l193 37v-380h-96z"/>
<glyph glyph-name="ordmasculine" horiz-adv-x="437" unicode="º" d="M313 442q0 55 -25.5 89.5t-69.5 34.5q-45 0 -69.5 -33.5t-24.5 -88.5t25 -89t70 -34t69.5 33t24.5 88zM407 443q0 -89 -53.5 -142.5t-136.5 -53.5t-135.5 53.5t-52.5 142.5t54 143t138 54q83 0 134.5 -53.5t51.5 -143.5z"/>
<glyph glyph-name="guillemotright" horiz-adv-x="598" unicode="»" d="M305 179l-260 -161l-16 79l167 136v2l-167 135l16 79l260 -161v-109zM580 182l-249 -153l-18 76l161 128v2l-161 128l18 76l249 -153v-104z"/>
<glyph glyph-name="onequarter" horiz-adv-x="715" unicode="¼" d="M143 273v288l-94 -19l-3 74l193 37v-380h-96zM695 625l-545 -741h-89l545 741h89zM575 10v157l-101 -157h101zM707 -54h-52v-89h-82v89h-172l-5 59l150 229h109v-223h50z"/>
<glyph glyph-name="onehalf" horiz-adv-x="715" unicode="½" d="M681 -143h-273l-2 64q120 102 138 121q38 40 38 73q0 23 -15.5 37t-42.5 14q-47 0 -88 -38q-1 0 -9 16t-15.5 32t-6.5 16q56 47 135 47q63 0 99 -33t36 -84q0 -20 -25.5 -44t-56.5 -43t-56.5 -48t-25.5 -58h43h125zM143 273v288l-94 -19l-3 74l193 37v-380h-96zM680 625 l-545 -741h-89l545 741h89z"/>
<glyph glyph-name="threequarters" horiz-adv-x="715" unicode="¾" d="M185 469h5q53 0 82.5 -25.5t29.5 -63.5q0 -54 -44.5 -85t-115.5 -31q-65 0 -120 25l14 67q56 -23 102 -23q34 0 55.5 12t21.5 36q0 21 -19.5 34.5t-58.5 13.5q-21 -1 -61 -6v61q63 11 92 25t29 38q0 38 -54 38q-50 0 -92 -32l-28 65q55 37 129 37q62 0 98 -24.5t36 -69.5 q0 -68 -101 -92zM695 625l-545 -741h-89l545 741h89zM575 10v157l-101 -157h101zM707 -54h-52v-89h-82v89h-172l-5 59l150 229h109v-223h50z"/>
<glyph glyph-name="questiondown" horiz-adv-x="387" unicode="¿" d="M35 161q0 57 30 87t82 48q27 10 38 14.5t22.5 14.5t12.5 22q0 20 -54 71q63 13 68 13q35 -16 58 -47t23 -65q0 -42 -26 -65.5t-74 -38.5q-42 -13 -60 -24.5t-18 -34.5q0 -30 31 -49t85 -19q44 0 86 14l-3 -103q-38 -14 -93 -14q-90 0 -149 51t-59 125zM142 564 q0 34 22 54.5t57 20.5t57.5 -20.5t22.5 -54.5q0 -33 -22.5 -53t-57.5 -20t-57 20t-22 53z"/>
<glyph glyph-name="Agrave" horiz-adv-x="609" unicode="À" d="M346 677h-79l-157 183h133zM399 249l-94 271l-95 -271h189zM380 625l225 -625h-123l-52 148h-252l-51 -148h-123l228 625h148z"/>
<glyph glyph-name="Aacute" horiz-adv-x="609" unicode="Á" d="M496 860l-157 -183h-78l102 183h133zM399 249l-94 271l-95 -271h189zM380 625l225 -625h-123l-52 148h-252l-51 -148h-123l228 625h148z"/>
<glyph glyph-name="Acircumflex" horiz-adv-x="609" unicode="Â" d="M480 677h-83l-90 118h-2l-89 -118h-84l117 187h114zM399 249l-94 271l-95 -271h189zM380 625l225 -625h-123l-52 148h-252l-51 -148h-123l228 625h148z"/>
<glyph glyph-name="Atilde" horiz-adv-x="609" unicode="Ã" d="M487 820q-8 -75 -32.5 -107t-70.5 -32q-35 0 -87 31.5t-66 31.5q-26 0 -34 -57h-74q8 76 33 108t71 32q35 0 87 -32t65 -32q27 0 34 57h74zM399 249l-94 271l-95 -271h189zM380 625l225 -625h-123l-52 148h-252l-51 -148h-123l228 625h148z"/>
<glyph glyph-name="Adieresis" horiz-adv-x="609" unicode="Ä" d="M263 752q0 -32 -19.5 -51.5t-50.5 -19.5t-50.5 20t-19.5 51t19.5 50t50.5 19t50.5 -19t19.5 -50zM482 752q0 -32 -19.5 -51.5t-50.5 -19.5t-50.5 19.5t-19.5 51.5q0 31 19.5 50t50.5 19t50.5 -19t19.5 -50zM399 249l-94 271l-95 -271h189zM380 625l225 -625h-123l-52 148 h-252l-51 -148h-123l228 625h148z"/>
<glyph glyph-name="Aring" horiz-adv-x="609" unicode="Å" d="M399 249l-94 271l-95 -271h189zM383 687q0 29 -21.5 48.5t-56.5 19.5q-34 0 -55 -19.5t-21 -48.5t21 -48.5t55 -19.5q35 0 56.5 19.5t21.5 48.5zM222 599q-49 31 -49 87q0 49 36.5 81.5t95.5 32.5q61 0 96.5 -33.5t35.5 -83.5q0 -54 -48 -84l216 -599h-123l-52 148h-252 l-51 -148h-123z"/>
<glyph glyph-name="AE" horiz-adv-x="865" unicode="Æ" d="M251 251h147v284zM201 148l-77 -148h-132l331 625h502v-103h-307v-157h255v-103h-255v-159h307v-103h-427v148h-197z"/>
<glyph glyph-name="Ccedilla" horiz-adv-x="607" unicode="Ç" d="M318 -12q-127 14 -201.5 99t-74.5 224q0 149 89.5 239t236.5 90q114 0 202 -49l-38 -106q-76 50 -164 50q-92 0 -147.5 -59.5t-55.5 -160.5q0 -104 55.5 -164.5t149.5 -60.5q90 0 171 56l23 -112q-72 -44 -182 -49q-9 -8 -20.5 -19t-18.5 -17t-9 -8q57 -2 91 -26t34 -65 q0 -100 -181 -122l-7 61q111 7 111 54q0 41 -73 41q-19 0 -45 -3l-9 47z"/>
<glyph glyph-name="Egrave" d="M337 677h-79l-157 183h133zM498 0h-426v625h426v-103h-306v-157h251v-103h-251v-159h306v-103z" unicode="È"/>
<glyph glyph-name="Eacute" d="M468 860l-157 -183h-78l102 183h133zM498 0h-426v625h426v-103h-306v-157h251v-103h-251v-159h306v-103z" unicode="É"/>
<glyph glyph-name="Ecircumflex" d="M459 677h-83l-90 118h-2l-89 -118h-84l117 187h114zM498 0h-426v625h426v-103h-306v-157h251v-103h-251v-159h306v-103z" unicode="Ê"/>
<glyph glyph-name="Edieresis" d="M245 752q0 -32 -19.5 -51.5t-50.5 -19.5t-50.5 20t-19.5 51t19.5 50t50.5 19t50.5 -19t19.5 -50zM464 752q0 -32 -19.5 -51.5t-50.5 -19.5t-50.5 19.5t-19.5 51.5q0 31 19.5 50t50.5 19t50.5 -19t19.5 -50zM498 0h-426v625h426v-103h-306v-157h251v-103h-251v-159h306 v-103z" unicode="Ë"/>
<glyph glyph-name="Igrave" horiz-adv-x="269" unicode="Ì" d="M182 677h-79l-157 183h133zM195 0h-121v625h121v-625z"/>
<glyph glyph-name="Iacute" horiz-adv-x="269" unicode="Í" d="M324 860l-157 -183h-78l102 183h133zM195 0h-121v625h121v-625z"/>
<glyph glyph-name="Icircumflex" horiz-adv-x="269" unicode="Î" d="M310 677h-83l-90 118h-2l-89 -118h-84l117 187h114zM195 0h-121v625h121v-625z"/>
<glyph glyph-name="Idieresis" horiz-adv-x="269" unicode="Ï" d="M96 752q0 -32 -19.5 -51.5t-50.5 -19.5t-50.5 20t-19.5 51t19.5 50t50.5 19t50.5 -19t19.5 -50zM315 752q0 -32 -19.5 -51.5t-50.5 -19.5t-50.5 19.5t-19.5 51.5q0 31 19.5 50t50.5 19t50.5 -19t19.5 -50zM195 0h-121v625h121v-625z"/>
<glyph glyph-name="Eth" horiz-adv-x="687" unicode="Ð" d="M221 365h142v-98h-142v-164h82q102 0 162.5 53.5t60.5 154.5q0 104 -60 157.5t-169 53.5h-76v-157zM99 267h-83v98h83v260h211q159 0 248.5 -83.5t89.5 -224.5q0 -147 -90.5 -232t-254.5 -85h-204v267z"/>
<glyph glyph-name="Ntilde" horiz-adv-x="689" unicode="Ñ" d="M527 820q-8 -75 -32.5 -107t-70.5 -32q-35 0 -87 31.5t-66 31.5q-26 0 -34 -57h-74q8 76 33 108t71 32q35 0 87 -32t65 -32q27 0 34 57h74zM501 170v455h116v-631h-130l-299 460v-454h-116v625h133z"/>
<glyph glyph-name="Ograve" horiz-adv-x="726" unicode="Ò" d="M411 680h-79l-157 183h133zM562 311q0 103 -55 165t-146 62q-89 0 -142.5 -61.5t-53.5 -161.5q0 -103 54.5 -165.5t145.5 -62.5q89 0 143 62t54 162zM684 315q0 -144 -91 -237t-230 -93q-142 0 -231.5 87.5t-89.5 238.5q0 144 91.5 236.5t230.5 92.5q141 0 230.5 -87 t89.5 -238z"/>
<glyph glyph-name="Oacute" horiz-adv-x="726" unicode="Ó" d="M554 863l-157 -183h-78l102 183h133zM562 311q0 103 -55 165t-146 62q-89 0 -142.5 -61.5t-53.5 -161.5q0 -103 54.5 -165.5t145.5 -62.5q89 0 143 62t54 162zM684 315q0 -144 -91 -237t-230 -93q-142 0 -231.5 87.5t-89.5 238.5q0 144 91.5 236.5t230.5 92.5 q141 0 230.5 -87t89.5 -238z"/>
<glyph glyph-name="Ocircumflex" horiz-adv-x="726" unicode="Ô" d="M539 677h-83l-90 118h-2l-89 -118h-84l117 187h114zM562 311q0 103 -55 165t-146 62q-89 0 -142.5 -61.5t-53.5 -161.5q0 -103 54.5 -165.5t145.5 -62.5q89 0 143 62t54 162zM684 315q0 -144 -91 -237t-230 -93q-142 0 -231.5 87.5t-89.5 238.5q0 144 91.5 236.5 t230.5 92.5q141 0 230.5 -87t89.5 -238z"/>
<glyph glyph-name="Otilde" horiz-adv-x="726" unicode="Õ" d="M546 820q-8 -75 -32.5 -107t-70.5 -32q-35 0 -87 31.5t-66 31.5q-26 0 -34 -57h-74q8 76 33 108t71 32q34 0 86 -32t66 -32q27 0 34 57h74zM562 311q0 103 -55 165t-146 62q-89 0 -142.5 -61.5t-53.5 -161.5q0 -103 54.5 -165.5t145.5 -62.5q89 0 143 62t54 162zM684 315 q0 -144 -91 -237t-230 -93q-142 0 -231.5 87.5t-89.5 238.5q0 144 91.5 236.5t230.5 92.5q141 0 230.5 -87t89.5 -238z"/>
<glyph glyph-name="Odieresis" horiz-adv-x="726" unicode="Ö" d="M325 752q0 -32 -19.5 -51.5t-50.5 -19.5t-50.5 20t-19.5 51t19.5 50t50.5 19t50.5 -19t19.5 -50zM544 752q0 -32 -19.5 -51.5t-50.5 -19.5t-50.5 19.5t-19.5 51.5q0 31 19.5 50t50.5 19t50.5 -19t19.5 -50zM562 311q0 103 -55 165t-146 62q-89 0 -142.5 -61.5 t-53.5 -161.5q0 -103 54.5 -165.5t145.5 -62.5q89 0 143 62t54 162zM684 315q0 -144 -91 -237t-230 -93q-142 0 -231.5 87.5t-89.5 238.5q0 144 91.5 236.5t230.5 92.5q141 0 230.5 -87t89.5 -238z"/>
<glyph glyph-name="multiply" horiz-adv-x="505" unicode="×" d="M471 84l-64 -65l-153 154l-152 -154l-65 65l155 152l-155 153l65 64l152 -155l153 155l64 -64l-154 -153z"/>
<glyph glyph-name="Oslash" horiz-adv-x="726" unicode="Ø" d="M497 488l-220 -381q39 -20 90 -20q89 0 142.5 62t53.5 162q0 114 -66 177zM451 520q-39 18 -88 18q-89 0 -142.5 -61.5t-53.5 -161.5q0 -113 65 -175zM686 315q0 -144 -91 -237t-230 -93q-77 0 -142 28l-45 -80h-68l62 108q-61 41 -94.5 110.5t-33.5 159.5 q0 144 91.5 236.5t230.5 92.5q71 0 138 -27l46 79h68l-61 -106q129 -88 129 -271z"/>
<glyph glyph-name="Ugrave" horiz-adv-x="659" unicode="Ù" d="M386 677h-79l-157 183h133zM590 248q0 -127 -68 -195t-193 -68q-122 0 -191 65.5t-69 186.5v388h122v-372q0 -161 142 -161q136 0 136 156v377h121v-377z"/>
<glyph glyph-name="Uacute" horiz-adv-x="659" unicode="Ú" d="M511 860l-157 -183h-78l102 183h133zM590 248q0 -127 -68 -195t-193 -68q-122 0 -191 65.5t-69 186.5v388h122v-372q0 -161 142 -161q136 0 136 156v377h121v-377z"/>
<glyph glyph-name="Ucircumflex" horiz-adv-x="659" unicode="Û" d="M505 677h-83l-90 118h-2l-89 -118h-84l117 187h114zM590 248q0 -127 -68 -195t-193 -68q-122 0 -191 65.5t-69 186.5v388h122v-372q0 -161 142 -161q136 0 136 156v377h121v-377z"/>
<glyph glyph-name="Udieresis" horiz-adv-x="659" unicode="Ü" d="M291 752q0 -32 -19.5 -51.5t-50.5 -19.5t-50.5 20t-19.5 51t19.5 50t50.5 19t50.5 -19t19.5 -50zM510 752q0 -32 -19.5 -51.5t-50.5 -19.5t-50.5 19.5t-19.5 51.5q0 31 19.5 50t50.5 19t50.5 -19t19.5 -50zM590 248q0 -127 -68 -195t-193 -68q-122 0 -191 65.5t-69 186.5 v388h122v-372q0 -161 142 -161q136 0 136 156v377h121v-377z"/>
<glyph glyph-name="Yacute" horiz-adv-x="576" unicode="Ý" d="M477 860l-157 -183h-78l102 183h133zM566 625l-217 -383v-242h-121v243l-218 382h132l148 -270l145 270h131z"/>
<glyph glyph-name="Thorn" horiz-adv-x="562" unicode="Þ" d="M410 317q0 111 -144 111h-74v-227l77 1q69 1 105 31t36 84zM532 321q0 -107 -70 -163.5t-197 -57.5l-71 -1v-99h-122v625h122v-95h80q126 0 192 -57t66 -152z"/>
<glyph glyph-name="germandbls" horiz-adv-x="613" unicode="ß" d="M84 0v360l-80 6l5 75l74 22l1 45q2 98 60.5 143t150.5 45q90 0 144 -45t54 -119q0 -29 -13.5 -54.5t-30 -39.5t-30 -30t-13.5 -29q0 -21 19 -39t46 -33t54 -33.5t46 -51t19 -75.5q0 -75 -48 -119t-133 -44q-79 0 -152 39l21 97q64 -41 116 -41q74 0 74 60q0 27 -17.5 47 t-43 34t-50.5 29t-42.5 41t-17.5 62q0 27 12 51t26 38.5t26 36t12 44.5q0 35 -23 58.5t-58 23.5q-43 0 -67 -24.5t-24 -70.5v-509h-117z"/>
<glyph glyph-name="agrave" horiz-adv-x="481" unicode="à" d="M275 523h-79l-157 183h133zM305 111v106q-86 -11 -121.5 -30t-35.5 -56q0 -27 19 -43.5t50 -16.5q51 0 88 40zM309 53h-4q-56 -68 -130 -68q-62 0 -102.5 37.5t-40.5 92.5q0 155 273 164v11q0 47 -21.5 67.5t-70.5 20.5q-67 0 -153 -49l-24 93q87 54 193 54 q102 0 148 -44t46 -136v-10v-165q0 -26 7 -33t34 -9l-9 -89q-24 -2 -34 -2q-88 0 -112 65z"/>
<glyph glyph-name="aacute" horiz-adv-x="481" unicode="á" d="M407 706l-157 -183h-78l102 183h133zM305 111v106q-86 -11 -121.5 -30t-35.5 -56q0 -27 19 -43.5t50 -16.5q51 0 88 40zM309 53h-4q-56 -68 -130 -68q-62 0 -102.5 37.5t-40.5 92.5q0 155 273 164v11q0 47 -21.5 67.5t-70.5 20.5q-67 0 -153 -49l-24 93q87 54 193 54 q102 0 148 -44t46 -136v-10v-165q0 -26 7 -33t34 -9l-9 -89q-24 -2 -34 -2q-88 0 -112 65z"/>
<glyph glyph-name="acircumflex" horiz-adv-x="481" unicode="â" d="M402 523h-83l-90 118h-2l-89 -118h-84l117 187h114zM305 111v106q-86 -11 -121.5 -30t-35.5 -56q0 -27 19 -43.5t50 -16.5q51 0 88 40zM309 53h-4q-56 -68 -130 -68q-62 0 -102.5 37.5t-40.5 92.5q0 155 273 164v11q0 47 -21.5 67.5t-70.5 20.5q-67 0 -153 -49l-24 93 q87 54 193 54q102 0 148 -44t46 -136v-10v-165q0 -26 7 -33t34 -9l-9 -89q-24 -2 -34 -2q-88 0 -112 65z"/>
<glyph glyph-name="atilde" horiz-adv-x="481" unicode="ã" d="M412 666q-8 -75 -32.5 -107t-70.5 -32q-35 0 -87 31.5t-66 31.5q-26 0 -34 -57h-74q8 76 33 108t71 32q35 0 86.5 -32t65.5 -32q27 0 34 57h74zM305 111v106q-86 -11 -121.5 -30t-35.5 -56q0 -27 19 -43.5t50 -16.5q51 0 88 40zM309 53h-4q-56 -68 -130 -68 q-62 0 -102.5 37.5t-40.5 92.5q0 155 273 164v11q0 47 -21.5 67.5t-70.5 20.5q-67 0 -153 -49l-24 93q87 54 193 54q102 0 148 -44t46 -136v-10v-165q0 -26 7 -33t34 -9l-9 -89q-24 -2 -34 -2q-88 0 -112 65z"/>
<glyph glyph-name="adieresis" horiz-adv-x="481" unicode="ä" d="M191 595q0 -32 -19.5 -51.5t-50.5 -19.5t-50.5 20t-19.5 51t19.5 50t50.5 19t50.5 -19t19.5 -50zM410 595q0 -32 -19.5 -51.5t-50.5 -19.5t-50.5 19.5t-19.5 51.5q0 31 19.5 50t50.5 19t50.5 -19t19.5 -50zM305 111v106q-86 -11 -121.5 -30t-35.5 -56q0 -27 19 -43.5 t50 -16.5q51 0 88 40zM309 53h-4q-56 -68 -130 -68q-62 0 -102.5 37.5t-40.5 92.5q0 155 273 164v11q0 47 -21.5 67.5t-70.5 20.5q-67 0 -153 -49l-24 93q87 54 193 54q102 0 148 -44t46 -136v-10v-165q0 -26 7 -33t34 -9l-9 -89q-24 -2 -34 -2q-88 0 -112 65z"/>
<glyph glyph-name="aring" horiz-adv-x="481" unicode="å" d="M305 111v106q-86 -11 -121.5 -30t-35.5 -56q0 -27 19 -43.5t50 -16.5q51 0 88 40zM302 636q0 29 -21 48.5t-56 19.5q-34 0 -55 -19.5t-21 -48.5t21 -48.5t55 -19.5q35 0 56 19.5t21 48.5zM309 53h-4q-56 -68 -130 -68q-62 0 -102.5 37.5t-40.5 92.5q0 155 273 164v11 q0 47 -21.5 67.5t-70.5 20.5q-67 0 -153 -49l-24 93q87 54 193 54q102 0 148 -44t46 -136v-10v-165q0 -26 7 -33t34 -9l-9 -89q-24 -2 -34 -2q-88 0 -112 65zM358 635q0 -48 -36.5 -80.5t-96.5 -32.5t-96.5 32.5t-36.5 80.5q0 49 36.5 82t96.5 33t96 -33t37 -82z"/>
<glyph glyph-name="ae" horiz-adv-x="770" unicode="æ" d="M313 217q-88 -7 -126.5 -28t-38.5 -58q0 -27 19.5 -43.5t52.5 -16.5q28 0 58 15.5t49 39.5q-11 31 -14 91zM424 277l198 1v8q0 101 -87 101q-46 0 -76 -32t-35 -78zM350 80q-70 -95 -175 -95q-62 0 -102.5 37.5t-40.5 92.5q0 156 281 164v9q0 49 -24.5 69.5t-75.5 20.5 q-67 0 -153 -49l-24 93q87 54 194 54q116 0 160 -63q60 63 157 63q89 0 137.5 -51t48.5 -136q0 -44 -10 -77l-301 -4v-3q3 -57 39.5 -91.5t97.5 -34.5q78 0 144 42l15 -98q-70 -38 -167 -38q-134 0 -201 95z"/>
<glyph glyph-name="ccedilla" horiz-adv-x="471" unicode="ç" d="M237 -13q-95 11 -148 75t-53 167q0 112 67 179.5t176 67.5q93 0 159 -39l-25 -95q-59 37 -125 37q-63 0 -97 -39.5t-34 -107.5q0 -70 36 -109.5t95 -39.5q72 0 128 36l19 -96q-53 -31 -132 -37q-38 -36 -49 -45q57 -2 91 -26t34 -65q0 -100 -181 -122l-7 61q111 7 111 54 q0 41 -73 41q-19 0 -45 -3l-9 47z"/>
<glyph glyph-name="egrave" horiz-adv-x="499" unicode="è" d="M311 523h-79l-157 183h133zM155 277l198 1v8q0 101 -88 101q-46 0 -75.5 -32t-34.5 -78zM152 208v-3q4 -57 40.5 -91.5t97.5 -34.5q76 0 144 42l15 -98q-70 -38 -167 -38q-111 0 -178.5 65.5t-67.5 175.5q0 112 67 181t171 69q90 0 140 -50.5t50 -136.5q0 -44 -10 -77z "/>
<glyph glyph-name="eacute" horiz-adv-x="499" unicode="é" d="M444 706l-157 -183h-78l102 183h133zM155 277l198 1v8q0 101 -88 101q-46 0 -75.5 -32t-34.5 -78zM152 208v-3q4 -57 40.5 -91.5t97.5 -34.5q76 0 144 42l15 -98q-70 -38 -167 -38q-111 0 -178.5 65.5t-67.5 175.5q0 112 67 181t171 69q90 0 140 -50.5t50 -136.5 q0 -44 -10 -77z"/>
<glyph glyph-name="ecircumflex" horiz-adv-x="499" unicode="ê" d="M422 523h-83l-90 118h-2l-89 -118h-84l117 187h114zM155 277l198 1v8q0 101 -88 101q-46 0 -75.5 -32t-34.5 -78zM152 208v-3q4 -57 40.5 -91.5t97.5 -34.5q76 0 144 42l15 -98q-70 -38 -167 -38q-111 0 -178.5 65.5t-67.5 175.5q0 112 67 181t171 69q90 0 140 -50.5 t50 -136.5q0 -44 -10 -77z"/>
<glyph glyph-name="edieresis" horiz-adv-x="499" unicode="ë" d="M214 595q0 -32 -19.5 -51.5t-50.5 -19.5t-50.5 20t-19.5 51t19.5 50t50.5 19t50.5 -19t19.5 -50zM433 595q0 -32 -19.5 -51.5t-50.5 -19.5t-50.5 19.5t-19.5 51.5q0 31 19.5 50t50.5 19t50.5 -19t19.5 -50zM155 277l198 1v8q0 101 -88 101q-46 0 -75.5 -32t-34.5 -78z M152 208v-3q4 -57 40.5 -91.5t97.5 -34.5q76 0 144 42l15 -98q-70 -38 -167 -38q-111 0 -178.5 65.5t-67.5 175.5q0 112 67 181t171 69q90 0 140 -50.5t50 -136.5q0 -44 -10 -77z"/>
<glyph glyph-name="igrave" horiz-adv-x="244" unicode="ì" d="M175 523h-79l-157 183h133zM184 0h-118v456l118 13v-469z"/>
<glyph glyph-name="iacute" horiz-adv-x="244" unicode="í" d="M310 706l-157 -183h-78l102 183h133zM184 0h-118v456l118 13v-469z"/>
<glyph glyph-name="icircumflex" horiz-adv-x="244" unicode="î" d="M300 523h-83l-90 118h-2l-89 -118h-84l117 187h114zM184 0h-118v456l118 13v-469z"/>
<glyph glyph-name="idieresis" horiz-adv-x="244" unicode="ï" d="M86 595q0 -32 -19.5 -51.5t-50.5 -19.5t-50.5 20t-19.5 51t19.5 50t50.5 19t50.5 -19t19.5 -50zM305 595q0 -32 -19.5 -51.5t-50.5 -19.5t-50.5 19.5t-19.5 51.5q0 31 19.5 50t50.5 19t50.5 -19t19.5 -50zM184 0h-118v456l118 13v-469z"/>
<glyph glyph-name="eth" horiz-adv-x="554" unicode="ð" d="M397 227q0 41 -16 85q-13 18 -43.5 29.5t-67.5 11.5q-47 0 -79 -36t-32 -96q0 -65 33.5 -101.5t86.5 -36.5q52 0 85 38.5t33 105.5zM517 254q0 -117 -64.5 -193t-178.5 -76q-105 0 -171 64t-66 165q0 106 62.5 167.5t138.5 61.5t128 -55l2 1q-29 64 -121 156l-112 -30 l-18 69l72 19q-50 44 -77 65l132 27q38 -30 67 -59l113 30l17 -68l-74 -19q150 -167 150 -325z"/>
<glyph glyph-name="ntilde" horiz-adv-x="541" unicode="ñ" d="M454 666q-8 -75 -32.5 -107t-70.5 -32q-35 0 -87 31.5t-66 31.5q-26 0 -34 -57h-74q8 76 33 108t71 32q34 0 86 -32t66 -32q27 0 34 57h74zM481 0h-118v281q0 50 -19.5 70.5t-60.5 20.5q-57 0 -102 -43v-329h-118v459l118 16v-73q67 74 152 74q70 0 109 -42.5t39 -116.5 v-317z"/>
<glyph glyph-name="ograve" d="M339 523h-79l-157 183h133zM391 230q0 68 -32 110t-88 42q-57 0 -88 -41.5t-31 -109.5q0 -67 32 -108.5t89 -41.5q56 0 87 40.5t31 108.5zM508 231q0 -111 -68 -178.5t-171 -67.5t-168 66t-65 179q0 112 67.5 179.5t171.5 67.5q103 0 168 -66.5t65 -179.5z" unicode="ò"/>
<glyph glyph-name="oacute" d="M447 706l-157 -183h-78l102 183h133zM391 230q0 68 -32 110t-88 42q-57 0 -88 -41.5t-31 -109.5q0 -67 32 -108.5t89 -41.5q56 0 87 40.5t31 108.5zM508 231q0 -111 -68 -178.5t-171 -67.5t-168 66t-65 179q0 112 67.5 179.5t171.5 67.5q103 0 168 -66.5t65 -179.5z" unicode="ó"/>
<glyph glyph-name="ocircumflex" d="M449 523h-83l-90 118h-2l-89 -118h-84l117 187h114zM391 230q0 68 -32 110t-88 42q-57 0 -88 -41.5t-31 -109.5q0 -67 32 -108.5t89 -41.5q56 0 87 40.5t31 108.5zM508 231q0 -111 -68 -178.5t-171 -67.5t-168 66t-65 179q0 112 67.5 179.5t171.5 67.5q103 0 168 -66.5 t65 -179.5z" unicode="ô"/>
<glyph glyph-name="otilde" d="M457 666q-8 -75 -32.5 -107t-70.5 -32q-35 0 -87 31.5t-66 31.5q-26 0 -34 -57h-74q8 76 33 108t71 32q35 0 87 -32t65 -32q27 0 34 57h74zM391 230q0 68 -32 110t-88 42q-57 0 -88 -41.5t-31 -109.5q0 -67 32 -108.5t89 -41.5q56 0 87 40.5t31 108.5zM508 231 q0 -111 -68 -178.5t-171 -67.5t-168 66t-65 179q0 112 67.5 179.5t171.5 67.5q103 0 168 -66.5t65 -179.5z" unicode="õ"/>
<glyph glyph-name="odieresis" d="M235 595q0 -32 -19.5 -51.5t-50.5 -19.5t-50.5 20t-19.5 51t19.5 50t50.5 19t50.5 -19t19.5 -50zM454 595q0 -32 -19.5 -51.5t-50.5 -19.5t-50.5 19.5t-19.5 51.5q0 31 19.5 50t50.5 19t50.5 -19t19.5 -50zM391 230q0 68 -32 110t-88 42q-57 0 -88 -41.5t-31 -109.5 q0 -67 32 -108.5t89 -41.5q56 0 87 40.5t31 108.5zM508 231q0 -111 -68 -178.5t-171 -67.5t-168 66t-65 179q0 112 67.5 179.5t171.5 67.5q103 0 168 -66.5t65 -179.5z" unicode="ö"/>
<glyph glyph-name="divide" horiz-adv-x="505" unicode="÷" d="M328 68q0 -30 -20.5 -51t-52.5 -21q-33 0 -54 21t-21 51q0 31 21 51t54 20q32 0 52.5 -20t20.5 -51zM469 190h-432l3 94h426zM328 405q0 -30 -21 -50.5t-54 -20.5q-32 0 -52.5 20.5t-20.5 50.5q0 31 20.5 52t52.5 21q33 0 54 -21t21 -52z"/>
<glyph glyph-name="oslash" d="M397 230q0 62 -27 107l-144 -252q27 -10 52 -10q57 0 88 42t31 113zM328 376q-25 13 -54 13q-57 0 -88.5 -42.5t-31.5 -113.5q0 -65 28 -109zM511 231q0 -111 -67 -178.5t-171 -67.5q-51 0 -94 17l-41 -69h-69q57 97 57 99q0 16 -22 48t-43.5 72.5t-21.5 78.5 q0 111 67.5 178.5t171.5 67.5q54 0 96 -18l39 67h70l-57 -97q85 -69 85 -198z" unicode="ø"/>
<glyph glyph-name="ugrave" horiz-adv-x="537" unicode="ù" d="M322 523h-79l-157 183h133zM59 461h118v-281q0 -49 19.5 -69.5t58.5 -20.5q59 0 101 40v331h118v-458l-118 -16v68q-65 -70 -152 -70q-68 0 -106.5 42.5t-38.5 116.5v317z"/>
<glyph glyph-name="uacute" horiz-adv-x="537" unicode="ú" d="M454 706l-157 -183h-78l102 183h133zM59 461h118v-281q0 -49 19.5 -69.5t58.5 -20.5q59 0 101 40v331h118v-458l-118 -16v68q-65 -70 -152 -70q-68 0 -106.5 42.5t-38.5 116.5v317z"/>
<glyph glyph-name="ucircumflex" horiz-adv-x="537" unicode="û" d="M444 523h-83l-90 118h-2l-89 -118h-84l117 187h114zM59 461h118v-281q0 -49 19.5 -69.5t58.5 -20.5q59 0 101 40v331h118v-458l-118 -16v68q-65 -70 -152 -70q-68 0 -106.5 42.5t-38.5 116.5v317z"/>
<glyph glyph-name="udieresis" horiz-adv-x="537" unicode="ü" d="M228 595q0 -32 -19.5 -51.5t-50.5 -19.5t-50.5 20t-19.5 51t19.5 50t50.5 19t50.5 -19t19.5 -50zM447 595q0 -32 -19.5 -51.5t-50.5 -19.5t-50.5 19.5t-19.5 51.5q0 31 19.5 50t50.5 19t50.5 -19t19.5 -50zM59 461h118v-281q0 -49 19.5 -69.5t58.5 -20.5q59 0 101 40v331 h118v-458l-118 -16v68q-65 -70 -152 -70q-68 0 -106.5 42.5t-38.5 116.5v317z"/>
<glyph glyph-name="yacute" horiz-adv-x="474" unicode="ý" d="M424 706l-157 -183h-78l102 183h133zM476 461l-176 -452l-27 -72q-34 -92 -75.5 -128t-107.5 -36q-58 0 -117 27l35 97q46 -22 73 -22q26 0 42.5 16t34.5 62l20 53l-180 455h127l115 -330l110 330h126z"/>
<glyph glyph-name="thorn" horiz-adv-x="545" unicode="þ" d="M181 339v-233q34 -26 87 -26q58 0 91 42t33 108q0 68 -31 107.5t-85 39.5q-52 0 -95 -38zM181 -1v-228h-118v897l118 16v-264q64 56 126 56q93 0 149 -67t56 -174q0 -109 -67 -179t-166 -70q-56 0 -98 13z"/>
<glyph glyph-name="OE" horiz-adv-x="940" unicode="Œ" d="M167 314q0 -105 56.5 -158t165.5 -53h84v419h-90q-101 0 -158.5 -53t-57.5 -155zM900 625v-103h-305v-157h253v-103h-253v-159h305v-103h-518q-158 0 -248 83.5t-90 224.5q0 147 89 232t253 85h514z"/>
<glyph glyph-name="oe" horiz-adv-x="847" unicode="œ" d="M152 231q0 -67 32 -108.5t89 -41.5q56 0 87 40.5t31 108.5t-32 110t-88 42q-57 0 -88 -41.5t-31 -109.5zM503 277l197 1q1 2 1 8q0 101 -88 101q-46 0 -75.5 -32t-34.5 -78zM444 68q-63 -83 -175 -83q-103 0 -168 66t-65 179q0 112 67.5 179.5t171.5 67.5q112 0 172 -83 q65 82 175 82q90 0 140 -50.5t50 -136.5q0 -44 -10 -77l-302 -4v-3q3 -57 40 -91.5t97 -34.5q78 0 144 42l15 -98q-70 -38 -167 -38q-118 0 -185 83z"/>
<glyph glyph-name="Scaron" horiz-adv-x="536" unicode="Š" d="M444 867l-117 -187h-114l-117 187h83l90 -117h2l89 117h84zM260 88q51 0 83.5 23t32.5 60q0 36 -31.5 55.5t-107.5 40.5q-41 11 -69.5 23t-60 33.5t-48 54.5t-16.5 77q0 84 60.5 134.5t163.5 50.5q118 0 215 -55l-30 -103q-90 54 -184 54q-53 0 -79 -20t-26 -54 q0 -35 34 -54.5t108 -39.5q41 -11 70.5 -24t59.5 -34.5t45.5 -54t15.5 -75.5q0 -87 -64.5 -141t-173.5 -54q-130 0 -225 58l28 105q99 -60 199 -60z"/>
<glyph glyph-name="scaron" horiz-adv-x="431" unicode="š" d="M391 710l-117 -187h-114l-117 187h83l90 -117h2l89 117h84zM398 134q0 -66 -52.5 -108t-139.5 -42q-103 0 -179 43l26 92q76 -43 156 -43q35 0 55.5 13.5t20.5 37.5q0 25 -23 38t-70 24q-74 17 -115 49.5t-41 93.5q0 65 50.5 104.5t133.5 39.5q96 0 168 -37l-26 -92 q-74 38 -145 38q-69 0 -69 -46q0 -24 22.5 -36t70.5 -24q75 -18 116 -50.5t41 -94.5z"/>
<glyph glyph-name="Ydieresis" horiz-adv-x="576" unicode="Ÿ" d="M249 752q0 -32 -19.5 -51.5t-50.5 -19.5t-50.5 20t-19.5 51t19.5 50t50.5 19t50.5 -19t19.5 -50zM468 752q0 -32 -19.5 -51.5t-50.5 -19.5t-50.5 19.5t-19.5 51.5q0 31 19.5 50t50.5 19t50.5 -19t19.5 -50zM566 625l-217 -383v-242h-121v243l-218 382h132l148 -270 l145 270h131z"/>
<glyph glyph-name="circumflex" horiz-adv-x="396" unicode="ˆ" d="M374 523h-83l-90 118h-2l-89 -118h-84l117 187h114z"/>
<glyph glyph-name="tilde" horiz-adv-x="395" unicode="˜" d="M381 666q-8 -75 -32.5 -107t-70.5 -32q-35 0 -87 31.5t-66 31.5q-26 0 -34 -57h-74q8 76 33 108t71 32q35 0 87 -32t65 -32q27 0 34 57h74z"/>
<glyph glyph-name="thinspace" horiz-adv-x="76" unicode=" "/>
<glyph glyph-name="endash" horiz-adv-x="493" unicode="–" d="M468 194h-440l3 89h434z"/>
<glyph glyph-name="emdash" horiz-adv-x="963" unicode="—" d="M938 194h-910l3 89h904z"/>
<glyph glyph-name="quoteleft" horiz-adv-x="246" unicode="‘" d="M213 427q-4 -33 -27.5 -54t-59.5 -21q-42 0 -72.5 32t-30.5 77q0 106 159 200l51 -47q-100 -71 -100 -116q0 -20 17.5 -35.5t62.5 -35.5z"/>
<glyph glyph-name="quotesinglbase" horiz-adv-x="246" unicode="‚" d="M32 77q4 33 28 54t60 21q42 0 72 -32t30 -77q0 -105 -158 -200l-52 47q101 71 101 116q0 20 -17.5 35.5t-63.5 35.5z"/>
<glyph glyph-name="quotedblleft" horiz-adv-x="487" unicode="“" d="M213 427q-4 -33 -27.5 -54t-59.5 -21q-42 0 -72.5 32t-30.5 77q0 106 159 200l51 -47q-100 -71 -100 -116q0 -20 17.5 -35.5t62.5 -35.5zM454 427q-4 -33 -27.5 -54t-59.5 -21q-42 0 -72.5 32t-30.5 77q0 106 159 200l51 -47q-100 -71 -100 -116q0 -20 17.5 -35.5 t62.5 -35.5z"/>
<glyph glyph-name="quotedblright" horiz-adv-x="487" unicode="”" d="M32 593q4 33 28 54t60 21q42 0 72 -32t30 -77q0 -105 -158 -200l-52 47q101 71 101 116q0 20 -17.5 35.5t-63.5 35.5zM273 593q4 33 28 54t60 21q42 0 72 -32t30 -77q0 -105 -158 -200l-52 47q101 71 101 116q0 20 -17.5 35.5t-63.5 35.5z"/>
<glyph glyph-name="dagger" horiz-adv-x="494" unicode="†" d="M201 359h-168l-3 86h171v180h92v-180h172l-3 -86h-169v-485h-92v485z"/>
<glyph glyph-name="daggerdbl" horiz-adv-x="494" unicode="‡" d="M202 372h-169l-3 86h171v167h92v-167h172l-3 -86h-170v-246h170l3 -86h-172v-166h-92v166h-171l3 86h169v246z"/>
<glyph glyph-name="ellipsis" horiz-adv-x="748" unicode="…" d="M202 62q0 -33 -22 -55t-54 -22q-34 0 -56 22t-22 55q0 32 22 53.5t56 21.5q32 0 54 -21.5t22 -53.5zM453 62q0 -33 -22 -55t-55 -22t-55.5 22t-22.5 55q0 32 22.5 53.5t55.5 21.5t55 -21.5t22 -53.5zM704 62q0 -33 -22 -55t-56 -22q-33 0 -55.5 22t-22.5 55 q0 32 22.5 53.5t55.5 21.5q34 0 56 -21.5t22 -53.5z"/>
<glyph glyph-name="perthousand" horiz-adv-x="1176" unicode="‰" d="M691 146q0 45 -25 74t-67 29t-67 -29t-25 -74q0 -47 25 -76t68 -29q42 0 66.5 29t24.5 76zM1081 146q0 45 -25 74t-67 29t-67 -29t-25 -74q0 -47 25 -76t67 -29t67 29t25 76zM279 478q0 47 -25 76t-67 29q-43 0 -68 -29t-25 -76q0 -45 25 -74t68 -29q42 0 67 29t25 74z M770 146q0 -75 -46.5 -123t-124.5 -48q-79 0 -124.5 48t-45.5 123q0 74 46 121.5t125 47.5q78 0 124 -47.5t46 -121.5zM1160 146q0 -75 -46.5 -123t-124.5 -48q-79 0 -125 48t-46 123q0 74 46.5 121.5t124.5 47.5t124.5 -47.5t46.5 -121.5zM692 639l-508 -654h-89l508 654 h89zM358 478q0 -74 -46.5 -121.5t-125.5 -47.5q-78 0 -124 47.5t-46 121.5q0 75 46.5 123t124.5 48q79 0 125 -48t46 -123z"/>
<glyph glyph-name="guilsinglleft" horiz-adv-x="353" unicode="‹" d="M314 97l-17 -79l-269 161v109l269 161l17 -79l-183 -135v-2z"/>
<glyph glyph-name="guilsinglright" horiz-adv-x="353" unicode="›" d="M325 179l-269 -161l-18 79l183 136v2l-183 135l18 79l269 -161v-109z"/>
<glyph glyph-name="fraction" horiz-adv-x="613" unicode="⁄" d="M605 639l-508 -654h-89l509 654h88z"/>
<glyph glyph-name="Euro" horiz-adv-x="526" unicode="€" d="M103 362h-72l-3 62h83q22 112 85 165.5t155 53.5q100 0 163 -38l-24 -94q-59 35 -130 35q-101 0 -129 -122h213l-3 -62h-219q-1 -13 -1 -45q0 -28 3 -52h187l3 -62h-179q30 -121 127 -121q74 0 131 35l18 -95q-63 -37 -163 -37q-202 0 -239 218h-81l3 62h72q-1 14 -1 45 q0 35 1 52z"/>
<glyph glyph-name="trademark" horiz-adv-x="966" unicode="™" d="M398 551h-144v-299h-82v299h-132v75h358v-75zM887 252h-81l3 291h-12l-93 -280h-90l-80 280h-11l-4 -291h-74l6 374h143l64 -274h12l77 274h136z"/>
<glyph glyph-name="minus" horiz-adv-x="505" unicode="−" d="M469 190h-432l3 94h426z"/>
<glyph glyph-name="approxequal" horiz-adv-x="485" unicode="≈" d="M446 200q-10 -57 -45 -95.5t-86 -38.5q-29 0 -81 24.5t-67 24.5q-35 0 -46 -44h-82q10 57 45 95.5t86 38.5q29 0 82.5 -24.5t65.5 -24.5q17 0 28 8.5t19 35.5h81zM446 398q-10 -57 -45 -95.5t-86 -38.5q-29 0 -81 24.5t-67 24.5q-35 0 -46 -44h-82q10 57 45 95.5t86 38.5 q29 0 82.5 -24.5t65.5 -24.5q17 0 28 8.5t19 35.5h81z"/>
<glyph glyph-name="notequal" horiz-adv-x="485" unicode="≠" d="M129 -33l31 121h-122l5 93h142l28 107h-170l-5 93h199l29 111h91l-29 -111h121l-5 -93h-140l-28 -107h168l5 -93h-198l-31 -121h-91z"/>
<glyph glyph-name="lessequal" horiz-adv-x="485" unicode="≤" d="M422 202v-93l-361 142v108l361 142v-93l-255 -99v-9zM423 0h-355l3 94h349z"/>
<glyph glyph-name="greaterequal" horiz-adv-x="485" unicode="≥" d="M63 109v93l255 98v9l-255 99v93l361 -142v-108zM417 0h-355l3 94h349z"/>
</font>
</defs>
</svg>
