<?xml version="1.0" encoding="UTF-8" standalone="no"?>
<!DOCTYPE svg  PUBLIC '-//W3C//DTD SVG 1.1//EN'  'http://www.w3.org/Graphics/SVG/1.1/DTD/svg11.dtd'>
<svg xmlns="http://www.w3.org/2000/svg">
<defs>
<font id="FreightSansProBook-Regular" horiz-adv-x="486">
<font-face underline-position="-113" font-weight="350" descent="-200" panose-1="2 0 6 6 3 0 0 2 0 4" units-per-em="1000" unicode-range="U+0020-2265" bbox="-65 -260 1103 867" x-height="458" underline-thickness="20" font-family="FreightSansProBook" ascent="800" cap-height="625"/>
<missing-glyph horiz-adv-x="1000"/>
<glyph glyph-name=".notdef" horiz-adv-x="1000"/>
<glyph glyph-name=".null" horiz-adv-x="0"/>
<glyph glyph-name="nonmarkingreturn" horiz-adv-x="333"/>
<glyph glyph-name="space" horiz-adv-x="228" unicode=" "/>
<glyph glyph-name="exclam" horiz-adv-x="260" unicode="!" d="M180 39q0 -21 -14 -36.5t-35 -15.5q-22 0 -36.5 15.5t-14.5 36.5t14.5 35.5t36.5 14.5q21 0 35 -14.5t14 -35.5zM114 186l-21 464h75l-19 -464h-35z"/>
<glyph glyph-name="quotedbl" horiz-adv-x="303" unicode='&quot;' d="M30 398h-33l127 248l60 -29zM179 398h-34l127 248l60 -29z"/>
<glyph glyph-name="numbersign" horiz-adv-x="563" unicode="#" d="M384 370h-172l-42 -158h172zM165 370h-126v46h138l60 226h49l-61 -226h172l60 226h48l-60 -226h90v-46h-103l-42 -158h125v-46h-138l-64 -240h-48l64 240h-171l-65 -240h-48l65 240h-91v46h103z"/>
<glyph glyph-name="dollar" horiz-adv-x="491" unicode="$" d="M230 358l30 222h-15q-67 0 -102 -30.5t-35 -76.5q0 -44 29.5 -68.5t92.5 -46.5zM268 637l12 93h43l-13 -98q66 -12 123 -48l-23 -56q-49 34 -108 46l-31 -228q81 -25 127.5 -64.5t46.5 -114.5q0 -78 -59 -129t-152 -51h-15l-15 -110h-43l15 115q-76 10 -142 53l23 57 q62 -42 127 -54l34 248q-38 11 -64 23t-53 31.5t-41 49t-14 68.5q0 74 55.5 122t143.5 48q15 0 23 -1zM258 283l-32 -239h10q65 0 106.5 34t41.5 84q0 46 -30.5 73t-95.5 48z"/>
<glyph glyph-name="percent" horiz-adv-x="743" unicode="%" d="M682 142q0 51 -33 86.5t-88 35.5q-54 0 -87 -35.5t-33 -86.5q0 -53 32.5 -88.5t87.5 -35.5t88 35.5t33 88.5zM302 482q0 53 -33 88.5t-88 35.5t-87.5 -35.5t-32.5 -88.5q0 -51 33 -86.5t87 -35.5q55 0 88 35.5t33 86.5zM727 142q0 -70 -45.5 -118.5t-120.5 -48.5 t-120.5 48t-45.5 119q0 69 45.5 117t120.5 48q74 0 120 -48t46 -117zM652 639l-506 -654h-55l507 654h54zM347 482q0 -69 -45.5 -117t-120.5 -48q-74 0 -120 48t-46 117q0 70 45.5 118.5t120.5 48.5t120.5 -48t45.5 -119z"/>
<glyph glyph-name="ampersand" horiz-adv-x="624" unicode="&amp;" d="M434 135q-96 -148 -220 -148q-84 0 -134 50t-50 121q0 62 43 107.5t112 67.5q-106 55 -106 147q0 62 49.5 109.5t127.5 47.5q73 0 118 -43.5t45 -104.5q0 -50 -34 -89.5t-92 -62.5q74 -37 147 -124l106 168h74l-150 -202l142 -175l-61 -18zM406 169q-92 110 -182 143 q-131 -58 -131 -151q0 -49 35 -84t94 -35q96 0 184 127zM251 356q107 46 107 128q0 42 -30.5 70.5t-76.5 28.5q-49 0 -78.5 -29t-29.5 -70q0 -82 108 -128z"/>
<glyph glyph-name="quotesingle" horiz-adv-x="163" unicode="&apos;" d="M30 398h-33l127 248l60 -29z"/>
<glyph glyph-name="parenleft" horiz-adv-x="350" unicode="(" d="M337 -241q-45 23 -90 64.5t-86 99t-67 137.5t-26 166t26 166t67 138t86 99.5t90 64.5l29 -44q-93 -49 -167.5 -163.5t-74.5 -260.5q0 -76 22.5 -147t59 -124t77.5 -91.5t83 -60.5z"/>
<glyph glyph-name="parenright" horiz-adv-x="350" unicode=")" d="M13 -241l-29 44q93 49 167 163t74 260q0 147 -74 261t-167 163l29 44q45 -23 90 -64.5t86 -99.5t67 -138t26 -166t-26 -166t-67 -137.5t-86 -99t-90 -64.5z"/>
<glyph glyph-name="asterisk" horiz-adv-x="339" unicode="*" d="M161 456l-108 -106l-40 53l134 71v5l-132 72l38 53l108 -108l4 1l28 148l62 -20l-69 -135l3 -3l145 21v-65l-145 21l-3 -3l67 -136l-61 -19l-28 149z"/>
<glyph glyph-name="plus" d="M446 207h-174v-179h-55v179h-176l3 55h173v178h55v-178h171z" unicode="+"/>
<glyph glyph-name="comma" horiz-adv-x="187" unicode="," d="M37 46q2 20 16.5 34.5t37.5 14.5q28 0 49.5 -22.5t21.5 -56.5q0 -91 -124 -173l-27 27q88 63 88 119q0 19 -14 31.5t-48 25.5z"/>
<glyph glyph-name="hyphen" horiz-adv-x="292" unicode="-" d="M260 214h-226v58h226v-58z"/>
<glyph glyph-name="period" horiz-adv-x="187" unicode="." d="M144 39q0 -21 -14.5 -36.5t-35.5 -15.5t-35.5 15.5t-14.5 36.5t14.5 35.5t35.5 14.5t35.5 -14.5t14.5 -35.5z"/>
<glyph glyph-name="slash" horiz-adv-x="207" unicode="/" d="M241 702l-244 -901h-49l243 901h50z"/>
<glyph glyph-name="zero" horiz-adv-x="578" unicode="0" d="M468 236q0 82 -50.5 136t-129.5 54q-78 0 -128 -54t-50 -136t50 -136t128 -54q79 0 129.5 54t50.5 136zM530 236q0 -109 -69 -179t-173 -70q-103 0 -171.5 70t-68.5 179t68.5 179t171.5 70q104 0 173 -70t69 -179z"/>
<glyph glyph-name="one" horiz-adv-x="326" unicode="1" d="M162 0v406l-116 -44l-3 57l180 66v-485h-61z"/>
<glyph glyph-name="two" horiz-adv-x="440" unicode="2" d="M405 0h-358v57q158 119 194 152q76 69 76 124q0 41 -28.5 67.5t-76.5 26.5q-67 0 -142 -58l-22 53q80 63 170 63q73 0 118.5 -40t45.5 -104q0 -18 -3.5 -34.5t-12.5 -33.5t-17.5 -30.5t-26 -31l-28.5 -28.5t-35.5 -30.5t-37.5 -29t-42.5 -32t-43.5 -32.5h270v-59z"/>
<glyph glyph-name="three" horiz-adv-x="419" unicode="3" d="M239 167q73 -6 116.5 -51.5t43.5 -107.5q0 -86 -63 -139.5t-155 -53.5q-98 0 -161 39l16 57q63 -39 147 -39q67 0 109 35t42 96q0 55 -38.5 86.5t-101.5 33.5q-43 0 -91 -9v51q207 50 207 158q0 50 -32 77t-88 27q-72 0 -148 -60l-23 52q83 66 177 66q82 0 131 -43 t49 -111q0 -55 -39 -98.5t-98 -65.5z"/>
<glyph glyph-name="four" horiz-adv-x="501" unicode="4" d="M330 74v315l-235 -315h235zM488 15h-98v-199h-60v199h-307l-8 43l321 430h54v-414h95z"/>
<glyph glyph-name="five" horiz-adv-x="419" unicode="5" d="M105 208q38 10 84 10q94 0 151 -53t57 -137q0 -93 -62.5 -153t-155.5 -60q-89 0 -160 41l12 61q78 -43 150 -43q67 0 110 41.5t43 109.5q0 59 -41 99t-110 40q-62 0 -119 -19l-21 20l40 308h297l3 -60h-249z"/>
<glyph glyph-name="six" horiz-adv-x="503" unicode="6" d="M109 225q0 -75 40.5 -128t109.5 -53q64 0 102 40.5t38 105.5q0 61 -37 97.5t-93 36.5q-88 0 -157 -66q-3 -15 -3 -33zM44 238q0 134 90 247.5t258 152.5l18 -58q-123 -29 -200 -100.5t-99 -169.5l2 -1q75 70 168 70q75 0 128 -50t53 -136q0 -90 -56.5 -148t-148.5 -58 q-99 0 -156 71.5t-57 179.5z"/>
<glyph glyph-name="seven" horiz-adv-x="439" unicode="7" d="M349 412h-331l3 61h395v-50l-283 -607h-63z"/>
<glyph glyph-name="eight" horiz-adv-x="490" unicode="8" d="M318 311q60 -28 93.5 -62.5t33.5 -87.5q0 -73 -52 -123.5t-148 -50.5q-98 0 -149 47.5t-51 118.5q0 60 41 101.5t91 58.5q-58 26 -90 59.5t-32 86.5q0 76 54 124t140 48q85 0 135.5 -46t50.5 -119q0 -55 -35 -94.5t-82 -60.5zM225 292q-51 -18 -84 -51.5t-33 -79.5 q0 -54 37 -86.5t102 -32.5q66 0 100.5 30t34.5 80q0 26 -11.5 47t-34.5 36.5t-45.5 27t-55.5 25.5q-7 3 -10 4zM271 333q101 41 101 125q0 52 -35.5 85.5t-89.5 33.5q-60 0 -94.5 -32.5t-34.5 -78.5q0 -25 11 -44.5t38 -37t45 -26t59 -25.5z"/>
<glyph glyph-name="nine" horiz-adv-x="503" unicode="9" d="M394 247q0 77 -40.5 129t-109.5 52q-64 0 -102 -40.5t-38 -105.5q0 -61 37 -97.5t93 -36.5q88 0 157 66q3 15 3 33zM459 234q0 -134 -89.5 -247.5t-258.5 -152.5l-18 58q123 29 200 100.5t99 169.5l-2 1q-75 -70 -168 -70q-75 0 -128 50t-53 136q0 90 56.5 148t149.5 58 q98 0 155 -71.5t57 -179.5z"/>
<glyph glyph-name="colon" horiz-adv-x="187" unicode=":" d="M144 39q0 -21 -14.5 -36.5t-35.5 -15.5t-35.5 15.5t-14.5 36.5t14.5 35.5t35.5 14.5t35.5 -14.5t14.5 -35.5zM144 358q0 -21 -14.5 -36.5t-35.5 -15.5t-35.5 15.5t-14.5 36.5q0 20 14.5 34.5t35.5 14.5t35.5 -14.5t14.5 -34.5z"/>
<glyph glyph-name="semicolon" horiz-adv-x="187" unicode=";" d="M37 46q2 20 16.5 34.5t37.5 14.5q28 0 49.5 -22.5t21.5 -56.5q0 -91 -124 -173l-27 27q88 63 88 119q0 19 -14 31.5t-48 25.5zM144 358q0 -21 -14.5 -36.5t-35.5 -15.5t-35.5 15.5t-14.5 36.5q0 20 14.5 34.5t35.5 14.5t35.5 -14.5t14.5 -34.5z"/>
<glyph glyph-name="less" horiz-adv-x="456" unicode="&lt;" d="M416 78v-60l-382 190v54l381 191v-61l-311 -152v-10z"/>
<glyph glyph-name="equal" horiz-adv-x="446" unicode="=" d="M413 119h-378l4 55h370zM409 295h-370l-4 55h378z"/>
<glyph glyph-name="greater" horiz-adv-x="456" unicode="&gt;" d="M420 208l-382 -190v60l312 152v10l-311 152v61l381 -191v-54z"/>
<glyph glyph-name="question" horiz-adv-x="349" unicode="?" d="M198 39q0 -21 -14.5 -36.5t-35.5 -15.5q-22 0 -36.5 15.5t-14.5 36.5t14.5 35.5t36.5 14.5q21 0 35.5 -14.5t14.5 -35.5zM309 476q0 -39 -17 -67.5t-36.5 -40.5t-51.5 -26q-29 -13 -42.5 -20t-24.5 -19.5t-11 -28.5q0 -39 60 -85l-33 -11q-77 45 -77 104q0 40 25 63 t72 43q43 17 64 35.5t21 51.5q0 44 -37 75.5t-100 31.5q-24 0 -69 -9v57q32 9 72 9q82 0 133.5 -49.5t51.5 -113.5z"/>
<glyph glyph-name="at" horiz-adv-x="831" unicode="@" d="M480 154l43 211q-39 41 -94 41q-61 0 -104 -55.5t-43 -126.5q0 -53 28.5 -87t73.5 -34q51 0 96 51zM543 207q-4 -19 -4 -38q0 -77 72 -77q59 0 101 57t42 157q0 130 -97.5 213t-228.5 83q-144 0 -245.5 -106.5t-101.5 -252.5q0 -140 90 -236t228 -96q56 0 123 20l9 -33 q-67 -21 -134 -21q-153 0 -253.5 105t-100.5 260q0 162 112 277.5t273 115.5q151 0 257.5 -91t106.5 -238q0 -119 -55.5 -188.5t-132.5 -69.5q-41 0 -71 20.5t-42 53.5q-55 -66 -122 -66q-63 0 -103 47t-40 117q0 94 62 162.5t147 68.5q48 0 99 -30l58 26z"/>
<glyph glyph-name="A" horiz-adv-x="575" unicode="A" d="M407 237l-119 325l-120 -325h239zM327 625l233 -625h-65l-66 179h-283l-66 -179h-65l237 625h75z"/>
<glyph glyph-name="B" horiz-adv-x="550" unicode="B" d="M444 174q0 110 -172 110h-128v-226h144q156 0 156 116zM424 457q0 52 -37 81t-109 29h-134v-225h124q72 0 114 30t42 85zM368 320q68 -13 104 -51.5t36 -94.5q0 -80 -55.5 -127t-169.5 -47h-203v625h195q108 0 160.5 -44t52.5 -119q0 -49 -30.5 -88t-89.5 -54z"/>
<glyph glyph-name="C" horiz-adv-x="586" unicode="C" d="M542 587l-20 -57q-78 50 -174 50q-105 0 -170.5 -71t-65.5 -196q0 -123 65 -195.5t173 -72.5q100 0 175 56l12 -63q-78 -51 -188 -51q-136 0 -219 88t-83 236t84.5 237.5t217.5 89.5q109 0 193 -51z"/>
<glyph glyph-name="D" horiz-adv-x="628" unicode="D" d="M517 312q0 119 -71.5 186.5t-199.5 67.5h-102v-507h104q124 0 196.5 64t72.5 189zM581 317q0 -148 -88.5 -232.5t-247.5 -84.5h-165v625h170q152 0 241.5 -84.5t89.5 -223.5z"/>
<glyph glyph-name="E" horiz-adv-x="507" unicode="E" d="M458 0h-378v625h378v-59h-314v-224h262v-58h-262v-225h314v-59z"/>
<glyph glyph-name="F" horiz-adv-x="479" unicode="F" d="M80 0v625h368v-60h-304v-233h252v-59h-252v-273h-64z"/>
<glyph glyph-name="G" horiz-adv-x="625" unicode="G" d="M562 49q-92 -62 -213 -62q-136 0 -219 88t-83 236t84.5 237.5t217.5 89.5q113 0 198 -52l-21 -58q-81 52 -178 52q-105 0 -170.5 -71t-65.5 -196q0 -123 65 -195.5t173 -72.5q81 0 150 38v170h-181v58h243v-262z"/>
<glyph glyph-name="H" horiz-adv-x="654" unicode="H" d="M574 0h-64v285h-366v-285h-64v625h64v-282h366v282h64v-625z"/>
<glyph glyph-name="I" horiz-adv-x="228" unicode="I" d="M145 0h-63v625h63v-625z"/>
<glyph glyph-name="J" horiz-adv-x="414" unicode="J" d="M341 192q0 -96 -46.5 -150.5t-141.5 -54.5q-77 0 -139 39l11 62q69 -43 129 -43q124 0 124 149v431h63v-433z"/>
<glyph glyph-name="K" horiz-adv-x="537" unicode="K" d="M144 325h1l289 300h82l-309 -310l314 -315h-83l-293 299h-1v-299h-64v625h64v-300z"/>
<glyph glyph-name="L" horiz-adv-x="478" unicode="L" d="M453 0h-373v625h64v-565h309v-60z"/>
<glyph glyph-name="M" horiz-adv-x="761" unicode="M" d="M631 0l-10 546l-205 -542h-70l-207 543l-11 -547h-63l21 625h86l211 -552l208 552h85l20 -625h-65z"/>
<glyph glyph-name="N" horiz-adv-x="650" unicode="N" d="M507 89v536h62v-631h-69l-358 541v-535h-62v625h72z"/>
<glyph glyph-name="O" horiz-adv-x="709" unicode="O" d="M597 311q0 120 -68.5 195t-175.5 75q-106 0 -173.5 -74t-67.5 -192q0 -120 69 -195.5t176 -75.5q105 0 172.5 74.5t67.5 192.5zM662 315q0 -143 -87 -235.5t-221 -92.5q-132 0 -219.5 90.5t-87.5 233.5t87 235t221 92q132 0 219.5 -90t87.5 -233z"/>
<glyph glyph-name="P" horiz-adv-x="519" unicode="P" d="M415 427q0 67 -46.5 103t-133.5 36h-91v-287l89 2q182 3 182 146zM481 430q0 -101 -66.5 -154t-185.5 -55l-85 -1v-220h-64v625h157q120 0 182 -53t62 -142z"/>
<glyph glyph-name="Q" horiz-adv-x="709" unicode="Q" d="M597 311q0 120 -68.5 195t-175.5 75q-106 0 -173.5 -74t-67.5 -192q0 -120 69 -195.5t176 -75.5q105 0 172.5 74.5t67.5 192.5zM476 13l205 -104l-28 -55l-256 137q-28 -4 -43 -4q-132 0 -219.5 90.5t-87.5 233.5t87 235t221 92q132 0 219.5 -90t87.5 -233 q0 -106 -50.5 -186t-135.5 -116z"/>
<glyph glyph-name="R" horiz-adv-x="529" unicode="R" d="M144 307l112 4q66 2 110.5 37t44.5 94q0 61 -44 93t-126 32h-97v-260zM144 250v-250h-64v625h168q113 0 170 -48t57 -132q0 -67 -40 -111.5t-105 -64.5l173 -269h-74l-160 258z"/>
<glyph glyph-name="S" horiz-adv-x="490" unicode="S" d="M239 44q65 0 106.5 34t41.5 84q0 51 -38 79t-120 52q-39 12 -66.5 23.5t-56.5 31.5t-44 50t-15 70q0 74 56.5 122t143.5 48q104 0 188 -54l-23 -56q-76 52 -164 52q-67 0 -103 -30.5t-36 -76.5q0 -48 37.5 -73.5t120.5 -51.5q39 -12 67 -24.5t56.5 -33t43 -52t14.5 -71.5 q0 -78 -59 -129t-152 -51q-109 0 -201 58l23 57q85 -58 180 -58z"/>
<glyph glyph-name="T" horiz-adv-x="550" unicode="T" d="M527 565h-220v-565h-64v565h-220v60h504v-60z"/>
<glyph glyph-name="U" horiz-adv-x="616" unicode="U" d="M544 239q0 -118 -61 -185t-176 -67q-111 0 -172.5 65t-61.5 177v396h62v-388q0 -91 44.5 -141t130.5 -50q83 0 127 49t44 143v387h63v-386z"/>
<glyph glyph-name="V" horiz-adv-x="555" unicode="V" d="M545 625l-231 -625h-75l-229 625h65l203 -559l202 559h65z"/>
<glyph glyph-name="W" horiz-adv-x="895" unicode="W" d="M449 550l-169 -550h-61l-178 625h66l146 -534l159 534h76l162 -534l140 534h64l-175 -625h-62z"/>
<glyph glyph-name="X" horiz-adv-x="562" unicode="X" d="M279 277l-191 -277h-75l229 318l-217 307h76l180 -261l181 261h75l-219 -304l230 -321h-78z"/>
<glyph glyph-name="Y" horiz-adv-x="524" unicode="Y" d="M512 625l-218 -374v-251h-64v251l-218 374h72l180 -311l177 311h71z"/>
<glyph glyph-name="Z" horiz-adv-x="510" unicode="Z" d="M474 0h-450v47l371 520h-360v58h440v-48l-371 -519h370v-58z"/>
<glyph glyph-name="bracketleft" horiz-adv-x="387" unicode="[" d="M358 -222h-260v897h260v-51h-203v-795h203v-51z"/>
<glyph glyph-name="backslash" horiz-adv-x="207" unicode="\" d="M-33 702h50l243 -901h-49z"/>
<glyph glyph-name="bracketright" horiz-adv-x="387" unicode="]" d="M30 -222v51h203v795h-203v51h259v-897h-259z"/>
<glyph glyph-name="asciicircum" horiz-adv-x="377" unicode="^" d="M348 518h-47l-100 135h-1l-101 -135h-47l113 182h70z"/>
<glyph glyph-name="underscore" horiz-adv-x="445" unicode="_" d="M456 -49h-467v49h467v-49z"/>
<glyph glyph-name="grave" horiz-adv-x="396" unicode="`" d="M269 518h-46l-152 179h80z"/>
<glyph glyph-name="a" horiz-adv-x="439" unicode="a" d="M315 55h-3q-55 -68 -134 -68q-63 0 -104 36t-41 91q0 147 278 163v27q0 109 -108 109q-36 0 -77.5 -16t-72.5 -39l-14 58q33 23 80 39t90 16q165 0 164 -164v-220q0 -26 8 -36t34 -10h4l-4 -51h-13q-78 0 -87 65zM311 101v134q-115 -13 -164 -40t-49 -74q0 -36 26.5 -58 t67.5 -22q66 0 119 60z"/>
<glyph glyph-name="b" horiz-adv-x="511" unicode="b" d="M408 232q0 79 -40.5 129t-107.5 50q-70 0 -126 -51v-281q46 -36 115 -36q73 0 116 52.5t43 136.5zM472 235q0 -108 -63.5 -178t-162.5 -70q-58 0 -112 25l-62 -27v689l62 13v-277q62 58 138 58q90 0 145 -65t55 -168z"/>
<glyph glyph-name="c" horiz-adv-x="451" unicode="c" d="M408 26q-63 -39 -142 -39q-102 0 -163 66.5t-61 174.5q0 107 63.5 175t161.5 68q82 0 143 -39l-16 -56q-56 37 -127 37q-74 0 -117.5 -50.5t-43.5 -132.5q0 -84 44.5 -134.5t117.5 -50.5q69 0 127 38z"/>
<glyph glyph-name="d" horiz-adv-x="514" unicode="d" d="M380 377q-45 35 -114 35q-73 0 -116.5 -52t-43.5 -134q0 -80 41.5 -131t110.5 -51q68 0 122 51v282zM380 443v231l62 13v-687h-62v43q-60 -56 -133 -56q-92 0 -148.5 66.5t-56.5 171.5q0 106 64 174.5t163 68.5q57 0 111 -25z"/>
<glyph glyph-name="e" horiz-adv-x="470" unicode="e" d="M109 276l254 1q1 5 1 20q0 54 -28.5 86t-81.5 32q-59 0 -98 -39.5t-47 -99.5zM105 227v-5q2 -78 45.5 -127.5t114.5 -49.5q75 0 133 38l12 -57q-63 -39 -147 -39q-98 0 -159.5 66.5t-61.5 171.5q0 108 61.5 177t154.5 69q76 0 121.5 -46t45.5 -123q0 -40 -10 -73z"/>
<glyph glyph-name="f" horiz-adv-x="298" unicode="f" d="M307 676l-15 -56q-40 19 -70 19q-76 0 -76 -107v-76h144l-3 -55h-141v-401h-61v399l-74 5l4 39l69 16l1 72q3 165 138 165q42 0 84 -20z"/>
<glyph glyph-name="g" horiz-adv-x="468" unicode="g" d="M107 -1q-62 22 -62 73q0 28 21 51.5t54 35.5q-74 45 -74 140q0 74 50 123t130 49q60 0 108 -27l127 10l3 -62l-101 10q16 -16 26.5 -45.5t10.5 -57.5q0 -73 -50.5 -120.5t-127.5 -47.5q-31 0 -68 13q-51 -21 -51 -55q0 -23 23 -35t81 -12h59q190 0 190 -120 q0 -74 -71 -122t-170 -48q-92 0 -149.5 37t-57.5 97q0 39 27.5 70.5t71.5 42.5zM161 -13q-41 -11 -67 -36t-26 -54q0 -41 42.5 -67.5t113.5 -26.5q72 0 122 31t50 77q0 39 -34 56t-105 17q-57 0 -96 3zM107 298q0 -51 32 -84t86 -33q52 0 83 33.5t31 86.5t-30.5 86t-86.5 33 q-53 0 -84 -34t-31 -88z"/>
<glyph glyph-name="h" horiz-adv-x="505" unicode="h" d="M436 0h-62v296q0 116 -98 116q-77 0 -142 -65v-347h-62v674l62 13v-289q73 73 159 73q67 0 105 -41t38 -116v-314z"/>
<glyph glyph-name="i" horiz-adv-x="209" unicode="i" d="M135 0h-62v458l62 13v-471zM146 609q0 -19 -11 -32.5t-31 -13.5t-31 13.5t-11 32.5q0 18 11 31t31 13t31 -13t11 -31z"/>
<glyph glyph-name="j" horiz-adv-x="207" unicode="j" d="M27 -250l-42 44q50 26 69 63.5t19 110.5v490l62 13v-503q0 -88 -24.5 -137t-83.5 -81zM146 609q0 -19 -11 -32.5t-31 -13.5t-31 13.5t-11 32.5q0 18 11 31t31 13t31 -13t11 -31z"/>
<glyph glyph-name="k" horiz-adv-x="434" unicode="k" d="M136 228h-2v-228h-62v674l62 13v-440h2l206 211h78l-220 -218l221 -240h-79z"/>
<glyph glyph-name="l" horiz-adv-x="206" unicode="l" d="M134 0h-62v674l62 13v-687z"/>
<glyph glyph-name="m" horiz-adv-x="775" unicode="m" d="M706 0h-62v295q0 117 -97 117q-66 0 -129 -59q2 -12 2 -41v-312h-62v295q0 117 -97 117q-67 0 -127 -53v-359h-62v458l62 13v-63q69 63 145 63q91 0 124 -76q76 76 162 76q66 0 103.5 -41.5t37.5 -116.5v-313z"/>
<glyph glyph-name="n" horiz-adv-x="505" unicode="n" d="M436 0h-62v296q0 60 -24.5 88t-76.5 28q-74 0 -139 -65v-347h-62v458l62 13v-75q75 75 156 75q69 0 107.5 -41t38.5 -116v-314z"/>
<glyph glyph-name="o" horiz-adv-x="531" unicode="o" d="M427 228q0 84 -44.5 135.5t-117.5 51.5q-72 0 -116.5 -51.5t-44.5 -133.5q0 -84 44.5 -135.5t117.5 -51.5q72 0 116.5 51.5t44.5 133.5zM488 230q0 -108 -64 -175.5t-161 -67.5t-159 66t-62 175q0 108 64.5 175.5t161.5 67.5t158.5 -66t61.5 -175z"/>
<glyph glyph-name="p" horiz-adv-x="515" unicode="p" d="M134 360v-281q46 -36 115 -36q72 0 115.5 52.5t43.5 134.5q0 80 -41 130.5t-110 50.5q-67 0 -123 -51zM134 412q60 56 133 56q92 0 148.5 -66t56.5 -171q0 -107 -63.5 -175.5t-162.5 -68.5q-61 0 -112 24v-244h-62v693l62 13v-61z"/>
<glyph glyph-name="q" horiz-adv-x="514" unicode="q" d="M380 377q-46 36 -114 36q-73 0 -116.5 -52.5t-43.5 -134.5q0 -81 41.5 -132t110.5 -51q67 0 122 52v282zM442 -233h-62v276q-60 -56 -133 -56q-92 0 -148.5 66.5t-56.5 171.5q0 106 64 174.5t163 68.5q65 0 121 -26l52 29v-704z"/>
<glyph glyph-name="r" horiz-adv-x="356" unicode="r" d="M134 294v-294h-62v458l62 13v-98q50 98 135 98q43 0 80 -21l-16 -58q-33 20 -70 20q-77 0 -129 -118z"/>
<glyph glyph-name="s" horiz-adv-x="387" unicode="s" d="M347 125q0 -62 -47 -100t-117 -38q-86 0 -150 41l17 57q63 -42 135 -42q43 0 73 20.5t30 56.5q0 16 -7.5 29t-15.5 20.5t-28 16.5t-29 12t-35 11q-60 18 -96.5 47t-36.5 83q0 61 44 96.5t111 35.5q73 0 139 -34l-18 -56q-62 34 -125 34q-42 0 -67 -18.5t-25 -51.5 q0 -15 7 -27.5t15 -20t26.5 -15.5t29.5 -12t35 -11q62 -18 98.5 -47.5t36.5 -86.5z"/>
<glyph glyph-name="t" horiz-adv-x="329" unicode="t" d="M300 9q-51 -24 -102 -24q-123 0 -123 134v10l7 271l-70 4l3 39l69 16l3 104h59l-3 -107h153l-3 -55h-152l-7 -274v-7q0 -79 67 -79q37 0 88 22z"/>
<glyph glyph-name="u" horiz-adv-x="504" unicode="u" d="M68 458h62v-296q0 -116 99 -116q78 0 141 65v347h62v-458l-62 -13v74q-72 -74 -158 -74q-67 0 -105.5 41.5t-38.5 115.5v314z"/>
<glyph glyph-name="v" horiz-adv-x="424" unicode="v" d="M420 458l-180 -459h-56l-181 459h67l145 -378l140 378h65z"/>
<glyph glyph-name="w" horiz-adv-x="662" unicode="w" d="M209 -2h-54l-140 460h66l106 -365l119 364h56l125 -366l95 367h68l-136 -460h-55l-125 370z"/>
<glyph glyph-name="x" horiz-adv-x="394" unicode="x" d="M390 0h-69l-124 193l-123 -193h-70l158 235l-148 223h69l114 -178l112 178h69l-146 -221z"/>
<glyph glyph-name="y" horiz-adv-x="424" unicode="y" d="M420 458l-178 -453l-37 -99q-30 -81 -64.5 -112.5t-83.5 -31.5q-40 0 -89 21l19 57q37 -20 70 -20q28 0 49.5 22t44.5 84l31 81l-179 451h67l144 -378l141 378h65z"/>
<glyph glyph-name="z" horiz-adv-x="392" unicode="z" d="M368 0h-347v49l273 354h-264v55h338v-48l-273 -355h273v-55z"/>
<glyph glyph-name="braceleft" horiz-adv-x="332" unicode="{" d="M316 -229q-109 5 -163 34.5t-54 92.5q0 44 25 111.5t25 97.5q0 45 -28.5 65t-98.5 26l-3 33l3 34q70 5 98.5 25t28.5 66q0 30 -25 97.5t-25 110.5q0 63 54 93t163 35v-46q-86 -7 -122.5 -25t-36.5 -52q0 -31 25.5 -99.5t25.5 -103.5q0 -55 -35 -91.5t-103 -40.5v-6 q68 -4 103 -41t35 -92q0 -35 -25.5 -102.5t-25.5 -96.5q0 -36 36 -54.5t123 -25.5v-45z"/>
<glyph glyph-name="bar" horiz-adv-x="268" unicode="|" d="M106 -199v901h55v-901h-55z"/>
<glyph glyph-name="braceright" horiz-adv-x="332" unicode="}" d="M313 231l-3 -34q-70 -5 -99 -25t-29 -66q0 -30 25.5 -97.5t25.5 -110.5q0 -63 -54 -92.5t-163 -34.5v45q86 6 122.5 24.5t36.5 53.5q0 30 -25.5 98t-25.5 103q0 55 34.5 92t103.5 41v6q-69 4 -103.5 40t-34.5 92q0 35 25.5 103.5t25.5 98.5q0 35 -36.5 53t-122.5 25v46 q109 -6 163 -35.5t54 -92.5q0 -44 -25.5 -111.5t-25.5 -97.5q0 -46 29 -66t99 -25z"/>
<glyph glyph-name="asciitilde" horiz-adv-x="377" unicode="~" d="M362 292q-16 -115 -89 -115q-32 0 -83 35.5t-67 35.5q-15 0 -25.5 -14t-19.5 -51h-41q16 115 89 115q32 0 84 -36t67 -36t25 14.5t19 51.5h41z"/>
<glyph glyph-name="nbspace" horiz-adv-x="137" unicode=" "/>
<glyph glyph-name="exclamdown" horiz-adv-x="260" unicode="¡" d="M147 439l20 -464h-75l20 464h35zM80 585q0 21 14 36.5t36 15.5q21 0 35.5 -15.5t14.5 -36.5q0 -20 -14.5 -34.5t-35.5 -14.5q-22 0 -36 14.5t-14 34.5z"/>
<glyph glyph-name="cent" horiz-adv-x="445" unicode="¢" d="M269 413h-3q-74 0 -117 -50t-43 -133q0 -69 30.5 -116.5t83.5 -62.5zM319 466q50 -9 91 -34l-16 -56q-36 24 -83 33l-49 -364h6q69 0 127 38l13 -57q-63 -39 -141 -39h-13l-14 -110h-43l16 116q-78 17 -124.5 80.5t-46.5 154.5q0 107 63 175t161 68h11l12 91h43 q-13 -95 -13 -96z"/>
<glyph glyph-name="sterling" horiz-adv-x="495" unicode="£" d="M127 323q-3 59 -3 106q0 102 50 156.5t138 54.5q74 0 137 -37l-16 -55q-61 36 -123 36q-64 0 -94.5 -39.5t-30.5 -106.5q0 -25 4 -115h196l-3 -46h-191q2 -66 2 -100q0 -40 -7 -68q33 -29 76 -48.5t72 -19.5q83 0 106 108l46 -10q-7 -73 -47.5 -113.5t-97.5 -40.5 q-86 0 -173 80q-35 -55 -135 -82l-14 51q66 20 89.5 50t23.5 87q0 51 -3 106h-94l-3 46h95z"/>
<glyph glyph-name="currency" horiz-adv-x="504" unicode="¤" d="M105 372h-69l-3 45h79q19 110 78 166.5t149 56.5q87 0 144 -34l-14 -55q-57 34 -130 34q-136 0 -166 -168h235l-3 -45h-237q-2 -36 -2 -56q0 -23 2 -61h207l3 -45h-204q31 -170 162 -170q77 0 135 33l10 -55q-60 -33 -147 -33q-190 0 -224 225h-77l3 45h69q-2 36 -2 55 q0 22 2 62z"/>
<glyph glyph-name="yen" horiz-adv-x="545" unicode="¥" d="M232 264h-175l-3 46h157l-198 315h71l180 -299l178 299h69l-197 -315h156l-3 -46h-174v-88h174l3 -45h-177v-131h-62v131h-177l3 45h175v88z"/>
<glyph glyph-name="brokenbar" horiz-adv-x="268" unicode="¦" d="M106 -139v335h55v-335h-55zM106 307v335h55v-335h-55z"/>
<glyph glyph-name="section" horiz-adv-x="470" unicode="§" d="M393 277q0 27 -22.5 47t-49 29.5t-73 24t-70.5 24.5q-97 -43 -97 -96q0 -33 32 -52.5t98.5 -39.5t93.5 -32q88 40 88 95zM451 289q0 -45 -30.5 -77.5t-80.5 -48.5q52 -35 52 -91q0 -62 -47.5 -100t-118.5 -38q-83 0 -150 41l18 56q62 -41 134 -41q44 0 74.5 20.5 t30.5 55.5q0 15 -9 28t-19 21t-33.5 17.5t-36.5 13.5t-43 13q-31 9 -49.5 15t-44 18t-39.5 25t-24.5 32.5t-10.5 43.5q0 45 33 79t84 48q-59 34 -59 90q0 62 45 97.5t112 35.5q73 0 139 -34l-18 -55q-63 33 -125 33q-43 0 -68.5 -18.5t-25.5 -51.5q0 -16 9 -29t29 -22.5 t38 -15.5t48 -15q9 -3 14 -4q39 -11 63 -20.5t52.5 -26t42.5 -40.5t14 -55z"/>
<glyph glyph-name="dieresis" horiz-adv-x="397" unicode="¨" d="M151 593q0 -21 -13.5 -35.5t-34.5 -14.5t-34 14.5t-13 35.5q0 20 13.5 34.5t33.5 14.5q21 0 34.5 -14.5t13.5 -34.5zM344 593q0 -21 -13 -35.5t-34 -14.5t-35 14.5t-14 35.5q0 20 14 34.5t35 14.5q20 0 33.5 -14.5t13.5 -34.5z"/>
<glyph glyph-name="copyright" horiz-adv-x="729" unicode="©" d="M491 467l-17 -45q-43 28 -95 28q-57 0 -91.5 -37t-34.5 -101t34.5 -102t92.5 -38q56 0 98 32l10 -49q-45 -29 -110 -29q-79 0 -128 50t-49 134t49.5 135t128.5 51q67 0 112 -29zM663 311q0 123 -87.5 212t-210.5 89t-210.5 -89t-87.5 -212t87.5 -211t210.5 -88t210.5 88 t87.5 211zM365 -16q-136 0 -231.5 96t-95.5 231q0 136 95.5 232t231.5 96t231.5 -96t95.5 -232q0 -135 -95.5 -231t-231.5 -96z"/>
<glyph glyph-name="ordfeminine" horiz-adv-x="340" unicode="ª" d="M235 339v104q-162 -10 -162 -85q0 -29 19 -45t47 -16q57 0 96 42zM324 262l-54 -12q-20 20 -30 54h-1q-50 -54 -112 -54q-47 0 -75.5 29t-28.5 73q0 120 212 131v24q0 81 -76 81q-57 0 -113 -44l-21 43q69 51 138 51q123 0 123 -128v-152q0 -54 38 -96z"/>
<glyph glyph-name="guillemotleft" horiz-adv-x="573" unicode="«" d="M267 83l-8 -46l-234 166v62l234 166l8 -46l-187 -150v-2zM539 74l-7 -48l-246 175v66l246 175l7 -48l-196 -159v-2z"/>
<glyph glyph-name="logicalnot" d="M445 304v-207h-55v152h-349l3 55h401z" unicode="¬"/>
<glyph glyph-name="uni00AD" horiz-adv-x="292" unicode="­" d="M260 214h-226v58h226v-58z"/>
<glyph glyph-name="registered" horiz-adv-x="729" unicode="®" d="M296 308l63 2q87 2 87 70q0 67 -90 67h-60v-139zM297 265v-127h-50v354h114q66 0 100.5 -28.5t34.5 -80.5q0 -75 -70 -102l89 -143h-58l-81 131zM663 311q0 123 -87.5 212t-210.5 89t-210.5 -89t-87.5 -212t87.5 -211t210.5 -88t210.5 88t87.5 211zM365 -16 q-136 0 -231.5 96t-95.5 231q0 136 95.5 232t231.5 96t231.5 -96t95.5 -232q0 -135 -95.5 -231t-231.5 -96z"/>
<glyph glyph-name="macron" horiz-adv-x="397" unicode="¯" d="M328 536h-255l3 45h248z"/>
<glyph glyph-name="degree" horiz-adv-x="356" unicode="°" d="M283 490q0 46 -28.5 77t-76.5 31t-76.5 -31t-28.5 -77q0 -45 28.5 -75.5t76.5 -30.5t76.5 30.5t28.5 75.5zM326 490q0 -62 -40.5 -105t-107.5 -43q-66 0 -107 43.5t-41 104.5q0 63 41 106.5t107 43.5q67 0 107.5 -43.5t40.5 -106.5z"/>
<glyph glyph-name="plusminus" d="M446 9h-405l3 54h399zM446 227h-175v-144h-55v144h-175l3 55h172v159h55v-159h172z" unicode="±"/>
<glyph glyph-name="twosuperior" horiz-adv-x="330" unicode="²" d="M295 273h-265l-2 45q20 18 51 44.5t46 39.5t35.5 32.5t30 31t20 26t14 27t3.5 26.5q0 32 -22 50.5t-58 18.5q-50 0 -97 -40l-19 41q50 43 123 43q57 0 91.5 -30t34.5 -80q0 -24 -30.5 -51.5t-66.5 -50t-66.5 -57.5t-30.5 -72h53h153z"/>
<glyph glyph-name="threesuperior" horiz-adv-x="330" unicode="³" d="M174 472q58 0 89.5 -26.5t31.5 -65.5q0 -53 -43 -84t-107 -31q-67 0 -112 25l10 43q50 -25 104 -25q40 0 67.5 18t27.5 51q0 29 -25.5 47.5t-70.5 18.5q-35 -2 -58 -6v39q69 15 104 35t35 50q0 25 -20.5 39.5t-55.5 14.5q-52 0 -98 -36l-20 41q54 38 121 38 q58 0 92 -24.5t34 -66.5q0 -68 -106 -95z"/>
<glyph glyph-name="acute" horiz-adv-x="396" unicode="´" d="M329 697l-152 -179h-46l118 179h80z"/>
<glyph glyph-name="mu" horiz-adv-x="508" unicode="µ" d="M134 458v-292q0 -60 35.5 -90t87.5 -30q47 0 82 28.5t35 90.5v293h62v-458h-62v54q-43 -66 -118 -66q-77 0 -122 65v-286h-62v691h62z"/>
<glyph glyph-name="mu" horiz-adv-x="508" unicode="μ" d="M134 458v-292q0 -60 35.5 -90t87.5 -30q47 0 82 28.5t35 90.5v293h62v-458h-62v54q-43 -66 -118 -66q-77 0 -122 65v-286h-62v691h62z"/>
<glyph glyph-name="paragraph" horiz-adv-x="501" unicode="¶" d="M354 263q-36 -9 -75 -9q-114 0 -173.5 50.5t-59.5 131.5q0 91 63.5 140t168.5 49h130v-689h-54v327z"/>
<glyph glyph-name="periodcentered" horiz-adv-x="187" unicode="·" d="M144 229q0 -21 -14.5 -36.5t-35.5 -15.5t-35.5 15.5t-14.5 36.5t14.5 35.5t35.5 14.5t35.5 -14.5t14.5 -35.5z"/>
<glyph glyph-name="cedilla" horiz-adv-x="397" unicode="¸" d="M190 -68h10q51 0 81.5 -21.5t30.5 -60.5q0 -43 -40.5 -72t-119.5 -38l-5 42q115 6 115 63q0 48 -74 48q-26 0 -57 -6l-6 30l115 113h50z"/>
<glyph glyph-name="onesuperior" horiz-adv-x="330" unicode="¹" d="M165 273v323l-100 -25l-2 45l154 39v-382h-52z"/>
<glyph glyph-name="ordmasculine" horiz-adv-x="423" unicode="º" d="M340 443q0 67 -35 108t-93 41t-93 -41t-35 -106q0 -66 35 -107t93 -41t93 41t35 105zM390 445q0 -87 -51 -140.5t-129 -53.5t-127.5 53t-49.5 140t51.5 140.5t129.5 53.5t127 -53t49 -140z"/>
<glyph glyph-name="guillemotright" horiz-adv-x="576" unicode="»" d="M290 201l-245 -175l-8 48l196 159v2l-196 159l8 48l245 -175v-66zM551 203l-234 -166l-8 46l187 150v2l-187 150l8 46l234 -166v-62z"/>
<glyph glyph-name="onequarter" horiz-adv-x="715" unicode="¼" d="M165 273v323l-100 -25l-2 45l154 39v-382h-52zM673 625l-536 -741h-55l537 741h54zM596 -7v191l-141 -191h141zM706 -48h-62v-96h-48v96h-190l-5 35l185 250h58v-244h60z"/>
<glyph glyph-name="onehalf" horiz-adv-x="715" unicode="½" d="M680 -143h-265l-2 45q20 18 51 44.5t46 39.5t35.5 32.5t30 31t20 26t14 27t3.5 26.5q0 32 -22 50.5t-58 18.5q-50 0 -97 -40l-19 41q50 43 123 43q58 0 92 -30t34 -80q0 -31 -12 -50.5t-33 -32.5t-45 -27.5t-53 -45t-51 -75.5h53h153zM165 273v323l-100 -25l-2 45l154 39 v-382h-52zM658 625l-536 -741h-55l537 741h54z"/>
<glyph glyph-name="threequarters" horiz-adv-x="715" unicode="¾" d="M174 472q58 0 89.5 -26.5t31.5 -65.5q0 -53 -43 -84t-107 -31q-67 0 -112 25l10 43q50 -25 104 -25q40 0 67.5 18t27.5 51q0 29 -25.5 47.5t-70.5 18.5q-35 -2 -58 -6v39q69 15 104 35t35 50q0 25 -20.5 39.5t-55.5 14.5q-52 0 -98 -36l-20 41q54 38 121 38 q58 0 92 -24.5t34 -66.5q0 -68 -106 -95zM673 625l-536 -741h-55l537 741h54zM596 -7v191l-141 -191h141zM706 -48h-62v-96h-48v96h-190l-5 35l185 250h58v-244h60z"/>
<glyph glyph-name="questiondown" horiz-adv-x="349" unicode="¿" d="M151 585q0 21 14 36.5t36 15.5q21 0 35.5 -15.5t14.5 -36.5t-14.5 -35.5t-35.5 -14.5q-22 0 -36 14.5t-14 35.5zM39 148q0 30 8.5 52.5t25.5 38t32.5 24.5t39.5 19q42 18 59.5 31.5t17.5 36.5q0 38 -59 85l32 11q77 -45 77 -104q0 -40 -24.5 -63t-71.5 -43 q-43 -17 -64 -35.5t-21 -51.5q0 -44 36.5 -75.5t99.5 -31.5q24 0 69 9v-57q-32 -9 -71 -9q-83 0 -134.5 49t-51.5 114z"/>
<glyph glyph-name="Agrave" horiz-adv-x="575" unicode="À" d="M308 685h-46l-152 179h80zM407 237l-119 325l-120 -325h239zM327 625l233 -625h-65l-66 179h-283l-66 -179h-65l237 625h75z"/>
<glyph glyph-name="Aacute" horiz-adv-x="575" unicode="Á" d="M458 864l-152 -179h-46l118 179h80zM407 237l-119 325l-120 -325h239zM327 625l233 -625h-65l-66 179h-283l-66 -179h-65l237 625h75z"/>
<glyph glyph-name="Acircumflex" horiz-adv-x="575" unicode="Â" d="M437 685h-47l-100 135h-1l-101 -135h-47l113 182h70zM407 237l-119 325l-120 -325h239zM327 625l233 -625h-65l-66 179h-283l-66 -179h-65l237 625h75z"/>
<glyph glyph-name="Atilde" horiz-adv-x="575" unicode="Ã" d="M451 804q-16 -115 -89 -115q-32 0 -83 35.5t-67 35.5q-15 0 -25.5 -14t-19.5 -51h-41q16 115 89 115q32 0 84 -36t67 -36t25 14.5t19 51.5h41zM407 237l-119 325l-120 -325h239zM327 625l233 -625h-65l-66 179h-283l-66 -179h-65l237 625h75z"/>
<glyph glyph-name="Adieresis" horiz-adv-x="575" unicode="Ä" d="M238 760q0 -21 -13.5 -35.5t-34.5 -14.5t-34 14.5t-13 35.5q0 20 13.5 34.5t33.5 14.5q21 0 34.5 -14.5t13.5 -34.5zM431 760q0 -21 -13 -35.5t-34 -14.5t-35 14.5t-14 35.5q0 20 14 34.5t35 14.5q20 0 33.5 -14.5t13.5 -34.5zM407 237l-119 325l-120 -325h239zM327 625 l233 -625h-65l-66 179h-283l-66 -179h-65l237 625h75z"/>
<glyph glyph-name="Aring" horiz-adv-x="575" unicode="Å" d="M364 686q0 29 -20.5 49t-54.5 20q-33 0 -53.5 -19.5t-20.5 -47.5q0 -29 20.5 -48.5t53.5 -19.5q34 0 54.5 19t20.5 47zM239 593q-31 12 -49.5 37t-18.5 57q0 44 32.5 74t85.5 30t85 -30t33 -74q0 -32 -18 -57t-50 -37l221 -593h-65l-66 179h-282l-67 -179h-65zM408 237 l-119 325l-121 -325h240z"/>
<glyph glyph-name="AE" horiz-adv-x="818" unicode="Æ" d="M168 174l-99 -174h-68l358 625h413v-59h-314v-223h262v-59h-262v-225h314v-59h-378v174h-226zM202 233h192v336z"/>
<glyph glyph-name="Ccedilla" horiz-adv-x="586" unicode="Ç" d="M319 -12q-124 10 -198 97t-74 226q0 148 84.5 237.5t217.5 89.5q109 0 193 -51l-20 -57q-78 50 -174 50q-105 0 -170.5 -71t-65.5 -196q0 -123 65 -195.5t173 -72.5q100 0 175 56l12 -63q-71 -46 -168 -50l-57 -56h10q51 0 81.5 -21.5t30.5 -60.5q0 -43 -40.5 -72 t-119.5 -38l-5 42q115 6 115 63q0 48 -74 48q-26 0 -57 -6l-6 30z"/>
<glyph glyph-name="Egrave" horiz-adv-x="507" unicode="È" d="M302 685h-46l-152 179h80zM458 0h-378v625h378v-59h-314v-224h262v-58h-262v-225h314v-59z"/>
<glyph glyph-name="Eacute" horiz-adv-x="507" unicode="É" d="M417 864l-152 -179h-46l118 179h80zM458 0h-378v625h378v-59h-314v-224h262v-58h-262v-225h314v-59z"/>
<glyph glyph-name="Ecircumflex" horiz-adv-x="507" unicode="Ê" d="M418 685h-47l-100 135h-1l-101 -135h-47l113 182h70zM458 0h-378v625h378v-59h-314v-224h262v-58h-262v-225h314v-59z"/>
<glyph glyph-name="Edieresis" horiz-adv-x="507" unicode="Ë" d="M216 760q0 -21 -13.5 -35.5t-34.5 -14.5t-34 14.5t-13 35.5q0 20 13.5 34.5t33.5 14.5q21 0 34.5 -14.5t13.5 -34.5zM409 760q0 -21 -13 -35.5t-34 -14.5t-35 14.5t-14 35.5q0 20 14 34.5t35 14.5q20 0 33.5 -14.5t13.5 -34.5zM458 0h-378v625h378v-59h-314v-224h262v-58 h-262v-225h314v-59z"/>
<glyph glyph-name="Igrave" horiz-adv-x="228" unicode="Ì" d="M143 685h-46l-152 179h80zM145 0h-63v625h63v-625z"/>
<glyph glyph-name="Iacute" horiz-adv-x="228" unicode="Í" d="M286 864l-152 -179h-46l118 179h80zM145 0h-63v625h63v-625z"/>
<glyph glyph-name="Icircumflex" horiz-adv-x="228" unicode="Î" d="M263 685h-47l-100 135h-1l-101 -135h-47l113 182h70zM145 0h-63v625h63v-625z"/>
<glyph glyph-name="Idieresis" horiz-adv-x="228" unicode="Ï" d="M66 760q0 -21 -13.5 -35.5t-34.5 -14.5t-34 14.5t-13 35.5q0 20 13.5 34.5t33.5 14.5q21 0 34.5 -14.5t13.5 -34.5zM259 760q0 -21 -13 -35.5t-34 -14.5t-35 14.5t-14 35.5q0 20 14 34.5t35 14.5q20 0 33.5 -14.5t13.5 -34.5zM145 0h-63v625h63v-625z"/>
<glyph glyph-name="Eth" horiz-adv-x="646" unicode="Ð" d="M100 287h-84v56h84v282h170q152 0 241.5 -84.5t89.5 -223.5q0 -148 -88.5 -232.5t-247.5 -84.5h-165v287zM164 343h175v-56h-175v-228h104q124 0 196.5 64t72.5 189q0 119 -71.5 186.5t-199.5 67.5h-102v-223z"/>
<glyph glyph-name="Ntilde" horiz-adv-x="650" unicode="Ñ" d="M488 804q-16 -115 -89 -115q-32 0 -83 35.5t-67 35.5q-15 0 -25.5 -14t-19.5 -51h-41q16 115 89 115q32 0 84 -36t67 -36t25 14.5t19 51.5h41zM507 89v536h62v-631h-69l-358 541v-535h-62v625h72z"/>
<glyph glyph-name="Ograve" horiz-adv-x="709" unicode="Ò" d="M387 685h-46l-152 179h80zM597 311q0 120 -68.5 195t-175.5 75q-106 0 -173.5 -74t-67.5 -192q0 -120 69 -195.5t176 -75.5q105 0 172.5 74.5t67.5 192.5zM662 315q0 -143 -87 -235.5t-221 -92.5q-132 0 -219.5 90.5t-87.5 233.5t87 235t221 92q132 0 219.5 -90 t87.5 -233z"/>
<glyph glyph-name="Oacute" horiz-adv-x="709" unicode="Ó" d="M523 864l-152 -179h-46l118 179h80zM597 311q0 120 -68.5 195t-175.5 75q-106 0 -173.5 -74t-67.5 -192q0 -120 69 -195.5t176 -75.5q105 0 172.5 74.5t67.5 192.5zM662 315q0 -143 -87 -235.5t-221 -92.5q-132 0 -219.5 90.5t-87.5 233.5t87 235t221 92q132 0 219.5 -90 t87.5 -233z"/>
<glyph glyph-name="Ocircumflex" horiz-adv-x="709" unicode="Ô" d="M504 685h-47l-100 135h-1l-101 -135h-47l113 182h70zM597 311q0 120 -68.5 195t-175.5 75q-106 0 -173.5 -74t-67.5 -192q0 -120 69 -195.5t176 -75.5q105 0 172.5 74.5t67.5 192.5zM662 315q0 -143 -87 -235.5t-221 -92.5q-132 0 -219.5 90.5t-87.5 233.5t87 235t221 92 q132 0 219.5 -90t87.5 -233z"/>
<glyph glyph-name="Otilde" horiz-adv-x="709" unicode="Õ" d="M518 804q-16 -115 -89 -115q-32 0 -83 35.5t-67 35.5q-15 0 -25.5 -14t-19.5 -51h-41q16 115 89 115q32 0 84 -36t67 -36t25 14.5t19 51.5h41zM597 311q0 120 -68.5 195t-175.5 75q-106 0 -173.5 -74t-67.5 -192q0 -120 69 -195.5t176 -75.5q105 0 172.5 74.5t67.5 192.5 zM662 315q0 -143 -87 -235.5t-221 -92.5q-132 0 -219.5 90.5t-87.5 233.5t87 235t221 92q132 0 219.5 -90t87.5 -233z"/>
<glyph glyph-name="Odieresis" horiz-adv-x="709" unicode="Ö" d="M307 760q0 -21 -13.5 -35.5t-34.5 -14.5t-34 14.5t-13 35.5q0 20 13.5 34.5t33.5 14.5q21 0 34.5 -14.5t13.5 -34.5zM500 760q0 -21 -13 -35.5t-34 -14.5t-35 14.5t-14 35.5q0 20 14 34.5t35 14.5q20 0 33.5 -14.5t13.5 -34.5zM597 311q0 120 -68.5 195t-175.5 75 q-106 0 -173.5 -74t-67.5 -192q0 -120 69 -195.5t176 -75.5q105 0 172.5 74.5t67.5 192.5zM662 315q0 -143 -87 -235.5t-221 -92.5q-132 0 -219.5 90.5t-87.5 233.5t87 235t221 92q132 0 219.5 -90t87.5 -233z"/>
<glyph glyph-name="multiply" d="M450 65l-37 -37l-168 169l-169 -169l-37 37l169 169l-169 168l37 37l169 -169l169 170l37 -37l-170 -169z" unicode="×"/>
<glyph glyph-name="Oslash" horiz-adv-x="709" unicode="Ø" d="M507 528l-265 -456q54 -28 116 -28q105 0 172.5 74.5t67.5 192.5q0 141 -91 217zM470 553q-53 28 -116 28q-106 0 -173.5 -74t-67.5 -192q0 -140 93 -218zM663 315q0 -143 -87 -235.5t-220 -92.5q-75 0 -143 34l-50 -88h-52l64 110q-59 44 -92.5 113t-33.5 155 q0 143 87 235t221 92q74 0 142 -34l51 88h52l-64 -110q58 -43 91.5 -112t33.5 -155z"/>
<glyph glyph-name="Ugrave" horiz-adv-x="616" unicode="Ù" d="M347 685h-46l-152 179h80zM544 239q0 -118 -61 -185t-176 -67q-111 0 -172.5 65t-61.5 177v396h62v-388q0 -91 44.5 -141t130.5 -50q83 0 127 49t44 143v387h63v-386z"/>
<glyph glyph-name="Uacute" horiz-adv-x="616" unicode="Ú" d="M464 864l-152 -179h-46l118 179h80zM544 239q0 -118 -61 -185t-176 -67q-111 0 -172.5 65t-61.5 177v396h62v-388q0 -91 44.5 -141t130.5 -50q83 0 127 49t44 143v387h63v-386z"/>
<glyph glyph-name="Ucircumflex" horiz-adv-x="616" unicode="Û" d="M457 685h-47l-100 135h-1l-101 -135h-47l113 182h70zM544 239q0 -118 -61 -185t-176 -67q-111 0 -172.5 65t-61.5 177v396h62v-388q0 -91 44.5 -141t130.5 -50q83 0 127 49t44 143v387h63v-386z"/>
<glyph glyph-name="Udieresis" horiz-adv-x="616" unicode="Ü" d="M260 760q0 -21 -13.5 -35.5t-34.5 -14.5t-34 14.5t-13 35.5q0 20 13.5 34.5t33.5 14.5q21 0 34.5 -14.5t13.5 -34.5zM453 760q0 -21 -13 -35.5t-34 -14.5t-35 14.5t-14 35.5q0 20 14 34.5t35 14.5q20 0 33.5 -14.5t13.5 -34.5zM544 239q0 -118 -61 -185t-176 -67 q-111 0 -172.5 65t-61.5 177v396h62v-388q0 -91 44.5 -141t130.5 -50q83 0 127 49t44 143v387h63v-386z"/>
<glyph glyph-name="Yacute" horiz-adv-x="524" unicode="Ý" d="M426 864l-152 -179h-46l118 179h80zM512 625l-218 -374v-251h-64v251l-218 374h72l180 -311l177 311h71z"/>
<glyph glyph-name="Thorn" horiz-adv-x="516" unicode="Þ" d="M415 320q0 67 -46.5 103t-133.5 36h-91v-287l89 1q182 3 182 147zM481 322q0 -101 -66.5 -154t-185.5 -55l-85 -1v-112h-64v625h64v-107h93q120 0 182 -53t62 -143z"/>
<glyph glyph-name="germandbls" horiz-adv-x="549" unicode="ß" d="M85 0v399l-74 5l4 39l69 16l1 58q0 91 47.5 135t119.5 44q73 0 117.5 -42t44.5 -108q0 -29 -14.5 -56t-31.5 -43.5t-31.5 -35t-14.5 -33.5q0 -24 14.5 -44t36 -33t47 -30t47 -33.5t36 -45t14.5 -63.5q0 -66 -43.5 -104t-115.5 -38q-79 0 -143 41l17 57q66 -44 127 -44 q43 0 69 21.5t26 61.5q0 28 -14 50t-35.5 35t-46 28.5t-46 30.5t-35.5 40.5t-14 57.5q0 28 13.5 52t30 38.5t30 37t13.5 47.5q0 45 -26 73t-72 28q-50 0 -78 -31t-28 -88v-523h-61z"/>
<glyph glyph-name="agrave" horiz-adv-x="439" unicode="à" d="M315 55h-3q-55 -68 -134 -68q-63 0 -104 36t-41 91q0 147 278 163v27q0 109 -108 109q-36 0 -77.5 -16t-72.5 -39l-14 58q33 23 80 39t90 16q165 0 164 -164v-220q0 -26 8 -36t34 -10h4l-4 -51h-13q-78 0 -87 65zM311 101v134q-115 -13 -164 -40t-49 -74q0 -36 26.5 -58 t67.5 -22q66 0 119 60zM251 518h-46l-152 179h80z"/>
<glyph glyph-name="aacute" horiz-adv-x="439" unicode="á" d="M360 697l-152 -179h-46l118 179h80zM315 55h-3q-55 -68 -134 -68q-63 0 -104 36t-41 91q0 147 278 163v27q0 109 -108 109q-36 0 -77.5 -16t-72.5 -39l-14 58q33 23 80 39t90 16q165 0 164 -164v-220q0 -26 8 -36t34 -10h4l-4 -51h-13q-78 0 -87 65zM311 101v134 q-115 -13 -164 -40t-49 -74q0 -36 26.5 -58t67.5 -22q66 0 119 60z"/>
<glyph glyph-name="acircumflex" horiz-adv-x="439" unicode="â" d="M358 518h-47l-100 135h-1l-101 -135h-47l113 182h70zM315 55h-3q-55 -68 -134 -68q-63 0 -104 36t-41 91q0 147 278 163v27q0 109 -108 109q-36 0 -77.5 -16t-72.5 -39l-14 58q33 23 80 39t90 16q165 0 164 -164v-220q0 -26 8 -36t34 -10h4l-4 -51h-13q-78 0 -87 65z M311 101v134q-115 -13 -164 -40t-49 -74q0 -36 26.5 -58t67.5 -22q66 0 119 60z"/>
<glyph glyph-name="atilde" horiz-adv-x="439" unicode="ã" d="M372 637q-16 -115 -89 -115q-32 0 -83 35.5t-67 35.5q-15 0 -25.5 -14t-19.5 -51h-41q16 115 89 115q32 0 84 -36t67 -36t25 14.5t19 51.5h41zM315 55h-3q-55 -68 -134 -68q-63 0 -104 36t-41 91q0 147 278 163v27q0 109 -108 109q-36 0 -77.5 -16t-72.5 -39l-14 58 q33 23 80 39t90 16q165 0 164 -164v-220q0 -26 8 -36t34 -10h4l-4 -51h-13q-78 0 -87 65zM311 101v134q-115 -13 -164 -40t-49 -74q0 -36 26.5 -58t67.5 -22q66 0 119 60z"/>
<glyph glyph-name="adieresis" horiz-adv-x="439" unicode="ä" d="M161 593q0 -21 -13.5 -35.5t-34.5 -14.5t-34 14.5t-13 35.5q0 20 13.5 34.5t33.5 14.5q21 0 34.5 -14.5t13.5 -34.5zM354 593q0 -21 -13 -35.5t-34 -14.5t-35 14.5t-14 35.5q0 20 14 34.5t35 14.5q20 0 33.5 -14.5t13.5 -34.5zM315 55h-3q-55 -68 -134 -68q-63 0 -104 36 t-41 91q0 147 278 163v27q0 109 -108 109q-36 0 -77.5 -16t-72.5 -39l-14 58q33 23 80 39t90 16q165 0 164 -164v-220q0 -26 8 -36t34 -10h4l-4 -51h-13q-78 0 -87 65zM311 101v134q-115 -13 -164 -40t-49 -74q0 -36 26.5 -58t67.5 -22q66 0 119 60z"/>
<glyph glyph-name="aring" horiz-adv-x="439" unicode="å" d="M285 617q0 29 -20.5 49t-54.5 20q-32 0 -52.5 -19.5t-20.5 -47.5t20.5 -48t52.5 -20q34 0 54.5 19t20.5 47zM329 618q0 -44 -32.5 -73.5t-86.5 -29.5q-53 0 -85.5 29.5t-32.5 73.5t32.5 74t85.5 30q54 0 86 -30t33 -74zM315 55h-3q-55 -68 -134 -68q-63 0 -104 36t-41 91 q0 147 278 163v27q0 109 -108 109q-36 0 -77.5 -16t-72.5 -39l-14 58q33 23 80 39t90 16q165 0 164 -164v-220q0 -26 8 -36t34 -10h4l-4 -51h-13q-78 0 -87 65zM311 101v134q-115 -13 -164 -40t-49 -74q0 -36 26.5 -58t67.5 -22q66 0 119 60z"/>
<glyph glyph-name="ae" horiz-adv-x="737" unicode="æ" d="M310 229q-213 -15 -213 -111q0 -35 24.5 -55t64.5 -20q35 0 74.5 20.5t67.5 56.5q-18 47 -18 109zM375 276l254 1q2 10 2 20q0 54 -29 86t-82 32q-59 0 -98 -39.5t-47 -99.5zM346 85q-29 -42 -77.5 -70t-98.5 -28q-61 0 -99 35.5t-38 88.5q0 150 278 161l1 25v6 q0 57 -27 83t-84 26q-72 0 -146 -54l-17 55q80 58 168 58q123 0 150 -88q60 88 168 88q76 0 121.5 -46t45.5 -123q0 -40 -10 -73l-310 -2v-5q2 -78 45.5 -127.5t114.5 -49.5q75 0 133 38l12 -57q-63 -39 -147 -39q-60 0 -107.5 26t-75.5 72z"/>
<glyph glyph-name="ccedilla" horiz-adv-x="451" unicode="ç" d="M240 -12q-91 9 -144.5 74.5t-53.5 165.5q0 107 63.5 175t161.5 68q82 0 143 -39l-16 -56q-56 37 -127 37q-74 0 -117.5 -50.5t-43.5 -132.5q0 -84 44.5 -134.5t117.5 -50.5q69 0 127 38l13 -57q-53 -32 -118 -38l-57 -56h10q51 0 81.5 -21.5t30.5 -60.5q0 -43 -40.5 -72 t-119.5 -38l-5 42q115 6 115 63q0 48 -74 48q-25 0 -57 -6l-6 30z"/>
<glyph glyph-name="egrave" horiz-adv-x="470" unicode="è" d="M109 276l254 1q1 5 1 20q0 54 -28.5 86t-81.5 32q-59 0 -98 -39.5t-47 -99.5zM105 227v-5q2 -78 45.5 -127.5t114.5 -49.5q75 0 133 38l12 -57q-63 -39 -147 -39q-98 0 -159.5 66.5t-61.5 171.5q0 108 61.5 177t154.5 69q76 0 121.5 -46t45.5 -123q0 -40 -10 -73z M284 518h-46l-152 179h80z"/>
<glyph glyph-name="eacute" horiz-adv-x="470" unicode="é" d="M409 697l-152 -179h-46l118 179h80zM109 276l254 1q1 5 1 20q0 54 -28.5 86t-81.5 32q-59 0 -98 -39.5t-47 -99.5zM105 227v-5q2 -78 45.5 -127.5t114.5 -49.5q75 0 133 38l12 -57q-63 -39 -147 -39q-98 0 -159.5 66.5t-61.5 171.5q0 108 61.5 177t154.5 69 q76 0 121.5 -46t45.5 -123q0 -40 -10 -73z"/>
<glyph glyph-name="ecircumflex" horiz-adv-x="470" unicode="ê" d="M381 518h-47l-100 135h-1l-101 -135h-47l113 182h70zM109 276l254 1q1 5 1 20q0 54 -28.5 86t-81.5 32q-59 0 -98 -39.5t-47 -99.5zM105 227v-5q2 -78 45.5 -127.5t114.5 -49.5q75 0 133 38l12 -57q-63 -39 -147 -39q-98 0 -159.5 66.5t-61.5 171.5q0 108 61.5 177 t154.5 69q76 0 121.5 -46t45.5 -123q0 -40 -10 -73z"/>
<glyph glyph-name="edieresis" horiz-adv-x="470" unicode="ë" d="M189 593q0 -21 -13.5 -35.5t-34.5 -14.5t-34 14.5t-13 35.5q0 20 13.5 34.5t33.5 14.5q21 0 34.5 -14.5t13.5 -34.5zM382 593q0 -21 -13 -35.5t-34 -14.5t-35 14.5t-14 35.5q0 20 14 34.5t35 14.5q20 0 33.5 -14.5t13.5 -34.5zM109 276l254 1q1 5 1 20q0 54 -28.5 86 t-81.5 32q-59 0 -98 -39.5t-47 -99.5zM105 227v-5q2 -78 45.5 -127.5t114.5 -49.5q75 0 133 38l12 -57q-63 -39 -147 -39q-98 0 -159.5 66.5t-61.5 171.5q0 108 61.5 177t154.5 69q76 0 121.5 -46t45.5 -123q0 -40 -10 -73z"/>
<glyph glyph-name="igrave" horiz-adv-x="209" unicode="ì" d="M137 0h-62v453l62 13v-466zM133 518h-46l-152 179h80z"/>
<glyph glyph-name="iacute" horiz-adv-x="209" unicode="í" d="M137 0h-62v453l62 13v-466zM275 697l-152 -179h-46l118 179h80z"/>
<glyph glyph-name="icircumflex" horiz-adv-x="209" unicode="î" d="M255 518h-47l-100 135h-1l-101 -135h-47l113 182h70zM137 0h-62v453l62 13v-466z"/>
<glyph glyph-name="idieresis" horiz-adv-x="209" unicode="ï" d="M137 0h-62v453l62 13v-466zM58 593q0 -21 -13.5 -35.5t-34.5 -14.5t-34 14.5t-13 35.5q0 20 13.5 34.5t33.5 14.5q21 0 34.5 -14.5t13.5 -34.5zM251 593q0 -21 -13 -35.5t-34 -14.5t-35 14.5t-14 35.5q0 20 14 34.5t35 14.5q20 0 33.5 -14.5t13.5 -34.5z"/>
<glyph glyph-name="eth" horiz-adv-x="525" unicode="ð" d="M421 235q0 45 -18 94q-21 21 -60.5 35t-82.5 14q-68 0 -110 -45t-42 -119q0 -77 43 -124t112 -47q74 0 116 51.5t42 140.5zM482 245q0 -114 -57.5 -186t-163.5 -72q-97 0 -158 62t-61 158q0 103 62 165t144 62q81 0 142 -54h1q-32 79 -134 184l-117 -32l-12 46l91 25 q-51 47 -88 76q68 17 69 17q43 -33 85 -75l105 28l12 -46q-79 -21 -80 -21q160 -177 160 -337z"/>
<glyph glyph-name="ntilde" horiz-adv-x="505" unicode="ñ" d="M416 637q-16 -115 -89 -115q-32 0 -83 35.5t-67 35.5q-15 0 -25.5 -14t-19.5 -51h-41q16 115 89 115q32 0 84 -36t67 -36t25 14.5t19 51.5h41zM436 0h-62v296q0 60 -24.5 88t-76.5 28q-74 0 -139 -65v-347h-62v458l62 13v-75q75 75 156 75q69 0 107.5 -41t38.5 -116v-314 z"/>
<glyph glyph-name="ograve" horiz-adv-x="531" unicode="ò" d="M427 228q0 84 -44.5 135.5t-117.5 51.5q-72 0 -116.5 -51.5t-44.5 -133.5q0 -84 44.5 -135.5t117.5 -51.5q72 0 116.5 51.5t44.5 133.5zM488 230q0 -108 -64 -175.5t-161 -67.5t-159 66t-62 175q0 108 64.5 175.5t161.5 67.5t158.5 -66t61.5 -175zM311 518h-46l-152 179 h80z"/>
<glyph glyph-name="oacute" horiz-adv-x="531" unicode="ó" d="M422 697l-152 -179h-46l118 179h80zM427 228q0 84 -44.5 135.5t-117.5 51.5q-72 0 -116.5 -51.5t-44.5 -133.5q0 -84 44.5 -135.5t117.5 -51.5q72 0 116.5 51.5t44.5 133.5zM488 230q0 -108 -64 -175.5t-161 -67.5t-159 66t-62 175q0 108 64.5 175.5t161.5 67.5 t158.5 -66t61.5 -175z"/>
<glyph glyph-name="ocircumflex" horiz-adv-x="531" unicode="ô" d="M415 518h-47l-100 135h-1l-101 -135h-47l113 182h70zM427 228q0 84 -44.5 135.5t-117.5 51.5q-72 0 -116.5 -51.5t-44.5 -133.5q0 -84 44.5 -135.5t117.5 -51.5q72 0 116.5 51.5t44.5 133.5zM488 230q0 -108 -64 -175.5t-161 -67.5t-159 66t-62 175q0 108 64.5 175.5 t161.5 67.5t158.5 -66t61.5 -175z"/>
<glyph glyph-name="otilde" horiz-adv-x="531" unicode="õ" d="M429 637q-16 -115 -89 -115q-32 0 -83 35.5t-67 35.5q-15 0 -25.5 -14t-19.5 -51h-41q16 115 89 115q32 0 84 -36t67 -36t25 14.5t19 51.5h41zM427 228q0 84 -44.5 135.5t-117.5 51.5q-72 0 -116.5 -51.5t-44.5 -133.5q0 -84 44.5 -135.5t117.5 -51.5q72 0 116.5 51.5 t44.5 133.5zM488 230q0 -108 -64 -175.5t-161 -67.5t-159 66t-62 175q0 108 64.5 175.5t161.5 67.5t158.5 -66t61.5 -175z"/>
<glyph glyph-name="odieresis" horiz-adv-x="531" unicode="ö" d="M218 593q0 -21 -13.5 -35.5t-34.5 -14.5t-34 14.5t-13 35.5q0 20 13.5 34.5t33.5 14.5q21 0 34.5 -14.5t13.5 -34.5zM411 593q0 -21 -13 -35.5t-34 -14.5t-35 14.5t-14 35.5q0 20 14 34.5t35 14.5q20 0 33.5 -14.5t13.5 -34.5zM427 228q0 84 -44.5 135.5t-117.5 51.5 q-72 0 -116.5 -51.5t-44.5 -133.5q0 -84 44.5 -135.5t117.5 -51.5q72 0 116.5 51.5t44.5 133.5zM488 230q0 -108 -64 -175.5t-161 -67.5t-159 66t-62 175q0 108 64.5 175.5t161.5 67.5t158.5 -66t61.5 -175z"/>
<glyph glyph-name="divide" d="M296 374q0 -21 -15 -36.5t-37 -15.5t-36.5 15.5t-14.5 36.5t14.5 36.5t36.5 15.5t37 -15.5t15 -36.5zM296 94q0 -21 -14.5 -36.5t-36.5 -15.5t-37 15.5t-15 36.5t15 36t37 15t36.5 -15t14.5 -36zM446 208h-405l3 54h399z" unicode="÷"/>
<glyph glyph-name="oslash" horiz-adv-x="531" unicode="ø" d="M429 228q0 92 -53 145l-181 -314q35 -16 73 -16q72 0 116.5 51.5t44.5 133.5zM339 399q-31 16 -73 16q-72 0 -116.5 -51.5t-44.5 -133.5q0 -94 53 -145zM490 230q0 -108 -64 -175.5t-161 -67.5q-52 0 -98 22l-44 -76h-53q57 99 57 101q0 16 -20.5 47t-41.5 70.5t-21 76.5 q0 108 64 175.5t162 67.5q53 0 98 -21l44 76h53l-58 -101q83 -68 83 -195z"/>
<glyph glyph-name="ugrave" horiz-adv-x="504" unicode="ù" d="M68 458h62v-296q0 -116 99 -116q78 0 141 65v347h62v-458l-62 -13v74q-72 -74 -158 -74q-67 0 -105.5 41.5t-38.5 115.5v314zM291 518h-46l-152 179h80z"/>
<glyph glyph-name="uacute" horiz-adv-x="504" unicode="ú" d="M409 697l-152 -179h-46l118 179h80zM68 458h62v-296q0 -116 99 -116q78 0 141 65v347h62v-458l-62 -13v74q-72 -74 -158 -74q-67 0 -105.5 41.5t-38.5 115.5v314z"/>
<glyph glyph-name="ucircumflex" horiz-adv-x="504" unicode="û" d="M401 518h-47l-100 135h-1l-101 -135h-47l113 182h70zM68 458h62v-296q0 -116 99 -116q78 0 141 65v347h62v-458l-62 -13v74q-72 -74 -158 -74q-67 0 -105.5 41.5t-38.5 115.5v314z"/>
<glyph glyph-name="udieresis" horiz-adv-x="504" unicode="ü" d="M200 593q0 -21 -13.5 -35.5t-34.5 -14.5t-34 14.5t-13 35.5q0 20 13.5 34.5t33.5 14.5q21 0 34.5 -14.5t13.5 -34.5zM393 593q0 -21 -13 -35.5t-34 -14.5t-35 14.5t-14 35.5q0 20 14 34.5t35 14.5q20 0 33.5 -14.5t13.5 -34.5zM68 458h62v-296q0 -116 99 -116 q78 0 141 65v347h62v-458l-62 -13v74q-72 -74 -158 -74q-67 0 -105.5 41.5t-38.5 115.5v314z"/>
<glyph glyph-name="yacute" horiz-adv-x="424" unicode="ý" d="M370 697l-152 -179h-46l118 179h80zM420 458l-178 -453l-37 -99q-30 -81 -64.5 -112.5t-83.5 -31.5q-40 0 -89 21l19 57q37 -20 70 -20q28 0 49.5 22t44.5 84l31 81l-179 451h67l144 -378l141 378h65z"/>
<glyph glyph-name="thorn" horiz-adv-x="512" unicode="þ" d="M134 360v-281q46 -36 115 -36q72 0 115.5 52.5t43.5 134.5q0 80 -41 130.5t-110 50.5q-67 0 -123 -51zM134 11v-251h-62v914l62 13v-272q63 53 131 53q94 0 150.5 -66t56.5 -171q0 -107 -63.5 -175.5t-162.5 -68.5q-61 0 -112 24z"/>
<glyph glyph-name="OE" horiz-adv-x="910" unicode="Œ" d="M113 313q0 -119 72 -186.5t199 -67.5h102v507h-104q-124 0 -196.5 -64t-72.5 -189zM863 625v-59h-313v-223h261v-59h-261v-225h313v-59h-483q-152 0 -241.5 84.5t-89.5 223.5q0 148 88.5 232.5t247.5 84.5h478z"/>
<glyph glyph-name="oe" horiz-adv-x="857" unicode="œ" d="M457 106q-28 -56 -79 -87.5t-115 -31.5q-97 0 -159 66t-62 175q0 108 64.5 175.5t161.5 67.5q65 0 115 -31t76 -88q27 56 76 87.5t110 31.5q76 0 121.5 -46t45.5 -123q0 -40 -10 -73l-310 -2v-5q2 -78 45.5 -127.5t114.5 -49.5q74 0 132 38l13 -57q-65 -39 -148 -39 q-66 0 -115.5 31.5t-76.5 87.5zM104 230q0 -84 44.5 -135.5t117.5 -51.5q72 0 116.5 51.5t44.5 133.5q0 84 -44.5 135.5t-117.5 51.5q-72 0 -116.5 -51.5t-44.5 -133.5zM496 276l254 1q1 5 1 20q0 54 -29 86t-82 32q-59 0 -97.5 -39.5t-46.5 -99.5z"/>
<glyph glyph-name="Scaron" horiz-adv-x="490" unicode="Š" d="M394 862l-113 -182h-70l-113 182h47l100 -136h1l101 136h47zM239 44q65 0 106.5 34t41.5 84q0 51 -38 79t-120 52q-39 12 -66.5 23.5t-56.5 31.5t-44 50t-15 70q0 74 56.5 122t143.5 48q104 0 188 -54l-23 -56q-76 52 -164 52q-67 0 -103 -30.5t-36 -76.5 q0 -48 37.5 -73.5t120.5 -51.5q39 -12 67 -24.5t56.5 -33t43 -52t14.5 -71.5q0 -78 -59 -129t-152 -51q-109 0 -201 58l23 57q85 -58 180 -58z"/>
<glyph glyph-name="scaron" horiz-adv-x="387" unicode="š" d="M341 695l-113 -182h-70l-113 182h47l100 -136h1l101 136h47zM347 125q0 -62 -47 -100t-117 -38q-86 0 -150 41l17 57q63 -42 135 -42q43 0 73 20.5t30 56.5q0 16 -7.5 29t-15.5 20.5t-28 16.5t-29 12t-35 11q-60 18 -96.5 47t-36.5 83q0 61 44 96.5t111 35.5 q73 0 139 -34l-18 -56q-62 34 -125 34q-42 0 -67 -18.5t-25 -51.5q0 -15 7 -27.5t15 -20t26.5 -15.5t29.5 -12t35 -11q62 -18 98.5 -47.5t36.5 -86.5z"/>
<glyph glyph-name="Ydieresis" horiz-adv-x="524" unicode="Ÿ" d="M214 760q0 -21 -13.5 -35.5t-34.5 -14.5t-34 14.5t-13 35.5q0 20 13.5 34.5t33.5 14.5q21 0 34.5 -14.5t13.5 -34.5zM407 760q0 -21 -13 -35.5t-34 -14.5t-35 14.5t-14 35.5q0 20 14 34.5t35 14.5q20 0 33.5 -14.5t13.5 -34.5zM512 625l-218 -374v-251h-64v251l-218 374 h72l180 -311l177 311h71z"/>
<glyph glyph-name="circumflex" horiz-adv-x="397" unicode="ˆ" d="M348 518h-47l-100 135h-1l-101 -135h-47l113 182h70z"/>
<glyph glyph-name="tilde" horiz-adv-x="397" unicode="˜" d="M362 637q-16 -115 -89 -115q-32 0 -83 35.5t-67 35.5q-15 0 -25.5 -14t-19.5 -51h-41q16 115 89 115q32 0 84 -36t67 -36t25 14.5t19 51.5h41z"/>
<glyph glyph-name="thinspace" horiz-adv-x="76" unicode=" "/>
<glyph glyph-name="endash" horiz-adv-x="445" unicode="–" d="M415 215h-384l3 49h378z"/>
<glyph glyph-name="emdash" horiz-adv-x="915" unicode="—" d="M885 215h-854l3 49h848z"/>
<glyph glyph-name="quoteleft" horiz-adv-x="187" unicode="‘" d="M150 454q-2 -20 -16 -34.5t-38 -14.5q-28 0 -49.5 22.5t-21.5 56.5q0 92 124 172l27 -25q-88 -64 -88 -120q0 -19 14 -31.5t48 -25.5z"/>
<glyph glyph-name="quotesinglbase" horiz-adv-x="187" unicode="‚" d="M37 50q2 21 16 35.5t38 14.5q28 0 49.5 -22.5t21.5 -56.5q0 -92 -124 -172l-27 25q88 64 88 120q0 18 -14 30.5t-48 25.5z"/>
<glyph glyph-name="quotedblleft" horiz-adv-x="384" unicode="“" d="M150 454q-2 -20 -16 -34.5t-38 -14.5q-28 0 -49.5 22.5t-21.5 56.5q0 92 124 172l27 -25q-88 -64 -88 -120q0 -19 14 -31.5t48 -25.5zM347 454q-2 -20 -16.5 -34.5t-37.5 -14.5q-28 0 -49.5 22.5t-21.5 56.5q0 92 124 172l27 -25q-88 -64 -88 -120q0 -19 14 -31.5 t48 -25.5z"/>
<glyph glyph-name="quotedblright" horiz-adv-x="384" unicode="”" d="M37 608q2 21 16 35.5t38 14.5q28 0 49.5 -22.5t21.5 -56.5q0 -92 -124 -172l-27 25q88 64 88 120q0 18 -14 30.5t-48 25.5zM234 608q2 21 16 35.5t38 14.5q28 0 49.5 -22.5t21.5 -56.5q0 -92 -124 -172l-27 25q88 64 88 120q0 18 -14 30.5t-48 25.5z"/>
<glyph glyph-name="dagger" horiz-adv-x="466" unicode="†" d="M207 391h-171l-3 47h174v187h51v-187h174l-3 -47h-171v-517h-51v517z"/>
<glyph glyph-name="daggerdbl" horiz-adv-x="466" unicode="‡" d="M207 406h-171l-3 47h174v172h51v-172h174l-3 -47h-171v-314h171l3 -47h-174v-171h-51v171h-174l3 47h171v314z"/>
<glyph glyph-name="ellipsis" horiz-adv-x="566" unicode="…" d="M144 39q0 -21 -14.5 -36.5t-35.5 -15.5t-35.5 15.5t-14.5 36.5t14.5 35.5t35.5 14.5t35.5 -14.5t14.5 -35.5zM333 39q0 -21 -14 -36.5t-35 -15.5q-22 0 -36.5 15.5t-14.5 36.5t14.5 35.5t36.5 14.5q21 0 35 -14.5t14 -35.5zM523 39q0 -21 -14.5 -36.5t-35.5 -15.5 t-35.5 15.5t-14.5 36.5t14.5 35.5t35.5 14.5t35.5 -14.5t14.5 -35.5z"/>
<glyph glyph-name="perthousand" horiz-adv-x="1119" unicode="‰" d="M1058 142q0 51 -33.5 86.5t-87.5 35.5t-87.5 -35.5t-33.5 -86.5q0 -53 33 -88.5t88 -35.5t88 35.5t33 88.5zM1103 142q0 -70 -45.5 -118.5t-120.5 -48.5t-120.5 48t-45.5 119q0 69 45.5 117t120.5 48q74 0 120 -48t46 -117zM682 142q0 51 -33 86.5t-88 35.5 q-54 0 -87 -35.5t-33 -86.5q0 -53 32.5 -88.5t87.5 -35.5t88 35.5t33 88.5zM302 482q0 53 -33 88.5t-88 35.5t-87.5 -35.5t-32.5 -88.5q0 -51 33 -86.5t87 -35.5q55 0 88 35.5t33 86.5zM727 142q0 -70 -45.5 -118.5t-120.5 -48.5t-120.5 48t-45.5 119q0 69 45.5 117 t120.5 48q74 0 120 -48t46 -117zM652 639l-506 -654h-55l507 654h54zM347 482q0 -69 -45.5 -117t-120.5 -48q-74 0 -120 48t-46 117q0 70 45.5 118.5t120.5 48.5t120.5 -48t45.5 -119z"/>
<glyph glyph-name="guilsinglleft" horiz-adv-x="328" unicode="‹" d="M284 74l-8 -48l-245 175v66l245 175l8 -48l-199 -159v-2z"/>
<glyph glyph-name="guilsinglright" horiz-adv-x="328" unicode="›" d="M297 201l-246 -175l-8 48l200 159v2l-200 159l8 48l246 -175v-66z"/>
<glyph glyph-name="fraction" horiz-adv-x="578" unicode="⁄" d="M569 639l-506 -654h-55l508 654h53z"/>
<glyph glyph-name="Euro" horiz-adv-x="433" unicode="€" d="M318 359q0 44 -27.5 74t-73.5 30t-74 -30t-28 -74q0 -43 28 -73.5t74 -30.5t73.5 30.5t27.5 73.5zM396 501l-57 -57q24 -39 24 -85q0 -48 -25 -85l63 -63l-36 -36l-62 62q-37 -26 -86 -26t-86 25l-57 -57l-35 35l57 57q-26 41 -26 88q0 51 25 86l-59 59l36 36l59 -59 q37 26 86 26q52 0 88 -27l56 56z"/>
<glyph glyph-name="trademark" horiz-adv-x="908" unicode="™" d="M368 579h-146v-327h-48v327h-141v47h335v-47zM828 252h-49l-9 317h-7l-117 -312h-56l-105 312h-7l-11 -317h-46l15 374h83l99 -315h7l110 315h79z"/>
<glyph glyph-name="minus" d="M446 208h-405l3 54h399z" unicode="−"/>
<glyph glyph-name="approxequal" d="M416 210q-9 -51 -34 -77.5t-57 -26.5q-29 0 -85.5 28t-71.5 28q-40 0 -53 -51h-45q9 51 34 77.5t57 26.5q29 0 87 -28t70 -28q22 0 33.5 11t20.5 40h44zM416 358q-9 -51 -34 -77.5t-57 -26.5q-29 0 -85.5 28t-71.5 28q-40 0 -53 -51h-45q9 51 34 77.5t57 26.5 q29 0 87 -28t70 -28q22 0 33.5 11t20.5 40h44z" unicode="≈"/>
<glyph glyph-name="notequal" horiz-adv-x="446" unicode="≠" d="M141 -23l37 142h-143l4 55h153l32 121h-185l-4 55h203l35 132h47l-35 -132h128l-4 -55h-138l-32 -121h170l4 -55h-188l-37 -142h-47z"/>
<glyph glyph-name="lessequal" d="M424 9h-355l3 54h349zM423 148v-59l-361 152v68l361 152v-60l-295 -122v-9z" unicode="≤"/>
<glyph glyph-name="greaterequal" d="M417 9h-355l3 54h349zM63 89v59l295 122v9l-295 122v60l361 -152v-68z" unicode="≥"/>
</font>
</defs>
</svg>
